<svg version="1.2" xmlns="http://www.w3.org/2000/svg" viewBox="0 0 1251 1251" width="120" height="120">
	<style>
		.s0 { opacity: .95;fill: #efbf04 } 
	</style>
	<path id="Path 0" fill-rule="evenodd" class="s0" d="m101.14 106.8c2.69 5.02 8.22 19.3 12.29 31.72 4.07 12.42 9.54 32.52 12.15 44.67 2.61 12.15 6.02 23.98 7.58 26.28 1.56 2.3 5.42 6.39 8.57 9.09 3.7 3.16 8.98 5.95 14.88 7.85 5.03 1.63 10.01 3.83 11.07 4.89 1.07 1.06 1.94 3.24 1.94 4.84 0 2.58-0.86 2.79-7.74 1.93-4.5-0.56-10.77 0.05-14.99 1.45-5.49 1.83-8.72 3.9-13.26 8.51-3.3 3.35-7 8.14-8.21 10.65-1.21 2.51-2.66 6.72-3.22 9.36-0.9 4.26-0.76 4.61 1.27 3.2 1.26-0.87 4.32-2.81 6.8-4.32 2.58-1.55 5.48-2.22 6.73-1.55 1.22 0.65 4.53 5.82 7.37 11.49 4.47 8.94 6.38 11.43 14.28 18.61 7.22 6.55 10.9 8.94 17.61 11.41 4.67 1.71 13.97 3.65 20.66 4.3 6.69 0.64 21.35 1 32.57 0.79 11.23-0.21 20.94-0.95 21.58-1.63 0.65-0.69-0.37-11.06-2.24-23.05-1.88-11.99-3.59-22.21-3.79-22.73-0.21-0.51-4.48 0-9.5 1.15-5.02 1.14-12.98 1.92-17.69 1.73-4.71-0.19-10.09-1-11.96-1.8-1.86-0.8-5.02-3.07-7.03-5.06-2.1-2.08-4.9-7.27-6.6-12.26-2.15-6.28-2.87-13.78-2.63-27.35 0.17-10.29 0.01-21.88-0.36-25.76-0.67-6.86-0.6-7.04 2.68-6.56 1.86 0.27 14.16 0.6 27.33 0.72 15.5 0.15 26.33 1.1 30.68 2.7 3.69 1.36 8.46 4.21 10.59 6.34 2.13 2.13 4.74 6.05 5.8 8.71 1.07 2.66 1.87 8.46 1.78 12.9-0.08 4.44-1.17 11.62-2.41 15.96-1.25 4.34-2.05 8.11-1.79 8.38 0.27 0.26 10.72 2.01 23.22 3.87 12.5 1.86 23.27 2.83 23.92 2.15 0.65-0.67 1.09-14.39 0.97-30.47-0.15-20.31-1.04-31.98-2.91-38.16-1.48-4.9-5.19-12.73-8.23-17.41-4.1-6.3-7.19-9.7-11.97-13.18-3.54-2.58-10.07-6.49-14.51-8.7-4.44-2.21-8.5-4.89-9.04-5.96-0.53-1.06 0.24-4 1.7-6.52 1.47-2.53 3.43-5.36 4.36-6.29 0.92-0.93 1.36-2.03 0.97-2.44-0.39-0.41-3.82 0.29-7.64 1.55-4.74 1.57-9.37 4.43-14.67 9.06-7.09 6.2-7.94 7.44-10.16 14.8-1.4 4.66-1.96 11-1.33 15.11 1.03 6.71 0.91 7.09-2.25 7.09-1.83 0-3.89-0.53-4.57-1.19-0.67-0.65-2.76-5.52-4.64-10.83-2.44-6.94-5.07-11.54-9.3-16.33-3.25-3.67-7.9-7.72-10.34-9.01-2.44-1.28-10.27-3.47-17.38-4.87-7.12-1.39-19.16-4.15-26.76-6.13-7.6-1.97-20.01-5.67-27.59-8.2-7.57-2.54-17.85-6.4-22.85-8.58-5-2.19-10.18-5.06-11.51-6.39-1.44-1.45-2.97-1.87-3.79-1.05-0.87 0.87 0.43 4.76 3.51 10.52zm201.55 829.61c5.8 5.11 13.83 11.23 17.85 13.59 4.02 2.37 10.46 5.06 14.33 5.99 3.86 0.92 11.41 1.21 16.76 0.64 5.36-0.57 13.62-2.3 18.37-3.85 6.1-2 10.13-2.35 13.78-1.21l5.16 1.61c-13.53 11.56-19.6 15.82-22.22 16.92-2.62 1.11-8.04 1.78-12.06 1.48-4.02-0.29-10.16-1.92-13.64-3.61-3.49-1.7-9.53-4.91-13.42-7.13-5.22-2.99-8.2-3.78-11.37-3.02-3.6 0.85-5.96 2.84-14.44 12.16-5.58 6.13-10.45 12.14-10.82 13.36-0.53 1.73 1.69 2.06 9.98 1.48l10.67-0.75c13.54 10.75 18.61 13.54 23.63 14.99 4.09 1.18 11.82 2.16 17.17 2.17 5.36 0.01 13.71-0.78 18.57-1.75 4.85-0.98 12.64-3.61 17.32-5.86 6.66-3.2 10.69-6.26 18.71-14.18 6.69-6.61 11.97-13.01 15.29-18.55 2.8-4.66 5.35-9.82 5.67-11.46 0.54-2.71-1.63-2.89-23.66-1.95l-24.26 1.04-21.81-19.78c-12.75 2.25-16.99 2.35-17.65 1.68-0.66-0.66-1.02-6.46-0.79-12.88l0.41-11.67c-6.65 0.85-11.99 2.18-16.16 3.5-5.85 1.85-9.25 3.95-14.93 9.25-6 5.59-8.03 6.8-11.04 6.55-2.03-0.16-4.19 0.21-4.81 0.82-0.82 0.82 1.72 3.63 9.41 10.42zm622.12-637.73c0.09 3.13-1.15 5.31-5.98 10.47-4.7 5.01-6.76 8.53-8.94 15.28-1.57 4.82-3.09 10.26-3.38 12.1-0.52 3.2-0.08 3.31 11.36 2.82 8.84-0.38 12.17 0.09 12.95 1.82 0.58 1.29 0.54 5.25-0.09 8.8-0.86 4.87-0.43 7.42 1.74 10.35 1.58 2.14 6.01 7.51 9.84 11.92l6.97 8.03c-1.84 37.07-1.78 47.79-1.06 47.74 0.72-0.05 4.18-1.58 7.69-3.39 3.51-1.81 10.14-6.06 14.73-9.45 4.86-3.58 10.9-9.27 14.45-13.61 3.34-4.1 7.75-11.01 9.79-15.35 2.04-4.35 4.54-12.73 5.56-18.63 1.02-5.89 1.59-14.73 1.28-19.63-0.32-4.9-1.47-11.49-2.57-14.65-1.09-3.17-4.56-9.27-7.7-13.58-3.15-4.3-6.09-9.41-6.53-11.36-0.45-1.95-0.26-6.93 0.43-11.08 1.09-6.57 0.91-7.42-1.39-6.7-1.44 0.45-7.19 4.97-12.77 10.03-7.43 6.74-10.63 10.42-11.97 13.77-1.34 3.35-1.15 5.96 0.7 9.78 1.39 2.87 4.26 8.27 6.38 12 2.12 3.73 4.58 9.98 5.47 13.88 1.06 4.61 0.87 9.35-0.52 13.58-1.45 4.43-4.65 9.47-10.05 15.86l-7.92 9.36c-1.9-9.06-1.25-14.87 0.55-20.86 1.6-5.32 3.16-14.34 3.46-20.04 0.33-5.99-0.49-13.34-1.93-17.42-1.36-3.88-5.03-10.81-8.15-15.41-3.12-4.6-8.93-11.62-12.92-15.61-5.18-5.18-7.59-6.9-8.43-6.01-0.65 0.68-1.12 3.02-1.05 5.19zm-588.14 731.44c3.72 2.93 11.25 7.8 16.75 10.82 5.49 3.02 14.73 7.27 20.53 9.45 5.8 2.18 14.83 4.91 20.05 6.07 5.23 1.16 17.11 3.2 26.41 4.55 9.3 1.34 20.56 2.49 25.03 2.57 4.46 0.07 8.76-0.53 9.55-1.34 0.78-0.81 2.46-3.93 3.71-6.93 2.14-5.11 2.58-5.53 6.88-6.66 3.73-0.97 4.49-0.76 4 1.1-0.33 1.26-2.55 4.27-4.93 6.68-2.66 2.7-4.94 6.66-5.94 10.32-0.89 3.27-1.29 8.08-0.9 10.7 0.52 3.46 2.34 6.53 6.68 11.22 3.51 3.8 6.36 6.05 6.93 5.48 0.54-0.53 0.54-1.4 0-1.93-0.53-0.54-0.42-3.69 0.24-7.02 0.66-3.33 2.19-7.03 3.39-8.22 1.2-1.2 6.1-2.38 10.92-2.63 4.8-0.24 11.86-1.24 15.67-2.22 3.81-0.97 9.83-3.66 13.37-5.97 4.77-3.11 7.11-5.42 9-8.9 1.82-3.36 2.14-6.5 1.1-10.99-0.8-3.46-1.32-6.38-1.17-6.49 0.16-0.11 1.25 2.5 2.43 5.79 1.47 4.1 4.18 8.04 8.58 12.46 3.54 3.55 6.91 6.49 7.49 6.54 0.58 0.05 2.51-3.68 4.28-8.3 3.14-8.14 3.47-8.55 11.69-14.43 6.46-4.61 9.58-7.68 13.18-12.93 2.6-3.79 5.8-9.73 7.12-13.19 1.33-3.47 3.51-11.5 4.86-17.85 1.96-9.21 1.97-12.04 0.06-13.99-1.32-1.34-4.8-4.18-7.74-6.31-3.27-2.37-5.84-3.38-6.61-2.59-1.05 1.07-1.26 0.86-1.23-1.23 0.01-1.39-2.17-5.96-4.85-10.15-4.21-6.59-5.12-7.5-6.69-6.69-1 0.51-5.99 1.55-11.08 2.3-5.1 0.76-11.86 0.74-15.04-0.04-3.17-0.77-5.98-1.19-6.25-0.93-0.26 0.27-0.31 2.28-0.11 4.47l0.37 3.98c-19.83-11.7-23.22-12.93-28.87-12.99-4.8-0.06-9.06 1.12-13.72 3.8-3.72 2.14-11.02 6.59-16.23 9.89-6.43 4.08-10.89 5.98-13.9 5.93-3.77-0.07-4.73-0.66-6.37-3.95-1.07-2.13-2.28-3.56-2.69-3.17-0.41 0.38-0.71 2.64-0.66 5.01 0.05 2.37 0.82 5.98 1.72 8.01 0.89 2.03 4.46 6.52 7.91 9.98l6.29 6.28c-8.25 0.75-15.56 3.67-21.57 6.97-6.01 3.3-15.45 8.44-20.98 11.43-5.52 2.99-15.36 7.08-21.85 9.1-6.5 2.02-15.82 4.44-20.73 5.39-4.9 0.95-12.35 1.55-16.55 1.35-4.19-0.21-11.54-1.69-16.33-3.28-4.79-1.6-8.99-2.62-9.33-2.28-0.35 0.34 2.41 3.03 6.13 5.96zm148.15-11.57c-2.91 0.82-4.42 1.05-3.36 0.51 1.06-0.54 6.78-3.09 12.71-5.67 5.93-2.58 21.85-10.16 35.37-16.86 13.52-6.69 23.83-11.41 22.9-10.48-0.93 0.93-8.58 5.48-16.99 10.1-8.41 4.62-22.06 11.22-30.32 14.66-8.26 3.44-17.4 6.93-20.31 7.74zm513.45 62.41c0.19 5.66 1.76 14.32 3.48 19.24 1.73 4.93 5.49 12.26 8.37 16.3 4.65 6.55 6.06 7.74 12.82 10.88 5.87 2.73 7.49 3.97 7.11 5.46-0.26 1.07-1.73 4.16-3.27 6.89l-2.79 4.95c12.1-4.38 15.93-6.87 20.01-10.95 4.47-4.48 6.12-7.22 7.21-11.98 0.78-3.39 1.24-7.94 1.01-10.11-0.31-3.05 0.1-3.89 1.78-3.71 1.54 0.16 3.19 2.96 5.56 9.43 1.86 5.06 4.68 10.5 6.28 12.11 1.59 1.6 5.69 3.74 9.1 4.75 3.42 1.02 11.94 2.78 18.93 3.92 6.99 1.13 19.01 3.77 26.71 5.85 7.7 2.09 17.49 5.34 21.74 7.24 4.26 1.89 8.27 2.88 8.92 2.2 0.65-0.68 0.31-2.11-0.76-3.17-1.06-1.07-4.1-8.7-6.75-16.95-2.65-8.26-6.02-21.21-7.5-28.78-1.47-7.56-3.08-16.84-3.57-20.6-0.62-4.69-2.24-8.55-5.16-12.26-3.52-4.46-5.64-5.89-12.14-8.17-4.34-1.52-8.65-3.52-9.59-4.44-0.95-0.91-1.5-2.32-1.23-3.12 0.26-0.8 2.08-1.09 4.04-0.66 1.96 0.43 6.53-0.01 10.14-0.98 5.06-1.37 7.91-3.12 12.35-7.62 4.06-4.11 6.5-7.96 8.27-13.01l2.51-7.16c-8.06 5.43-11.22 7.06-12.23 7.12-1.2 0.06-3.3-2.93-6.11-8.72-3.12-6.43-5.82-10.15-9.99-13.74-3.15-2.71-9.23-6.2-13.52-7.76-4.3-1.56-12.54-3.11-18.32-3.45l-10.52-0.61c-3.08 11.17-4.6 17.04-5.37 20.26l-1.4 5.86c6.63 0.38 10.56 2.3 14.19 5.16 4.99 3.94 6.34 5.84 8.41 11.81 1.61 4.64 2.16 11.51 1.58 19.7-0.48 6.92-0.85 16.12-0.82 20.46l0.05 7.88c-14.45 0.66-23.01 1.24-28.33 1.73-5.32 0.48-12.62-0.05-16.22-1.19-6.35-2.01-6.7-2.31-11.9-10.25-2.95-4.5-6.08-9.43-6.96-10.94-1.33-2.31-2.82-2.47-9-0.99-4.08 0.98-9.21 1.3-11.4 0.7-2.19-0.59-4.45-0.58-5.02 0.02-0.58 0.61-0.89 5.73-0.7 11.4zm-806.48-867.78c0.41 10.33 1.25 22.55 1.86 27.16 0.96 7.2 1.83 9.09 6.18 13.47 2.79 2.8 7.09 6.11 9.57 7.36 2.47 1.25 7.14 2.64 10.37 3.09 3.23 0.45 9.05 0.08 12.94-0.82 3.89-0.9 7.61-2.19 8.26-2.86 0.66-0.68 0.43-5.7-0.51-11.16-0.94-5.46-1.48-10.14-1.2-10.39 0.28-0.25 4.75 0.52 9.93 1.71 5.18 1.19 9.97 1.63 10.65 0.97 0.67-0.65 1.95-4.38 2.85-8.27 0.89-3.9 1.34-9.36 0.99-12.15-0.34-2.79-1.69-7.49-3-10.44-1.46-3.31-4.56-7.31-8.1-10.43-4.86-4.29-7.03-5.2-14.31-6-4.72-0.52-16.65-1.36-26.52-1.86-9.87-0.51-18.57-0.3-19.33 0.46-0.76 0.76-1.04 9.83-0.63 20.16zm-65.17 92.53c1.19 5.47 3.9 15.19 6.01 21.59 2.11 6.4 6.23 16.65 9.15 22.77 2.91 6.13 8.3 15.54 11.96 20.92 3.67 5.38 9.71 12.83 13.44 16.55 3.73 3.72 9.22 8.55 12.21 10.74 5.07 3.7 6.13 3.85 15.73 2.17 5.66-0.99 10.73-1.37 11.26-0.84 0.53 0.54 1.35 0.37 1.82-0.36 0.46-0.74-2.25-6.07-6.04-11.86-3.79-5.79-6.79-10.84-6.66-11.24 0.13-0.4 3.67-1.32 7.86-2.05 6.65-1.17 8.77-2.32 16.62-9.02 4.94-4.23 10-8.63 11.24-9.79 1.23-1.16 5.29-2.11 9.01-2.11 6.45 0 7.1-0.32 13.55-6.77 3.87-3.87 6.35-7.18 5.8-7.74-0.53-0.53-4.21-2.29-8.18-3.91-3.97-1.62-11.36-4.02-16.42-5.34-5.06-1.32-14.6-2.55-21.18-2.72-6.59-0.17-16.99 0.76-23.12 2.08-6.13 1.32-14.39 2.49-18.36 2.6-3.97 0.11-9.03-0.38-11.24-1.09-2.22-0.71-6.56-2.9-9.64-4.87-4.12-2.63-8.15-6.81-15.18-15.74-5.26-6.69-10.07-12.56-10.69-13.04-0.61-0.49-0.14 3.59 1.05 9.07zm168.03-177.67c0.66 0.66 6.73 5.26 13.47 10.22 10.01 7.36 13.04 10.2 16.47 15.45 3.12 4.78 4.36 8.74 4.82 15.33 0.33 4.88-0.61 15.07-2.09 22.62-1.49 7.56-2.56 17.85-2.37 22.86 0.18 5.02 1.02 12.78 1.87 17.25 0.86 4.47 2.98 11.92 4.72 16.56 1.75 4.64 3.9 9.67 4.79 11.18 1.55 2.65 1.83 2.52 8.28-3.93 6.29-6.3 6.67-7.04 6.65-13.18-0.03-6.14 0.42-7.03 8.02-15.87 4.42-5.16 9.08-10.95 10.34-12.87 1.27-1.93 2.71-6.8 3.2-10.83l0.9-7.32c13.96 9.29 19.18 12.77 20.61 13.73 1.44 0.96 3.05 1.31 3.58 0.78 0.53-0.53 0.63-1.29 0.22-1.67-0.41-0.39-0.03-5.45 0.85-11.25 1.34-8.83 1.1-11.25-1.44-15-1.67-2.46-7.18-8.6-12.24-13.64-5.63-5.63-13.32-11.8-19.85-15.95-5.85-3.72-16.12-9.12-22.82-12-6.69-2.88-15.88-6.32-20.41-7.64-4.54-1.32-12.57-3.51-17.86-4.87-5.3-1.36-9.92-2.18-10.27-1.82-0.36 0.36-0.11 1.19 0.56 1.86zm-48.37 126.71c2.17 6.08 5.15 16.82 6.61 23.86 1.47 7.05 3.29 18.87 4.05 26.27 0.77 7.4 2.32 15.64 3.47 18.31 1.14 2.66 3.04 5.83 4.23 7.04 1.19 1.21 6.19 3.6 11.12 5.32 4.94 1.72 9.41 3.99 9.94 5.06 0.53 1.06 0.53 2.37 0 2.9-0.53 0.53-2.71 0.53-4.84 0-2.13-0.53-7.46 0.02-11.84 1.22-5.38 1.47-9.31 3.52-12.09 6.29-3.51 3.49-3.78 4.26-1.83 5.2 1.25 0.6 3.16 1.53 4.23 2.05 1.06 0.53 2.95 5.17 4.19 10.32 1.77 7.36 3.47 10.82 7.98 16.2 4.82 5.75 6.93 7.31 13.27 9.78 4.85 1.89 11.18 2.79 17.79 2.52 5.64-0.23 17-1.28 25.24-2.33 8.23-1.06 15.26-2.28 15.62-2.71 0.36-0.44 0.23-8.19-0.3-17.23-0.52-9.04-1.25-16.95-1.62-17.59-0.36-0.63-3-0.22-5.86 0.92-2.85 1.13-8.42 2.56-12.37 3.18-3.94 0.61-9.08 0.41-11.41-0.45-2.42-0.9-5.23-3.06-6.56-5.05-1.41-2.11-2.3-7.7-2.25-14.19 0.04-5.9 0.51-14.85 1.03-19.9 0.53-5.05 0.19-11.49-0.76-14.3l-1.73-5.11c10.99 1.86 18.05 1.96 22.79 1.42 4.73-0.54 12.66-1.07 17.62-1.18 4.97-0.11 10.87 0.78 13.12 1.99 3.2 1.71 4.5 3.33 5.94 7.42 1.04 2.94 1.22 8.43 0.42 12.51-0.78 4.01-2.27 9.27-3.3 11.7-1.03 2.43-1.54 4.74-1.13 5.13 0.4 0.39 8.71 1.01 18.47 1.36l17.73 0.65c2.69-20.68 3.7-32.14 3.98-38.81 0.32-7.59-0.45-14.77-2.07-19.2-1.43-3.9-4.32-8.84-6.44-10.98-2.11-2.14-5.87-4.91-8.36-6.15-2.49-1.23-7.66-2.75-11.51-3.36-3.84-0.61-7.92-2.19-9.06-3.51-1.15-1.32-2.83-3.39-3.75-4.6-1.47-1.95-2.32-1.61-7.24 2.85-4.19 3.8-5.88 6.34-6.78 10.16-0.65 2.81-0.53 7.49 0.27 10.42 0.79 2.93 0.79 5.54 0 5.8-0.8 0.27-2.11-0.17-2.91-0.96-0.79-0.8-1.82-3.47-2.28-5.94-0.46-2.47-2.04-6.76-3.51-9.55-1.47-2.78-4.58-6.42-6.9-8.09-2.91-2.08-8.52-3.45-17.89-4.37-7.5-0.73-20.18-2.64-28.17-4.23-7.98-1.59-18.6-4.25-23.59-5.91-4.99-1.67-9.72-3.68-10.52-4.48-0.8-0.79-2.06-0.83-2.82-0.08-0.75 0.75 0.41 6.32 2.58 12.41zm-87.33 184.2c0.1 14.76 1.23 27.33 3.24 35.94 1.69 7.27 5.48 18.23 8.41 24.34 4.43 9.24 6.84 12.63 14.27 20.08 4.91 4.93 8.71 9.18 8.45 9.44-0.27 0.27-3.84 0.39-7.95 0.27-5.9-0.16-8.18 0.5-10.88 3.15-1.87 1.85-4.5 5.32-5.83 7.71-1.33 2.4-2.68 5.4-3 6.68-0.48 1.96 0.32 2.38 5.08 2.66 3.11 0.18 6.21 0.86 6.88 1.51 0.68 0.66 2.27 3.64 3.53 6.63 1.37 3.26 5.19 8.39 9.49 12.76 4.36 4.44 9.73 8.58 13.66 10.53 3.65 1.81 12.16 3.82 19.55 4.63 7.2 0.77 18.71 3.37 25.56 5.75 6.86 2.39 12.72 4.17 13.04 3.95 0.31-0.22-1.37-6.69-3.74-14.38l-4.3-13.98c-16.92 0.49-24.4-0.52-29.06-2.19-4.3-1.54-8.91-3.9-10.24-5.24-1.32-1.34-3.35-4.96-4.51-8.06-1.16-3.1-2.64-10.44-3.3-16.32-0.66-5.88-2.17-16.88-3.35-24.44l-2.14-13.76c20.88 7.2 33.19 11.3 40.84 13.77 9.37 3.01 15.62 5.91 19.17 8.87 2.9 2.42 6.2 5.88 7.32 7.68 1.13 1.8 2.22 5.93 2.42 9.18 0.21 3.25-0.58 8.34-1.76 11.3-1.17 2.96-3.16 6.98-4.41 8.92l-2.26 3.54c6.36-2.63 14.16-3.11 21.43-2.76 7.26 0.35 13.54 0.32 13.95-0.07 0.4-0.4-0.93-6.68-2.95-13.96-2.03-7.29-5.73-19.04-8.23-26.12l-4.54-12.87c-23.23-24.75-30.11-32.06-30.26-32.21-0.16-0.16-1.32 2.16-2.59 5.15-1.26 3-2.63 8.53-3.03 12.3l-0.72 6.87c-4.62-7.38-9.03-12.55-12.78-16.24-3.85-3.79-11.86-9.7-18.37-13.56-9.99-5.91-13.76-9.05-28-23.27-9.05-9.04-18.67-19.22-21.38-22.63-3.1-3.89-5.29-5.83-5.9-5.22-0.53 0.53-0.9 11.18-0.81 23.67zm263.06-272.87c3.98 3.21 13.56 12.13 21.29 19.83 8.74 8.7 15.91 16.9 18.96 21.67 2.69 4.22 7.88 12.09 11.53 17.49 6.07 8.99 7.36 10.29 15.4 15.55l8.77 5.74c-9.52 0.13-13.6 0.59-15.22 1.1-1.61 0.51-4.6 1.66-6.64 2.54l-3.71 1.61c23.16 22.85 30.51 29.19 33.33 30.52 2.53 1.2 9.46 3.84 15.41 5.87 5.94 2.04 16.45 5.24 23.35 7.11 6.9 1.88 12.87 3.09 13.27 2.69 0.4-0.4 0.51-2.89 0.23-5.54-0.27-2.66-0.61-8.87-0.74-13.81-0.16-5.52 0.67-10.3 2.13-12.41 1.31-1.88 1.97-3.39 1.47-3.36-0.5 0.03-3.33 1.55-6.28 3.39-2.95 1.84-8.06 3.91-11.36 4.6-3.3 0.69-8.77 0.34-12.17-0.79-4.98-1.66-7.08-3.2-10.91-7.96-3.65-4.56-6.71-11.97-13.44-32.55-4.78-14.66-8.49-26.87-8.22-27.14 0.26-0.27 11.76 1.08 25.56 3.01 13.8 1.93 26.77 4.23 28.81 5.11 2.05 0.88 5.12 3.03 6.84 4.77 1.72 1.74 4.18 6.03 5.46 9.53 1.29 3.5 2.28 11.44 2.2 17.63l-0.14 11.27c21.36 7.11 27.77 8.95 28.02 8.67 0.25-0.27-1.29-5.47-3.44-11.54-2.14-6.08-4.51-16.52-5.27-23.22-0.75-6.69-2.59-15.74-4.07-20.11-2.33-6.87-3.87-9.12-11.42-16.63-6.36-6.35-10.01-9.1-13.52-10.18-2.65-0.81-5.46-2.13-6.26-2.93-0.8-0.79-1.45-4.06-1.45-7.25v-5.81c-6.75 2.25-10.62 4.27-12.94 5.93-2.33 1.66-5.16 4.49-6.29 6.28-1.25 1.99-1.59 6.04-0.87 10.31 0.93 5.57 0.74 6.67-0.89 5.24-1.14-0.99-5.61-5.22-9.94-9.4-4.61-4.45-10.81-9.08-14.95-11.17-3.9-1.96-12.03-5.14-18.09-7.06-6.05-1.93-15.96-4.21-22.02-5.06-6.06-0.86-19.23-1.4-29.26-1.21-10.04 0.19-18.58 0.68-19 1.09-0.41 0.42 2.5 3.38 6.48 6.58zm-221.27 212.95c0.44 1.21 5.81 7.21 11.93 13.33 6.25 6.26 14.6 13.35 19.08 16.22 4.77 3.04 10.8 5.57 15 6.28 3.86 0.66 9.3 0.64 12.08-0.04 2.77-0.68 6.84-2.49 9.03-4.02 2.19-1.54 5.02-4.37 6.28-6.3 2.28-3.5 2.27-3.52-3.45-7.85-3.16-2.39-7.19-6.38-8.95-8.87-1.76-2.49-3.33-6.58-3.49-9.09-0.15-2.5-1.22-6.87-2.38-9.71-1.15-2.84-3.18-6.25-4.51-7.58-1.33-1.33-4.5-2.53-7.04-2.68-4.1-0.23-5.98 0.84-16.99 9.75-7.68 6.2-13.61 10.12-15.62 10.33-1.77 0.18-5.15-0.19-7.5-0.82-3.45-0.93-4.12-0.73-3.47 1.05zm175.25-174.66c0.65 1.21 1.19 4.18 1.19 6.62 0 3.45-1.58 6.43-7.22 13.64-3.97 5.08-8.45 10.83-9.95 12.79-1.52 1.98-2.69 5.88-2.65 8.79 0.07 4.51 0.71 5.69 4.56 8.5 2.47 1.79 8.5 3.98 13.41 4.86 8.76 1.57 9.06 1.75 16.72 9.88l7.79 8.28c5.08-3.17 8.24-6.75 10.31-10.01 2.66-4.19 3.76-8.05 3.78-13.23 0.01-4.17-1.42-10.45-3.32-14.61-1.85-4.01-6.67-11.37-10.73-16.36-4.06-4.98-10.98-12.21-15.39-16.04-4.41-3.84-8.39-6.61-8.85-6.14-0.47 0.46-0.31 1.82 0.35 3.03zm27.06-4.64c-1.13 3.61-1.51 9.74-0.84 13.61 1.05 6.1 2.25 8.21 9.03 15.95 5 5.7 8.5 10.95 9.73 14.56 1.05 3.11 1.73 8.3 1.51 11.54-0.21 3.25-1.7 8.07-3.29 10.73-2.15 3.59-4.7 5.92-9.84 9.02-3.82 2.3-7.87 4.57-9 5.04-1.42 0.59-1.47 1.92-0.15 4.36 1.05 1.93 2.4 7.2 3.02 11.72 0.61 4.52 0.55 14.61-0.14 22.43-0.69 7.83-1.82 16.51-2.5 19.29-0.68 2.79-1.03 5.29-0.78 5.57 0.26 0.27 4.29-1.36 8.96-3.64 4.67-2.28 11.91-7.04 16.08-10.58 5.2-4.4 9.39-9.22 13.28-15.25 3.13-4.85 7.27-13.34 9.2-18.85 1.94-5.52 4.4-16.11 5.48-23.55 1.17-8.06 1.31-17.07 0.35-22.32-0.88-4.85-2.87-11.47-4.41-14.72-1.54-3.25-7.27-11.02-12.72-17.27-7-8.01-10.15-12.56-10.69-15.43-0.42-2.24-0.13-7.12 0.63-10.84 0.77-3.73 1.65-7.38 1.97-8.13 0.31-0.75-1.03-1.22-2.98-1.05-1.95 0.18-5.57 1.13-8.04 2.12-2.47 0.99-6.14 3.44-8.15 5.46-2.02 2.01-4.59 6.62-5.71 10.23zm-219.64 223.06c-1.2 3.43-1.74 6.59-1.21 7.01 0.53 0.42 4.46 0.13 8.74-0.64 5.8-1.05 8.82-0.74 11.86 1.2 2.25 1.43 5.39 3.91 6.99 5.5 1.6 1.59 6.6 5.3 11.11 8.24 4.51 2.94 12.09 6.68 16.84 8.31 5.44 1.87 13.07 2.87 20.61 2.7 6.59-0.14 17.27-1.48 23.76-2.98 6.48-1.5 16.22-4.82 21.65-7.37 8.12-3.83 11.58-6.34 19.6-14.26 7.96-7.85 10.58-11.33 14.36-19.07 2.55-5.2 4.37-9.64 4.06-9.85-0.32-0.22-5.8 0.47-12.17 1.52-6.38 1.06-18.03 1.83-25.89 1.7-7.85-0.12-16.55-1.24-19.32-2.49-3.64-1.63-5.27-1.68-5.86-0.18-0.45 1.15-2.63 5.06-4.85 8.69-2.82 4.62-5.47 7.51-8.8 9.58-2.62 1.64-6.67 3.25-9 3.58-2.33 0.33-7.38-0.09-11.21-0.94-5.57-1.23-8.55-2.91-14.72-8.32-4.25-3.73-8.9-7.56-10.34-8.52-1.43-0.96-5.6-1.91-9.25-2.11-3.66-0.2-8.45 0.23-10.64 0.96-2.2 0.74-6.28 3.62-9.07 6.41-3.18 3.19-5.89 7.41-7.25 11.33zm126.93-94.27c0.21 15.09 0.26 15.29 5.2 19.95 3.89 3.68 6.22 4.79 10.67 5.08 3.13 0.21 7.49-0.23 9.68-0.96 3.75-1.27 3.97-1.69 3.79-7.44l-0.19-6.1c7.04 1.21 9.74 0.9 10.53 0.11 0.8-0.8 2.11-3.41 2.91-5.81 0.92-2.76 0.56-6.65-0.97-10.64-1.65-4.29-3.61-7.09-6.18-8.82-2.57-1.73-8.44-2.58-18.64-2.68-8.19-0.09-15.37 0.34-15.95 0.95-0.58 0.61-0.96 7.97-0.85 16.36zm35.94 37.84c0.52 9.04 1.36 20.1 1.87 24.59 0.51 4.49 1.8 9.03 2.87 10.09 1.07 1.06 5.21 2.57 9.21 3.37 3.99 0.79 8.01 2.21 8.93 3.16 1.46 1.51 0.57 2.1-7.28 4.86-5.61 1.97-10.49 4.68-13.06 7.26-3.14 3.13-4.21 5.51-4.51 10-0.22 3.24 0.48 8.42 1.55 11.51 1.06 3.1 2.76 7.19 3.78 9.1l1.84 3.48c7.24-7.95 10.74-10.28 14.49-11.54 3.16-1.05 10.9-1.42 17.21-0.82 6.31 0.61 16.55 2.11 22.76 3.33 6.21 1.23 17.84 4.39 25.86 7.03 8.02 2.64 18.38 6.9 23.02 9.47 4.67 2.59 8.96 4.12 9.61 3.44 0.66-0.68 0.32-2.1-0.74-3.17-1.07-1.06-4.21-6.85-6.98-12.85-2.78-6.01-6.62-16.31-8.55-22.89-1.93-6.59-4.61-18.59-5.96-26.68-1.34-8.09-2.33-18.52-2.19-23.16 0.14-4.77 1.48-10.6 3.06-13.39 1.54-2.71 4.39-5.9 6.33-7.09 3.43-2.1 3.42-2.22-0.08-4.35-1.99-1.21-6.56-3.17-10.16-4.36-3.6-1.19-9.03-1.65-12.08-1.03-3.17 0.64-6.96 2.57-8.89 4.53-1.84 1.88-4.77 7.44-6.5 12.36-1.73 4.93-3.36 9.17-3.63 9.44-0.26 0.26-1.19-0.76-2.07-2.28-0.87-1.52-2.4-6.1-3.38-10.16-1.79-7.34-1.84-7.41-6.83-9.03-2.76-0.9-14.51-2.21-26.11-2.91-12.38-0.74-21.77-0.53-22.72 0.5-0.89 0.97-1.19 9.16-0.67 18.19zm-137.08 151.83c1.47 6.78 3.49 16.73 4.49 22.11 1.41 7.59 2.7 10.65 5.74 13.61 2.15 2.1 6.45 4.77 9.55 5.92 3.1 1.16 8.2 2.37 11.35 2.69 3.95 0.39 6.52-0.25 8.35-2.1 1.46-1.47 2.8-3.47 2.98-4.43 0.18-0.96-0.22-2.94-0.88-4.41-1.13-2.5-0.95-2.58 2.83-1.38 3.5 1.11 4.62 0.7 8.39-3.07 3.65-3.65 4.27-5.21 3.87-9.67-0.27-2.93-1.84-7.23-3.5-9.56-1.66-2.34-5.2-5.97-7.88-8.09-2.67-2.11-8.43-5.06-12.79-6.55-4.37-1.49-13.77-4.05-20.91-5.7-7.13-1.65-13.26-2.71-13.61-2.35-0.35 0.36 0.56 6.2 2.02 12.98zm298.36-300.3c1.28 5.91 3.82 15.33 5.67 20.94 1.9 5.81 5.34 12.77 7.99 16.19 3.4 4.37 6.19 6.68 10.32 8.54 3.11 1.41 7.3 2.24 9.3 1.85 2-0.4 5.26-2.36 7.25-4.36 2.79-2.8 3.44-4.59 2.85-7.79l-0.78-4.16c5.52 2.12 7.47 1.6 10.09-0.6 2.82-2.35 3.55-3.98 3.16-7.02-0.28-2.18-1.5-7.1-2.72-10.94-1.43-4.51-3.83-8.61-6.79-11.59-4.11-4.14-6.17-4.88-20.35-7.3-8.68-1.47-18.27-3.43-21.31-4.34-3.04-0.91-5.85-1.32-6.26-0.91-0.4 0.41 0.31 5.58 1.58 11.49zm-336.18 378.75c1.46 2.53 6.13 10.26 10.38 17.18 4.25 6.93 11.89 18.44 16.99 25.58 5.44 7.63 15.45 19.44 24.26 28.65l15 15.67c13.38-6.12 17.58-8.23 17.96-8.64 0.39-0.41-5.22-7.77-12.47-16.34l-13.18-15.6c8.15-3.85 15.15-6.39 20.81-8.13 5.67-1.74 14.49-3.36 19.61-3.61 5.18-0.25 12 0.64 15.4 2.01l6.11 2.45c-3.3-8.1-6.2-11.64-11.11-15.98-5.43-4.8-9.16-6.94-15.25-8.75-4.88-1.45-12.69-2.06-19.75-1.54-6.42 0.47-17.92 1.01-25.55 1.19-9.91 0.24-16.78-0.62-24.05-3.03-8.78-2.91-11.21-4.37-17.82-10.71-5.27-5.06-8.01-6.98-8.83-6.17-0.65 0.65 0.02 3.25 1.49 5.77zm426.43-418.77c5.41 6.18 7.79 10.19 10.28 17.37 2.44 7.03 3.14 13.49 2.84 26.17-0.21 9.26-0.58 21.81-0.8 27.89-0.24 6.49 0.66 13.97 2.17 18.14 1.42 3.9 4.31 9.29 6.42 11.97 2.1 2.68 6.61 6.66 10.01 8.85 3.39 2.19 6.51 3.66 6.92 3.28 0.41-0.39-0.24-2.35-1.45-4.35-1.21-2.01-2.23-8.25-2.26-13.87-0.03-5.62 1.29-14.96 2.94-20.76 1.65-5.79 4.22-13.24 5.7-16.54l2.7-6.01c8.81 6.69 15.34 12.06 20.19 16.25 4.86 4.19 9.68 7.87 10.71 8.2 1.46 0.45 2.79-1.32 5.95-7.92l4.07-8.51c-26.48-25.98-35.51-33.66-45.37-40.65-7.79-5.51-21.19-14.25-29.78-19.43-8.59-5.17-16.22-9.11-16.95-8.75-0.8 0.38 1.49 3.86 5.71 8.67zm-299.99 302c5.52 4.82 6.08 5.88 7.87 14.86 1.06 5.32 2.99 16.46 4.28 24.74 1.29 8.29 3.83 18.37 5.65 22.41 1.81 4.04 5.47 9.67 8.13 12.51 2.66 2.84 5.42 5.09 6.12 5 0.71-0.09 1.98-6.22 2.83-13.62 0.85-7.4 2.43-17.36 3.52-22.12 1.55-6.78 2.6-8.88 4.83-9.68 1.57-0.56 7.73-0.49 13.69 0.15 5.96 0.64 11.05 0.94 11.31 0.67 0.27-0.27 0.44-1.99 0.38-3.84-0.05-1.84-1.98-5.81-4.29-8.83-2.3-3.01-7.27-7.62-11.04-10.24-3.8-2.64-13.27-6.94-21.29-9.65-7.95-2.7-19.49-5.73-25.64-6.74-6.15-1.01-11.43-1.61-11.73-1.33-0.3 0.29 2.12 2.85 5.38 5.71zm177.87-178.84c0.73 4.86 2.57 13.69 4.1 19.61 1.53 5.91 4.74 14.89 7.14 19.94 3.23 6.8 6.36 11.19 12.08 16.94 5.3 5.35 8.84 7.99 11.34 8.49 2 0.39 4.19 0.18 4.86-0.48 0.67-0.66 0.75-3.13 0.17-5.5-0.58-2.36-1.01-8.25-0.96-13.08l0.08-8.79c7.48-2.22 17.66-4 27.44-5.39 9.78-1.39 17.9-3.2 18.04-4.03 0.14-0.82-2.35-3.67-5.54-6.34-3.23-2.69-9.89-6.33-15-8.21-5.06-1.86-16.99-4.51-26.51-5.89-9.53-1.39-20.1-3.44-23.48-4.58-4.78-1.6-7.07-3.22-10.19-7.23-2.21-2.84-4.21-4.97-4.45-4.73-0.24 0.23 0.16 4.41 0.88 9.27zm-211.38 278.13c2.54 5.7 7.55 14.84 11.13 20.31 3.58 5.46 10.32 13.79 14.97 18.51 7.61 7.72 8.82 8.53 12.22 8.09 2.07-0.27 5.42 0.25 7.44 1.16 3.26 1.45 3.46 1.86 1.75 3.57-1.07 1.07-3.93 2.77-6.37 3.79-2.44 1.03-7.57 2.02-11.4 2.21-3.83 0.2-6.91 1.03-6.85 1.86 0.07 0.83 5.66 6.99 12.42 13.7 10.43 10.33 13.28 12.54 18.7 14.5 3.52 1.27 9.37 2.16 13.01 1.99 3.63-0.18 10.52-1.63 15.31-3.22 4.79-1.6 9.36-3.56 10.16-4.36 0.79-0.79 0.99-1.64 0.43-1.88-0.56-0.24-3.55-1.38-6.65-2.54-4.75-1.78-7.21-3.85-15.75-13.27-5.83-6.43-12.53-15.31-15.8-20.96-3.13-5.38-7-13.9-8.6-18.91l-2.91-9.13c35.43-0.55 49.14-0.14 53.32 0.56 4.19 0.7 10.18 2.63 13.31 4.28 3.14 1.66 7.74 4.45 10.23 6.22l4.52 3.21c-2.52-7.96-5.5-14.78-8.25-20.28-3.37-6.75-7.11-12.13-11.5-16.55-5.3-5.33-8.13-7.1-15.18-9.48-4.77-1.62-11.13-2.95-14.12-2.96l-5.44-0.01c-0.2 15.4-0.71 20.33-1.27 20.89-0.55 0.55-2.75-0.73-4.88-2.86-2.13-2.13-7.49-5.68-11.92-7.9-4.44-2.22-11.25-4.76-15.16-5.65-3.9-0.89-10.94-1.46-15.64-1.28-4.7 0.17-11.93 1.08-16.06 2-4.13 0.92-8.02 2.2-8.65 2.85-0.63 0.64 0.94 5.83 3.48 11.54zm301.52-311.49c-1.02 3.76-2.2 9.99-2.6 13.84-0.4 3.85 0.19 11.68 1.31 17.39 1.13 5.71 4.02 14.07 6.44 18.57 2.41 4.5 5.81 9.59 7.55 11.31 1.74 1.72 2.86 3.46 2.48 3.88-0.38 0.42-5.33 0.79-10.99 0.83l-10.3 0.08c0.84 11.15 2.1 17.29 3.34 20.83 1.25 3.55 4.69 9.25 7.66 12.66 3.88 4.47 8.05 7.65 14.82 11.3 5.18 2.8 12.73 6.14 16.76 7.42l7.34 2.33c-7.02-9.46-10.39-16.11-12.01-20.87-2.21-6.48-2.96-15.21-2.99-34.73l-0.04-26.08c12.33 4.16 19.12 6.95 23.04 8.87 3.93 1.93 12.62 7.61 19.32 12.61 6.75 5.05 13.84 11.31 15.92 14.06 2.06 2.73 4.52 7.46 5.46 10.51 1.71 5.53 1.72 5.54 3.65 3.6 1.06-1.06 3.1-5.77 4.53-10.46 1.43-4.69 2.66-11.36 2.74-14.83 0.08-3.47-0.68-8.97-1.69-12.21-1.51-4.87-3.9-8.09-13.58-18.35-6.46-6.84-12.8-12.68-14.1-12.98-1.98-0.46-2.36 0.33-2.4 4.95-0.02 3.02-0.83 7.97-1.8 10.99-0.96 3.02-2.63 6.37-3.69 7.43-1.6 1.6-2.31 1.38-4.06-1.26-1.17-1.76-1.82-5.03-1.45-7.26 0.61-3.68 0.01-4.72-6.58-11.31-3.99-3.99-12.62-10.81-19.18-15.17-6.55-4.35-16.35-9.79-21.76-12.09-5.42-2.3-10.17-3.85-10.56-3.44-0.39 0.4-1.55 3.82-2.58 7.58zm-200.6 209.6c0.12 0.14 3.7 1.57 7.95 3.17 4.26 1.6 12.18 5.43 17.6 8.52 8.18 4.65 12.43 8.18 24.87 20.6 13.62 13.6 15.56 16.03 21.05 26.35 3.32 6.25 7.7 16.65 9.72 23.12 2.02 6.46 4.26 16.42 4.96 22.12 1.13 9.07 1.61 10.27 3.8 9.6 1.38-0.42 5.77-4.47 9.74-9.01 3.97-4.54 8.15-10.59 9.28-13.45 1.13-2.86 2.28-4.98 2.54-4.71 0.27 0.26-0.84 4.16-2.45 8.66-2.46 6.83-4.46 9.79-12.1 17.9l-9.15 9.71c1.92 23.65 2.45 30.5 2.43 30.48-0.03-0.03-0.87-1.16-1.88-2.53-1.01-1.36-4.93-4.61-8.71-7.21-4.01-2.77-10.58-5.65-15.8-6.94-4.91-1.2-9.79-3.06-10.86-4.13-1.27-1.26-1.32-4.15-0.14-8.36 0.99-3.54 1.64-8.11 1.45-10.16-0.19-2.05-0.99-3.94-1.79-4.21-0.8-0.27-4.88 1.97-9.06 4.97-5.82 4.18-8.34 6.76-10.75 11.01-1.74 3.05-3.14 7.81-3.11 10.58 0.02 2.76 1.42 8 3.1 11.63 1.69 3.64 3.16 7.83 3.27 9.31 0.18 2.35-0.84 2.75-7.76 3.06-4.38 0.2-9.95 1.2-12.39 2.23-2.43 1.02-6.48 3.94-9 6.47-3.31 3.32-5.19 6.83-6.77 12.57-1.3 4.76-1.63 10.68-0.8 14.68 1.22 5.94 2.28 7.59 9.21 14.48 6.18 6.14 9.16 8.2 14.1 9.74 3.44 1.08 6.59 1.65 7 1.26 0.41-0.39-1.19-2.06-3.56-3.7-2.37-1.64-4.95-4.51-5.75-6.38-0.79-1.86-1.25-4.22-1.02-5.24 0.24-1.01 1.62-3.05 3.07-4.52 1.46-1.47 4.83-3.54 7.49-4.61 2.66-1.06 7.16-1.87 10.01-1.79 2.85 0.08 8.95 1.38 13.55 2.9 4.59 1.52 13.26 5.47 19.26 8.79 5.99 3.31 11.87 7.01 13.06 8.22 1.18 1.21 2.5 1.89 2.92 1.51 0.42-0.37 0.42-7.77 0-16.44l-0.77-15.76c-10.92-6.32-14.11-8.57-14.13-9.08-0.02-0.51 2.93 0.67 6.57 2.62 6.23 3.36 6.66 3.38 7.67 0.28 0.59-1.81 1.46-5.29 1.93-7.74 0.48-2.45 1.18-4.13 1.57-3.72 0.39 0.42 0.71 2.7 0.72 5.08 0.01 2.38 0.72 4.29 1.56 4.24 0.85-0.05 7.28-5.37 14.29-11.83l12.74-11.74c-9.77 13.47-15.96 20.77-20.07 24.91l-7.46 7.53c3.75 34.38 5.37 44.92 6.01 45.61 0.65 0.68 3.56 1.68 6.48 2.23 2.91 0.54 8.67 2.4 12.79 4.13 4.13 1.73 8.92 4.55 10.66 6.27 3.08 3.03 3.29 3 7.27-1.01 2.26-2.26 5.64-5.19 7.52-6.5 3.17-2.2 3.27-3.12 1.38-12.16-1.12-5.39-1.85-15.78-1.62-23.1 0.23-7.32 1.95-18.66 3.82-25.19 1.88-6.54 4.41-16.9 5.63-23.04 1.22-6.13 1.97-14.38 1.66-18.33-0.3-3.95-1.35-9.65-2.33-12.66-0.98-3.02-1.29-6.08-0.68-6.81 0.6-0.72 1.69-1.81 2.41-2.41 0.73-0.61 0.89-1.53 0.36-2.07-0.53-0.53-3.58-0.96-6.77-0.96-3.19 0-8.14 1.36-10.99 3.04-2.85 1.67-6.98 5.37-9.19 8.22-2.45 3.17-4.38 4.81-4.97 4.21-0.53-0.53 0.49-4.07 2.28-7.87 1.79-3.8 4.57-9.41 6.19-12.47 1.61-3.06 3.15-8.49 3.42-12.06 0.26-3.57-0.49-9.78-1.68-13.8-1.19-4.02-4.29-10.4-6.9-14.18-2.61-3.77-5.08-8.92-5.48-11.45-0.4-2.52-0.95-4.8-1.22-5.07-0.26-0.26-2.44 0.17-4.83 0.97-2.4 0.8-6.2 3.31-8.45 5.58-2.58 2.61-4.72 6.54-5.8 10.64-0.94 3.58-2.05 6.19-2.46 5.8-0.41-0.39-0.73-3.53-0.71-6.99 0.02-3.46 0.81-7.08 1.76-8.05 0.94-0.96 1.74-3.73 1.77-6.15 0.03-3.15-1.41-6.26-5.05-10.92-3.08-3.94-8.03-8.54-12.53-11.65-4.09-2.83-11.77-7.33-17.07-10.01-5.31-2.67-16.75-7.33-25.44-10.35-8.68-3.02-21.08-6.12-27.54-6.89-6.46-0.77-12.06-1.05-12.43-0.63-0.38 0.42-0.58 0.89-0.47 1.04zm106.79-101.21c0.19 3.39 0.95 9.48 1.69 13.53 0.74 4.04 3.2 12.9 5.46 19.69 2.26 6.79 7.15 18.44 10.86 25.9 5.03 10.09 8.87 15.9 15 22.72 5.97 6.65 9.56 9.72 13.03 11.16 3.79 1.57 5.88 1.39 10.03-0.84 3.21-1.74 7.41-2.56 10.84-2.14 3.08 0.38 5.59 0.93 5.58 1.22-0.01 0.3-3.07 1.41-6.8 2.47-4.3 1.23-8.38 3.5-11.18 6.23-2.88 2.81-4.61 5.78-4.99 8.56l-0.58 4.25c8.33 1.85 13.73 4.41 17.37 6.89 3.63 2.49 9.08 5.31 12.09 6.29 3.01 0.98 8.76 1.71 12.76 1.64 5.17-0.1 10.9-1.84 19.79-6.01 6.88-3.23 13.11-5.49 13.84-5.02 0.92 0.58-0.27 2.07-3.87 4.83-3.26 2.48-6.18 5.92-7.79 9.14-1.41 2.84-2.77 7.36-3.01 10.05-0.24 2.68 0.21 5.53 1.01 6.33 0.81 0.81 2.06 0.62 2.85-0.43 0.89-1.21 4.56-1.24 10.25-0.1 4.87 0.98 13.43 1.57 19 1.31 5.58-0.26 14.34-1.61 19.47-3.02 5.13-1.4 13.55-3.73 18.71-5.17 5.17-1.44 15.09-2.65 22.04-2.69 6.96-0.05 16.94 0.73 22.18 1.73 7.64 1.45 9.8 1.31 10.89-0.7 0.74-1.38 3.63-4.81 6.42-7.61l5.07-5.09c-6-5.99-8.7-10.04-9.87-12.87-1.16-2.82-2.91-8.48-3.87-12.57-1.1-4.7-2.49-7.59-3.77-7.84-1.11-0.22-11.56-1.52-23.21-2.9l-21.19-2.51c-11.25 11.25-18.37 17.4-23.08 20.94-4.71 3.53-9.76 6.98-11.21 7.65-1.46 0.67 1.47-2.49 6.51-7.03 5.04-4.54 11.39-11.03 14.12-14.42 2.72-3.4 4.52-6.61 3.98-7.14-0.53-0.53-12.41-1.93-26.4-3.1l-25.43-2.14c-17.42 15.5-22.98 19.42-27.14 21.06-3.43 1.36-6.93 2.33-7.77 2.16-0.85-0.18 1.45-1.8 5.09-3.62 3.75-1.87 9.68-6.33 13.67-10.28 3.87-3.84 6.82-7.64 6.56-8.43-0.27-0.8-5.66-2.16-11.98-3.02-6.32-0.86-16.55-3.26-22.73-5.32-6.18-2.07-15.53-6.21-20.78-9.21-5.24-3-13.36-8.59-18.04-12.42-4.68-3.84-12.03-11.29-16.33-16.57-4.29-5.28-9.93-13.13-12.53-17.45-2.6-4.32-6.08-11.29-7.73-15.49-1.65-4.2-3.51-7.89-4.12-8.21-0.61-0.31-0.95 2.21-0.76 5.61zm-289.41 308.7c0.21 7.66 1.29 19.98 2.4 27.39 1.11 7.4 3.68 18.76 5.72 25.23 2.04 6.47 5.87 16.14 8.51 21.48 2.64 5.33 7.57 13.03 10.96 17.09 3.39 4.06 8.31 8.72 10.94 10.34 2.63 1.63 5.87 4.48 7.21 6.34l2.42 3.37c-15.27-0.2-16.6 0.26-20.74 4.35-2.74 2.71-5.72 7.44-7.32 11.62-1.48 3.88-2.35 7.36-1.93 7.74 0.42 0.38 2.07 0.25 3.66-0.28 1.6-0.53 4.86-0.31 7.26 0.49 3.87 1.29 4.67 2.09 7.25 7.25 1.6 3.19 5.62 8.53 8.93 11.87 3.31 3.34 9.7 8.05 14.19 10.48 6.9 3.72 10.59 4.52 23.86 5.16 8.63 0.41 19.7 1.53 24.6 2.48 4.91 0.94 11.7 2.64 15.1 3.76 3.4 1.12 6.51 1.72 6.92 1.32 0.4-0.4-2.09-7.46-5.54-15.69l-6.26-14.97c-9.42 1.83-15.81 2.32-20.27 2.26-4.47-0.05-11.32-1.25-15.23-2.67-3.91-1.41-8.4-3.88-9.99-5.48-1.59-1.6-3.84-5.45-4.99-8.56-1.15-3.1-3.74-13.29-5.76-22.64-2.01-9.36-4.57-20.96-5.68-25.8-1.11-4.83-1.68-9.1-1.27-9.49 0.4-0.39 4.57 0.3 9.26 1.53 4.69 1.23 15.05 3.71 23.02 5.51 7.97 1.81 19.06 4.82 24.64 6.69 5.57 1.87 12.15 4.87 14.6 6.68 3.45 2.54 5.13 5.11 7.46 11.39 2.34 6.31 2.64 9.79 1.34 15.63-0.93 4.13-2.83 9.3-4.24 11.49-1.4 2.18-2.39 4.46-2.19 5.06 0.2 0.6 1.67-0.22 3.27-1.81 2.32-2.33 6.13-2.96 19.12-3.16 8.92-0.14 16.18-0.66 16.14-1.15-0.04-0.49-2.92-8.93-6.39-18.76-3.48-9.82-9.23-23.66-12.79-30.74l-6.48-12.87c-16.08-12.41-23.46-18.74-26.78-22.07-4.18-4.18-6.42-5.69-7.28-4.87-0.68 0.65-1.85 4.05-2.6 7.55-0.75 3.51-1.17 9.18-0.94 12.61l0.43 6.22c-22.86-22.78-24.78-24.18-37.87-30.8-7.78-3.93-17.7-9.68-22.05-12.78-4.35-3.1-16.26-13.3-26.46-22.67l-18.55-17.05zm507.6-481.93c10.34 11.08 21 23.6 23.7 27.83 2.69 4.22 7.79 13.49 11.32 20.59 5.86 11.79 7.41 13.9 17.61 23.99l11.18 11.06c-8.25-0.54-13.84 0.03-17.74 0.91-3.9 0.89-7.62 2.17-8.28 2.84-0.86 0.88 1.98 4.73 10.07 13.66 6.19 6.84 13.65 14.83 16.58 17.76 3.56 3.56 9.05 7.03 16.58 10.51 6.19 2.85 19.09 8.05 28.67 11.54 9.58 3.49 17.85 5.91 18.38 5.38 0.53-0.54 0.64-4.35 0.25-8.46-0.39-4.11-0.3-11.2 0.21-15.75 0.57-5.11 1.95-9.27 3.6-10.91 1.58-1.56 1.95-2.58 0.89-2.49-0.98 0.08-4.15 1.48-7.03 3.12-3.08 1.75-8.76 3.11-13.77 3.29-5.91 0.22-10.37-0.68-14.51-2.9-5.23-2.81-6.46-4.06-9.85-9.98-2.13-3.73-4.57-8.9-5.43-11.5-0.86-2.6-2.6-10-3.87-16.44-1.27-6.45-4.05-17.82-6.18-25.26-2.12-7.45-3.43-13.98-2.9-14.51 0.53-0.54 5.25 0.04 10.48 1.28 5.22 1.24 18.19 4.16 28.8 6.5 10.62 2.34 21.09 5.51 23.26 7.06 2.18 1.55 5.22 4.61 6.75 6.8 1.53 2.19 3.54 7.8 4.47 12.45 0.93 4.66 1.12 13.18 0.42 18.93-0.82 6.73-0.59 10.82 0.64 11.45 1.06 0.54 7.24 3.06 13.74 5.61 6.49 2.55 12.59 4.72 13.55 4.83 1.02 0.12 1.03-1.87 0.01-4.85-0.95-2.78-2.59-9.4-3.65-14.73-1.06-5.32-2.03-15.66-2.16-22.99-0.15-8.32-1.41-16.49-3.36-21.79-2.24-6.06-5.08-10.67-9.95-16.17-3.95-4.46-10.1-9.87-14.66-12.87l-7.84-5.17c-0.06-9.76-0.26-12.83-0.5-13.12-0.24-0.3-3.6 0.67-7.48 2.16-3.93 1.5-8.98 4.62-11.41 7.05-3.81 3.81-4.33 5.27-4.15 11.8 0.11 4.1-0.11 7.8-0.49 8.23-0.37 0.42-5.33-4.38-11.01-10.67-8.7-9.64-11.86-12.34-20.1-17.14-5.37-3.14-14.95-7.49-21.29-9.67-6.33-2.17-16.96-5.04-23.61-6.37-6.65-1.34-18.73-2.75-26.85-3.14-8.12-0.39-16.37-0.53-18.33-0.3-3.56 0.4-3.55 0.42 15.24 20.55zm-345 329.3c0.14 6.25 1.21 11.44 2.9 14.02 1.87 2.85 4.11 4.57 7.38 5.68 2.58 0.87 9.05 5.29 14.37 9.81l9.67 8.23c8.73-7.77 12.34-11.99 13.66-14.4 2.25-4.1 2.12-4.74-2.01-10.22-2.42-3.21-7.46-8.88-11.19-12.6-4.72-4.7-8.71-7.48-13.11-9.14-3.47-1.31-9.56-2.42-13.53-2.46-3.97-0.03-7.48 0.21-7.79 0.54-0.32 0.33-0.48 5.07-0.35 10.54zm176.29-177.27c0.38 5.54 1.95 11.03 4.41 15.43 2.87 5.12 6.26 8.95 13.62 15.39 7.13 6.24 10.63 8.54 12.84 8.45 2.18-0.1 5.25-2.36 10.86-7.97l7.83-7.82c-13.49-15-17.84-20.87-18.38-22.74-0.53-1.86-2.17-4.57-3.64-6.02-1.48-1.45-5.45-3.36-8.83-4.23-3.38-0.88-8.92-1.22-12.31-0.75-3.39 0.47-6.35 1.03-6.58 1.25-0.22 0.23-0.14 4.28 0.18 9.01zm-150.71 152.9c-0.93 1.64-1.45 4.9-1.15 7.24 0.47 3.71 2.36 6.11 15.03 19.06 13.04 13.32 14.51 15.21 14.64 18.83 0.09 2.21-1.14 6.2-2.74 8.87-1.73 2.91-5.43 6.75-9.25 9.63-5.33 4.01-6.12 5.02-4.86 6.19 0.83 0.77 2.25 5.23 3.16 9.9 0.91 4.68 1.92 8.56 2.26 8.62 0.33 0.07 3.92-2.22 7.97-5.08 4.05-2.86 10.31-8.14 13.91-11.73 3.59-3.59 7.37-8.52 8.39-10.96 1.02-2.43 1.69-6.8 1.49-9.71-0.2-2.9-1.98-8.89-3.95-13.3-2.52-5.65-6.9-11.89-14.75-21.04-6.15-7.16-13.16-15.81-15.59-19.23-2.43-3.43-4.57-6.18-4.75-6.13-0.18 0.06-2.08 1.4-4.22 2.98-2.15 1.58-4.66 4.21-5.59 5.86zm130.87-131.12c-2.51 3.28-2.5 3.3 2.79 7.02 2.93 2.06 11.13 8.81 18.23 15 7.81 6.82 16.3 13.06 21.46 15.79 4.7 2.48 11.12 4.69 14.27 4.92 3.15 0.22 7.72-0.43 10.16-1.45 2.43-1.02 7.36-4.8 10.95-8.4 3.59-3.59 8.89-9.82 11.78-13.85 2.9-4.02 5.3-7.71 5.34-8.2 0.05-0.49-2.72-1.36-6.15-1.93-3.43-0.58-8.06-1.72-10.28-2.54-3.94-1.46-4.18-1.34-8.71 4.47-2.61 3.34-6.94 7.34-9.81 9.06-3.38 2.03-6.61 2.77-9.45 2.16-3.61-0.77-6.63-3.25-18.6-15.21-13.97-13.98-14.39-14.29-19.03-14.2-2.61 0.06-6.02 0.99-7.59 2.09-1.56 1.09-3.98 3.46-5.36 5.27zm-250.29 286.08c8.51 7.85 15.47 13.32 19.25 15.09 3.25 1.54 9.53 3.09 13.95 3.46 4.43 0.37 13.08-0.33 19.23-1.55 6.22-1.23 13.01-1.57 15.27-0.76l4.08 1.46c-9.15 6.91-13.74 10.03-16.11 11.38-2.37 1.35-6.4 2.77-8.96 3.14-2.55 0.37-7.1-0.13-10.1-1.11-3.01-0.98-9.41-4.38-14.22-7.55-4.81-3.17-9.63-6.18-10.71-6.7-1.08-0.51-3.75-0.3-5.93 0.47-2.18 0.77-5.94 2.9-8.36 4.74-2.42 1.83-7.16 6.67-10.54 10.74l-6.13 7.41c19.68 0.26 20.1 0.42 27.83 6.86 6.04 5.03 10 7.2 16.75 9.16 4.97 1.45 14.13 2.38 20.96 2.13 6.91-0.26 15.76-1.81 20.57-3.62 4.64-1.75 12.28-6.07 16.99-9.61 4.7-3.54 10.17-8.53 12.14-11.08 1.97-2.55 5.57-7.67 8-11.38 2.43-3.72 4.08-7.07 3.67-7.46-0.41-0.38-10.21-1.03-21.78-1.44l-21.02-0.74-18.89-18.84c-9.74 0.75-13.14 0.45-13.83-0.19-0.69-0.64-1.14-4.36-1.01-8.27 0.14-3.9 0.62-8.46 1.09-10.13 0.82-2.97 0.75-3.03-4.13-3.16-2.73-0.07-8.22 0.98-12.19 2.33-3.97 1.35-10.1 4.7-13.62 7.45-5.16 4.03-7.05 4.78-9.68 3.87-1.8-0.63-3.86-0.53-4.58 0.23-1.08 1.12 1.08 3.58 12.01 13.67zm398.14-418.94c0.64 2.91 0.03 4.81-2.28 7.1-1.73 1.73-4.67 5.97-6.52 9.44-1.86 3.46-3.97 10.06-4.69 14.65l-1.32 8.36c10.6-1.28 15.6-1.84 17.95-2.05 3.62-0.34 4.38 0.06 5.05 2.68 0.43 1.7 0.38 5.23-0.12 7.86-0.9 4.76-0.87 4.8 9.01 14.69l9.91 9.92c0.75 26.99 1.07 36.67 1.2 38.92l0.23 4.1c5.64-2.61 11.06-6.33 15.68-9.95 5.28-4.14 10.77-9.63 14.74-14.76 3.95-5.1 7.58-11.67 9.64-17.45 2.05-5.74 3.38-13.99 3.5-21.65 0.11-6.81-0.87-15.98-2.18-20.37-1.8-6.1-4.02-9.91-9.34-16.12-6.93-8.08-6.98-8.2-6.68-17.02 0.16-4.89 0.08-9.11-0.19-9.38-0.26-0.26-3.67 2.18-7.57 5.43-3.9 3.26-8.94 8.44-11.21 11.52-2.48 3.35-4.11 7.2-4.07 9.59 0.03 2.47 2.53 7.81 6.52 13.98 3.55 5.49 6.98 11.64 7.62 13.66 0.64 2.02 1.09 5.65 1.01 8.07-0.08 2.41-1.03 6.55-2.11 9.2-1.07 2.65-4.36 7.94-7.31 11.77l-5.34 6.96c-1.96-7.54-1.79-12.91-0.89-16.8 0.91-3.88 1.75-11.54 1.89-17.03 0.14-5.82-0.9-12.86-2.51-16.9-2.25-5.69-5.05-9.37-15.66-20.61-8.13-8.6-13.28-13.32-13.88-12.72-0.52 0.52-0.56 2.73-0.08 4.91zm-334.14 359.78c0.9 2.02 5.3 10.46 9.77 18.76 5.69 10.56 10.01 16.98 14.41 21.39 4.55 4.58 7.97 6.85 12.49 8.31l6.21 2 30.96-30.95c-8.63-8.61-14.19-13.29-17.91-15.95-3.73-2.66-9.68-5.85-13.23-7.08-3.63-1.26-14.34-2.22-24.42-2.19-9.88 0.04-18.4 0.51-18.95 1.05-0.54 0.55-0.24 2.64 0.67 4.66zm283.11-278.28c-0.42 6.01-0.4 14.92 0.04 19.8 0.44 4.88 1.86 11.73 3.16 15.21 1.82 4.88 4.7 8.82 12.47 17.03l10.12 10.69 30.95-30.96c-5.25-11.24-8.61-16.36-10.87-18.63-2.25-2.27-12.86-9.07-23.57-15.12-10.71-6.05-19.94-10.53-20.51-9.97-0.56 0.57-1.37 5.95-1.79 11.95zm-8.21 85.8c-2.34 3.76-3.2 6.48-2.32 7.36 0.77 0.76 4.78 0.86 8.93 0.22 4.14-0.65 8.99-1.45 10.78-1.79 3.2-0.6 3.31-0.43 5.52 8.54 1.24 5.03 3.26 11.2 4.48 13.7 1.22 2.5 4.84 7.16 8.03 10.35 3.99 3.97 7.1 6.01 9.9 6.47 2.24 0.38 8.33-0.29 13.52-1.49 5.18-1.19 9.39-2.75 9.34-3.47-0.04-0.71-1.74-4.43-3.76-8.26-2.02-3.83-3.29-6.92-2.81-6.86 0.48 0.05 2.88 3.75 5.33 8.21l4.47 8.11c24.65 1.68 32.02 1.93 32.27 1.65 0.25-0.28-2.43-5.25-5.95-11.04-3.52-5.8-8-14.16-9.96-18.58-1.96-4.42-3.94-11.07-4.4-14.77-0.45-3.7-0.57-8.65-0.25-10.99 0.32-2.34 2.28-6.48 4.36-9.19 3.24-4.22 4.44-4.92 8.43-4.93 4.08 0 5.14 0.64 8.61 5.23 2.45 3.23 4.33 4.86 4.93 4.26 0.53-0.53-0.63-4.38-2.58-8.55-2.66-5.7-5.31-9.19-10.71-14.1-5.93-5.39-8.25-6.67-13.39-7.41-3.42-0.49-9.23-0.26-12.93 0.51-4.45 0.92-8.49 2.92-11.98 5.92-2.89 2.48-6.29 6.52-7.57 8.98-1.27 2.45-2.41 8.05-2.53 12.46-0.12 4.4-0.92 8.39-1.77 8.87-0.85 0.48-5.06-0.76-9.35-2.75-4.5-2.08-10.18-3.47-13.44-3.29-3.11 0.18-7.71 1.53-10.24 3-2.52 1.46-5.64 3.79-6.92 5.17-1.28 1.38-4 5.18-6.04 8.46zm-345.61 362.72c1.24 3.23 4.07 13.24 6.29 22.25 3.16 12.79 5.01 17.52 8.44 21.65 2.75 3.3 6.19 6.01 9.21 7.23 2.64 1.08 8.88 2.46 13.86 3.07 6.61 0.81 9.7 0.46 11.47-1.31 1.33-1.33 2.85-3.72 3.38-5.32 0.53-1.6-0.16-4.6-1.55-6.68-1.44-2.16-1.7-3.35-0.6-2.78 1.05 0.55 3.83 1.06 6.17 1.14 2.34 0.08 5.22-0.84 6.41-2.05 1.18-1.22 2.75-4 3.49-6.18 0.74-2.19 0.52-6.33-0.48-9.19-1.17-3.32-4.12-7.5-8.12-11.5-5.4-5.41-7.75-6.74-16.74-9.49-5.76-1.76-17.62-4.27-26.36-5.56-8.74-1.3-16.17-2.09-16.51-1.75-0.34 0.33 0.4 3.25 1.64 6.47zm524.22-520.25c0.71 5.94 1.93 14.08 2.71 18.09 0.78 4.01 2.61 10.88 4.07 15.28 1.5 4.53 4.74 10.51 7.47 13.8 2.66 3.2 6.82 6.87 9.26 8.16 2.43 1.29 6.95 2.21 10.04 2.05 3.22-0.18 6.77-1.44 8.3-2.95 1.48-1.45 2.92-4.15 3.21-5.98 0.3-1.84-0.4-5.29-1.54-7.68l-2.07-4.35c6.39 6.14 8.4 6.91 11.04 6.39 1.99-0.39 4.52-1.57 5.6-2.61 1.09-1.05 1.84-5.29 1.69-9.44-0.16-4.15-1.16-10.15-2.22-13.35-1.22-3.63-3.84-7.69-7.04-10.86-4.41-4.37-6.97-5.53-19-8.57-7.64-1.93-17.97-4.88-22.95-6.55-4.98-1.67-9.24-2.85-9.46-2.63-0.23 0.23 0.17 5.27 0.89 11.2zm-245.45 276.41c1.9 3.69 5.63 13.23 8.29 21.21 2.67 7.97 6.19 20.35 7.84 27.49 1.64 7.15 4.07 16.48 5.38 20.74 1.49 4.8 3.87 9.2 6.29 11.58 2.14 2.12 7.26 5.05 11.38 6.52 4.12 1.46 8.36 3.54 9.42 4.6 1.07 1.06 1.8 2.45 1.63 3.08-0.16 0.64-2.8 0.88-5.86 0.55-3.06-0.33-7.93 0.24-10.82 1.27-2.9 1.03-7.22 3.83-9.62 6.23-2.42 2.42-5.54 7.47-7.05 11.4-1.48 3.88-2.47 7.26-2.18 7.51 0.28 0.25 2.8-0.97 5.6-2.7 4.4-2.73 5.39-2.81 7.34-0.57 1.24 1.42 3.93 5.69 5.98 9.49q3.74 6.91 9.59 11.69c3.23 2.63 9.06 5.94 12.96 7.36 3.9 1.41 12.78 2.98 19.73 3.48 6.95 0.5 18.02 0.54 24.59 0.08l11.95-0.83c-4.17-26.56-5.92-34.83-6.56-35.51-0.65-0.69-1.83-0.6-2.63 0.2-0.79 0.8-1.94 1.29-2.54 1.1-0.6-0.2-0.01-1.13 1.32-2.06 1.77-1.25 2.14-3.54 1.36-8.58-0.58-3.77-0.74-7.2-0.36-7.61 0.39-0.41 1.14-0.31 1.68 0.22 0.53 0.54 0.53 1.41 0 1.94-0.54 0.53-0.25 2.64 0.64 4.67 0.89 2.04 2.82 9.47 4.29 16.52 1.47 7.04 3.23 18.77 3.92 26.06 0.69 7.29 2.32 14.8 3.63 16.69 1.63 2.35 4.75 4.24 9.94 6.02 4.16 1.42 7.69 3.12 7.84 3.77 0.15 0.64-2.68 1.3-6.29 1.45-3.61 0.15-8.09 0.92-9.95 1.72-1.86 0.8-4.91 2.98-6.77 4.84-1.86 1.86-3.17 3.6-2.9 3.87 0.26 0.26 1.86 0.77 3.54 1.12 2.62 0.55 3.26 1.67 4.41 7.69 0.97 5.06 2.72 8.65 6.25 12.77 3.68 4.31 6.36 6.23 10.7 7.69 3.18 1.07 9.81 1.71 14.72 1.42 4.91-0.28 9.95-0.81 11.19-1.16 1.57-0.44 2.5-2.92 3.05-8.07l0.79-7.44c8.16 1.42 12.92 1.17 15.85 0.37 4.38-1.2 6.85-3.06 14.08-10.59 4.82-5.02 9.15-10.27 9.61-11.66 0.46-1.4 0.68-5.54 0.48-9.19-0.31-5.74-1.06-7.35-5.46-11.71l-5.09-5.06c-26.99 0.69-35.45 1.57-36.22 2.4-0.76 0.83-1.42 9.12-1.45 18.42-0.06 16.89-0.07 16.91-3.19 13.75-1.71-1.75-3.5-5.08-3.97-7.41-0.47-2.33-0.04-9.3 0.96-15.48 1.01-6.18 1.27-12.88 0.59-14.89-0.68-2.01-1.02-3.87-0.75-4.14 0.26-0.26 2.27 0 4.46 0.59 2.19 0.59 9.05 0.28 15.26-0.7 6.21-0.97 12.92-1.44 14.92-1.05 1.99 0.4 6.62 2.96 10.27 5.69 3.66 2.73 9.42 5.89 12.82 7.02 5.38 1.79 6.67 1.63 10.14-1.23 2.19-1.8 4.37-4.42 4.84-5.8 0.47-1.39 0.23-6.86-0.54-12.15-1.05-7.26-2.38-10.79-5.43-14.4-2.22-2.63-5.51-5.7-7.31-6.82-1.8-1.13-5.67-2.27-8.59-2.53-3.7-0.34-6.21-1.52-8.23-3.87-2.78-3.26-3.06-3.25-7.06 0.19-2.28 1.97-4.87 5.43-5.74 7.68-0.88 2.26-1.02 6.15-0.33 8.65 0.82 2.95 0.63 4.33-0.54 3.93-0.99-0.34-2.17-2.65-2.62-5.13-0.45-2.47-1.81-6.11-3.04-8.08-1.22-1.97-3.34-4.21-4.7-4.97-1.37-0.76-9.94-2.2-19.05-3.2-9.12-0.99-21.76-3.15-28.1-4.79-6.34-1.64-11.95-3.43-12.47-3.97-0.51-0.55 1.02-0.55 3.4 0 2.38 0.55 4.87 0.45 5.54-0.22 0.66-0.67 1.85-3.17 2.65-5.57 0.8-2.39 1.04-7.15 0.55-10.57-0.66-4.54-2.25-7.8-5.87-12.03-4.39-5.13-5.74-5.93-11.63-6.88-3.67-0.59-11.69-1.26-17.82-1.5l-11.15-0.43c18.17-1.32 27-1.01 31.34-0.18 6.05 1.17 8.89 2.55 12.22 5.9 3.61 3.64 4.44 5.69 4.93 12.26 0.33 4.34-0.22 10.78-1.23 14.29-1 3.52-1.61 6.61-1.34 6.88 0.27 0.27 8.4 1.66 18.08 3.09l17.6 2.6c1.06-12.14 1.11-22.79 0.78-31.51-0.32-8.72-1.67-19.12-3-23.12-1.46-4.39-4.67-9.97-8.13-14.12-4.47-5.36-7.59-7.83-14.31-11.32-4.73-2.45-8.82-5.11-9.09-5.91-0.26-0.8 0.94-3.52 2.68-6.06 1.74-2.54 2.83-4.93 2.42-5.32-0.41-0.39-3.11 0.19-6 1.29-2.89 1.09-7.85 4.2-11 6.89-4.42 3.77-6.22 6.32-7.8 11.06-1.13 3.39-1.63 8.35-1.09 11.01 0.53 2.66 0.31 5.05-0.49 5.32-0.8 0.26-2.32-0.39-3.38-1.46-1.07-1.06-2.69-4.44-3.61-7.51-0.92-3.07-3.15-7.59-4.95-10.04-1.81-2.45-5.08-5.71-7.27-7.24-2.2-1.53-11.2-4.29-20-6.12-8.81-1.84-24.49-6.17-34.87-9.63-10.37-3.47-20.63-7.78-22.81-9.59-2.69-2.24-4.43-2.83-5.44-1.82-0.93 0.93-0.2 3.95 1.98 8.18zm65.95 92.69c-0.43-4.09-0.58-7.64-0.34-7.89 0.25-0.25 0.7 0.91 1.01 2.58 0.31 1.66 1.02 6.39 1.58 10.51 0.9 6.6 1.64 8.02 6.24 12.05 3.58 3.12 7.46 5.03 19.41 7.56l-5.06 0.23c-2.79 0.13-6.87-0.36-9.08-1.07-2.22-0.72-5.33-2.61-6.93-4.21-1.59-1.59-3.61-5.02-4.47-7.61-0.87-2.6-1.93-8.06-2.36-12.15zm-247.43 107.16c4.39 2.9 6.11 4.89 8.29 9.61 1.52 3.27 4.63 14.09 6.92 24.03 2.3 9.95 5.54 21.94 7.21 26.65 1.67 4.72 5.09 11.31 7.59 14.66 2.5 3.35 6.32 7.59 8.48 9.42 2.16 1.82 4.37 2.88 4.9 2.35 0.53-0.53 1.27-8.27 1.65-17.21 0.38-8.93 1.32-19.96 2.1-24.5 1.35-7.91 1.59-8.32 5.72-9.75 2.37-0.83 9.05-1.34 14.83-1.14 5.79 0.2 11.17-0.29 11.97-1.08 0.8-0.8 0.73-3.13-0.14-5.18-0.93-2.16-5.03-6.77-9.79-11.01-5.35-4.76-10.82-8.35-15.76-10.36-4.16-1.69-12.25-4.23-17.98-5.64-5.73-1.41-17.07-3.34-25.21-4.29-8.13-0.95-15.13-1.39-15.55-0.97-0.42 0.42 1.73 2.4 4.77 4.41zm384.74-378.39c0.89 7.65 3.11 20.01 4.93 27.47 1.82 7.46 4.85 16.38 6.73 19.82 1.87 3.45 5.99 9.34 9.14 13.11 3.36 4.02 7.26 7.51 9.45 8.45 2.04 0.88 4.59 1.16 5.65 0.63 1.19-0.6 1.91-5.64 1.87-13.13-0.04-6.69 0.61-13.44 1.45-15 1.14-2.12 3.71-3.16 10.33-4.17 4.85-0.74 15.85-1.71 24.45-2.16 8.6-0.44 15.95-1.14 16.34-1.55 0.38-0.41-0.66-2.65-2.33-4.97-1.67-2.33-5.3-5.87-8.08-7.89-2.78-2.01-8.03-5.02-11.68-6.7-3.65-1.67-15.86-5.13-27.13-7.68-11.28-2.56-23.52-5.99-27.2-7.63-4.65-2.06-7.53-4.21-9.42-7.02-1.5-2.23-3.15-4.71-3.67-5.52-0.53-0.81-1.29-1.14-1.7-0.73-0.41 0.41-0.02 7.01 0.87 14.67zm-516.65 519.01c0.93 1.46 4.96 7.23 8.96 12.81 4 5.57 12.04 16.25 17.88 23.71 5.84 7.47 16.7 19.67 24.15 27.12 7.45 7.45 17.87 17.22 23.17 21.71l9.62 8.17c11.43-6.57 15.7-9.05 16.86-9.75 1.92-1.16 0.71-2.8-13.49-18.33l-15.6-17.05c9.64-5.35 18.4-8.99 25.69-11.55 8.65-3.03 16.87-4.74 23.67-4.91 5.74-0.15 12.22 0.55 14.41 1.55 3.08 1.42 3.82 1.33 3.31-0.4-0.37-1.23-2.35-4.48-4.4-7.21-2.37-3.15-6.51-6.62-11.32-9.48-4.17-2.48-10.26-5.1-13.53-5.82-3.27-0.72-9.19-1.2-13.16-1.07-3.96 0.14-14.75 1.41-23.97 2.84-9.22 1.42-21.15 2.56-26.53 2.54-5.49-0.03-14.18-1.56-19.86-3.5-8.09-2.76-11.54-4.78-17.42-10.14-5.57-5.09-7.67-6.36-8.73-5.3-0.77 0.77-0.64 2.6 0.29 4.06zm662.97-652.33c3.8 4.91 7.71 11.75 9.32 16.31 1.53 4.32 3.04 12.32 3.34 17.76 0.31 5.45-0.89 19.77-2.66 31.84-1.77 12.06-2.93 25.06-2.59 28.89 0.35 3.82 2.05 10.1 3.79 13.95 2.09 4.6 5.42 9.2 9.77 13.45 3.62 3.55 7.8 6.99 9.28 7.64 2.39 1.05 2.48 0.52 0.82-4.68-1.03-3.23-1.81-8.71-1.73-12.18 0.08-3.47 1.19-10.48 2.47-15.59 1.28-5.1 4.41-13.94 6.95-19.65 2.55-5.7 5.72-11.46 7.05-12.79l2.41-2.41c24.74 24.74 32.14 31.7 32.41 31.43 0.27-0.26 2.75-4.52 5.53-9.46 2.78-4.94 5.05-9.17 5.05-9.4 0-0.23-6.48-7.87-14.39-16.98-10.62-12.22-18.1-19.7-28.54-28.54-7.77-6.59-22.43-18.05-32.57-25.46-10.14-7.42-18.95-13.64-19.56-13.82-0.62-0.18-1.48 0.03-1.91 0.46-0.43 0.43 2.16 4.59 5.76 9.23zm-489.12 502.18c0.26 0.27 4.88 0.75 10.26 1.07 5.37 0.32 13.53 1.52 18.13 2.67 4.59 1.14 12.03 3.62 16.53 5.51 4.5 1.89 11.75 5.52 16.12 8.07 4.69 2.74 11.48 8.2 16.62 13.36 6.09 6.11 10.98 12.51 16.33 21.4 4.19 6.98 11.01 17.57 15.15 23.54 5.29 7.64 12.87 16.23 25.56 29 10.77 10.83 18.84 18.16 20.04 18.2 1.37 0.05 0.79-3.15-1.84-10.16-2.11-5.62-4.62-13.14-5.58-16.7-0.96-3.56-1.39-6.61-0.97-6.77 0.43-0.16 3.73 5.47 7.32 12.51 5.45 10.65 8.01 14.26 15.29 21.47 6.83 6.77 11.13 9.88 19.64 14.22 5.99 3.05 14.81 6.86 19.6 8.45 4.79 1.6 13.55 3.72 19.47 4.71l10.77 1.81c-33.04-35.08-40.64-44.05-43.23-48.67-2.1-3.75-4.47-8.35-5.26-10.21-0.8-1.87-1.2-3.21-0.9-2.98 0.31 0.23 4.25 5.43 8.78 11.54 4.52 6.12 13.01 15.91 18.87 21.76 5.86 5.84 14.35 13.02 18.87 15.95 4.52 2.93 10.82 6.21 13.99 7.29 3.18 1.08 10.32 1.48 15.87 0.9 5.54-0.59 18.4-1.46 28.57-1.94 10.16-0.47 26.56-0.46 36.42 0.02 9.87 0.49 26.36 2.05 36.64 3.47 10.29 1.42 26.4 4.45 35.82 6.74 9.42 2.29 22.67 6.01 29.45 8.28 6.79 2.26 18.08 6.45 25.09 9.31 7.02 2.86 12.98 4.99 13.25 4.73 0.28-0.26-0.06-4.74-0.75-9.95l-1.26-9.47c-17.83-6.91-32.14-11.97-43.29-15.71-11.16-3.74-24.76-7.99-30.22-9.44-5.47-1.45-18.54-3.61-29.06-4.8-10.52-1.18-29.62-3.64-42.43-5.45-12.82-1.81-23.31-3.73-23.31-4.26 0-0.53 1.96-1.62 4.35-2.42 2.4-0.8 9.3-1.39 15.35-1.32 6.04 0.08 12.9 0.63 15.24 1.23 2.35 0.59 4.54 0.49 4.88-0.23 0.35-0.72-0.49-3.16-1.85-5.43-1.36-2.26-4.2-5.44-6.3-7.06-2.1-1.62-6.36-3.84-9.47-4.93-3.11-1.09-14.99-2.27-26.4-2.62-12.44-0.38-23.6-1.66-27.86-3.2-3.9-1.42-7.54-3.01-8.08-3.53-0.54-0.53-1.74-3.46-2.67-6.52-0.93-3.06-2.12-5.13-2.65-4.6-0.54 0.53-1.8 3.41-2.8 6.39-1.01 2.98-1.54 8.52-1.19 12.31 0.36 3.78 2.06 9.18 3.77 11.99 1.72 2.8 6.28 8.25 10.15 12.1 4.36 4.34 6.32 6.97 5.16 6.92-1.02-0.04-4.68-1.6-8.13-3.47-3.45-1.87-12.26-8.3-19.57-14.29-7.94-6.51-18.11-16.19-25.27-24.06-6.6-7.24-14.64-17.04-17.87-21.79-3.24-4.74-6.92-11.08-8.18-14.07-1.26-3-2.41-5.55-2.55-5.67-0.15-0.12-1.79 1.31-3.65 3.17-1.87 1.86-5.26 6.96-7.55 11.32-2.28 4.36-4.34 7.94-4.56 7.95-0.23 0.01-1.26-2.62-2.28-5.85-1.03-3.23-1.95-8.7-2.04-12.15-0.1-3.45 0.32-7.94 0.94-9.98l1.12-3.72c-15.07-9.89-22.3-15.57-25.79-19-4.94-4.85-6.45-7.19-6.82-10.58-0.27-2.4-1.14-4.39-1.93-4.42-0.8-0.03-2.09 0.61-2.87 1.43-0.78 0.81-2.53 3.42-3.89 5.78-1.36 2.37-2.78 8.13-3.15 12.81-0.58 7.36-0.99 8.37-3 7.45-1.27-0.58-2.46-2.22-2.64-3.65-0.17-1.42-1.09-4.64-2.03-7.15-1.02-2.74-4.62-7.49-8.97-11.83-5.12-5.13-9.67-8.39-15.5-11.11-4.53-2.11-11.68-4.76-15.88-5.88-4.2-1.12-13.91-2.15-21.58-2.28-7.67-0.14-18.65 0.71-24.39 1.88-5.75 1.17-15.18 3.71-20.96 5.65-5.78 1.93-10.73 3.73-10.99 4-0.27 0.26-0.27 0.7 0 0.96zm330.13-322.81c-2.01 6.51-4.33 15.5-5.16 20-0.83 4.49-1.64 13.13-1.81 19.21-0.17 6.08 0.53 15.43 1.56 20.79 1.03 5.36 3.42 13.41 5.31 17.91 2.48 5.9 5.74 10.7 11.74 17.28 6.31 6.94 9.22 9.34 12.18 10.07 2.13 0.52 5.26 1.31 6.94 1.76 1.69 0.44 3.55 1.84 4.15 3.1 0.94 1.98-0.09 2.4-7.42 2.98-4.69 0.37-10.45 1.79-12.82 3.15-2.36 1.36-4.99 3.16-5.83 4-0.85 0.84-1.49 2.13-1.43 2.86 0.06 0.74 2.07 1.56 4.47 1.82 3.38 0.38 5.76 1.9 10.61 6.8 3.44 3.48 9.23 10.75 12.86 16.16 5.65 8.41 6.87 9.7 8.41 8.89 0.99-0.52 5.03-1.08 8.98-1.25 3.96-0.16 10.2 0.42 13.88 1.3 3.68 0.89 6.65 2.01 6.61 2.49-0.05 0.49-3.65 2.76-8.02 5.05-4.36 2.29-9.45 5.68-11.32 7.54l-3.38 3.39c7.98 3.26 13.98 6.62 18.47 9.57 4.5 2.96 15.4 12.08 24.24 20.27 9.73 9.01 19.63 19.33 25.11 26.16 4.97 6.2 10.95 14.58 13.29 18.63 3.05 5.28 3.6 7.18 1.97 6.73-1.26-0.34-5.12-3.44-8.59-6.89-3.47-3.45-8.37-7.47-10.9-8.93-2.52-1.47-7.58-2.83-11.24-3.03-3.66-0.2-9.1 0.45-12.09 1.45-2.99 1-5.87 2.25-6.41 2.78-0.53 0.53 1.32 1.52 4.11 2.18 2.79 0.67 5.94 2.09 7 3.16 1.06 1.07 2.83 4.53 3.93 7.68 1.1 3.16 2.39 15.36 2.87 27.12 0.48 11.76 1.6 23.69 2.49 26.52 0.9 2.83 2.99 7.06 4.64 9.39 1.66 2.33 5.19 5.55 7.85 7.14 2.66 1.6 5.28 2.47 5.81 1.94 0.53-0.54 0.62-1.28 0.2-1.66-0.42-0.37-1.01-6.84-1.32-14.37-0.3-7.53-0.05-15.8 0.56-18.39 0.6-2.59 1.63-5.26 2.28-5.94 0.65-0.68 2.86 10.8 4.91 25.5 2.05 14.71 4.56 34.18 5.58 43.27 1.02 9.09 3.92 24.03 6.46 33.2 2.54 9.17 8.74 28 13.77 41.85l9.15 25.19c14.01 1.73 18.52 1.8 19.05 1.27 0.53-0.53-1.11-5.86-3.65-11.83-2.53-5.98-7.39-19.41-10.79-29.84-3.4-10.43-7.93-27.66-10.07-38.29-2.14-10.63-4.65-25.97-5.58-34.08-0.93-8.12-1.68-28.31-1.67-44.88 0.01-16.57 0.64-35.93 1.41-43.01 0.79-7.35 0.61-15.22-0.42-18.32-1-2.99-3.89-8.81-6.43-12.92-2.85-4.63-9.41-12.28-17.19-20.05-6.92-6.92-16.07-15.18-20.33-18.36-4.27-3.18-9.05-6.67-10.63-7.75-2.53-1.73-2.36-1.78 1.39-0.43 2.35 0.85 8.51 4.26 13.7 7.58 6.87 4.4 14.15 10.71 26.78 23.2l17.34 17.16c-0.77-9.22-2.17-16.38-3.61-21.86-1.44-5.47-4.33-13.9-6.41-18.74-2.09-4.83-6.12-12.55-8.96-17.15-3.38-5.47-7.68-10.56-12.4-14.69-3.98-3.47-12.71-9.11-19.4-12.52-6.69-3.42-12.08-6.52-11.97-6.89 0.11-0.38 2.47-0.13 5.26 0.54 2.79 0.67 10.29 3.17 16.68 5.55 6.38 2.38 11.94 4.01 12.34 3.62 0.41-0.4-1.92-3.94-5.17-7.87-3.25-3.93-12.48-13.21-20.5-20.61-8.02-7.41-18.71-16.31-23.74-19.79-5.04-3.47-14.86-9.76-21.83-13.97-8.94-5.4-15.22-10.21-21.35-16.37-4.78-4.79-10.77-12.08-13.3-16.2-2.54-4.11-6.2-11.33-8.15-16.04-1.94-4.71-4.7-14.35-6.13-21.43-1.43-7.08-2.55-15.1-2.49-17.83 0.06-2.72-0.22-5.26-0.64-5.65-0.41-0.39-1.06-0.36-1.44 0.05-0.39 0.42-2.34 6.08-4.35 12.58zm-401.01 445.45c2.66 5.05 7.52 13.03 10.8 17.72 3.29 4.7 11.07 13.67 17.31 19.94 6.23 6.27 12.85 12.06 14.71 12.85 1.87 0.8 4.04 0.8 4.84 0 0.8-0.79 3.41-0.79 5.81 0 2.39 0.8 4.78 1.89 5.32 2.42 0.53 0.53-0.67 2.6-2.67 4.59-2.25 2.23-6.69 4.45-11.61 5.8-4.39 1.2-8.63 1.97-9.42 1.7-0.8-0.26-1.89-0.04-2.42 0.49-0.57 0.57 2.33 4.26 7.02 8.94 4.39 4.38 11.28 10.34 15.3 13.23 4.02 2.9 9.56 6.06 12.32 7.03 2.75 0.97 8.42 1.7 12.59 1.61 4.18-0.09 11.44-1.55 16.14-3.23 4.69-1.69 10.62-4.47 13.17-6.18l4.63-3.11c-10.76-1.93-15.69-4.26-20.88-7.97-5.95-4.25-10.61-8.89-18.9-18.82-6.05-7.25-13.11-17.17-15.69-22.04-2.58-4.87-5.5-11.31-6.49-14.31l-1.8-5.45c40.63-3.6 55.23-4.49 58.65-4.29 3.43 0.19 10.07 1.73 14.78 3.41 4.7 1.68 10.29 4.25 12.41 5.71 2.13 1.46 4.36 2.49 4.96 2.29 0.6-0.19-1.78-5.96-5.3-12.82-5.08-9.92-8.15-14.28-14.99-21.28-7.54-7.72-9.58-9.15-16.54-11.52-4.36-1.48-12.33-2.66-17.71-2.6-9.24 0.09-9.73 0.26-8.93 3.13 0.46 1.67 0.93 7.09 1.04 12.05 0.11 4.96-0.01 8.99-0.26 8.96-0.25-0.03-3.3-2-6.78-4.37-3.48-2.38-11.51-6.1-17.84-8.28-8.73-3-14.66-3.88-24.46-3.64-7.39 0.17-16.98 1.66-22.36 3.46-5.19 1.73-9.92 3.65-10.51 4.27-0.59 0.61 1.1 5.25 3.76 10.31zm517.16-528.56c-0.91 2.28-2.49 8.53-3.52 13.89-1.02 5.37-1.76 13.01-1.65 16.99 0.12 3.98 0.92 10.23 1.79 13.88 0.87 3.65 2.95 9.85 4.62 13.76 1.66 3.92 4.91 9.56 7.2 12.53l4.17 5.4c-12 0.16-17.71-0.17-20.44-0.63l-4.97-0.84c-0.1 13.59 0.76 20.56 1.85 24.26 1.09 3.7 3.73 9.33 5.86 12.52 2.52 3.75 6.6 7.85 11.58 11.64 4.23 3.22 12.49 8.25 18.34 11.2 5.86 2.94 10.87 5.13 11.13 4.86 0.27-0.26-0.83-2.45-2.44-4.85-1.61-2.4-4.18-7.89-5.72-12.2-1.54-4.32-3.13-10.48-3.53-13.7-0.4-3.22 0.32-17.65 1.59-32.07 1.28-14.41 2.76-26.64 3.3-27.17 0.53-0.54 3.94 0.19 7.58 1.6 3.64 1.42 10.76 4.96 15.83 7.87 7.29 4.18 12.49 8.51 24.83 20.64 13.53 13.31 15.81 16.04 17.18 20.55 0.86 2.85 1.69 6.73 1.83 8.6 0.26 3.3 0.38 3.26 3.5-1.09 1.78-2.47 4.51-8.01 6.07-12.3 1.57-4.29 3.2-11.14 3.64-15.23 0.47-4.41-0.31-10.46-1.91-14.89-2-5.54-5.53-10.94-13.74-21-8.78-10.76-11.55-13.55-13.5-13.59-1.98-0.04-2.46 0.75-2.56 4.2-0.07 2.35-1.05 7.03-2.19 10.42-1.14 3.38-3.59 7.67-5.45 9.54-1.87 1.86-3.61 3.16-3.87 2.9-0.27-0.27-1.36-2.66-2.42-5.32-1.06-2.66-1.28-5.49-0.48-6.29 0.79-0.8 1.01-2.97 0.48-4.84-0.64-2.25-5.05-7.39-13.16-15.37-6.71-6.59-15.57-14.28-19.68-17.08-4.12-2.8-11.9-7.42-17.31-10.26-5.49-2.89-10.34-4.62-11-3.92-0.64 0.68-1.91 3.11-2.83 5.39zm-430.58 467.12c0.32 4.21 1.37 10.12 2.35 13.13 0.98 3.01 2.99 6.66 4.47 8.11 1.48 1.45 4.81 3.12 7.41 3.71 2.6 0.59 7.81 3.22 11.58 5.83 3.78 2.61 8.59 6.5 10.71 8.64 3.48 3.54 4.18 3.7 7.49 1.7 2-1.21 5.31-4.67 7.34-7.69 2.04-3.02 4.43-7.16 5.32-9.19l1.63-3.7c-25.36-24.35-27.96-26.32-33.4-28.02-3.45-1.08-10.18-1.96-14.97-1.96-4.79 0-9.11 0.4-9.6 0.89-0.5 0.5-0.64 4.34-0.33 8.55zm373.42-372.66c-0.21 5.38 0.64 12.68 1.88 16.22 1.87 5.29 4.44 8.75 14.45 19.42l12.17 12.97c6.16-2.48 10.59-4.92 13.82-7.01 3.23-2.09 6.72-5.14 7.75-6.76 1.76-2.77 1.37-3.62-6.32-13.6-5.22-6.77-8.56-12.38-9.2-15.43-0.56-2.66-2.72-6.54-4.84-8.71-2.63-2.69-6.05-4.4-10.96-5.48-3.93-0.86-9.67-1.53-12.76-1.49l-5.62 0.08zm-346.78 347.35c-0.7 1.6-1.15 3.98-1.01 5.28 0.15 1.3 1.6 4.52 3.22 7.16 2.08 3.39 6.48 7.48 15.04 13.98 7.17 5.45 13.58 11.24 15.75 14.23 2.01 2.78 3.67 6.87 3.68 9.09 0.01 2.31-1.96 7.06-4.58 11.06-2.53 3.86-6.71 8.6-9.29 10.54-3.97 3-4.43 3.8-3.01 5.25 0.92 0.94 2.88 5.94 4.35 11.12l2.68 9.41c6.57-4.67 13.51-11.44 19.66-18.06 8.01-8.63 11.6-13.4 12.68-16.82 0.84-2.63 0.94-7.47 0.24-10.75-0.71-3.29-3.12-9.37-5.36-13.51-3.33-6.16-7.77-11.24-24.35-27.88l-20.28-20.35c-6.32 5.68-8.72 8.64-9.42 10.25zm320.75-321.55c-0.5 1.14 4.4 6.5 17.74 19.45 10.13 9.84 20.7 19.51 23.5 21.5 2.8 1.99 8.05 5.01 11.68 6.7 4.03 1.89 9.53 2.96 14.15 2.78 6.1-0.25 8.65-1.18 13.21-4.81 3.11-2.48 10.15-9.3 15.64-15.16 5.5-5.86 10.05-11.14 10.11-11.74 0.07-0.6-3.38-1.94-7.66-2.98-4.28-1.04-9.1-2.75-10.71-3.8-2.78-1.82-3.26-1.58-9.97 5.02-3.87 3.82-9.19 8.05-11.82 9.41-2.77 1.43-6.6 2.04-9.08 1.45-3.76-0.89-5.61-2.54-14.6-12.97-5.66-6.58-12.96-14.71-16.23-18.07-5.11-5.25-6.63-6.12-10.85-6.18-3.45-0.05-6.33 1.11-9.67 3.88-2.62 2.17-5.07 4.65-5.44 5.52zm-206.58 236.84c0.6 4.02 2.88 12.49 5.07 18.81 2.18 6.33 6.48 15.96 9.55 21.4 3.92 6.95 8.39 12.76 15.01 19.5 9.35 9.52 9.48 9.59 14.75 9.11 2.92-0.27 7.56-0.63 10.31-0.81 2.75-0.18 5.12-0.42 5.26-0.55 0.14-0.12-2.25-3.82-5.32-8.22-3.07-4.4-5.36-8.21-5.09-8.48 0.26-0.26 3.21-1.01 6.55-1.66 4.79-0.93 7.25-2.37 11.61-6.77 3.05-3.08 7.32-6.2 9.51-6.94 2.19-0.74 5.02-0.96 6.29-0.48 1.73 0.64 3.64-0.47 7.63-4.46 5.04-5.04 5.17-5.41 2.6-6.95-1.5-0.89-6.89-3.02-11.97-4.71-5.09-1.7-13.34-3.26-18.33-3.47-5-0.21-14.16 0.57-20.36 1.73-6.2 1.17-13.42 1.79-16.04 1.38-2.91-0.45-6.83-2.53-10.11-5.36-2.94-2.55-7.85-8.11-10.91-12.35-3.06-4.25-5.91-7.79-6.34-7.88-0.42-0.08-0.28 3.14 0.33 7.16zm124.09-127.78c1.52 0.88 6.01 4.01 9.97 6.96 3.97 2.94 8.41 7.21 9.87 9.47 1.46 2.27 3.06 5.46 3.55 7.1 0.49 1.64 0.8 5.35 0.69 8.26-0.11 2.91-0.94 8.47-1.84 12.35-0.9 3.89-1.53 11.37-1.4 16.63 0.13 5.26 1.78 14.12 3.66 19.68 1.89 5.56 4.21 10.87 5.15 11.78 1.4 1.37 2.6 0.79 6.55-3.17 4.01-4.01 4.78-5.63 4.5-9.53-0.3-4.06 0.6-5.83 6.72-13.11 5.08-6.04 7.35-9.89 8.08-13.68l1.02-5.27c10.28 6.96 13.98 9.36 14.85 9.81 1.03 0.53 1.75-1.6 2.03-5.98 0.25-3.75 0.82-8.18 1.28-9.85 0.76-2.77-0.14-3.99-10.2-13.9-9.28-9.15-12.76-11.74-21.94-16.4-6-3.04-14.84-6.83-19.64-8.42-4.79-1.59-12.14-3.6-16.33-4.47-4.19-0.87-8-1.2-8.47-0.72-0.48 0.48 0.38 1.58 1.9 2.46zm-285.36 333.25c4.48 7.22 11.2 17.48 14.92 22.8 5.04 7.18 8.14 10.54 12.09 13.05 2.93 1.87 7.94 4.26 11.13 5.32 3.19 1.07 6.58 1.63 7.53 1.24 0.94-0.38 8.34-8.44 16.42-17.91l14.71-17.22c-12.51-11.85-19.34-16.86-24.1-19.36-4.74-2.5-11.72-4.72-16.45-5.25-4.51-0.51-13.04-0.54-18.96-0.07-5.91 0.47-13.87 1.44-17.68 2.15-3.82 0.71-7.12 1.47-7.35 1.7-0.23 0.23 3.25 6.33 7.74 13.55zm481.93-491c-0.88 7.6-1.33 18.72-1 24.71 0.33 6.15 1.91 13.76 3.64 17.5 1.68 3.64 6.47 11.04 10.64 16.45 4.17 5.4 8.21 10.07 8.98 10.37 0.76 0.3 6.47-3.86 12.67-9.23 6.21-5.38 14.39-12.33 18.18-15.45l6.9-5.68c-5.32-16.28-6.52-18.09-13.54-24.81-4.86-4.65-14.52-11.7-25.06-18.29-9.43-5.89-17.75-10.42-18.49-10.06-0.73 0.37-2.05 6.88-2.92 14.49zm-262.3 344.88c1.52 2.2 5.16 6.4 8.09 9.32 2.93 2.93 8.61 7.26 12.62 9.63 4.91 2.9 9.36 4.33 13.59 4.38 5.27 0.07 7.1-0.67 11.33-4.55l5.04-4.64c-9.22-9.38-10.99-12.48-12.31-17.68-0.97-3.82-2.83-8.05-4.13-9.41-1.3-1.36-3.87-2.43-5.72-2.38-2.09 0.06-6.62 2.64-12.06 6.87-6.08 4.74-9.47 6.58-11.27 6.14-1.41-0.35-3.77-0.87-5.25-1.16-2.29-0.46-2.27 0.06 0.07 3.48zm127.23-130.14c0.78 1.36 1.39 3.58 1.37 4.94-0.03 1.37-3.03 6.38-6.67 11.14-3.97 5.19-6.7 10.03-6.81 12.11-0.1 1.9 0.9 4.55 2.23 5.88 1.33 1.33 5.37 2.95 8.97 3.6 5.3 0.96 7.62 2.25 12.13 6.76 4.74 4.72 5.96 5.36 8.09 4.2 1.38-0.75 3.58-2.91 4.88-4.8 1.3-1.89 2.5-6.02 2.67-9.16 0.2-3.68-1.03-8.21-3.42-12.64-2.22-4.1-7.09-10.23-11.98-15.1-4.54-4.51-9.29-8.47-10.56-8.79-1.93-0.5-2.08-0.19-0.9 1.86zm-251.81 265.04c-0.87 2.32-1.42 7.9-1.23 12.39 0.19 4.49 0.91 10.44 1.6 13.21 0.7 2.78 1.04 5.26 0.77 5.52-0.28 0.26-2.98-0.27-6.02-1.18-3.03-0.9-7.93-1.01-10.88-0.23-3.88 1.02-6.94 3.03-11.08 7.29-3.15 3.23-6.37 7.85-7.16 10.26-0.78 2.41-1.13 7.47-0.77 11.26 0.36 3.78 2.11 9.33 3.9 12.33 1.79 3 3.9 6.54 4.7 7.88 1.18 1.98 1.48 1.27 1.67-3.86 0.12-3.46 0.72-7.75 1.32-9.54 0.6-1.8 1.96-4.13 3.03-5.2 1.13-1.13 3.59-1.39 5.95-0.63 2.21 0.72 11.51 5.13 20.67 9.8 9.17 4.67 20.92 9.89 26.12 11.61 5.2 1.71 14.45 3.9 20.57 4.85 6.11 0.95 15.84 1.88 21.62 2.08 8.55 0.28 11.09-0.24 13.67-2.78 1.73-1.72 3.42-4.5 3.74-6.17 0.47-2.44-1.02-4.87-7.66-12.49-7.39-8.48-8.38-10.26-9.55-17.06l-1.3-7.59c-12.59-1.65-18.42-3.01-21.07-4.07-2.66-1.07-7.6-3.54-10.98-5.48-3.37-1.94-7.78-5.16-9.78-7.14-2-1.99-4.51-5.8-5.57-8.46-1.07-2.66-1.44-6.3-0.83-8.08 0.6-1.79 2.66-4.31 4.56-5.59 1.91-1.29 7.94-3.31 13.41-4.49l9.94-2.15c-6.36-6.36-10.99-8.76-16.88-10.59-5.79-1.81-11.56-2.45-15.76-1.74-4.96 0.83-8.2 2.45-12.89 6.46-4.08 3.48-6.81 6.82-7.83 9.58zm377.77-376.74c-1.16 3.09-1.93 9.07-1.71 13.28 0.23 4.53 1.85 10.33 3.97 14.22 1.96 3.62 4.67 7.42 6.01 8.43 2.38 1.82 2.47 1.69 4.05-6.2 0.89-4.43 2.82-10.34 4.29-13.13 1.47-2.78 3.91-5.78 5.43-6.66 1.65-0.95 4.84-0.76 7.95 0.47 3.83 1.51 6.85 3.97 11.48 9.32 3.67 4.24 7.54 10.42 9.32 14.86 1.68 4.18 3.53 11.03 4.12 15.23l1.06 7.64c15.3 4.25 17.9 5.79 24.31 11.75 6.01 5.59 8.52 7.14 11.67 7.26 2.75 0.09 5.13-1.01 7.6-3.52 3.32-3.38 3.51-4.86 2.38-19.37-0.67-8.64-2.73-21.6-4.57-28.8-2.29-8.95-6.54-19.4-13.43-33-5.55-10.94-10.15-21.39-10.22-23.22-0.07-1.83 0.87-4.28 2.08-5.46 1.22-1.18 6.04-2.28 10.71-2.43 5.19-0.17 7.93-0.84 7.03-1.71-0.81-0.78-4.32-2.94-7.78-4.79-3.47-1.85-8.68-3.79-11.59-4.3-2.9-0.51-7.99-0.17-11.3 0.77-4.41 1.25-7.6 3.29-11.82 7.54-3.48 3.5-6.39 7.72-7.31 10.58-0.88 2.76-0.71 7.21 0.41 10.57 1.07 3.19 1.85 5.93 1.74 6.09-0.11 0.16-5.34-0.49-11.63-1.43-7.89-1.18-13.44-1.04-17.92 0.45-3.58 1.2-8.24 3.92-10.36 6.05-2.12 2.13-4.81 6.41-5.97 9.51zm-266.45 272.34c-0.52 2 0.12 2.47 4.71 3.49 4.07 0.91 7.41 3.09 14.45 9.45 6.88 6.21 11.07 8.98 16.89 11.16 4.26 1.59 10.66 2.85 14.23 2.79 3.57-0.05 10.39-1.42 15.17-3.03 6.86-2.32 9.93-4.2 14.7-9 3.56-3.58 7.49-9.15 9.62-13.6 1.97-4.14 3.62-7.93 3.66-8.42 0.04-0.49-2.6-1.08-5.88-1.3-3.28-0.22-7.76-1-9.96-1.73-3.75-1.25-4.03-1.11-4.71 2.31-0.39 1.99-2.23 5.16-4.09 7.03-2.21 2.23-6.1 3.95-11.31 5-5.23 1.06-9.84 0.88-13.54-0.52-3.7-1.41-8-4.51-12.64-9.13-6.73-6.69-7.32-6.99-13.81-6.99-6.03 0-7.32 0.56-11.83 5.1-2.79 2.8-5.33 6.13-5.66 7.39zm161.38-160.25c-0.4 2-0.07 5.59 0.73 7.99 0.86 2.57 4.11 7.01 7.98 10.88 4.28 4.28 7.11 8.28 8.22 11.61 0.96 2.87 0.97 8.56 0.04 13.09-0.96 4.65-2.89 9.23-4.58 10.9-1.61 1.58-4.44 3.11-6.29 3.38-1.86 0.27-3.71 0.81-4.13 1.19-0.42 0.38 0.05 3.15 1.04 6.16 0.99 3 1.73 7.26 1.66 9.46-0.07 2.2 0.21 4.31 0.62 4.7 0.42 0.38 4.62-1.32 9.35-3.78 6.26-3.26 10.19-6.27 14.49-11.14 3.85-4.35 6.63-8.98 7.99-13.3 1.14-3.64 2.39-9.66 2.77-13.38 0.38-3.71-0.43-9.98-1.81-13.92-1.83-5.22-5.13-10.31-12.18-18.78-6.26-7.52-9.68-12.62-9.7-14.48-0.03-1.57-0.58-3.41-1.23-4.09-0.65-0.68-2.05-0.8-3.12-0.27-1.06 0.53-4 3.03-6.53 5.55-2.53 2.53-4.93 6.23-5.32 8.23zm278.85-266.27c1.07 2.65 2.75 8.82 3.72 13.7 0.97 4.88 1.11 13.3 0.3 18.71-0.81 5.41-3.27 15.87-5.48 23.24-2.55 8.53-7.47 19.78-13.54 30.95-5.24 9.66-10.72 20.2-12.17 23.44-1.46 3.23-2.4 7.8-2.09 10.15l0.56 4.28c-6.68-8.77-10.59-12.27-13.88-14.17-3.04-1.75-7.55-3.56-10.02-4.01-2.47-0.46-4.92-0.4-5.45 0.13-0.54 0.54 0.74 2.47 2.83 4.29 3.2 2.79 3.67 4.11 2.95 8.27-0.5 2.93-3.9 9.43-8.3 15.89-4.09 6.01-8.43 13.35-9.64 16.31-1.2 2.96-2.01 7.6-1.79 10.3 0.22 2.71 1.77 7.26 3.43 10.11 1.67 2.86 4.55 8.03 6.42 11.48l3.38 6.29c-8.42-1.16-8.48-1.11-7.73 1.93 0.43 1.7 0.93 5.54 1.13 8.54 0.2 3-0.5 9.3-1.54 14-1.05 4.71-1.98 8.91-2.07 9.35-0.1 0.44 3.6 2.89 8.22 5.44 4.61 2.55 9.17 4.5 10.13 4.33 1.08-0.2 1.19 0.23 0.28 1.13q-1.45 1.45 2.2 6.55c2 2.8 5.34 6.14 7.42 7.42 2.83 1.75 6.2 1.85 13.48 0.42 5.33-1.05 12.87-3.09 16.75-4.53 3.88-1.44 10.15-4.75 13.93-7.35 5.2-3.57 8.37-6.79 12.96-13.16 5.88-8.17 6.33-8.53 14.18-11.45 4.46-1.66 8.32-3.67 8.59-4.47 0.27-0.8-2.04-3.94-5.12-6.97-3.08-3.04-7.7-6.47-10.27-7.63-2.56-1.16-5.83-2.67-7.27-3.37-1.43-0.69-0.07-0.53 3.02 0.37 3.61 1.06 7.46 0.9 10.79-0.45 3.62-1.46 6.27-3.57 8.87-7.08 2.04-2.75 4.91-8.15 6.38-12 1.47-3.85 2.92-11.76 3.21-17.58 0.3-5.82 1.42-11.46 2.48-12.52 1.07-1.06 3.4-2.42 5.2-3.02 1.79-0.6 5.4-1.14 8.01-1.18 4.38-0.08 4.67-0.28 3.79-2.58-0.52-1.37-3.24-4.13-6.02-6.13-2.79-2-7.23-4-9.87-4.46-2.64-0.46-6.72-0.57-9.06-0.26-2.65 0.36-6.96 2.77-11.37 6.35-3.9 3.18-7.69 5.71-8.4 5.63-0.71-0.08-0.86-1.89-0.33-4.02 0.86-3.44 1.64-4.22 7.02-7 3.34-1.73 6.82-3.9 7.74-4.84 0.97-0.98 0.87-8.88-0.24-18.64-1.06-9.31-2.95-22.88-4.19-30.15-1.25-7.27-4.63-19.99-7.53-28.27-2.89-8.27-8.5-20.51-12.46-27.2-3.96-6.68-9.06-13.76-11.34-15.74l-4.15-3.59zm-12.34 159.88c2.37-5.62 4.73-10.65 5.25-11.19 0.53-0.54-0.88 4.15-3.11 10.43-2.24 6.27-7.04 17.57-10.68 25.11-3.64 7.53-9.14 17.92-12.22 23.08-3.09 5.17-5.95 9.7-6.37 10.08-0.41 0.39 4.55-10.1 11.03-23.31 6.49-13.2 13.73-28.59 16.1-34.2zm-330.06 262.91c-1.33 3.99-2.2 10.29-1.95 13.99 0.26 3.71 1.88 9.03 3.6 11.83 2.16 3.5 4.89 6.19 8.78 8.63 3.1 1.95 8.67 4 12.37 4.56 5.91 0.89 6.95 1.49 8.61 4.93 1.04 2.16 2.13 3.93 2.43 3.95 0.3 0.02 2.78-2.08 5.51-4.67 3.12-2.95 5.35-6.31 6-9 0.57-2.35 0.44-6.52-0.28-9.26-0.85-3.19-0.68-4.75 0.48-4.35 0.99 0.34 2.78 3.78 3.97 7.63 1.25 4.02 3.82 8.68 6.02 10.91 2.49 2.52 5.73 4.22 9.17 4.81 2.93 0.51 10.94 1.64 17.8 2.51 6.87 0.88 18.41 3.08 25.65 4.88 7.24 1.81 14.58 4.26 16.32 5.44 1.78 1.22 3.79 1.53 4.61 0.71 0.84-0.84 0.06-5.12-1.87-10.22-1.82-4.82-4.67-15.69-6.33-24.14-1.65-8.46-3.15-18.27-3.34-21.81-0.18-3.54-1.04-8.56-1.89-11.16-0.86-2.6-2.75-5.94-4.2-7.41-1.45-1.48-5.94-3.74-9.97-5.03-4.03-1.29-7.63-3.13-8-4.09-0.45-1.17 2.04-1.9 7.55-2.23 4.52-0.26 10.28-1.68 12.81-3.15 2.52-1.46 5.35-3.42 6.29-4.35 0.93-0.93 1.48-2.34 1.21-3.14-0.27-0.8-1.14-1.23-1.93-0.97-0.8 0.27-2.42-0.5-3.6-1.72-1.18-1.21-3.17-5.97-4.42-10.58-1.8-6.67-3.35-9.45-7.61-13.66-3.51-3.47-7.48-5.99-11.55-7.32-3.41-1.11-9.04-1.58-12.5-1.04-3.47 0.55-8.38 1.75-10.91 2.69-4.44 1.64-4.63 1.93-5.64 8.82-0.88 5.97-0.44 7.98 2.68 12.32l3.73 5.17c-8.82-0.57-13.35-0.09-15.76 0.69-2.94 0.96-7.58 4.55-14.18 10.97-8.15 7.92-10.12 10.52-11.64 15.33-1.01 3.18-1.56 7.69-1.22 10 0.35 2.32 1.78 6.11 3.19 8.43 2.51 4.11 2.46 4.1-2.37-0.53-2.71-2.61-6.9-5.82-9.31-7.14-2.41-1.32-6.34-2.41-8.73-2.44-2.4-0.03-4.99 0.63-5.76 1.45-0.77 0.83-2.49 4.77-3.82 8.76zm-129.39 134.76c-1.14 3.61-1.67 9.8-1.17 13.75 0.49 3.95 2.26 9.5 3.94 12.35 1.68 2.84 4.82 6.45 6.98 8.02 2.16 1.56 7.24 4.16 11.29 5.78 6.38 2.55 7.28 3.25 6.75 5.23-0.34 1.25-2.57 5.12-4.95 8.59-2.94 4.28-4.35 8.07-4.4 11.78l-0.08 5.46c18.82 17.17 25.73 23.11 27.49 24.27 2.82 1.86 2.91 2.41 0.79 4.53-1.33 1.33-1.88 2.97-1.22 3.64 0.72 0.73 4.02-0.77 8.3-3.79 3.91-2.75 10.31-6.15 14.23-7.55 3.92-1.4 11.52-2.55 16.89-2.54 5.37 0 17.42 1.48 26.78 3.29 9.37 1.82 20.2 3.11 24.07 2.88 3.88-0.23 9.86-1.53 13.3-2.87 3.85-1.51 8.66-4.78 12.52-8.5 5.46-5.29 6.79-5.97 10.47-5.43 2.32 0.34 6.26 1.98 8.76 3.65 4.44 2.97 4.47 3.06 1.39 4.72-1.72 0.93-5.1 1.48-7.5 1.2-4.31-0.48-4.49-0.34-14.99 11.13-6.35 6.94-12.76 15.34-15.92 20.84-2.91 5.08-6.59 12.53-8.17 16.56-1.68 4.25-2.27 7.94-1.41 8.76 0.81 0.78 5.29 2.18 9.95 3.11 4.66 0.93 12.5 1.59 17.43 1.46 4.93-0.12 12.85-1.56 17.6-3.19 4.75-1.64 12.14-5.35 16.43-8.25 4.29-2.9 8.12-4.94 8.52-4.54 0.4 0.4 0.72 5.08 0.72 10.4v9.68c13.79-1.96 20.44-3.8 23.67-5.35 3.23-1.56 8.04-5.02 10.68-7.7 2.64-2.68 6.41-7.62 8.38-10.97 1.96-3.36 5.07-10.26 6.9-15.35 3.26-9.01 3.25-9.18-0.21-6.97-1.94 1.24-6.34 3.81-9.76 5.71-3.41 1.9-9.47 4.12-13.46 4.92-3.98 0.8-17.38 1.11-29.78 0.69l-22.54-0.77c5.63-16.12 9.65-24.5 12.57-29.04 2.91-4.53 9.36-12.88 14.34-18.54 8.11-9.25 9.7-10.54 15.48-12.57 3.54-1.25 6.77-2.59 7.18-2.98 0.4-0.4 0.08-0.93-0.72-1.2-0.79-0.27 2.04-0.92 6.29-1.45 4.26-0.53 8.52-1.71 9.48-2.61 0.96-0.91 0.52 2.14-0.97 6.77-1.49 4.63-2.38 10.05-1.99 12.05 0.47 2.35 3.03 5.94 7.26 10.16 4.24 4.23 10.1 8.39 16.69 11.84 5.59 2.92 10.5 5 10.91 4.61 0.41-0.38 0.68-3.05 0.6-5.93-0.07-2.87-0.84-8.21-1.71-11.87-1.28-5.4-1.09-6.79 1.01-7.44 1.42-0.44 8.71-1.64 16.2-2.67 12.99-1.78 13.87-2.11 19.18-7.42 5.5-5.49 5.55-5.63 4.02-12.23-0.9-3.88-3.03-8.24-5.09-10.41-3.06-3.22-4.66-3.67-11.79-3.28l-8.26 0.45 17.01-3.3c-0.54-13.28-0.97-17.64-1.31-18.24-0.34-0.61-5.48-1.69-11.43-2.4-5.94-0.7-14.49-1.2-18.99-1.1-4.51 0.11-14.26 1.53-21.67 3.16-7.4 1.64-16.05 2.79-19.21 2.56-3.16-0.24-6.83-1.51-8.16-2.84-1.33-1.33-2.2-3.08-1.93-3.87 0.26-0.8-0.17-1.67-0.97-1.94-0.8-0.26-3.52 1.59-6.04 4.12-2.89 2.89-5.04 6.48-5.81 9.67l-1.21 5.07c-2.43-5.81-7.02-11.45-11.76-16.28-7.55-7.69-9.7-9.18-17.15-11.88-4.68-1.7-12.01-3.41-16.29-3.8-4.28-0.39-11.2 0.23-15.38 1.37-4.61 1.26-9.03 3.5-11.24 5.69-2.65 2.64-5.09 3.64-9.02 3.69-2.96 0.03-6.73-0.33-8.39-0.8-1.65-0.48-2.99-0.13-2.96 0.77 0.02 0.9 1.53 3.75 3.35 6.32 1.82 2.58 5.03 6.45 7.13 8.6 2.11 2.16 5.46 4.24 7.46 4.64 2.08 0.41 6.16-0.69 9.54-2.57 3.25-1.8 8.41-4.14 11.48-5.19 3.06-1.05 7.64-1.36 10.17-0.7 2.53 0.66 7.04 3.12 10.02 5.45 2.99 2.34 5.54 4.79 5.69 5.44 0.15 0.65-1.48 1.62-3.61 2.16-2.12 0.53-3.65 1.18-3.38 1.45 0.27 0.26-3.24 0.07-7.78-0.44-4.55-0.51-10.7-0.35-13.67 0.36-2.97 0.7-8.28 2.75-11.81 4.55-3.52 1.79-8.78 4.81-11.67 6.7-4.43 2.9-4.1 2.47 2.1-2.74l7.36-6.18c-4.71-2.53-8.88-4.95-12.3-7.02l-6.21-3.75c-18.14 14.85-28.4 24.17-34.52 30.3-6.11 6.12-16.56 17.87-23.22 26.11-6.66 8.24-12.31 15.21-12.56 15.49-0.26 0.27-0.53-2.18-0.61-5.45-0.09-3.28 0.55-9.17 1.41-13.1 0.86-3.92 2.34-7.89 3.28-8.81 0.93-0.93 5.4-2.77 9.92-4.1 7.21-2.12 9.22-3.4 16.25-10.36 6.27-6.21 8.13-8.8 8.51-11.9l0.5-3.96c-12.71 1.69-19.13 2.07-22.47 1.92l-6.06-0.26c7.24-1.75 14.72-2.98 21.28-3.86 6.57-0.89 13.91-2.69 16.31-4.01 2.41-1.31 7.75-5.77 11.87-9.89 5.38-5.37 7.15-7.83 6.26-8.67-0.69-0.65-5.98-2.1-11.77-3.23-5.79-1.13-16.12-2.55-22.95-3.16-7.25-0.65-19.97-0.03-30.51 1.48-9.94 1.43-21.15 2.63-24.9 2.66-3.76 0.03-8.65-0.74-10.87-1.72-3.01-1.32-4.74-3.01-6.82-6.71-1.54-2.72-3.41-5.86-4.16-6.97-0.74-1.11-1.82-1.56-2.38-1-0.57 0.56-1.96 3.98-3.1 7.6zm111.93 61.56c-1.61-1.62-1.29-2.58 1.93-5.81 2.43-2.43 4.34-3.43 5.12-2.7 0.69 0.65 2.5 0.94 4.03 0.65 2.28-0.43 4.02 0.8 9.61 6.84 5.99 6.47 7.9 7.74 24.77 13.59l0.63-8.56c0.35-4.71 1-9.71 1.46-11.12 0.66-2.07 2.13-2.28 7.58-1.11 3.72 0.8 7.49 1.31 8.38 1.13 0.9-0.18 5.18-2.87 9.52-5.98 4.34-3.11 8.83-6.23 9.99-6.93 1.67-1.02 1.54-1.62-0.65-2.89-1.51-0.88-6.22-2.92-10.45-4.54-4.23-1.62-6.45-2.89-4.92-2.81 1.52 0.07 9.29 0.57 31.77 2.08l1.72 5.05c0.94 2.78 2.35 6.42 3.13 8.08 1.34 2.84 0.92 2.92-7.15 1.35-5.05-0.98-11.7-0.93-16.17 0.12-7.39 1.74-7.96 2.15-21.45 15.18-11.67 11.28-14.4 13.4-17.32 13.45-1.91 0.04-6.68-0.64-10.61-1.5-3.93-0.85-12.06-3.82-18.07-6.6-6-2.77-11.79-5.91-12.85-6.97zm217.87-395.37c0.11 0.14 2.51 1.23 5.32 2.41 2.8 1.19 6.5 3.59 8.21 5.33 1.71 1.75 3.66 5.65 4.32 8.67 0.66 3.03-0.1 14.2-1.7 24.84-1.6 10.64-2.85 23.23-2.77 27.98 0.08 4.76 0.71 12.88 1.39 18.05 0.68 5.17 2.06 12.93 3.07 17.24 1 4.32 2.14 8.19 2.52 8.6 0.38 0.42 4.27-2.86 8.64-7.27 4.36-4.41 8.91-10.09 10.11-12.62 1.2-2.52 3.02-10.71 4.05-18.19 1.03-7.49 2.4-15.25 3.05-17.26l1.19-3.66c0.3 6.86-0.28 13.43-1.09 19.03-0.81 5.59-0.95 10.74-0.3 11.42 0.64 0.69 2.47 0.82 4.07 0.28 1.59-0.53 6.38-4.44 10.64-8.7 6.05-6.05 8.24-9.19 10.04-14.4 1.27-3.66 2.14-7.15 1.94-7.74-0.21-0.59 0.93-2.38 2.53-3.98q2.9-2.9 12.7-4.23c5.38-0.73 11.22-1.2 12.97-1.05 3 0.25 2.87 0.51-2.28 4.49-3 2.32-11.18 8.94-18.18 14.7-7.96 6.56-18.28 16.54-27.54 26.64-8.15 8.87-16.47 18.4-18.49 21.16-3.61 4.94-3.61 5.12 0.05 10.98 2.04 3.28 4.65 6.98 5.8 8.23 2 2.19 2.31 2.01 8.15-4.72l6.06-6.99c-8.3 12.69-12.12 20.4-13.84 25.33-2.13 6.1-2.79 11.26-2.08 16.14 0.58 3.94 0.36 9.38-0.48 12.09l-1.53 4.92c-6.75-6.75-9.55-10.7-10.57-13.13-1.03-2.43-1.6-6.7-1.26-9.48 0.33-2.78 2.63-9 5.11-13.82 2.82-5.5 4.16-9.85 3.57-11.7-0.53-1.67-4.25-5.85-8.66-9.72-4.25-3.73-8.55-7.04-9.57-7.35-1.24-0.39-1.77 2.16-1.62 7.86 0.17 6.79-0.44 9.11-3.12 11.87-1.84 1.89-4.3 5.96-5.46 9.06-1.16 3.09-1.89 10.55-1.63 16.58 0.27 6.02 1.54 13.81 2.84 17.31 1.87 5.06 4.31 8.32 12 16.04 5.31 5.33 11.18 10.56 13.04 11.63l3.39 1.93c-8.27 1.98-11.85 4.13-14.75 7.02-2.53 2.52-4.38 5.24-4.11 6.04 0.26 0.8 1.7 1.32 3.18 1.17 1.49-0.16 3.23 0.28 3.87 0.96 0.65 0.69 1.33 5.12 1.52 9.83 0.2 4.72-0.91 13.41-2.46 19.31-1.54 5.9-2.77 16.43-2.72 23.39 0.05 6.97 0.63 16 1.29 20.08l1.2 7.41 19.4 1.17 2.43-14.98c0.32 13.06 1.17 15.63 3.74 18.22 1.86 1.87 5.83 4 8.82 4.73 2.99 0.73 6.24 1.16 7.23 0.95 0.99-0.2 4.09-2.65 6.89-5.44 4.82-4.79 5.22-5.91 7.26-20.8 1.18-8.65 2.49-16.05 2.9-16.44 0.41-0.39 4.44 0.38 8.96 1.71 4.53 1.33 9.86 2.09 11.86 1.69 3.41-0.68 3.54-0.96 2.3-4.72-0.73-2.2-3.58-7.84-6.34-12.52-4.78-8.12-4.82-8.33-0.86-4.47l4.17 4.06c10.85-10.89 15.84-17 18.1-20.59 2.26-3.6 4.58-8.67 5.17-11.28 0.58-2.61 1.37-8.17 1.76-12.36 0.38-4.19 0.26-12.41-0.27-18.26-0.54-5.85-1.61-10.58-2.39-10.51-0.79 0.06-9.13 4.16-18.54 9.11-11.49 6.04-19.06 10.88-23.01 14.72-4.17 4.04-6.62 7.69-8.35 12.45l-2.46 6.73c11.45 11.8 13.69 14.56 12.37 13.75-1.32-0.8-4.35-1.54-6.73-1.63-2.38-0.09-7.15 0.92-10.62 2.25l-6.29 2.41c2.52-7.97 3.19-12.09 3.12-14.29-0.07-2.22 0.52-3.77 1.34-3.49 0.9 0.3 2.2-1.8 3.34-5.37 1.65-5.2 3.09-6.98 12.53-15.52 5.87-5.3 14.4-12.01 18.95-14.91 4.55-2.9 12.95-6.9 18.67-8.9 5.72-2 10.73-3.31 11.13-2.92 0.41 0.39 0.69 11.76 0.61 25.27-0.08 15.48-1.02 27.26-2.54 31.83-1.33 3.99-4.5 10.4-7.04 14.25l-4.61 6.99c8.04-2.45 14.85-5.44 20.32-8.22 6.35-3.23 12.11-7.24 15.97-11.11 4.33-4.34 6.76-8.07 8.59-13.18 1.4-3.92 2.75-10.27 3.01-14.11l0.46-6.99-20.83-0.12c8.52-12.48 12.43-20.32 14.19-25.47 1.93-5.65 3.16-13.65 3.09-20.13-0.06-5.91-1.18-14.22-2.49-18.45l-2.38-7.7c-11.57 4.17-19.35 7.93-24.75 11.04-5.79 3.34-14.74 10.08-21.83 16.44-11.86 10.65-11.99 10.83-10.5 13.68 0.83 1.59 0.73 4.52-0.21 6.5-1.42 2.97-2.12 3.41-4 2.5-1.29-0.62-3.16-4.03-4.3-7.79l-2.01-6.7c10.08-10.47 13.18-15.13 14.95-19.64 1.51-3.82 2.8-10.23 2.88-14.25 0.08-4.01-1.12-13.87-2.68-21.89-1.55-8.02-2.95-19.68-3.1-25.92-0.14-6.23 0.79-14.5 2.08-18.37 1.29-3.87 4.82-10.45 7.84-14.61 3.39-4.68 5.03-8.04 4.28-8.78-0.7-0.7-2.44 0.02-4.12 1.7-2.15 2.14-3.15 2.4-3.86 0.96-0.54-1.06-4.29-6.23-8.35-11.48-4.18-5.41-9.79-11.34-12.95-13.66-3.31-2.44-7.22-4.09-9.63-4.07-2.28 0.01-7.75 2.29-12.45 5.18-4.61 2.84-8.83 5.15-9.38 5.14-0.54-0.02-2.02-3.11-3.27-6.88-1.25-3.77-4.45-9.47-7.11-12.66-3.15-3.78-6.5-6.5-9.62-7.79-2.63-1.09-7.96-2.19-11.85-2.43-3.88-0.25-9.5 0.37-12.49 1.37-2.99 1-6.09 2.47-6.89 3.27-0.8 0.8-1.35 1.57-1.23 1.72zm62.17 114.36c-1.08-1.08-0.32-2.58 2.9-5.81 2.4-2.39 4.47-4.25 4.62-4.13 0.14 0.12 2.38 4.2 4.96 9.06 2.59 4.86 5.88 12.45 7.32 16.87 1.44 4.41 3.04 11.08 4.52 21.6l-10.33 9.64c-5.96 5.56-12.26 12.61-14.9 16.67-3.39 5.19-4.67 8.92-4.9 14.29-0.18 3.99 0.4 10.46 1.28 14.36 1.28 5.68 1.16 6.67-0.56 4.92-1.19-1.21-4.78-3.06-7.97-4.13-5.17-1.72-5.89-2.32-6.59-5.5-0.43-1.97-0.97-9.04-1.62-27.87l3.14 7.01c1.72 3.86 3.69 7.56 4.36 8.21 0.96 0.94 2.81-1.01 16.05-19.43l-1.63-6.6c-0.92-3.74-0.89-7.34 0.07-8.3 0.93-0.92 5.83-1.9 20.08-2.65l-0.78-3.58c-0.42-1.97-1.76-6.07-2.97-9.12-1.55-3.91-4.46-7.7-9.87-12.87-6.04-5.77-7.46-7.73-6.7-9.26 0.53-1.06 0.32-2.58-0.48-3.38zm-220.81 147.88c-0.6 3.57-0.39 8.37 0.46 10.66 0.89 2.37 3.23 5.36 5.48 6.99 2.22 1.61 9.02 3.64 15.65 4.67 6.96 1.08 30.76 8.3 58.62 17.8 25.79 8.79 46.79 15.21 46.67 14.27-0.13-0.94-1.57-4.94-3.21-8.89-2.84-6.84-3.3-7.36-10.01-11.26-3.87-2.25-12.75-6.65-19.72-9.79-6.98-3.13-19.85-8.11-28.6-11.06-8.76-2.94-19.61-6.02-24.12-6.83-4.51-0.82-12.07-1.96-16.8-2.55-4.73-0.59-10.84-2.31-13.58-3.83-2.74-1.52-5.75-3.94-6.71-5.39-0.95-1.44-2.02-2.32-2.39-1.96-0.36 0.36-1.14 3.59-1.74 7.17zm90.79-89.93c2.03 1.59 4.55 5.43 5.95 9.05 1.33 3.45 3 11.8 3.7 18.54 0.8 7.58 3.92 19.96 8.18 32.45 3.79 11.11 9.58 25.99 12.87 33.08 3.28 7.09 7.54 15.02 9.45 17.63 2.57 3.52 5.46 5.65 11.12 8.23 4.21 1.91 7.96 3.13 8.34 2.71 0.38-0.41-6.34-21.28-14.94-46.38-8.6-25.09-16.28-49.81-17.06-54.94-0.78-5.12-2.11-11.46-2.95-14.07-0.84-2.62-2.62-5.85-3.95-7.18-1.33-1.33-4.38-3.07-6.77-3.87-2.39-0.8-6.84-1.11-9.89-0.7-3.04 0.42-5.99 1.19-6.55 1.72-0.57 0.53 0.54 2.18 2.5 3.73zm-212.6 290.01c2.29 2.22 7.78 6.17 12.2 8.79l8.04 4.76c-10.15 1.85-15.51 3.89-18.46 5.73-2.95 1.84-11.88 9.45-19.85 16.91-8.78 8.23-19.49 16.94-27.19 22.14-7 4.71-17.05 11.19-22.35 14.41-5.3 3.21-9.52 6.17-9.37 6.59 0.14 0.41 5.77 2.42 12.5 4.47 6.73 2.05 18.31 4.62 25.73 5.71 7.42 1.09 18.48 1.84 24.57 1.65 6.1-0.19 14.74-1.04 19.21-1.89 4.47-0.85 10.98-2.83 14.46-4.4 3.48-1.57 7.42-3.95 8.75-5.28 1.33-1.33 4.06-2.97 6.07-3.65 2.01-0.68 3.97-0.9 4.36-0.48 0.38 0.41-0.1 1.92-1.06 3.35-0.96 1.43-1.83 4.91-1.93 7.74-0.17 4.66 0.44 5.77 6.59 11.91 3.72 3.72 7.42 6.55 8.22 6.28 0.8-0.26 1.62-1.83 1.84-3.48 0.21-1.64 0.86-4.04 1.45-5.32 0.67-1.47 3.6-2.79 7.99-3.61 3.81-0.72 10.29-3.16 14.39-5.44 5.16-2.86 9.26-6.24 13.26-10.92 4.35-5.09 6.86-9.82 10.04-18.99 2.33-6.71 6.79-16.18 9.92-21.03 3.13-4.85 6.15-9.67 6.71-10.7 0.7-1.28-3.4-1.69-12.9-1.29-7.66 0.32-14.27 0.89-14.69 1.26-0.42 0.38-1.3 3.86-1.94 7.74-0.64 3.88-2.6 10.2-4.35 14.03-1.75 3.83-4.81 8.61-6.79 10.62-2.19 2.23-5.8 4.11-9.22 4.81-3.09 0.63-11.97 0.46-19.72-0.38-7.76-0.84-18.5-1.82-23.88-2.17-5.37-0.36-10.23-1.07-10.79-1.57-0.57-0.5 1.11-4.24 3.72-8.3 2.6-4.07 8.48-13.66 13.06-21.32 4.58-7.66 10.72-16.32 13.65-19.24 3.35-3.33 7.28-5.89 10.54-6.87 2.87-0.86 7.02-1.31 9.23-1 2.22 0.31 7.22 2.16 11.13 4.11 4.42 2.2 7.52 2.96 8.21 2 0.61-0.85 3.09-5.07 5.51-9.39 4.33-7.71 4.35-7.87 0.91-10.15-1.91-1.28-8.98-4.22-15.7-6.55-8.51-2.94-15.47-4.2-22.94-4.14-8.56 0.08-13.36 1.19-23.69 5.52-7.12 2.98-16.7 7.13-21.28 9.21l-8.33 3.78zm406.35-405.14c-3.82 8.95-8.03 19.53-9.36 23.53-1.33 3.99-2.16 10.84-1.86 15.21 0.3 4.37 2.55 13.78 5 20.91 2.44 7.13 5.41 14.39 6.59 16.13 1.77 2.6 2.51 2.82 4.09 1.23 1.07-1.06 5.08-3.36 8.92-5.11 3.99-1.82 7.04-3.94 7.12-4.97 0.08-0.99-1.21-3.8-2.86-6.26-1.66-2.45-3.43-6.84-3.94-9.74-0.52-2.9-0.29-7.68 0.51-10.61 0.94-3.48 3.27-7.18 6.71-10.69 2.9-2.95 10.48-8.44 16.84-12.19 6.36-3.75 15.76-9.58 20.89-12.96 5.13-3.39 9.92-6.17 10.66-6.19 0.73-0.01 1.93 6.84 2.66 15.24 0.73 8.4 1.8 19.22 2.37 24.05 0.58 4.84 0.44 11.66-0.3 15.18-0.85 4.03-2.7 7.72-4.99 10-2.01 1.99-6.49 4.9-9.98 6.47-3.48 1.57-9.79 3.53-14.02 4.35-6.54 1.27-7.78 1.94-8.25 4.47-0.3 1.63-0.84 8.05-1.2 14.26-0.42 7.27-0.01 11.08 1.15 10.69 0.99-0.33 3.84-2.05 6.33-3.81 2.49-1.77 7.39-4.71 10.89-6.53 3.5-1.82 11.2-5 17.12-7.06 9.97-3.47 11.4-4.39 19.43-12.49 6.82-6.88 9.16-10.12 10.95-15.17 1.26-3.53 2.7-8.62 3.2-11.31l0.91-4.89c8.99-3.01 11.7-4 11.83-4.14 0.13-0.13-1.79-2.79-4.27-5.91-3.18-4-6.01-6.26-9.67-7.73-3.75-1.51-6.7-1.49-10.73 0.08-3.05 1.19-5.88 1.85-6.28 1.45-0.41-0.39 0.28-2.53 1.52-4.74 1.24-2.22 3.7-6.07 5.46-8.56 1.77-2.5 4.18-7.48 5.36-11.09 1.19-3.6 2.74-11.63 3.45-17.83 0.71-6.21 0.92-16.33 0.47-22.49-0.45-6.16-1.79-15.88-2.98-21.6-1.2-5.72-3.53-14.49-5.2-19.47-1.66-4.99-3.29-9.13-3.63-9.21-0.34-0.07-5.9 8.08-12.37 18.1-6.47 10.03-15.01 22.38-18.98 27.46-3.97 5.07-11.57 13.58-16.88 18.9-5.32 5.33-10.78 11.62-12.14 13.99-1.35 2.37-3.08 7.17-3.83 10.68-0.75 3.5-1.58 6.33-1.84 6.28-0.27-0.05-2.29-3.07-4.49-6.72-2.21-3.64-5.91-8.86-8.23-11.6-2.32-2.73-4.44-4.72-4.71-4.41-0.27 0.31-3.62 7.88-7.44 16.82zm-371.87 430.39c-1.39 2.52-5.49 10.18-9.09 17.02-3.61 6.84-6.62 12.82-6.7 13.27-0.08 0.46 4.77 0.93 10.78 1.05 6 0.12 15.59 0.57 21.3 0.99 5.71 0.42 11.93 0.14 13.83-0.62 1.9-0.76 5.91-4.16 8.9-7.55 2.99-3.4 6.32-8.77 7.41-11.93 1.74-5.05 1.56-6.24-1.4-9.63-2.89-3.3-3.99-3.69-7.46-2.62l-4.07 1.24c5.23-5.36 5.98-7.5 5.49-10-0.4-1.99-1.59-4.5-2.67-5.55-1.07-1.06-4.22-2.47-7.02-3.14-2.79-0.67-7.2-0.51-9.8 0.34-2.61 0.85-7.49 4.03-10.85 7.05-3.36 3.03-7.25 7.56-8.65 10.08zm393.17-392.75c-1.22 2.45-2.25 6.87-2.28 9.82-0.03 4.2 0.85 6.27 4.05 9.5 2.25 2.27 5.2 4.12 6.55 4.12 1.34 0 3.76-1.3 5.36-2.88 2.67-2.65 2.85-2.64 2.08 0.14-0.46 1.67-0.69 3.82-0.5 4.79 0.19 0.97 1.53 2.97 2.99 4.44 2.25 2.27 3.76 2.27 10.13 0 5.53-1.97 9.1-4.28 13.67-8.83 6-5.99 6.18-6.39 6.05-14.26-0.07-4.45-0.34-14.62-0.61-22.6-0.26-7.98-0.8-14.85-1.19-15.26-0.38-0.41-5.28 1.44-10.87 4.12-5.59 2.68-13.64 7.05-17.9 9.71-4.25 2.66-9.44 6.62-11.52 8.79-2.08 2.18-4.79 5.96-6.01 8.4zm-173.77 212.27c1.91 3.68 5.53 13.34 8.04 21.46 2.52 8.13 5.65 20.52 6.97 27.53 1.31 7.02 3.59 14.32 5.06 16.23 1.46 1.9 4.28 4.46 6.25 5.68 1.97 1.22 6.26 3.24 9.54 4.48 3.28 1.24 6.24 3.07 6.58 4.06 0.42 1.2-1.89 1.78-7.06 1.74-7.55-0.06-7.79 0.05-14.68 6.95-5.34 5.33-7.25 8.14-7.98 11.76l-0.97 4.75c7.07-3.94 9.62-5.15 10.24-5.23 0.61-0.08 2.77 2.99 4.79 6.82 2.39 4.55 5.82 8.85 9.87 12.37 3.77 3.28 9.05 6.36 13.42 7.84 4.33 1.47 14.73 2.45 26.08 2.45 10.38 0.01 19.18-0.33 19.56-0.75 0.38-0.42-0.32-7.34-1.54-15.39-1.22-8.04-2.62-15.1-3.1-15.68-0.48-0.59-1.18-3.37-1.56-6.18l-0.68-5.11c3.47 10.02 5.32 17.3 6.36 22.65 1.04 5.35 2.27 13.26 2.73 17.58 0.47 4.32 2.05 9.71 3.52 11.96 2.03 3.14 3.99 4.5 8.28 5.75 3.09 0.9 5.96 1.95 6.37 2.33 0.41 0.39-1.19 0.74-3.57 0.78-2.38 0.05-6.64 1.04-9.46 2.2-2.82 1.17-6 3-7.07 4.06-1.61 1.61-1.37 2.34 1.45 4.35 2.25 1.6 3.91 4.35 4.93 8.14 1.38 5.11 2.65 6.74 12.12 15.45 10.15 9.35 11.04 9.88 22.45 13.33 6.54 1.98 13.81 3.85 16.16 4.16l4.28 0.56c-17.94-18.08-20.7-21.69-22.29-26.08-1.12-3.13-3.03-13.85-4.22-23.83-1.2-9.97-2.57-19.7-3.05-21.62-0.86-3.42-0.58-3.48 15.29-3.28 8.89 0.11 19.87 1.1 24.41 2.19 6.09 1.47 10.4 3.64 16.46 8.3 4.51 3.46 10.28 8.35 12.83 10.86 4.55 4.5 4.67 4.52 7.79 1.45l3.16-3.13c-13.67-25.98-16.56-30.1-23.42-36.96-7.37-7.37-9.05-8.48-13.98-9.23-3.27-0.5-6.62-2.04-8.06-3.71-1.98-2.3-3.03-2.48-5.37-0.92-1.59 1.06-3.65 3.58-4.56 5.59-0.91 2.01-1.49 5.85-1.28 8.54l0.37 4.88c-3.25-9.49-5.38-13.45-6.83-14.93-1.78-1.83-7.74-3.47-18.6-5.1-8.78-1.33-19.13-3.38-23-4.57-6.04-1.85-6.61-2.24-4-2.77 1.66-0.33 3.46-0.06 3.98 0.6 0.53 0.67 7.43 2.25 15.35 3.52 11.87 1.9 14.54 1.86 15.23-0.25 0.46-1.4 0.67-10.54 0.47-20.32-0.2-10.42-1.41-20.7-2.91-24.87-1.41-3.9-4.29-9.29-6.4-11.96-2.32-2.94-6.68-6.45-10.98-8.86-3.93-2.19-7.69-4.52-8.37-5.18-0.67-0.65 0.18-3.5 1.89-6.33l3.12-5.15c-10.23 3.25-14.22 5.71-17.32 8.8-2.66 2.66-5.49 6.8-6.29 9.19-0.79 2.4-1.23 6.32-0.96 8.71 0.26 2.39 0.26 4.57 0 4.84-0.27 0.26-1.36-0.39-2.42-1.46-1.07-1.06-2.86-4.7-3.99-8.09-1.53-4.57-3.42-7.33-7.29-10.62-4.19-3.56-8.06-5.06-19.53-7.55-7.87-1.7-21.19-5.36-29.6-8.13-8.4-2.76-17.11-6.47-19.33-8.23-2.8-2.21-4.54-2.72-5.6-1.66-1.01 1.01-0.35 3.85 1.92 8.24zm75.96 51.73c-0.38-0.42 2.59-0.56 6.6-0.32 4.01 0.25 9.33 1.24 11.81 2.22 2.49 0.97 5.49 2.75 6.67 3.97 1.18 1.21 2.65 4.32 3.25 6.9 0.61 2.59 0.7 6.79 0.21 9.34-0.9 4.62-0.91 4.62-1.32-2.07-0.23-3.69-1.56-8.39-2.96-10.45-1.4-2.05-3.87-4.59-5.49-5.63-1.62-1.05-6.35-2.19-10.51-2.55-4.17-0.36-7.88-0.99-8.26-1.41zm-15.47 41.1c-2.03-3.08-1.57-2.95 3.77 1.07 3.33 2.51 7.25 4.65 8.69 4.74 2.04 0.13 2.21 0.29 0.74 0.71-1.03 0.3-3.91-0.26-6.39-1.24-2.61-1.04-5.47-3.25-6.81-5.28zm-159.82 11.97c-1.33 2.39-6.11 11.11-10.61 19.38-4.5 8.27-8.1 15.76-8.01 16.65 0.09 0.89 7.07 1.78 15.52 1.98 8.45 0.2 18.46-0.24 22.25-0.97 3.79-0.73 10.05-3.17 13.91-5.43 3.86-2.26 10.17-7.27 14.03-11.12l7-7.02-30.94-29.98c-7.75 2.75-12.41 5.48-15.36 7.85-2.95 2.37-6.46 6.27-7.79 8.66zm-21.45 78.19c-1.45 2.8-3.81 8.71-5.24 13.13-1.44 4.42-4.12 15.67-5.96 24.99-1.85 9.33-4.47 19.77-5.82 23.2-1.72 4.35-3.81 7.25-6.89 9.56-2.43 1.83-5.57 3.92-6.97 4.64-1.45 0.76 1.47 1.18 6.78 0.98 5.13-0.19 15.15-1.5 22.25-2.9 7.11-1.4 17.74-4.27 23.63-6.36 7.09-2.53 13.67-6.05 19.53-10.46 6.49-4.9 9.62-8.03 11.85-11.84 1.67-2.86 2.6-6.06 2.07-7.13-0.61-1.21-6.28-1.85-15.2-1.72-7.83 0.12-14.91-0.43-15.73-1.21-0.81-0.78-2.19-5.05-3.06-9.5-0.88-4.45-2.07-15.66-2.66-24.91-0.59-9.26-1.73-17.04-2.53-17.31-0.79-0.27-4.14 2.27-7.43 5.63-3.29 3.36-7.17 8.4-8.62 11.21zm295.48-296.98c0.13 0.79 7.94 2.01 17.36 2.7 9.42 0.68 20.77 1.96 25.22 2.84 5.16 1.01 8.59 2.47 9.49 4.04 0.78 1.36 1.27 8.05 1.1 14.87-0.18 6.82 0.2 12.97 0.85 13.66 0.64 0.69 2.56 1.16 4.26 1.06 2.29-0.15 5.24-2.4 11.29-8.63 6.6-6.78 9.06-10.38 12.63-18.5 2.44-5.54 5.8-16.54 7.47-24.45 1.68-7.9 3.49-18.71 4.04-24.01 0.55-5.3 0.7-10.33 0.33-11.17-0.46-1.04-1.02-0.67-1.75 1.15-0.58 1.48-2.13 4.24-3.44 6.12-1.31 1.9-5.27 4.87-8.84 6.64-3.55 1.77-15.89 5.1-27.42 7.41-11.52 2.3-24.63 5.74-29.12 7.63-5.21 2.19-10.99 5.93-15.94 10.31-4.28 3.79-7.66 7.53-7.53 8.33zm-219.57 246.89c1.61 3.44 4.09 11.19 5.51 17.22 1.42 6.02 2.32 16.24 2.01 22.71-0.32 6.46-0.81 11.95-1.09 12.21-0.28 0.25-4.1-3.14-8.49-7.53l-7.98-7.97c-15.8 14.25-20.72 17.81-22.21 17.83-1.37 0.01-4.14 1.7-6.17 3.74-2.52 2.55-3.94 5.67-4.52 9.98-0.46 3.46-0.65 8.43-0.42 11.06 0.31 3.44 1.15 5.02 2.97 5.63 1.4 0.46 5.51 0.44 9.14-0.06 3.62-0.49 8.57-1.74 11-2.78 2.42-1.03 8.49-5.85 13.48-10.7 6.7-6.53 8.23-7.65 5.85-4.3-1.76 2.49-3.55 6.13-3.97 8.09-0.43 1.96-0.18 5.57 0.55 8.04 0.94 3.18 3.16 6.1 7.64 10.08 3.47 3.08 6.81 5.66 7.42 5.74 0.61 0.08 3.81-5.65 7.11-12.73 3.45-7.41 8.82-16.39 12.66-21.18 3.67-4.58 7.56-10.86 8.64-13.96 1.07-3.1 1.73-11.14 1.46-17.88-0.27-6.73-1.67-16.21-3.11-21.07-1.44-4.85-4.28-11.08-6.31-13.84l-3.7-5.01c-10.94 3.45-15.97 4.12-18.23 3.72-2.26-0.4-5.49-1.74-7.19-2.97-1.7-1.23-3.51-1.8-4.03-1.28-0.53 0.52 0.36 3.77 1.98 7.21zm181.75-183.94c1.13 3 2.12 7.13 2.2 9.17 0.08 2.05-0.81 6.43-1.98 9.73-2.1 5.9-2.06 6.05 2.38 9.22 2.48 1.77 8.85 4.55 14.14 6.17 5.29 1.63 14.47 3.24 20.39 3.58 5.91 0.35 13.52-0.09 16.9-0.97 4.02-1.04 9.13-3.95 14.8-8.42 4.76-3.75 13.71-9.16 19.89-12.02 6.19-2.86 12.2-5.77 13.37-6.47 1.51-0.9 1.56-2.22 0.15-4.61-1.08-1.84-3.73-5.07-5.89-7.16-2.16-2.1-6.06-4.51-8.67-5.36-2.61-0.85-6.24-1.08-8.07-0.51-1.83 0.57-5.15 2.25-7.39 3.74-2.88 1.92-1.57 0.14 4.51-6.13 6-6.18 9.22-10.53 10.7-14.46 1.17-3.08 2.37-8.62 2.68-12.31 0.31-3.68 0.02-7.24-0.64-7.92-0.65-0.67-4.85-1.16-9.31-1.09-4.47 0.07-9.59 0.62-11.38 1.22-1.8 0.6-4.47 2.28-5.95 3.73-1.48 1.44-3.33 4.6-4.12 7-0.93 2.87-4.18 7.14-9.4 12.37-6.23 6.23-7.76 8.41-7.01 9.92 0.54 1.06 2.82 3.78 5.08 6.04 2.26 2.27 5.96 5.1 8.22 6.29l4.11 2.18c-12.18 2.06-20.37 2.19-26.06 1.63-5.69-0.56-16.05-3.04-23.02-5.52l-12.67-4.5zm-118.94 218.83c1.14 2.31 3.5 5.61 5.24 7.33 1.74 1.72 5.15 3.97 7.58 4.99 2.43 1.03 7.87 2.56 12.09 3.39 4.22 0.83 7.46 1.73 7.19 2-0.27 0.26-4.33 1.64-9.03 3.06-7.55 2.29-9.09 3.27-13.28 8.48-2.61 3.25-8.24 11.99-12.5 19.42-4.27 7.44-10.14 15.93-13.05 18.88-4.08 4.14-6.73 5.67-11.65 6.73-3.49 0.76-6.23 1.55-6.07 1.75 0.16 0.21 3.22 2.19 6.8 4.42 3.58 2.22 10.74 5.46 15.93 7.2 5.18 1.73 13.8 3.12 19.15 3.09 5.36-0.04 13.6-1.4 18.31-3.04 4.71-1.63 11.64-5.12 15.4-7.75 5.08-3.55 8.14-6.69 11.92-12.26 2.8-4.11 5.34-7.48 5.64-7.48 0.3 0-0.01 2.52-0.7 5.59-0.71 3.22-0.3 8.15 0.96 11.62 1.21 3.31 3.6 7.45 5.32 9.19 2.82 2.85 3.37 2.88 5.6 0.32 1.55-1.77 6.56-3.85 13.34-5.52 5.98-1.47 13.94-4.4 17.69-6.49 5.44-3.04 7.45-4.87 9.88-8.99 1.67-2.85 3.61-7.87 4.31-11.17 0.7-3.29 0.88-9.35 0.41-13.46-0.85-7.45-0.89-7.51-8.8-14.05-4.36-3.62-8.36-6.58-8.88-6.6-0.52-0.01-0.74 1.27-0.48 2.84 0.25 1.58-0.5 5.16-1.68 7.97-1.18 2.81-4.65 7.62-7.7 10.68-3.85 3.86-7.56 6.24-12.09 7.74-3.62 1.2-8.83 1.61-11.66 0.92-2.82-0.69-12.29-2.54-21.04-4.11l-15.92-2.86c8.43-16.31 12.25-24.9 13.93-29.61 2.43-6.85 4.39-9.92 9.79-15.35 5.46-5.49 8.39-7.38 15.31-9.84 6.33-2.25 9.24-4.02 11.13-6.77 1.41-2.05 2.34-4.38 2.08-5.18-0.27-0.8-5.02-2.72-10.56-4.26-5.53-1.55-11.92-2.49-14.19-2.1-2.26 0.39-7.63 1.99-11.93 3.54-5.18 1.87-11.29 5.57-18.07 10.96-5.63 4.47-12.44 8.89-15.13 9.81-2.69 0.92-6.36 1.16-8.16 0.54-1.8-0.62-3.56-0.83-3.9-0.45-0.34 0.37 0.32 2.56 1.47 4.88zm154.39-153.84c0.21 3.28-0.49 7.26-1.56 8.85-1.07 1.59-4.98 6.82-8.69 11.63-3.71 4.8-8.38 12.32-10.37 16.71-1.99 4.4-3.75 11.34-3.91 15.44-0.16 4.09 0.89 10.81 2.34 14.91 2.61 7.42 2.65 7.47 5.93 6.91 1.82-0.31 4.17-1.45 5.22-2.53 1.05-1.08 3.14-5.52 4.64-9.87 2.16-6.24 4.16-9.33 9.49-14.69 5.82-5.85 8.58-7.5 19.95-11.97 7.26-2.85 15.84-6.68 19.07-8.52 3.23-1.84 6.07-3.11 6.32-2.83 0.25 0.28 1.28 6.22 2.29 13.19 1 6.98 2.58 14.98 3.49 17.79 0.92 2.81 1.56 7.48 1.44 10.39-0.12 2.9-1.24 7.3-2.49 9.77-1.25 2.48-4.56 6.78-7.36 9.57-2.8 2.78-6.76 5.79-8.79 6.69-2.03 0.89-5.62 1.65-7.98 1.69-2.35 0.03-4.23 0.44-4.17 0.91 0.07 0.47 3.22 4.5 7.01 8.95l6.9 8.1c14.79 0.54 21.72-0.14 24.95-1.17 3.49-1.11 7.86-3.81 10.8-6.66 2.87-2.8 5.95-7.39 7.37-11 1.35-3.42 3.31-10.14 4.36-14.95 1.3-5.96 2.91-9.56 5.07-11.37l3.16-2.64c-7.99-6.39-12.26-8.7-14.63-9.25-2.38-0.55-6.72-0.35-9.64 0.45-2.93 0.8-5.54 0.8-5.81 0-0.3-0.91 1.57-2.42 5.1-4.09 3.07-1.45 7.32-4.39 9.44-6.52 2.12-2.14 5.79-7.17 8.16-11.19 2.37-4.01 5.25-11.03 6.39-15.59 1.15-4.56 1.82-12.37 1.48-17.36-0.34-4.98-1.85-12.61-3.37-16.95-1.51-4.33-4.12-10.43-5.79-13.54-1.68-3.12-3.59-6.21-4.25-6.88-0.76-0.78-1.56 0.7-2.18 4.08-0.67 3.6-2.73 7.28-6.42 11.48-3.92 4.47-8.51 7.92-16.58 12.44-6.13 3.44-14.28 8.35-18.1 10.92-3.82 2.56-8.17 6.48-9.66 8.71-1.5 2.23-3.05 5.9-3.46 8.16-0.4 2.25-1.21 5.15-1.78 6.43-0.58 1.28-1.27 2.12-1.54 1.85-0.27-0.27-1.32-4.59-2.35-9.6-1.58-7.75-2.67-9.95-7.28-14.67-2.99-3.06-7.04-6.14-9.01-6.85l-3.58-1.29zm-104.94 163.75c-2.26 3.06-5.9 10.96-8.07 17.56-2.18 6.6-3.42 12.56-2.77 13.23 0.66 0.67 5.37 2.27 10.47 3.56 5.1 1.28 11.24 2.41 13.65 2.5 2.41 0.09 7.01-0.69 10.22-1.74 4.98-1.61 6.99-3.18 13.57-10.61 4.24-4.8 8.21-10.2 8.81-11.99 1.02-3.03 0.47-3.88-7.87-12.19-4.93-4.91-10-9.2-11.27-9.52-1.39-0.35-3.09-2.15-4.24-4.47-1.06-2.13-2.58-3.78-3.37-3.67-0.79 0.11-4.49 2.81-8.23 6-3.73 3.18-8.63 8.29-10.9 11.34zm105.39-105.48c-3.63 4.63-3.92 5.66-2.03 7.07 1.23 0.91 3.3 2.76 4.61 4.11 1.31 1.35 6.4 6.91 11.32 12.37 8.57 9.51 9.08 9.88 12.27 8.9 1.9-0.58 7.56-5.21 13.2-10.78 9.61-9.5 9.89-9.94 10.62-16.47 0.41-3.69 0-10.68-0.91-15.53-0.91-4.86-2.47-10.2-3.46-11.86-1.62-2.73-2.77-2.77-11.41-0.38-5.29 1.47-11.61 3.72-14.04 5.01-2.44 1.29-7.02 4.54-10.18 7.23-3.16 2.69-7.66 7.34-9.99 10.33zm-36.17 69.27c0.17 5.68 0.89 16.06 1.61 23.06 1.22 11.96 1.6 13.04 6.39 17.79 3.32 3.3 7.34 5.81 11.55 7.2 3.78 1.25 9.06 1.58 12.73 0.8 5.64-1.19 7.29-2.32 16.11-10.98 9.55-9.4 9.84-9.84 10.6-16.41 0.44-3.72 0.07-9.09-0.8-11.94-1.03-3.36-3.62-7.21-7.38-10.99-5.58-5.61-6.22-5.86-17.24-6.95-6.29-0.62-16.49-1.31-22.66-1.52l-11.22-0.39zm37.83 61.34c-0.22 2.6 0.1 6.19 0.72 7.97 0.61 1.78 3.29 5.41 5.95 8.07 4.34 4.34 5.59 4.83 12.19 4.74 4.04-0.05 12.96-0.7 19.83-1.45 11.6-1.26 12.54-1.6 13.33-4.86 0.46-1.92 1.33-10.63 1.93-19.34 0.91-13.31 0.6-16.52-1.94-20.08-1.66-2.32-4.82-5.48-7.01-7.01-2.2-1.52-6.4-2.79-9.33-2.8l-5.34-0.02c-29.06 29.15-29.96 30.31-30.33 34.78z"/>
</svg>