<svg version="1.2" xmlns="http://www.w3.org/2000/svg" viewBox="0 0 230 230" width="230" height="230">
	<title>Pbach</title>
	<defs>
		<radialGradient id="g1" cx="0" cy="0" r="1" gradientUnits="userSpaceOnUse" gradientTransform="matrix(1253.492,0,0,1253.492,237.735,-904.934)">
			<stop offset="0" stop-color="#fec655"/>
			<stop offset="1" stop-color="#dd812f"/>
		</radialGradient>
		<radialGradient id="g2" cx="0" cy="0" r="1" gradientUnits="userSpaceOnUse" gradientTransform="matrix(14.756,0,0,14.756,115.093,115.163)">
			<stop offset="0" stop-color="#fec655"/>
			<stop offset="1" stop-color="#dd812f"/>
		</radialGradient>
		<radialGradient id="g3" cx="0" cy="0" r="1" gradientUnits="userSpaceOnUse" gradientTransform="matrix(10.225,0,0,10.225,115.327,28.6)">
			<stop offset="0" stop-color="#fec655"/>
			<stop offset="1" stop-color="#dd812f"/>
		</radialGradient>
		<radialGradient id="g4" cx="0" cy="0" r="1" gradientUnits="userSpaceOnUse" gradientTransform="matrix(10.225,0,0,10.225,115.191,202.314)">
			<stop offset="0" stop-color="#fec655"/>
			<stop offset="1" stop-color="#dd812f"/>
		</radialGradient>
		<radialGradient id="g5" cx="0" cy="0" r="1" gradientUnits="userSpaceOnUse" gradientTransform="matrix(1253.491,0,0,1253.491,237.735,-904.936)">
			<stop offset="0" stop-color="#fec655"/>
			<stop offset="1" stop-color="#dd812f"/>
		</radialGradient>
		<radialGradient id="g6" cx="0" cy="0" r="1" gradientUnits="userSpaceOnUse" gradientTransform="matrix(10.226,0,0,10.226,202.314,115.525)">
			<stop offset="0" stop-color="#fec655"/>
			<stop offset="1" stop-color="#dd812f"/>
		</radialGradient>
		<radialGradient id="g7" cx="0" cy="0" r="1" gradientUnits="userSpaceOnUse" gradientTransform="matrix(10.225,0,0,10.225,28.601,115.389)">
			<stop offset="0" stop-color="#fec655"/>
			<stop offset="1" stop-color="#dd812f"/>
		</radialGradient>
	</defs>
	<style>
		.s0 { fill: url(#g1) } 
		.s1 { fill: url(#g2) } 
		.s2 { fill: url(#g3) } 
		.s3 { fill: url(#g4) } 
		.s4 { fill: url(#g5) } 
		.s5 { fill: url(#g6) } 
		.s6 { fill: url(#g7) } 
	</style>
	<path id="&lt;Compound Path&gt;" fill-rule="evenodd" class="s0" d="m149.3 115.2c0 18.7-15.1 34-33.8 34.2q0 0 0 0-0.1 0-0.1 0-0.1 0-0.3 0c-9.2 0-17.6-3.6-23.7-9.6q-0.2 0-0.4-0.2-0.1-0.1-0.2-0.3c-6.1-6.2-10-14.7-10-24.1 0-9.3 3.7-17.7 9.8-23.9q0-0.2 0.1-0.4 0.2-0.1 0.4-0.1c6.2-6.1 14.7-9.9 24-9.9q0.2 0 0.3 0 0 0 0.1 0 0 0 0 0c18.7 0.2 33.8 15.5 33.8 34.3zm-1.6 0.8h-8.8c-0.2 6-2.6 11.4-6.5 15.5l6.3 6.2c5.4-5.6 8.8-13.3 9-21.7zm-56.1 21.9l6.3-6.2c-4-4.2-6.5-9.7-6.7-15.7h-8.8c0.2 8.5 3.7 16.2 9.2 21.9zm-9.2-23.5h8.8c0.2-6 2.6-11.4 6.4-15.5l-6.2-6.2c-5.4 5.7-8.8 13.3-9 21.7zm52.6 0.8c0-11-8.9-19.9-19.9-19.9-11 0-19.9 8.9-19.9 19.9 0 11 8.9 19.9 19.9 19.9 11 0 19.9-8.9 19.9-19.9zm2.8-23.5c-5.6-5.4-13.2-8.9-21.5-9.2v8.8c5.9 0.3 11.3 2.8 15.3 6.6zm-23.2-9.2c-8.5 0.1-16.3 3.6-22.1 9.1l6.2 6.2c4.2-3.9 9.8-6.4 15.9-6.5zm-21.8 56.5c5.7 5.4 13.4 8.7 21.8 8.8v-8.8c-6-0.1-11.5-2.4-15.6-6.2zm23.4 8.8c8.3-0.3 15.7-3.6 21.3-8.9l-6.2-6.3c-4 3.8-9.2 6.1-15.1 6.4zm31.5-33.4c-0.2-8.3-3.5-15.9-8.8-21.6l-6.2 6.3c3.7 4 6 9.4 6.2 15.3z"/>
	<path id="&lt;Compound Path&gt;" fill-rule="evenodd" class="s1" d="m115.1 129.9c-8.2 0-14.8-6.6-14.8-14.7 0-8.2 6.6-14.8 14.8-14.8 8.2 0 14.7 6.6 14.7 14.8 0 8.1-6.5 14.7-14.7 14.7zm13.2-14.7c0-7.3-5.9-13.2-13.2-13.2-7.3 0-13.2 5.9-13.2 13.2 0 7.2 5.9 13.1 13.2 13.1 7.3 0 13.2-5.9 13.2-13.1z"/>
	<path id="&lt;Compound Path&gt;" fill-rule="evenodd" class="s2" d="m108 32c0-6.5 6.4-14.7 6.7-15.1l0.6-0.8 0.7 0.8c0.2 0.4 6.6 8.6 6.6 15.1 0 7.5-3.9 9.1-7.3 9.1-3.3 0-7.3-1.6-7.3-9.1zm1.6 0c0 5.1 1.9 7.5 5.7 7.5 3.9 0 5.7-2.4 5.7-7.5 0-4.8-4.1-11-5.7-13.3-1.6 2.3-5.7 8.5-5.7 13.3z"/>
	<path id="&lt;Compound Path&gt;" fill-rule="evenodd" class="s3" d="m122.5 198.9c0 6.5-6.4 14.8-6.7 15.1l-0.6 0.8-0.6-0.8c-0.3-0.3-6.7-8.6-6.7-15.1 0-7.5 4-9.1 7.3-9.1 3.3 0 7.3 1.6 7.3 9.1zm-1.6 0c0-5-1.9-7.5-5.7-7.5-3.8 0-5.7 2.5-5.7 7.5 0 4.8 4.1 11 5.7 13.3 1.6-2.3 5.7-8.5 5.7-13.3z"/>
	<path id="&lt;Compound Path&gt;" fill-rule="evenodd" class="s4" d="m228.4 116.3c-1.5 1.6-36 39.7-51.7 44.7v15.2c0 0.7-0.5 1.2-1.2 1.2h-15.3q-0.6 1.5-1.5 3.1c-10.2 18-40.3 46.7-41.6 47.9-0.4 0.3-0.8 0.5-1.3 0.5-0.5 0-1-0.2-1.4-0.5-1.6-1.5-38.9-35.3-44.5-51.2h-14.3c-0.7 0-1.2-0.5-1.2-1.2v-15.3q-2-0.7-4-1.8c-17.9-10.2-46.6-40.3-47.9-41.6-0.7-0.7-0.7-1.9 0-2.7 1.5-1.6 36.1-39.8 51.8-44.7v-13.9c0-0.6 0.5-1.2 1.1-1.2h14.4q0.8-2.1 2-4.4c10.3-17.9 40.3-46.6 41.6-47.9 0.7-0.7 1.9-0.7 2.7 0 1.6 1.5 40.5 36.8 44.9 52.2h14.4c0.7 0 1.2 0.5 1.2 1.2v14.3q1.9 0.7 3.9 1.8c18 10.3 46.7 40.3 47.9 41.6 0.7 0.7 0.7 1.9 0 2.7zm-54.2-59.2h-12.7c1 5.2 0.3 9.7-1.1 13.4 4-1.7 8.6-2.4 13.8-1zm-98.6 15.3q0.3 0.5 0.7 1c2.2 1.7 4 3.5 5.3 4.9 2.9-2.6 6.1-4.9 9.6-6.8-3-5.8-8-19.1 3.4-26.8 9.9-6.8 19.5 0.6 22 2.8 1.5-1.5 6.2-5.6 11.9-5.8 3.7-0.1 7.1 1.3 10.1 4.2 4.6 4.4 5.8 10.7 3.6 18.4-0.8 2.9-2 5.5-2.9 7.3 3.5 2 6.7 4.4 9.7 7.1 1.2-1.3 2.9-3 5-4.6 3-4.1 5.3-10.1 3.2-18.2-0.4-1.5-1.3-3.6-3.2-6.6l-4.7 8.3c-0.3 0.7-1 1-1.7 1q-0.5 0-1-0.2c-0.9-0.5-1.2-1.8-0.7-2.7l5.6-10c-3.1-4.4-7.9-10.1-14.9-17.6l-3.2 6.7c-0.4 0.8-1.1 1.2-1.8 1.2q-0.5 0-0.9-0.2c-1-0.5-1.4-1.7-0.9-2.7l3.9-8c-8.1-8.3-15.9-15.6-18.9-18.4-2.9 2.8-10.1 9.9-17.8 18.2l4 8.2c0.5 1 0 2.2-0.9 2.7q-0.5 0.2-0.9 0.2c-0.7 0-1.4-0.4-1.8-1.2l-3.3-6.7c-5.3 5.9-10.6 12.2-14.7 17.9l5.5 9.7c0.5 0.9 0.2 2.2-0.8 2.7q-0.4 0.2-0.9 0.2c-0.7 0-1.4-0.3-1.8-1l-4.5-8q-0.9 1.4-1.6 2.8c-3.8 6.7-3.7 13.4 0.3 20zm148.6 42.6c-2.8-2.9-9.9-10.1-18.2-17.8l-8.2 3.9q-0.5 0.2-0.9 0.2c-0.7 0-1.4-0.4-1.8-1.1-0.5-1 0-2.1 0.9-2.6l6.8-3.3c-5.9-5.3-12.2-10.6-17.9-14.7l-9.7 5.4q-0.5 0.3-1 0.3c-0.7 0-1.3-0.4-1.7-1-0.5-1-0.2-2.2 0.7-2.7l8-4.5q-1.4-0.9-2.7-1.6c-6.7-3.9-13.4-3.8-20 0.3q-0.9 0.6-1.8 1.2c-1.6 2-3.3 3.6-4.7 4.8 2.7 2.9 5 6.2 6.9 9.8 5.6-2.9 19.4-8.5 27.3 3.1 6.8 9.9-0.7 19.6-2.8 22 1.5 1.6 5.6 6.2 5.8 12 0.1 3.6-1.3 7-4.2 10.1-3 3.1-6.9 4.6-11.5 4.6q-3.2 0.1-6.9-1c-3.2-0.9-6.1-2.3-7.9-3.3-1.9 3.5-4.2 6.7-6.9 9.7 1.4 1.2 3.2 3 4.9 5.3 4 3 10.1 5.4 18.3 3.3 1.5-0.4 3.6-1.4 6.5-3.2l-8.3-4.7c-0.9-0.5-1.2-1.7-0.7-2.7 0.5-0.9 1.7-1.3 2.7-0.7l10 5.6c4.3-3.2 10.1-7.9 17.5-14.9l-6.7-3.3c-0.9-0.5-1.4-1.6-0.9-2.6 0.5-1 1.7-1.4 2.7-0.9l8 3.8c8.3-8 15.6-15.8 18.4-18.8zm-43.1 1.8l0.6-0.6c0 0 2.7-2.6 4.3-6.5 2.2-5 1.9-9.8-1.1-14.1-7.2-10.6-20.1-5.3-25.2-2.6q0.8 1.6 1.5 3.3c6.6-2 11.6-0.7 14.9 3.9 5.8 8.1 0.2 14.4-1.8 16.3 1.2 1.3 3.9 4.6 4 8.6 0.1 2.7-0.9 5.3-3.1 7.5-2.4 2.5-5.1 3.3-7.8 3.3-2.4 0-4.6-0.7-6.4-1.4q-0.7 1.7-1.5 3.2c4.8 2.6 16.8 7.8 24.3 0 2.7-2.7 3.9-5.7 3.8-8.9-0.2-6.3-5.8-11.4-5.9-11.4zm-22.5-1.7c0-24-19.4-43.5-43.5-43.5-24 0-43.4 19.5-43.4 43.5 0 24 19.4 43.5 43.4 43.5 24.1 0 43.5-19.5 43.5-43.5zm-3.7 43.3q-0.5-0.9-1.1-1.7c-2.2-1.7-3.9-3.5-5-5-2.9 2.7-6.2 5.1-9.7 7 2.8 5.4 8.6 19.4-3.1 27.5-9.9 6.7-19.6-0.7-22-2.9-1.6 1.6-6.2 5.6-12 5.8q-0.2 0-0.5 0c-3.4 0-6.7-1.4-9.6-4.2-4.5-4.4-5.8-10.7-3.6-18.3 0.9-3.2 2.2-5.9 3.1-7.7-3.4-1.9-6.6-4.1-9.5-6.7-1.3 1.4-3.3 3.3-5.8 5.1-2.7 4-4.8 9.9-2.7 17.6 0.3 1.5 1.3 3.6 3.1 6.6l4.7-8.3c0.5-1 1.8-1.3 2.7-0.8 1 0.6 1.3 1.8 0.8 2.7l-5.7 10c3.2 4.4 7.9 10.1 15 17.6l3.2-6.7c0.5-1 1.7-1.4 2.6-1 1 0.5 1.4 1.7 1 2.7l-3.9 8c8 8.4 15.8 15.6 18.9 18.4 2.8-2.8 10.1-9.9 17.7-18.2l-3.9-8.2c-0.5-1-0.1-2.2 0.9-2.7 1-0.4 2.2 0 2.6 1l3.3 6.8c5.3-6 10.7-12.3 14.7-18l-5.4-9.7c-0.6-0.9-0.2-2.1 0.7-2.7 1-0.5 2.2-0.2 2.7 0.8l4.5 8q0.9-1.4 1.7-2.7c3.8-6.8 3.7-13.5-0.4-20.1zm-62 1.2c-2.7 5-7.6 16.7 0.1 24.1 2.8 2.7 5.8 4 9 3.8 6.3-0.2 11.3-5.8 11.3-5.8l0.6-0.7 0.6 0.7c0 0 2.6 2.6 6.5 4.3 5 2.2 9.8 1.8 14.1-1.2 5.6-3.8 7.5-9.5 5.8-17-0.8-3.4-2.2-6.4-3.2-8.3q-1.6 0.8-3.3 1.5c2 6.7 0.7 11.8-3.9 15.1-2.6 1.8-5 2.5-7.1 2.5-4.5 0-7.9-3-9.2-4.4-1.3 1.2-4.6 3.9-8.6 4.1-2.7 0.1-5.2-1-7.5-3.2-4.6-4.4-3.4-10.2-2-14q-1.6-0.7-3.2-1.5zm-40.5-4.2c6.7 3.8 13.5 3.7 20.1-0.4q0.4-0.3 0.9-0.6c1.8-2.4 3.7-4.2 5.2-5.5-2.6-2.8-5-6-6.9-9.5-3 1.6-8.3 3.7-13.6 3.7-4.8 0-9.7-1.7-13.4-7-6.7-9.9 0.7-19.6 2.9-22-1.6-1.6-5.6-6.2-5.8-12-0.2-3.6 1.2-7 4.2-10.1 4.4-4.5 10.7-5.8 18.3-3.6 2.8 0.8 5.3 1.9 7.1 2.8 1.9-3.4 4.2-6.7 6.9-9.6-1.4-1.3-3.2-3.1-4.8-5.5-4.1-2.7-9.9-4.6-17.5-2.6-1.5 0.3-3.6 1.3-6.6 3.1l8.3 4.7c1 0.5 1.3 1.8 0.8 2.7-0.4 0.7-1.1 1-1.8 1q-0.5 0-0.9-0.2l-10.1-5.7c-4.3 3.2-10 7.9-17.5 15l6.7 3.2c1 0.5 1.4 1.6 0.9 2.6-0.3 0.7-1 1.2-1.8 1.2q-0.4 0-0.8-0.2l-8-3.9c-8.4 8-15.6 15.8-18.5 18.9 2.8 2.8 9.9 10.1 18.3 17.7l8.2-3.9c1-0.5 2.2-0.1 2.6 0.9 0.5 1 0.1 2.2-0.9 2.6l-6.8 3.3c5.9 5.3 12.2 10.7 17.9 14.7l9.8-5.4c0.9-0.6 2.1-0.2 2.7 0.7 0.5 1 0.2 2.2-0.8 2.7l-8 4.5q1.4 0.9 2.7 1.7zm-2.6-41.4l-0.6 0.6c0 0-2.6 2.6-4.3 6.5-2.2 5-1.8 9.8 1.1 14.1 3.8 5.6 9.6 7.5 17.1 5.8 3.1-0.7 5.9-2 7.8-3q-0.8-1.6-1.6-3.3-2.7 0.7-5.1 0.7-5.9 0-9.4-4.8c-5.7-8-0.2-14.3 1.9-16.3-1.3-1.3-3.9-4.6-4.1-8.6-0.1-2.7 1-5.2 3.1-7.5 4.2-4.4 9.7-3.5 13.4-2.2q0.8-1.7 1.6-3.3c-5.3-2.7-16.4-7-23.6 0.4-2.6 2.8-3.9 5.8-3.8 9 0.3 6.3 5.8 11.3 5.9 11.3zm88.1-43.1c2.6-5.2 7.2-16.6-0.4-23.8-2.7-2.7-5.7-3.9-8.9-3.8-6.3 0.2-11.3 5.8-11.4 5.8l-0.6 0.7-0.6-0.6c0-0.1-2.6-2.7-6.4-4.4-5.1-2.1-9.8-1.8-14.1 1.2-5.6 3.8-7.6 9.5-5.9 17 0.8 3.1 2 5.8 2.9 7.7q1.7-0.8 3.5-1.5c-1.8-6.4-0.4-11.3 4.1-14.5 8-5.7 14.3-0.1 16.2 1.9 1.3-1.2 4.6-3.9 8.6-4.1 2.8-0.1 5.3 1 7.6 3.2 4.4 4.3 3.4 9.8 2.1 13.6q1.7 0.7 3.3 1.6zm-22.8-5.6c6.3 0 12.4 1.2 18 3.4 1.4-4 1.8-8.4-1.7-11.9-2-1.9-4.1-2.8-6.4-2.7-4.5 0.2-8.1 4.2-8.1 4.2l-0.7 0.7-0.6-0.7c-0.2-0.4-6.3-8.2-14.6-2.3-3.9 2.8-5.1 6.9-3.6 12.6 5.5-2.1 11.5-3.3 17.7-3.3zm-58.5-8.1v12.1c5.3-1.1 9.8-0.5 13.5 0.8-1.5-3.7-2.1-8.1-1-12.9zm8.7 57.9c0-6.2 1.1-12.1 3.2-17.6-3.9-1.3-8.3-1.7-11.6 1.8-1.9 2-2.8 4.1-2.8 6.4 0.2 4.5 4.2 8.1 4.2 8.1l0.8 0.7-0.8 0.6c-0.3 0.2-8.2 6.3-2.2 14.6 2.8 3.9 6.9 5.1 12.6 3.5-2.2-5.6-3.4-11.7-3.4-18.1zm-8.6 59.7h12.5c-1.2-5.6-0.6-10.3 0.8-14.2-2.4 0.9-5 1.5-7.9 1.5q-2.6 0-5.4-0.7zm58.4-9.8c-6.2 0-12.1-1.2-17.5-3.2-1.5 4.1-2.2 8.7 1.6 12.3 1.9 1.9 4.1 2.8 6.3 2.7 4.5-0.2 8.1-4.2 8.2-4.2l0.6-0.7 0.6 0.7c0.2 0.4 6.3 8.2 14.6 2.3 4.1-2.9 5.2-7.3 3.4-13.2-5.5 2.1-11.5 3.3-17.8 3.3zm59.2 10v-13.4q-2.8 0.6-5.4 0.6c-3.2 0-6.1-0.6-8.6-1.6 1.7 4.1 2.4 9 0.7 14.4zm-2.5-58.6l0.8-0.6c0.3-0.2 8.2-6.3 2.2-14.6-2.8-4-7.1-5.1-13.1-3.4 2.1 5.4 3.2 11.3 3.2 17.4 0 6.3-1.2 12.3-3.4 17.9 4.2 1.5 8.9 2.2 12.5-1.5 1.9-2 2.8-4.1 2.7-6.4-0.1-4.5-4.1-8.1-4.1-8.1z"/>
	<path id="&lt;Compound Path&gt;" fill-rule="evenodd" class="s5" d="m214 114.9l0.8 0.6-0.8 0.6c-0.3 0.3-8.6 6.7-15.1 6.7-7.5 0-9.1-3.9-9.1-7.3 0-3.3 1.6-7.3 9.1-7.3 6.5 0 14.8 6.4 15.1 6.7zm-1.8 0.6c-2.3-1.6-8.5-5.7-13.3-5.7-5 0-7.5 1.9-7.5 5.7 0 3.9 2.5 5.7 7.5 5.7 4.8 0 11-4.1 13.3-5.7z"/>
	<path id="&lt;Compound Path&gt;" fill-rule="evenodd" class="s6" d="m41.1 115.4c0 3.3-1.6 7.3-9.1 7.3-6.5 0-14.7-6.4-15.1-6.7l-0.8-0.6 0.8-0.6c0.4-0.3 8.6-6.7 15.1-6.7 7.5 0 9.1 4 9.1 7.3zm-1.6 0c0-3.9-2.4-5.7-7.5-5.7-4.8 0-11 4.1-13.3 5.7 2.3 1.6 8.5 5.7 13.3 5.7 5.1 0 7.5-1.9 7.5-5.7z"/>
</svg>