<svg version="1.2" xmlns="http://www.w3.org/2000/svg" viewBox="0 0 1080 1080" width="120" height="120">
	<style>
		.s0 { fill: #efbf04 } 
	</style>
	<g id="&lt;Group&gt;">
		<path id="&lt;Path&gt;" class="s0" d="m479.31 479.43c-33.23 33.23-33.23 87.27 0 120.49 16.06 16.07 37.47 24.87 60.27 24.88 22.74 0.04 44.18-8.85 60.19-24.91 16.11-16.07 24.96-37.49 24.99-60.26 0-22.81-8.82-44.21-24.88-60.27-33.23-33.23-87.32-33.18-120.57 0.07z"/>
		<path id="&lt;Path&gt;" class="s0" d=""/>
		<path id="&lt;Compound Path&gt;" fill-rule="evenodd" class="s0" d="m422.32 656.97c-64.82-64.82-64.8-169.64 0.06-234.5 64.85-64.85 169.67-64.88 234.5-0.06 64.82 64.82 64.79 169.64-0.06 234.5-64.86 64.85-169.68 64.88-234.5 0.06zm197.9-36.63c44.48-44.48 44.5-116.86 0.05-161.31l-0.03-0.04c-21.52-21.51-50.19-33.36-80.66-33.32-30.5 0.02-59.18 11.82-80.7 33.33-21.5 21.51-33.31 50.19-33.32 80.69-0.03 30.46 11.83 59.13 33.34 80.64 44.47 44.47 116.86 44.47 161.32 0.01z"/>
		<path id="&lt;Path&gt;" class="s0" d="m327.82 665.9c-6.05 22.52-6.82 76.78-6.9 92.36 18.8-0.12 70.75-1.09 92.33-6.93 15.18-4.18 33.59-16.58 40.76-39.1-19.12-9.53-36.14-21.69-50.73-36.27-14.72-14.76-26.92-31.79-36.21-50.67-22.67 7.26-35.27 26.27-39.25 40.61z"/>
		<path id="&lt;Path&gt;" class="s0" d="m283.23 666.72c-9.04 33.01-10.4 112.57-10.55 139.78 27.1-0.18 106.57-1.39 139.77-10.49 26.61-7.33 59.46-30.93 65.73-73.78-2.91-0.93-6.1-2.02-9.37-3.23-9.75 27.59-33.53 43.07-51.35 47.94-29.73 8.11-103.99 7.53-104.75 7.55-4.29 0.01-8.01-3.76-8.02-8.06 0.01-0.72-0.54-75.19 7.59-104.76 5.1-18.65 20.33-41.72 47.89-51.3-1.14-3.04-2.15-6.09-3.15-9.3-40.25 6.05-66.03 37.11-73.79 65.65z"/>
		<path id="&lt;Path&gt;" class="s0" d="m521.03 731.46c-7.66-0.76-15.64-2.1-24.4-4.13-8.14 47.52-45.38 77.97-79.06 87.17-41.31 11.31-143.02 11.28-154.48 11.27-5.23-0.08-9.52-4.46-9.7-9.51-0.05-11.69-0.02-113.34 11.28-154.6 9.22-33.81 39.72-71.03 87.22-79.16-1.97-8.54-3.32-16.54-4.11-24.29-92.36-11.76-150.23 48.06-165.01 109.07-2.14 8.97-4.03 20.59-5.53 34.6q11.59-10.42 22.53-11.21c16.82-0.96 27.18-16.55 27.27-16.7 0.66-0.97 1.94-1.29 2.96-0.74 0.16 0.11 0.36 0.24 0.49 0.37 0.64 0.65 0.86 1.6 0.5 2.46-0.45 0.99-10.64 24.06-26.6 29.47-20.42 6.95-30.33 31.75-30.99 53.35-2.38 63.98-0.19 133.86 0.26 146.63 13.16 0.49 86.69 2.83 152.23 0.07 18.77-1.81 41.32-10.75 48.01-30.54 5.34-16.03 28.44-26.18 29.44-26.63 1.06-0.39 2.25-0.03 2.84 1 0.55 1.02 0.24 2.3-0.75 2.96-0.13 0.1-15.72 10.47-16.74 27.22-0.44 7.27-4.12 14.76-10.89 22.36 13.89-1.57 25.36-3.41 34.16-5.48 61-14.79 120.78-72.7 109.07-165.01z"/>
		<path id="&lt;Path&gt;" class="s0" d="m751.48 413.09c5.94-21.67 6.89-73.6 7-92.39-15.6 0.11-70.06 0.89-92.42 6.97-14.3 3.93-33.29 16.5-40.55 39.18 18.99 9.36 35.94 21.46 50.42 35.94 14.92 14.92 27.13 31.98 36.52 50.99 22.52-7.11 34.9-25.55 39.03-40.69z"/>
		<path id="&lt;Path&gt;" class="s0" d="m796.2 412.27c8.72-32.06 10.32-106.78 10.56-139.85-27.16 0.17-106.69 1.56-139.82 10.59-28.5 7.78-59.62 33.55-65.63 73.77 2.98 0.99 6.09 2.03 9.22 3.24 9.69-27.68 32.71-42.86 51.35-47.95 24.85-6.77 80.77-7.58 103.63-7.62l1.17-0.01c4.3 0.07 7.94 3.71 8.06 8.02l-0.02 0.85c-0.01 17.84-0.54 78.14-7.62 103.98-4.84 17.79-20.3 41.56-47.91 51.33 1.07 2.81 2.15 5.84 3.28 9.32 42.83-6.24 66.45-39.12 73.73-65.67z"/>
		<path id="&lt;Path&gt;" class="s0" d="m558.4 347.6c7.83 0.73 15.81 2.07 24.32 4.07 8.18-47.52 45.36-78 79.14-87.2 38.26-10.46 127.24-11.28 153.61-11.28l0.92 0.01c5.29 0.11 9.47 4.46 9.58 9.55v1.34c-0.03 26.35-0.89 115.33-11.23 153.19-9.21 33.74-39.69 70.97-87.21 79.15 2.09 8.7 3.39 16.72 4.12 24.41 92.38 11.7 150.26-48.11 165-109.06 2.11-8.84 3.93-20.07 5.47-34.15-7.58 6.75-15.05 10.4-22.29 10.82-16.85 1.06-27.1 16.59-27.23 16.75-0.64 0.97-1.93 1.29-2.94 0.73-1.03-0.54-1.49-1.8-1-2.84 0.43-0.98 10.57-24.07 26.63-29.43 19.7-6.7 28.7-29.22 30.54-48.1 2.73-65.43 0.38-138.88-0.12-152.09-12.78-0.44-82.58-2.72-146.62-0.29-21.59 0.66-46.43 10.51-53.31 30.96-5.46 16.01-28.5 26.17-29.47 26.6-1.08 0.45-2.28 0.06-2.84-0.99-0.55-1.01-0.23-2.3 0.73-2.94 0.18-0.12 15.74-10.44 16.74-27.25 0.46-7.34 4.22-14.87 11.16-22.54-13.83 1.48-25.46 3.37-34.64 5.57-61.02 14.73-120.86 72.59-109.06 165.01z"/>
		<path id="&lt;Path&gt;" class="s0" d="m321.01 320.74c0.04 15.59 0.78 69.8 6.89 92.38 2.63 9.68 8.12 18.98 15.41 26.27 6.75 6.75 14.71 11.63 23.66 14.48 9.45-19.1 21.67-36.17 36.3-50.8 14.62-14.62 31.66-26.8 50.7-36.2-6.01-18.7-22.5-34.27-40.65-39.17-21.68-5.95-73.57-6.81-92.31-6.96z"/>
		<path id="&lt;Path&gt;" class="s0" d="m452.91 306.7c-11.28-11.28-25.63-19.71-40.38-23.74-34.1-9.31-118.02-10.38-139.81-10.5 0.15 27.11 1.31 106.4 10.48 139.84 4.13 15.01 12.5 29.41 23.71 40.62 13.65 13.65 30.89 22.26 50.06 25.03 1.06-3.21 2.11-6.23 3.25-9.27-10.57-3.73-20.04-9.75-28.15-17.86-9.47-9.39-16.46-21.32-19.78-33.44-7.7-28.36-7.62-97.04-7.55-104.83 0.03-2.18 0.86-4.21 2.36-5.71 1.47-1.47 3.56-2.37 5.66-2.38l1.17 0.01c22.88 0.05 78.79 0.85 103.67 7.6 12.18 3.31 24.09 10.34 33.48 19.73 8.12 8.11 14.13 17.59 17.86 28.21 2.72-1.05 5.69-2.05 9.26-3.23-2.86-19.09-11.58-36.37-25.29-50.08z"/>
		<path id="&lt;Path&gt;" class="s0" d="m351.85 496.47c-22.19-3.78-42.35-14.27-58.49-30.41-13.67-13.68-23.9-30.99-28.67-48.66-10.46-38.24-11.27-127.25-11.23-153.6l-0.01-0.92c0.07-2.65 1.13-5.06 2.89-6.81 1.79-1.79 4.17-2.79 6.67-2.8 11.61-0.05 113.33-0.09 154.59 11.22 17.87 4.87 35.21 15.05 48.84 28.68 16.06 16.06 26.51 36.27 30.28 58.46 8.52-1.91 16.52-3.27 24.33-4.03 6.31-49.26-8.05-94.09-40.39-126.44-18.97-18.96-42.69-32.32-68.61-38.6-8.94-2.16-20.55-4.02-34.63-5.52 6.91 7.66 10.67 15.24 11.11 22.58 1.11 16.66 16.71 27.15 16.78 27.23 0.99 0.52 1.29 1.92 0.68 2.9-0.49 1.04-1.75 1.49-2.84 1-0.5-0.19-12.47-5.46-21.3-14.3-3.99-3.98-6.71-8.12-8.08-12.28-1.8-5.21-4.81-10.01-8.99-14.18-9.95-9.96-26.55-16.27-44.39-16.79-64.03-2.46-133.85-0.17-146.65 0.27-0.51 13.18-2.86 86.78-0.12 152.32 1.57 15.85 7.6 30.16 16.48 39.03 4.13 4.13 8.87 7.14 14.1 8.86 4.15 1.44 8.27 4.14 12.25 8.13 8.86 8.85 14.08 20.87 14.27 21.37 0.52 1.06 0.06 2.33-0.99 2.83-1.01 0.57-2.32 0.25-2.89-0.74-0.05-0.05-10.5-15.7-27.28-16.75-7.23-0.44-14.66-4.11-22.25-10.91 1.5 13.72 3.33 25.21 5.48 34.21 6.27 25.93 19.63 49.65 38.6 68.62 32.34 32.34 77.19 46.69 126.36 40.45 0.78-7.69 2.1-15.74 4.1-24.42z"/>
		<path id="&lt;Path&gt;" class="s0" d="m758.53 758.26c-0.27-26.88-1.53-72.37-7.06-92.36-4.9-18.14-20.43-34.65-39.11-40.64-9.4 19-21.59 36.02-36.24 50.67-14.62 14.62-31.68 26.85-50.76 36.33 2.83 8.93 7.68 16.86 14.41 23.59 7.28 7.29 16.64 12.82 26.31 15.45 21.65 5.83 73.6 6.81 92.45 6.96z"/>
		<path id="&lt;Path&gt;" class="s0" d="m626.31 772.31c11.18 11.19 25.63 19.61 40.59 23.69 34.25 9.37 118.01 10.35 139.82 10.45-0.12-21.75-1.1-105.43-10.48-139.79-4.03-14.75-12.45-29.09-23.73-40.36-13.7-13.7-31.02-22.47-50.09-25.3-0.98 3.05-2.07 6.17-3.22 9.26 10.63 3.75 20.11 9.77 28.22 17.88 9.36 9.36 16.4 21.28 19.71 33.47 7.03 25.87 7.6 86.17 7.59 104.03l-0.02 0.75c0 2.18-0.87 4.2-2.36 5.68-1.5 1.51-3.5 2.37-5.68 2.4-7.8 0.06-76.48 0.13-104.83-7.56-12.14-3.32-24.04-10.37-33.45-19.78-8.12-8.12-14.14-17.59-17.85-28.15-3.02 1.18-6.06 2.19-9.29 3.24 2.78 19.17 11.46 36.49 25.07 50.09z"/>
		<path id="&lt;Path&gt;" class="s0" d="m889.23 714.43c-4.15-4.15-8.94-7.15-14.15-8.95-4.2-1.42-8.35-4.15-12.36-8.15-8.78-8.79-14.04-20.74-14.27-21.28-0.45-1.06 0-2.31 0.99-2.84 1.03-0.57 2.41-0.23 2.95 0.71 0.06 0.06 10.57 15.68 27.2 16.76 7.35 0.45 14.91 4.2 22.59 11.12-1.53-14.11-3.35-25.69-5.57-34.67-6.22-25.87-19.57-49.59-38.55-68.56-32.35-32.35-77.21-46.74-126.46-40.42-0.78 7.85-2.11 15.87-4.04 24.32 22.22 3.79 42.4 14.22 58.48 30.3 13.62 13.62 23.83 30.99 28.69 48.86 11.31 41.25 11.27 142.91 11.23 154.4-0.01 2.68-1.02 5.07-2.81 6.86-1.79 1.79-4.17 2.79-6.77 2.86-4.57 0-111.38 0.61-154.53-11.2-17.75-4.83-35.03-15.03-48.75-28.75-16.12-16.12-26.6-36.26-30.42-58.39q-12.66 2.89-24.31 4.02c-6.28 49.2 8.05 94.04 40.4 126.39 19 19 42.71 32.35 68.59 38.56 8.92 2.15 20.39 4 34.22 5.51-6.77-7.56-10.45-15-10.92-22.27-0.98-16.77-16.66-27.19-16.72-27.25-0.98-0.55-1.31-1.88-0.75-2.91 0.54-1 1.77-1.43 2.83-0.98 0.53 0.21 12.57 5.47 21.39 14.29 3.97 3.97 6.7 8.12 8.13 12.26 1.7 5.21 4.74 9.97 8.86 14.1 8.92 8.91 23.17 14.88 39.16 16.48 65.4 2.72 139 0.36 152.17-0.14 0.45-12.8 2.71-82.66 0.25-146.6-0.47-17.83-6.76-34.45-16.75-44.44z"/>
		<path id="&lt;Path&gt;" class="s0" d="m544.16 172.55c-1.75-1.76-3.35-3.24-4.55-4.25-7.27 6.29-24.86 23.88-29.14 49.33 14.46 16.81 24.22 34.29 29.19 52 6.08-21.89 18.68-39.96 29.04-51.98-3.6-21.45-16.86-37.42-24.54-45.1z"/>
		<path id="&lt;Path&gt;" class="s0" d="m499.89 206.3c9.11-32.17 34.91-50.58 36.06-51.4l2.37-1.64c0.76-0.53 1.8-0.54 2.54 0.01l2.39 1.7c0 0 4.5 3.1 10.46 9.06 8.85 8.85 20.18 23.2 25.6 42.31 6.12-6.03 10.97-9.96 12.95-11.48-0.29-17.78-8.59-34.9-24.58-50.89-11.86-11.86-24.43-19.34-28.07-21.41-7.39 4.2-51.89 31.05-52.63 72.27 1.92 1.55 6.75 5.46 12.91 11.47z"/>
		<path id="&lt;Path&gt;" class="s0" d="m534.93 906.35c1.79 1.79 3.38 3.26 4.62 4.31 7.28-6.36 24.89-24.04 29.11-49.35-10.4-12.1-23.03-30.18-29.1-52.1-6.06 21.88-18.68 40-29.1 52.08 3.58 21.45 16.81 37.41 24.47 45.06z"/>
		<path id="&lt;Path&gt;" class="s0" d="m579.3 872.62c-9.3 32.78-35.83 51.2-36.16 51.37l-2.28 1.7c-0.78 0.54-1.82 0.53-2.61-0.03l-2.34-1.63c-1.19-0.88-5.34-3.97-10.5-9.14-8.81-8.8-20.18-23.22-25.58-42.23-6.12 5.96-10.98 9.91-12.92 11.44 0.34 17.77 8.59 34.88 24.61 50.9 11.88 11.87 24.38 19.32 28.03 21.36 7.37-4.19 51.92-31.04 52.65-72.24-1.92-1.54-6.79-5.49-12.9-11.5z"/>
		<path id="&lt;Path&gt;" class="s0" d="m906.48 534.87c-7.67-7.67-23.64-20.93-45.08-24.52-12.05 10.38-30.13 22.97-52.01 29.02 17.72 4.97 35.21 14.74 52.02 29.2 25.34-4.26 43-21.85 49.38-29.1-1.08-1.26-2.56-2.85-4.31-4.6z"/>
		<path id="&lt;Path&gt;" class="s0" d="m915.04 525.35c5.99 6 9.06 10.46 9.09 10.5l1.62 2.31c0.58 0.77 0.58 1.82 0.02 2.61l-1.7 2.3c-0.11 0.26-18.55 26.81-51.31 36.09 5.98 6.14 9.93 11.01 11.48 12.92 41.21-0.74 68.03-45.27 72.24-52.65-2.05-3.63-9.53-16.2-21.43-28.09-15.95-15.96-33.06-24.25-50.85-24.53-1.54 1.94-5.47 6.79-11.47 12.95 19.11 5.42 33.46 16.74 42.31 25.59z"/>
		<path id="&lt;Path&gt;" class="s0" d="m168.4 539.51c1.06 1.24 2.51 2.83 4.29 4.61 7.66 7.66 23.59 20.86 45.07 24.47 12.05-10.39 30.14-23 52.09-29.09-21.94-6.09-40.03-18.72-52.13-29.12-25.45 4.28-43.02 21.85-49.32 29.13z"/>
		<path id="&lt;Path&gt;" class="s0" d="m164.15 553.63c-5.21-5.21-8.26-9.31-9.1-10.46l-1.69-2.4c-0.53-0.76-0.53-1.79 0.02-2.56l1.66-2.4c0.79-1.12 19.2-26.91 51.43-36.03-6.07-6.16-9.98-10.99-11.52-12.92-41.22 0.73-68.09 45.25-72.27 52.63 2.05 3.66 9.53 16.2 21.35 28.02 16.03 16.02 33.17 24.31 50.94 24.65 1.5-1.97 5.45-6.84 11.44-12.92-19.07-5.46-33.43-16.78-42.26-25.61z"/>
		<path id="&lt;Compound Path&gt;" fill-rule="evenodd" class="s0" d="m135.21 943.97c-12.29-12.29-19.44-28.61-20.11-45.92-0.68-19.56-2.68-85.98-0.35-149.14l3.36-52.93c2.02-20.65 4.53-36.75 7.67-49.73 0.88-3.59 1.91-7.26 3.12-11.08-7.64-5.42-14.96-11.57-21.75-18.36-19.78-19.78-31.01-39.82-33.97-45.48-10.34-19.95-10.33-43.7-0.02-63.57 3.58-6.86 22.1-39.99 55.67-64-1.07-3.47-2.14-7.23-3.06-11.11-3.21-13.29-5.69-29.26-7.56-48.69l-3.23-47.71c-2.65-64.82-0.59-134.65 0.1-154.53 1.45-36.37 30.48-65.4 66.13-66.81 25.6-0.88 88.87-2.66 149.24-0.37l52.85 3.31c20.13 1.91 36.28 4.43 49.74 7.75q5.23 1.29 10.91 2.98c24.15-33.64 57.11-51.99 63.89-55.5 19.88-10.38 43.64-10.4 63.55-0.06 5.83 3.08 26.03 14.5 45.54 34.01 6.66 6.66 12.77 13.91 18.26 21.66 3.9-1.22 7.6-2.25 11.22-3.14 13.11-3.15 29.25-5.64 49.37-7.61l53.23-3.43c71.64-2.66 148.85 0.41 149.47 0.44 17 0.55 33.39 7.7 45.72 20.03 12.31 12.31 19.42 28.66 20.05 46.03 0.12 3.24 3.25 81.99 0.17 154.83l-3.23 47.68c-1.83 19.68-4.31 35.66-7.57 49.17-0.83 3.55-1.84 7.23-3.1 11.25 7.61 5.4 14.83 11.51 21.49 18.17 19.6 19.6 30.92 39.72 33.93 45.42 10.44 20.05 10.47 43.86 0.04 63.73-3.6 6.83-22.21 39.83-55.43 63.77q1.75 5.68 3.07 11.13c3.35 13.92 5.83 30.01 7.67 49.33l3.36 53.31c1.58 41.71 1.51 93.76-0.24 146.81l-0.14 2.5c-1.36 35.52-30.37 64.59-66.05 66.02l-1.9 0.05c-25.8 0.85-92.31 2.57-153.03 0.02l-47.64-3.15c-20.11-1.95-36.1-4.44-49.26-7.69-3.61-0.86-7.23-1.85-11.15-3.06-23.05 32.13-54.23 50.4-63.78 55.52-19.93 10.45-43.75 10.43-63.75 0.05-5.61-2.93-25.54-14.04-45.48-33.98-6.71-6.71-12.83-13.95-18.22-21.58-3.9 1.25-7.56 2.27-11.1 3.09-13.43 3.24-29.38 5.72-48.72 7.6l-47.74 3.18c-64.23 2.69-134.45 0.6-154.45-0.11-18.23-0.71-34.55-7.86-46.79-20.1zm22.49-318.79l-3.26 9.12c-2.28 6.35-4.05 12.12-5.41 17.62-2.86 11.86-5.18 26.91-7.07 45.99l-3.29 52.21c-2.31 62.02-0.32 127.72 0.36 146.38 0.88 23.77 20.37 42.74 43.05 43.66 20.55 0.7 89.98 2.76 153.07 0.11l47.08-3.13c17.87-1.76 32.75-4.03 45.11-6.99 5.4-1.29 11.15-3.09 17.55-5.38l9.1-3.19 5.07 8.15c5.61 9.02 12.37 17.5 20.1 25.23 17.97 17.96 36.15 27.85 39.61 29.65 13.06 6.8 28.59 6.82 41.51 0.05 8.93-4.75 39.83-22.92 59.96-54.95l5.11-8.1 9 3.18c6.6 2.32 12.27 4.03 17.65 5.29 12.12 3 26.99 5.28 45.6 7.11l46.97 3.11c59.61 2.48 125.44 0.8 150.97-0.05l1.79-0.06c23.21-0.92 42.13-19.88 43.02-43.15l0.12-2.43c1.74-52.3 1.83-103.72 0.28-144.59l-3.3-52.64c-1.73-17.83-4.03-32.86-7.07-45.58-1.38-5.58-3.18-11.53-5.34-17.63l-3.19-9.02 8.1-5.12c33.01-20.78 51.5-53.56 54.87-59.92 6.75-12.89 6.72-28.41-0.08-41.47-1.81-3.45-11.99-21.95-29.65-39.61-7.64-7.63-16.12-14.4-25.19-20.08l-8.14-5.09 3.21-9.04c2.37-6.74 4.13-12.37 5.4-17.7 2.99-12.4 5.25-27.29 6.96-45.51l3.2-47.09c3-71.55-0.1-149.35-0.2-152.6-0.76-22.71-20.53-42.33-42.96-43.09-0.89-0.03-77.01-3.03-147.13-0.41l-52.53 3.37c-18.61 1.83-33.68 4.13-45.65 7.01-5.56 1.38-11.36 3.16-17.69 5.42l-9.05 3.25-5.1-8.12c-5.82-9.27-12.61-17.79-20.22-25.4-17.15-17.15-34.72-27.07-39.7-29.73-12.91-6.68-28.41-6.68-41.41 0.09-6.29 3.3-38.93 21.41-59.92 54.85l-5.08 8.12-9.03-3.18c-6.35-2.25-12.07-3.93-17.5-5.24-12.35-3.05-27.37-5.37-45.92-7.14l-52.21-3.27c-59.26-2.25-121.86-0.51-145.98 0.36-24.35 0.94-43.3 19.89-44.21 43.16-0.72 20.23-2.77 89.32-0.15 153l3.18 47.04c1.72 17.96 4.02 32.81 6.99 45.1 1.49 6.36 3.47 12.35 5.27 17.59l3.15 9.03-8.09 5.06c-33.34 20.83-51.64 53.67-55.01 60.03-6.71 12.94-6.7 28.46 0.02 41.44 1.8 3.44 11.83 21.77 29.68 39.62 7.84 7.83 16.38 14.65 25.39 20.21z"/>
	</g>
</svg>