<svg version="1.2" xmlns="http://www.w3.org/2000/svg" viewBox="0 0 230 230" width="230" height="230">
	<title>pkarchan</title>
	<defs>
		<radialGradient id="g1" cx="0" cy="0" r="1" gradientUnits="userSpaceOnUse" gradientTransform="matrix(1255.73,0,0,1255.73,238.008,-905.382)">
			<stop offset="0" stop-color="#fec655"/>
			<stop offset="1" stop-color="#dd812f"/>
		</radialGradient>
		<radialGradient id="g2" cx="0" cy="0" r="1" gradientUnits="userSpaceOnUse" gradientTransform="matrix(14.759,0,0,14.759,115.092,115.384)">
			<stop offset="0" stop-color="#fec655"/>
			<stop offset="1" stop-color="#dd812f"/>
		</radialGradient>
		<radialGradient id="g3" cx="0" cy="0" r="1" gradientUnits="userSpaceOnUse" gradientTransform="matrix(13.96,0,0,13.96,174.982,175.633)">
			<stop offset="0" stop-color="#fec655"/>
			<stop offset="1" stop-color="#dd812f"/>
		</radialGradient>
		<radialGradient id="g4" cx="0" cy="0" r="1" gradientUnits="userSpaceOnUse" gradientTransform="matrix(13.942,0,0,13.942,54.421,54.979)">
			<stop offset="0" stop-color="#fec655"/>
			<stop offset="1" stop-color="#dd812f"/>
		</radialGradient>
		<radialGradient id="g5" cx="0" cy="0" r="1" gradientUnits="userSpaceOnUse" gradientTransform="matrix(951.49,0,0,951.49,206.875,-658.612)">
			<stop offset="0" stop-color="#fec655"/>
			<stop offset="1" stop-color="#dd812f"/>
		</radialGradient>
		<radialGradient id="g6" cx="0" cy="0" r="1" gradientUnits="userSpaceOnUse" gradientTransform="matrix(8.143,0,0,8.143,54.233,175.725)">
			<stop offset="0" stop-color="#fec655"/>
			<stop offset="1" stop-color="#dd812f"/>
		</radialGradient>
		<radialGradient id="g7" cx="0" cy="0" r="1" gradientUnits="userSpaceOnUse" gradientTransform="matrix(8.142,0,0,8.142,174.888,55.165)">
			<stop offset="0" stop-color="#fec655"/>
			<stop offset="1" stop-color="#dd812f"/>
		</radialGradient>
	</defs>
	<style>
		.s0 { fill: url(#g1) } 
		.s1 { fill: url(#g2) } 
		.s2 { fill: url(#g3) } 
		.s3 { fill: url(#g4) } 
		.s4 { fill: url(#g5) } 
		.s5 { fill: url(#g6) } 
		.s6 { fill: url(#g7) } 
	</style>
	<path id="&lt;Compound Path&gt;" fill-rule="evenodd" class="s0" d="m90.8 139.6c-13.2-13.3-13.4-34.8-0.3-48.1q0.1-0.1 0.1-0.1 0.1-0.1 0.2-0.2c6.5-6.5 15-9.9 23.5-10q0.2-0.1 0.5-0.1 0.1 0 0.3 0c8.7 0.1 17.5 3.4 24.1 10 6.6 6.6 9.9 15.1 10 23.8q0.1 0.2 0.2 0.4-0.1 0.2-0.2 0.4c-0.1 8.7-3.4 17.3-10 23.9q-0.1 0.2-0.2 0.2 0 0-0.1 0.1c-13.3 13.1-34.8 12.9-48.1-0.3zm0.6-1.7l6.2-6.3c-4.1-4.3-6.2-9.9-6.4-15.5h-8.8c0.1 7.8 3.2 15.7 9 21.8zm24.1-55.2v8.8c5.8 0.2 11.4 2.3 15.8 6.4l6.2-6.2c-6.1-5.9-14-8.9-22-9zm23.2 10.1l-6.3 6.2c4.1 4.4 6.3 9.9 6.5 15.5h8.7c-0.2-7.8-3.1-15.6-8.9-21.7zm-37.8 36.6c7.8 7.8 20.4 7.8 28.1 0 7.8-7.7 7.8-20.3 0-28.1-7.7-7.8-20.3-7.8-28.1 0-7.8 7.8-7.8 20.4 0 28.1zm14.6 18.6c7.8-0.1 15.7-3 21.8-8.7l-6.3-6.2c-4.4 4-9.9 6-15.5 6.2zm23-9.9c5.9-6.1 8.9-14.1 9.1-22.1h-8.7c-0.2 5.7-2.4 11.5-6.7 15.8zm-24.5-55.3c-7.9 0.2-15.6 3.3-21.6 9.2l6.2 6.2c4.3-4.2 9.8-6.4 15.4-6.6zm-22.8 10.3c-5.6 6.1-8.5 13.6-8.7 21.3l8.8 0.1c0.1-5.5 2.2-10.8 6.1-15.2zm1.4 45.9c6 5.7 13.7 8.8 21.5 9l-0.1-8.8c-5.4-0.2-10.9-2.4-15.2-6.4z"/>
	<path id="&lt;Compound Path&gt;" fill-rule="evenodd" class="s1" d="m104.6 104.9c5.8-5.7 15.1-5.7 20.9 0 5.7 5.8 5.7 15.1 0 20.9-5.8 5.8-15.1 5.8-20.9 0-5.7-5.8-5.7-15.1 0-20.9zm1.1 19.8c5.1 5.2 13.5 5.2 18.6 0 5.2-5.2 5.2-13.5 0-18.6-5.1-5.2-13.4-5.2-18.6 0-5.1 5.2-5.2 13.5 0 18.6z"/>
	<path id="&lt;Compound Path&gt;" fill-rule="evenodd" class="s2" d="m178.8 169.2c4.6 4.6 5.9 14.9 6 15.4l0.1 1-1-0.1c-0.5-0.1-10.8-1.4-15.4-6-5.3-5.3-3.7-9.2-1.3-11.6 2.4-2.3 6.3-4 11.6 1.3zm-1.1 1.1c-3.6-3.6-6.6-3.9-9.3-1.3-2.8 2.8-2.4 5.8 1.2 9.4 3.4 3.4 10.7 4.9 13.5 5.3-0.5-2.7-2-10-5.4-13.4z"/>
	<path id="&lt;Compound Path&gt;" fill-rule="evenodd" class="s3" d="m50.6 61.4c-4.6-4.6-6-15-6-15.4l-0.1-1 1 0.2c0.4 0 10.8 1.3 15.4 5.9 5.3 5.3 3.6 9.3 1.3 11.6-2.4 2.3-6.3 4-11.6-1.3zm1.1-1.1q5.3 5.3 9.3 1.3 4.1-4.1-1.2-9.4c-3.4-3.4-10.7-4.9-13.5-5.3 0.5 2.7 2 10 5.4 13.4z"/>
	<path id="&lt;Compound Path&gt;" fill-rule="evenodd" class="s4" d="m34.1 194.7c-0.1-2.2-2.6-53.5 4.9-68.2l-10.7-10.7c-0.5-0.5-0.5-1.2 0-1.7l10.8-10.8q-0.6-1.5-1.1-3.3c-5.5-19.9-4.6-61.5-4.5-63.3 0.1-0.5 0.2-0.9 0.6-1.2 0.3-0.4 0.8-0.6 1.3-0.7 2.2 0 52.5-2.5 67.7 4.8l10.1-10.1c0.5-0.5 1.2-0.5 1.7 0l10.8 10.8q1.9-0.9 4.1-1.6c19.9-5.4 61.5-4.4 63.3-4.4 1 0 1.9 0.8 1.9 1.9 0.1 2.2 2.6 53.6-5 68.2l9.8 9.8c0.5 0.5 0.5 1.2 0.1 1.7l-10.2 10.1q0.9 2.1 1.7 4.6c5.4 19.9 4.5 61.4 4.5 63.3 0 0.9-0.9 1.8-1.9 1.9-2.2 0-54.7 2.6-68.7-5.2l-10.2 10.2c-0.5 0.5-1.2 0.5-1.7 0l-10.1-10.1q-1.8 0.8-4 1.5c-20 5.4-61.5 4.5-63.3 4.4-1 0-1.8-0.8-1.9-1.9zm80.2 3.5l9-8.9c-4.4-3-7.1-6.7-8.7-10.3-1.7 4-4.4 7.8-9.1 10.5zm58.9-80.6q-0.6-0.1-1.2-0.2c-2.8 0.4-5.3 0.4-7.2 0.3-0.2 3.9-0.9 7.8-2 11.6 6.2 2 19.2 7.9 16.6 21.4-2.2 11.8-14.3 13.3-17.6 13.5 0 2.2-0.4 8.4-4.3 12.6-2.5 2.6-5.9 4.1-10.1 4.1-6.4 0.2-11.7-3.4-15.6-10.4-1.4-2.7-2.4-5.3-3.1-7.3-3.9 1.1-7.8 1.7-11.9 1.9 0.1 1.8 0.1 4.2-0.2 6.8 0.7 5 3.4 10.9 10.6 15.1 1.3 0.8 3.4 1.6 6.9 2.4l-2.5-9.2c-0.3-0.7 0-1.4 0.5-1.9q0.3-0.3 0.8-0.6c1-0.2 2.1 0.5 2.4 1.5l3.1 11c5.3 0.9 12.7 1.5 23 1.9l-2.5-7c-0.3-0.9 0-1.6 0.4-2.1q0.4-0.4 0.8-0.5c1.1-0.4 2.2 0.2 2.6 1.3l2.9 8.4c11.6 0.1 22.2-0.2 26.3-0.4 0.1-4 0.2-14.1-0.2-25.4l-8.7-3c-1-0.4-1.5-1.6-1.2-2.6q0.2-0.5 0.5-0.7c0.5-0.5 1.2-0.7 2.1-0.5l7 2.4c-0.4-7.9-1.1-16.1-2.2-23l-10.8-3c-1-0.3-1.7-1.4-1.3-2.5q0.1-0.4 0.5-0.7c0.5-0.5 1.2-0.8 2-0.6l8.8 2.5q-0.3-1.6-0.8-3.1c-2.1-7.5-6.9-12.1-14.4-14zm-135.2 75c4 0.1 14.1 0.1 25.5-0.3l3-8.5q0.2-0.5 0.5-0.8c0.5-0.5 1.3-0.7 2-0.5 1.1 0.3 1.5 1.5 1.3 2.5l-2.5 7.1c7.9-0.4 16.1-1.1 23-2.3l3.1-10.6q0.1-0.6 0.5-1c0.5-0.5 1.2-0.6 1.9-0.5 1 0.4 1.7 1.5 1.4 2.4l-2.5 8.9q1.6-0.4 3.1-0.8c7.4-2 12.1-6.8 13.9-14.3q0.2-1.1 0.4-2.2c-0.3-2.5-0.2-4.8-0.1-6.7-3.9-0.1-7.9-0.8-11.8-2-1.9 6-7.7 19.7-21.5 17.1-11.8-2.2-13.3-14.4-13.5-17.6-2.2 0-8.4-0.4-12.6-4.3-2.6-2.5-4.1-5.9-4.2-10.2-0.1-4.3 1.6-8.1 4.9-11.3q2.2-2.4 5.6-4.2c2.9-1.6 5.9-2.7 7.9-3.3-1.2-3.8-1.8-7.7-2-11.7-1.8 0.1-4.4 0.1-7.2-0.3-5 0.7-11 3.3-15.3 10.6-0.8 1.4-1.5 3.6-2.3 6.9l9.2-2.6c1-0.3 2 0.4 2.4 1.4 0.3 1-0.3 2.2-1.4 2.5l-11.1 3.1c-0.7 5.3-1.5 12.7-1.8 22.9l7.1-2.4c1-0.3 2.1 0.1 2.4 1.2 0.4 1-0.2 2.2-1.2 2.5l-8.4 3c-0.2 11.5 0.2 22.2 0.3 26.3zm29.2-31.8v0.9c0 0-0.1 3.7 1.6 7.6 1.9 5.1 5.6 8.3 10.7 9.2 12.6 2.4 18-10.4 19.7-16q-1.7-0.5-3.4-1.2c-3.3 6-7.7 8.7-13.3 7.7-9.8-1.6-10.3-10-10.3-12.8-1.7 0-6-0.5-8.9-3.2-2-1.8-3.1-4.4-3.1-7.5-0.1-3.5 1.3-5.9 3.2-7.9 1.7-1.6 3.7-2.7 5.5-3.5q-0.7-1.7-1.2-3.3c-5.2 1.5-17.4 6.4-17.2 17.2 0 3.8 1.3 6.8 3.6 9 4.6 4.3 12.2 3.9 12.3 3.8zm17.1-14.7c17 17 44.5 17.1 61.5 0.1 16.9-17 16.9-44.5-0.1-61.5-17-17-44.5-17-61.5-0.1-17 17-16.9 44.5 0.1 61.5zm-28-33.2q1 0.3 2 0.4c2.7-0.3 5.2-0.3 7 0 0.2-3.9 0.8-8 1.9-11.8-5.8-1.8-19.8-7.6-17.2-21.6 2.2-11.8 14.3-13.4 17.6-13.5 0-2.3 0.4-8.4 4.4-12.6q0.1-0.2 0.3-0.4c2.4-2.4 5.8-3.7 9.8-3.8 6.3-0.1 11.6 3.5 15.5 10.4 1.6 2.9 2.6 5.7 3.2 7.6 3.8-1 7.6-1.7 11.5-1.9-0.1-1.9 0-4.7 0.5-7.7-0.9-4.8-3.6-10.4-10.6-14.4-1.2-0.8-3.4-1.6-6.8-2.5l2.5 9.2c0.4 1.1-0.3 2.2-1.3 2.5-1.2 0.3-2.2-0.4-2.5-1.3l-3-11.2c-5.4-0.8-12.8-1.5-23.1-1.8l2.5 7c0.3 1.1-0.2 2.2-1.1 2.6-1.1 0.3-2.2-0.3-2.7-1.2l-2.9-8.5c-11.6-0.2-22.2 0.2-26.3 0.4 0 4-0.2 14.1 0.3 25.4l8.6 3c1 0.4 1.6 1.5 1.2 2.6-0.4 1-1.5 1.5-2.5 1.1l-7.1-2.5c0.5 8 1.1 16.3 2.3 23.1l10.7 3.1c1 0.2 1.6 1.3 1.4 2.4-0.4 1-1.4 1.7-2.5 1.3l-8.8-2.4q0.3 1.6 0.7 3.1c2.1 7.5 6.9 12.1 14.5 13.9zm43-44.7c-1.7-5.4-6.5-17.2-17.1-17-3.9 0.1-7 1.3-9.1 3.7-4.3 4.6-3.9 12.1-3.9 12.1l0.1 0.9h-0.9c0 0-3.7 0-7.7 1.5-5.1 2-8.2 5.7-9.1 10.8-1.3 6.7 1.4 12.1 7.9 16.2 3 1.8 6.1 2.9 8.2 3.6q0.5-1.7 1.2-3.4c-6.1-3.4-8.8-7.9-7.9-13.5 0.6-3.1 1.8-5.3 3.3-6.8 3.1-3.1 7.7-3.4 9.6-3.4 0-1.7 0.5-6 3.2-8.9 1.8-2 4.3-3 7.5-3.1 6.4-0.1 9.6 4.8 11.3 8.5q1.7-0.6 3.4-1.2zm31.6-25.7c-7.5 2.1-12.2 7-14 14.5q0 0.5-0.2 1.1c0.5 3 0.4 5.6 0.2 7.6 3.9 0.1 7.8 0.7 11.6 1.8 1-3.3 3.3-8.5 7-12.2 3.4-3.4 8.1-5.7 14.5-4.6 11.7 2.3 13.3 14.4 13.5 17.7 2.2 0 8.3 0.4 12.6 4.3 2.6 2.4 4.1 5.8 4.1 10.1 0.1 6.3-3.4 11.7-10.4 15.5-2.5 1.4-5.1 2.4-7 3.1 1.1 3.7 1.8 7.7 1.9 11.6 2 0 4.5 0 7.3 0.5 4.8-1 10.3-3.7 14.2-10.5 0.9-1.3 1.7-3.5 2.5-6.9l-9.2 2.6c-1 0.3-2.2-0.4-2.5-1.4-0.2-0.7 0.1-1.4 0.6-1.9q0.4-0.4 0.8-0.5l11.2-3.1c0.7-5.3 1.4-12.7 1.7-23l-7 2.5c-1 0.3-2.1-0.2-2.4-1.3-0.3-0.7-0.2-1.5 0.4-2.1q0.3-0.3 0.7-0.4l8.4-2.9c0.3-11.6-0.1-22.2-0.3-26.4-3.9 0-14.1-0.2-25.4 0.4l-3.1 8.5c-0.3 1.1-1.5 1.7-2.5 1.2-1-0.3-1.6-1.4-1.2-2.4l2.5-7.2c-7.9 0.4-16.2 1.1-23 2.3l-3.1 10.7c-0.3 1.1-1.4 1.7-2.4 1.4-1.1-0.3-1.7-1.4-1.4-2.4l2.5-8.9q-1.6 0.4-3.1 0.7zm31.1 27.5v-0.9c0 0 0-3.6-1.6-7.6-2-5.1-5.6-8.2-10.7-9.2-6.7-1.3-12.1 1.5-16.2 8-1.7 2.7-2.8 5.6-3.4 7.6q1.7 0.6 3.5 1.2 1.4-2.4 3.1-4.1 4.1-4.1 10-3.2c9.7 1.6 10.3 9.9 10.2 12.8 1.8 0 6 0.5 9 3.2 2 1.9 2.9 4.4 3.1 7.5 0.1 6.1-4.4 9.4-7.9 11.1q0.6 1.7 1.2 3.4c5.6-1.8 16.5-6.6 16.4-17-0.2-3.8-1.4-6.8-3.7-9-4.7-4.2-12.1-3.9-12.2-3.8zm-31.8 92.7c1.9 5.6 6.7 16.9 17.1 16.6 3.8 0 6.8-1.3 9-3.6 4.3-4.6 3.9-12.1 4-12.2l-0.1-0.9h0.8c0.1 0.1 3.8 0.1 7.7-1.4 5.1-2.1 8.2-5.7 9.1-10.8 1.3-6.7-1.3-12.1-7.8-16.2-2.8-1.6-5.6-2.7-7.5-3.4q-0.7 1.8-1.5 3.5c5.8 3.3 8.3 7.7 7.4 13.2-1.6 9.7-10 10.2-12.8 10.1-0.1 1.8-0.5 6-3.2 9-1.9 2-4.4 3-7.6 3.1-6.2 0.1-9.4-4.5-11.1-8.2q-1.7 0.8-3.5 1.2zm20.1-12.1c-4.5 4.4-9.6 7.9-15.1 10.3 1.8 3.8 4.6 7.2 9.6 7.2 2.7 0 4.9-0.9 6.4-2.6 3.1-3.3 2.8-8.7 2.8-8.7v-1l0.9 0.1c0.4 0.1 10.2 1.3 11.9-8.7 0.8-4.7-1.2-8.5-6.3-11.5-2.4 5.4-5.8 10.5-10.2 14.9zm47.1-35.7l-8.6-8.5c-2.9 4.5-6.5 7.3-10.1 9 3.7 1.5 7.2 4.2 9.8 8.4zm-47-34.8c4.3 4.4 7.7 9.3 10.1 14.7 3.7-1.8 7.1-4.7 7-9.5-0.1-2.7-1-4.8-2.6-6.5-3.3-3-8.7-2.7-8.7-2.7h-1l0.1-1c0.1-0.3 1.3-10.2-8.8-11.8-4.7-0.8-8.4 1.2-11.3 6.4 5.5 2.4 10.6 5.9 15.2 10.4zm-36.2-48.3l-8.8 8.8c4.8 3.2 7.7 6.9 9.5 10.6 1-2.3 2.4-4.5 4.5-6.6q1.8-1.8 4.3-3.3zm-34.4 48.2c4.4-4.4 9.4-7.7 14.7-10.1-1.9-4-4.6-7.7-9.9-7.6-2.6 0-4.8 0.9-6.3 2.6-3.1 3.3-2.8 8.7-2.9 8.7l0.1 1-0.9-0.1c-0.4-0.2-10.3-1.4-11.9 8.7-0.9 4.9 1.4 8.8 6.9 11.7 2.4-5.4 5.8-10.4 10.2-14.9zm-48.9 34.8l9.5 9.5q1.5-2.4 3.4-4.3c2.2-2.2 4.7-3.9 7.2-4.9-4.1-1.7-8.1-4.7-10.7-9.7zm43.2 39.7l-0.1 0.9c-0.1 0.4-1.4 10.3 8.7 11.9 4.8 0.9 8.7-1.4 11.7-6.8-5.3-2.4-10.2-5.8-14.6-10.1-4.4-4.4-7.8-9.5-10.2-15-4 1.9-7.9 4.7-7.8 9.9 0.1 2.7 0.9 4.8 2.6 6.4 3.3 3.1 8.6 2.8 8.6 2.8z"/>
	<path id="&lt;Compound Path&gt;" fill-rule="evenodd" class="s5" d="m45.3 185.5l-1 0.2 0.1-1c0-0.5 1.4-10.9 5.9-15.4 5.4-5.4 9.2-3.7 11.6-1.3 2.4 2.3 4.1 6.3-1.2 11.6-4.6 4.6-15 5.9-15.4 5.9zm0.8-1.7c2.8-0.5 10-2 13.4-5.4q5.3-5.3 1.3-9.3c-2.7-2.7-5.8-2.3-9.3 1.3-3.4 3.4-4.9 10.7-5.4 13.4z"/>
	<path id="&lt;Compound Path&gt;" fill-rule="evenodd" class="s6" d="m167.2 62.9c-2.4-2.3-4.1-6.3 1.2-11.6 4.6-4.6 15-5.9 15.5-5.9l0.9-0.2-0.1 1c-0.1 0.5-1.3 10.8-5.9 15.4-5.3 5.3-9.3 3.6-11.6 1.3zm1.1-1.1c2.8 2.7 5.7 2.3 9.3-1.3 3.4-3.4 4.9-10.7 5.4-13.4-2.8 0.5-10 1.9-13.4 5.3-3.6 3.6-4 6.7-1.3 9.4z"/>
</svg>