<svg version="1.2" xmlns="http://www.w3.org/2000/svg" viewBox="0 0 120 120" width="120" height="120">
	<style>
		.s0 { fill: #efbf04 } 
	</style>
	<g id="&lt;Group&gt;">
		<path id="&lt;Path&gt;" class="s0" d="m58.04 93.75q-0.03-0.95 0-1.47 0-0.08 0-0.09l-0.02-0.21v-8.51q-1.91-0.21-3.72-0.69l0.01 4.24c0.05 0.92 0.18 6.07-3.31 9.89-2.44 2.67-5.98 4.03-10.53 4.02l-6.31 0.01h-15.09v-15.76-5.66c0-4.53 1.35-8.08 4.02-10.53 3.82-3.49 8.98-3.34 9.89-3.29h4.22q-0.49-1.81-0.69-3.72l-8.71-0.01q-0.01-0.01-0.07-0.01-0.53 0.03-1.48 0c-2.38 0.1-7.06 0.73-10.54 3.94-3.13 2.88-4.7 7.28-4.7 13.1l-0.01 4.1q0.05-0.02 0.08-0.04 0.6-0.27 1.23-0.41 0.63-0.11 1.25-0.08 0.62 0.06 1.17 0.23c0.37 0.1 0.71 0.29 1.01 0.46q0.47 0.28 0.81 0.62c0.24 0.2 0.43 0.44 0.59 0.62 0.15 0.16 0.27 0.38 0.34 0.5q0.12 0.17 0.12 0.18l-0.01 0.42q0 0-0.42 0.05-0.42 0.04-1.11 0.16c-0.22 0.05-0.47 0.08-0.73 0.15q-0.38 0.1-0.79 0.2-0.42 0.14-0.84 0.28-0.42 0.18-0.83 0.37c-0.27 0.14-0.55 0.25-0.8 0.41q-0.39 0.23-0.73 0.48-0.18 0.13-0.34 0.26l0.01 21.04h20.25q0.18-0.24 0.37-0.5 0.26-0.34 0.48-0.74c0.17-0.24 0.28-0.53 0.42-0.79q0.19-0.42 0.36-0.83 0.15-0.43 0.29-0.83 0.1-0.42 0.2-0.8c0.07-0.26 0.1-0.51 0.15-0.73 0.08-0.46 0.12-0.84 0.17-1.11q0.05-0.42 0.05-0.43h0.41q0 0 0.18 0.12c0.11 0.07 0.33 0.19 0.5 0.34 0.19 0.15 0.43 0.35 0.62 0.58q0.34 0.35 0.61 0.81 0.29 0.46 0.47 1.01 0.17 0.56 0.23 1.18 0.02 0.61-0.08 1.24-0.14 0.64-0.41 1.24-0.07 0.12-0.14 0.24h4.86c5.82 0 10.22-1.58 13.11-4.7 3.2-3.49 3.83-8.16 3.93-10.55z"/>
		<path id="&lt;Path&gt;" class="s0" d="m43.45 76.52c-1.72-1.73-3.19-3.72-4.33-5.9l-6.44-0.01c-0.02 0-3.8-0.26-6.29 2.04-1.59 1.47-2.4 3.79-2.4 6.88v16.49h16.48q4.68-0.01 6.91-2.44c2.27-2.48 2.01-6.22 2.01-6.26l-0.01-0.21v-6.24c-2.19-1.14-4.19-2.62-5.93-4.35z"/>
		<path id="&lt;Path&gt;" class="s0" d="m27.73 57.04q0.07 0 0.07 0l0.22-0.02h8.48q0.21-1.89 0.68-3.72h-4.2c-0.92 0.06-6.07 0.2-9.88-3.29q-0.19-0.18-0.37-0.36c-2.43-2.42-3.66-5.84-3.66-10.18v-5.64-15.76h14.67 6.73c4.55 0 8.09 1.35 10.54 4.03 3.49 3.81 3.35 8.96 3.29 9.88v4.2q1.83-0.47 3.72-0.68l0.02-8.7q-0.01 0 0-0.08-0.03-0.52 0-1.46c-0.1-2.39-0.73-7.06-3.94-10.55-2.87-3.14-7.28-4.7-13.1-4.71l-4.85 0.01q0.06 0.12 0.13 0.24 0.27 0.59 0.41 1.22 0.11 0.64 0.07 1.26-0.05 0.61-0.22 1.17c-0.1 0.37-0.29 0.71-0.46 1.01q-0.27 0.46-0.62 0.81c-0.19 0.23-0.43 0.42-0.62 0.58-0.17 0.15-0.38 0.27-0.49 0.34q-0.19 0.12-0.19 0.12h-0.42q0-0.01-0.05-0.42c-0.03-0.27-0.07-0.66-0.17-1.11-0.04-0.23-0.06-0.48-0.14-0.73q-0.11-0.38-0.2-0.8-0.14-0.41-0.28-0.84-0.18-0.41-0.37-0.82c-0.14-0.27-0.26-0.55-0.42-0.81q-0.22-0.38-0.47-0.73-0.19-0.26-0.38-0.49h-20.26l0.01 21.04q0.15 0.12 0.33 0.25 0.34 0.25 0.73 0.48c0.25 0.16 0.53 0.28 0.8 0.42q0.42 0.19 0.83 0.36 0.43 0.14 0.83 0.28 0.42 0.1 0.8 0.2c0.25 0.08 0.5 0.1 0.73 0.15 0.46 0.1 0.84 0.13 1.11 0.16q0.42 0.06 0.42 0.06v0.41q0 0-0.11 0.19c-0.08 0.11-0.19 0.32-0.35 0.49-0.15 0.19-0.34 0.43-0.58 0.63q-0.34 0.34-0.81 0.61c-0.3 0.17-0.64 0.35-1 0.47q-0.56 0.16-1.18 0.22-0.62 0.03-1.25-0.08-0.63-0.14-1.23-0.4-0.04-0.03-0.07-0.05l-0.01 4.1c0.01 5.84 1.6 10.25 4.74 13.13 3.45 3.17 7.99 3.8 10.39 3.91q1.04-0.03 1.6 0z"/>
		<path id="&lt;Path&gt;" class="s0" d="m71.61 87.33c0 0.02-0.27 3.79 2.04 6.29 1.45 1.57 3.79 2.4 6.87 2.4h16.49v-16.49q0.01-4.64-2.4-6.87c-2.49-2.32-6.26-2.05-6.3-2.04h-0.21-6.23c-1.13 2.15-2.58 4.14-4.35 5.91-1.76 1.76-3.75 3.21-5.9 4.34z"/>
		<path id="&lt;Path&gt;" class="s0" d="m110 87.96q-0.17-0.13-0.34-0.26-0.34-0.26-0.73-0.47c-0.25-0.16-0.54-0.28-0.81-0.42q-0.4-0.19-0.82-0.37-0.42-0.15-0.83-0.27-0.42-0.11-0.8-0.21c-0.25-0.08-0.51-0.1-0.73-0.14-0.45-0.1-0.84-0.14-1.11-0.17q-0.42-0.05-0.43-0.05v-0.42q0.01 0 0.12-0.19c0.08-0.11 0.2-0.32 0.35-0.49 0.15-0.19 0.35-0.43 0.57-0.62q0.35-0.34 0.81-0.62c0.31-0.17 0.65-0.36 1.02-0.46q0.56-0.17 1.17-0.22 0.62-0.04 1.25 0.07 0.63 0.15 1.23 0.41 0.04 0.02 0.08 0.04v-4.11c0-5.83-1.6-10.24-4.74-13.12-3.46-3.16-7.99-3.81-10.4-3.91q-1.03 0.03-1.59 0.01-0.06 0-0.07 0h-0.22-8.53q-0.19 1.91-0.68 3.73h4.25c0.92-0.06 6.07-0.2 9.89 3.29 2.67 2.46 4.02 6 4.02 10.53v6.08 15.34h-14.68l-6.73-0.01c-4.32 0-7.74-1.23-10.17-3.66q-0.18-0.18-0.36-0.36c-3.49-3.82-3.35-8.97-3.29-9.89v-4.24q-1.82 0.48-3.73 0.67v8.75q0 0.01-0.01 0.07 0.03 0.53 0.01 1.48c0.09 2.39 0.72 7.05 3.93 10.55 2.88 3.12 7.28 4.7 13.09 4.7h4.87q-0.07-0.12-0.14-0.24-0.27-0.6-0.41-1.24-0.11-0.63-0.07-1.25 0.05-0.61 0.22-1.17c0.11-0.37 0.3-0.7 0.46-1.01q0.27-0.46 0.62-0.8c0.19-0.24 0.44-0.43 0.62-0.59 0.17-0.15 0.38-0.27 0.49-0.34q0.19-0.12 0.19-0.12h0.41q0 0.01 0.06 0.43c0.03 0.27 0.07 0.65 0.16 1.11 0.05 0.22 0.07 0.47 0.14 0.73q0.12 0.38 0.21 0.8 0.14 0.4 0.28 0.83 0.18 0.41 0.37 0.83c0.14 0.27 0.25 0.54 0.42 0.79q0.22 0.4 0.47 0.74 0.19 0.26 0.38 0.5h20.26z"/>
		<path id="&lt;Path&gt;" class="s0" d="m49.39 31.67c0-0.02 0.26-3.79-2.04-6.28-1.47-1.59-3.79-2.4-6.88-2.4h-16.48v16.49c0 3.1 0.82 5.42 2.43 6.89 2.49 2.29 6.22 2.02 6.25 2.02h0.22l6.19-0.01c1.13-2.16 2.58-4.16 4.36-5.94 1.77-1.77 3.78-3.23 5.95-4.35z"/>
		<path id="&lt;Path&gt;" class="s0" d="m62.96 25.26q0.03 0.94 0 1.46 0.01 0.09 0.01 0.09l0.01 0.21v8.49q1.91 0.2 3.72 0.69v-4.22c-0.05-0.91-0.2-6.07 3.29-9.89 2.45-2.67 5.99-4.02 10.53-4.02h6.74 14.67v15.76 5.64c0 4.55-1.35 8.09-4.02 10.53-3.82 3.49-8.97 3.36-9.89 3.31l-4.24-0.01q0.48 1.82 0.68 3.73l8.73 0.01q0.02-0.01 0.08 0 0.53-0.03 1.48 0c2.38-0.1 7.05-0.72 10.55-3.93 3.11-2.88 4.7-7.29 4.7-13.11l-0.01-4.1q-0.03 0.02-0.07 0.04-0.61 0.27-1.23 0.41-0.64 0.11-1.25 0.08-0.62-0.05-1.18-0.22-0.55-0.19-1.01-0.47-0.45-0.27-0.81-0.61c-0.23-0.2-0.42-0.44-0.57-0.63-0.16-0.17-0.27-0.38-0.35-0.49q-0.12-0.18-0.12-0.19v-0.41q0.01 0 0.43-0.05c0.27-0.04 0.66-0.08 1.11-0.17 0.22-0.05 0.48-0.07 0.73-0.14q0.38-0.12 0.8-0.21 0.41-0.14 0.83-0.28 0.42-0.17 0.83-0.37c0.27-0.14 0.55-0.25 0.8-0.41q0.39-0.23 0.73-0.48 0.18-0.13 0.33-0.25l0.01-21.04h-20.26q-0.19 0.24-0.38 0.5-0.25 0.34-0.47 0.72c-0.17 0.26-0.28 0.54-0.42 0.81q-0.19 0.42-0.37 0.82-0.14 0.44-0.27 0.84-0.11 0.42-0.22 0.8-0.08 0.38-0.13 0.73c-0.1 0.45-0.14 0.84-0.17 1.11q-0.05 0.41-0.05 0.42h-0.42q0 0-0.19-0.11c-0.1-0.08-0.32-0.2-0.49-0.36-0.18-0.14-0.43-0.34-0.62-0.57q-0.34-0.34-0.62-0.81c-0.17-0.3-0.35-0.65-0.47-1.01q-0.16-0.55-0.21-1.17-0.04-0.63 0.07-1.26 0.14-0.62 0.41-1.22 0.06-0.12 0.14-0.25l-4.86 0.01c-5.82 0-10.23 1.58-13.1 4.7-3.22 3.49-3.84 8.17-3.94 10.55z"/>
		<path id="&lt;Path&gt;" class="s0" d="m71.62 38.12c4.37 2.29 7.96 5.88 10.25 10.26l6.45 0.01c0.03 0 3.8 0.26 6.29-2.04 1.59-1.47 2.4-3.79 2.4-6.87v-16.49h-16.49c-3.08 0-5.4 0.81-6.87 2.4-2.3 2.49-2.04 6.27-2.04 6.3l0.01 0.21z"/>
		<path id="&lt;Path&gt;" fill-rule="evenodd" class="s0" d="m53.14 66.86c-4.06-4.07-4.06-10.64 0-14.71 4.07-4.07 10.65-4.07 14.71 0 4.07 4.07 4.07 10.64 0 14.71-4.06 4.07-10.64 4.07-14.71 0z"/>
		<path id="&lt;Compound Path&gt;" fill-rule="evenodd" class="s0" d="m47.14 72.86c-7.39-7.38-7.39-19.33 0-26.71 7.39-7.39 19.33-7.39 26.72 0 7.39 7.38 7.39 19.33 0 26.71-7.39 7.39-19.33 7.39-26.72 0zm24.03-2.69c5.9-5.9 5.9-15.43 0-21.33-5.9-5.9-15.44-5.9-21.34 0-5.9 5.9-5.9 15.43 0 21.33 5.9 5.9 15.44 5.9 21.34 0z"/>
	</g>
</svg>