<svg version="1.2" xmlns="http://www.w3.org/2000/svg" viewBox="0 0 1080 1080" width="120" height="120">
	<defs>
		<radialGradient id="g1" cx="0" cy="0" r="1" gradientUnits="userSpaceOnUse" gradientTransform="matrix(73.348,0,0,73.348,539.364,539.124)">
			<stop offset=".006" stop-color="#f7f29e"/>
			<stop offset=".163" stop-color="#fde616"/>
			<stop offset="1" stop-color="#9e6327"/>
		</radialGradient>
		<radialGradient id="g2" cx="0" cy="0" r="1" gradientUnits="userSpaceOnUse" gradientTransform="matrix(NaN,NaN,NaN,NaN,NaN,NaN)">
			<stop offset=".006" stop-color="#f7f29e"/>
			<stop offset=".163" stop-color="#fde616"/>
			<stop offset="1" stop-color="#9e6327"/>
		</radialGradient>
		<radialGradient id="g3" cx="0" cy="0" r="1" gradientUnits="userSpaceOnUse" gradientTransform="matrix(142.673,0,0,142.673,539.336,539.175)">
			<stop offset=".006" stop-color="#f7f29e"/>
			<stop offset=".163" stop-color="#fde616"/>
			<stop offset="1" stop-color="#9e6327"/>
		</radialGradient>
		<radialGradient id="g4" cx="0" cy="0" r="1" gradientUnits="userSpaceOnUse" gradientTransform="matrix(52.628,0,0,52.628,327.902,539.2)">
			<stop offset=".006" stop-color="#f7f29e"/>
			<stop offset=".163" stop-color="#fde616"/>
			<stop offset="1" stop-color="#9e6327"/>
		</radialGradient>
		<radialGradient id="g5" cx="0" cy="0" r="1" gradientUnits="userSpaceOnUse" gradientTransform="matrix(87.77,0,0,87.77,302.874,539.234)">
			<stop offset=".006" stop-color="#f7f29e"/>
			<stop offset=".163" stop-color="#fde616"/>
			<stop offset="1" stop-color="#9e6327"/>
		</radialGradient>
		<radialGradient id="g6" cx="0" cy="0" r="1" gradientUnits="userSpaceOnUse" gradientTransform="matrix(158.928,0,0,158.928,252.885,539.133)">
			<stop offset=".006" stop-color="#f7f29e"/>
			<stop offset=".163" stop-color="#fde616"/>
			<stop offset="1" stop-color="#9e6327"/>
		</radialGradient>
		<radialGradient id="g7" cx="0" cy="0" r="1" gradientUnits="userSpaceOnUse" gradientTransform="matrix(52.626,0,0,52.626,751.151,539.205)">
			<stop offset=".006" stop-color="#f7f29e"/>
			<stop offset=".163" stop-color="#fde616"/>
			<stop offset="1" stop-color="#9e6327"/>
		</radialGradient>
		<radialGradient id="g8" cx="0" cy="0" r="1" gradientUnits="userSpaceOnUse" gradientTransform="matrix(87.79,0,0,87.79,776.212,539.241)">
			<stop offset=".006" stop-color="#f7f29e"/>
			<stop offset=".163" stop-color="#fde616"/>
			<stop offset="1" stop-color="#9e6327"/>
		</radialGradient>
		<radialGradient id="g9" cx="0" cy="0" r="1" gradientUnits="userSpaceOnUse" gradientTransform="matrix(158.926,0,0,158.926,826.128,539.123)">
			<stop offset=".006" stop-color="#f7f29e"/>
			<stop offset=".163" stop-color="#fde616"/>
			<stop offset="1" stop-color="#9e6327"/>
		</radialGradient>
		<radialGradient id="g10" cx="0" cy="0" r="1" gradientUnits="userSpaceOnUse" gradientTransform="matrix(60.609,0,0,60.609,539.398,327.556)">
			<stop offset=".006" stop-color="#f7f29e"/>
			<stop offset=".163" stop-color="#fde616"/>
			<stop offset="1" stop-color="#9e6327"/>
		</radialGradient>
		<radialGradient id="g11" cx="0" cy="0" r="1" gradientUnits="userSpaceOnUse" gradientTransform="matrix(89.222,0,0,89.222,539.453,302.494)">
			<stop offset=".006" stop-color="#f7f29e"/>
			<stop offset=".163" stop-color="#fde616"/>
			<stop offset="1" stop-color="#9e6327"/>
		</radialGradient>
		<radialGradient id="g12" cx="0" cy="0" r="1" gradientUnits="userSpaceOnUse" gradientTransform="matrix(157.228,0,0,157.228,539.526,252.534)">
			<stop offset=".006" stop-color="#f7f29e"/>
			<stop offset=".163" stop-color="#fde616"/>
			<stop offset="1" stop-color="#9e6327"/>
		</radialGradient>
		<radialGradient id="g13" cx="0" cy="0" r="1" gradientUnits="userSpaceOnUse" gradientTransform="matrix(60.583,0,0,60.583,539.39,750.749)">
			<stop offset=".006" stop-color="#f7f29e"/>
			<stop offset=".163" stop-color="#fde616"/>
			<stop offset="1" stop-color="#9e6327"/>
		</radialGradient>
		<radialGradient id="g14" cx="0" cy="0" r="1" gradientUnits="userSpaceOnUse" gradientTransform="matrix(89.231,0,0,89.231,539.453,775.737)">
			<stop offset=".006" stop-color="#f7f29e"/>
			<stop offset=".163" stop-color="#fde616"/>
			<stop offset="1" stop-color="#9e6327"/>
		</radialGradient>
		<radialGradient id="g15" cx="0" cy="0" r="1" gradientUnits="userSpaceOnUse" gradientTransform="matrix(157.226,0,0,157.226,539.526,825.709)">
			<stop offset=".006" stop-color="#f7f29e"/>
			<stop offset=".163" stop-color="#fde616"/>
			<stop offset="1" stop-color="#9e6327"/>
		</radialGradient>
		<radialGradient id="g16" cx="0" cy="0" r="1" gradientUnits="userSpaceOnUse" gradientTransform="matrix(30.872,0,0,30.872,734.484,344.065)">
			<stop offset=".006" stop-color="#f7f29e"/>
			<stop offset=".163" stop-color="#fde616"/>
			<stop offset="1" stop-color="#9e6327"/>
		</radialGradient>
		<radialGradient id="g17" cx="0" cy="0" r="1" gradientUnits="userSpaceOnUse" gradientTransform="matrix(40.007,0,0,40.007,757.056,321.517)">
			<stop offset=".006" stop-color="#f7f29e"/>
			<stop offset=".163" stop-color="#fde616"/>
			<stop offset="1" stop-color="#9e6327"/>
		</radialGradient>
		<radialGradient id="g18" cx="0" cy="0" r="1" gradientUnits="userSpaceOnUse" gradientTransform="matrix(30.951,0,0,30.951,344.467,733.978)">
			<stop offset=".006" stop-color="#f7f29e"/>
			<stop offset=".163" stop-color="#fde616"/>
			<stop offset="1" stop-color="#9e6327"/>
		</radialGradient>
		<radialGradient id="g19" cx="0" cy="0" r="1" gradientUnits="userSpaceOnUse" gradientTransform="matrix(40.013,0,0,40.013,321.873,756.551)">
			<stop offset=".006" stop-color="#f7f29e"/>
			<stop offset=".163" stop-color="#fde616"/>
			<stop offset="1" stop-color="#9e6327"/>
		</radialGradient>
		<radialGradient id="g20" cx="0" cy="0" r="1" gradientUnits="userSpaceOnUse" gradientTransform="matrix(30.863,0,0,30.863,734.484,733.988)">
			<stop offset=".006" stop-color="#f7f29e"/>
			<stop offset=".163" stop-color="#fde616"/>
			<stop offset="1" stop-color="#9e6327"/>
		</radialGradient>
		<radialGradient id="g21" cx="0" cy="0" r="1" gradientUnits="userSpaceOnUse" gradientTransform="matrix(40.013,0,0,40.013,757.056,756.551)">
			<stop offset=".006" stop-color="#f7f29e"/>
			<stop offset=".163" stop-color="#fde616"/>
			<stop offset="1" stop-color="#9e6327"/>
		</radialGradient>
		<radialGradient id="g22" cx="0" cy="0" r="1" gradientUnits="userSpaceOnUse" gradientTransform="matrix(30.947,0,0,30.947,344.467,344.082)">
			<stop offset=".006" stop-color="#f7f29e"/>
			<stop offset=".163" stop-color="#fde616"/>
			<stop offset="1" stop-color="#9e6327"/>
		</radialGradient>
		<radialGradient id="g23" cx="0" cy="0" r="1" gradientUnits="userSpaceOnUse" gradientTransform="matrix(40.007,0,0,40.007,321.873,321.517)">
			<stop offset=".006" stop-color="#f7f29e"/>
			<stop offset=".163" stop-color="#fde616"/>
			<stop offset="1" stop-color="#9e6327"/>
		</radialGradient>
		<radialGradient id="g24" cx="0" cy="0" r="1" gradientUnits="userSpaceOnUse" gradientTransform="matrix(492.036,0,0,492.036,539.532,539.165)">
			<stop offset=".006" stop-color="#f7f29e"/>
			<stop offset=".163" stop-color="#fde616"/>
			<stop offset="1" stop-color="#9e6327"/>
		</radialGradient>
	</defs>
	<style>
		.s0 { fill: url(#g1) } 
		.s1 { fill: url(#g2) } 
		.s2 { fill: url(#g3) } 
		.s3 { fill: url(#g4) } 
		.s4 { fill: url(#g5) } 
		.s5 { fill: url(#g6) } 
		.s6 { fill: url(#g7) } 
		.s7 { fill: url(#g8) } 
		.s8 { fill: url(#g9) } 
		.s9 { fill: url(#g10) } 
		.s10 { fill: url(#g11) } 
		.s11 { fill: url(#g12) } 
		.s12 { fill: url(#g13) } 
		.s13 { fill: url(#g14) } 
		.s14 { fill: url(#g15) } 
		.s15 { fill: url(#g16) } 
		.s16 { fill: url(#g17) } 
		.s17 { fill: url(#g18) } 
		.s18 { fill: url(#g19) } 
		.s19 { fill: url(#g20) } 
		.s20 { fill: url(#g21) } 
		.s21 { fill: url(#g22) } 
		.s22 { fill: url(#g23) } 
		.s23 { fill: url(#g24) } 
	</style>
	<g id="&lt;Group&gt;">
		<path id="&lt;Path&gt;" class="s0" d="m539.32 465.87c-40.41 0-73.27 32.86-73.27 73.27 0 19.54 7.66 37.91 21.52 51.78 13.81 13.86 32.24 21.48 51.75 21.46 19.57 0.02 37.98-7.63 51.84-21.46 13.87-13.87 21.52-32.24 21.52-51.78 0-40.41-32.92-73.27-73.36-73.27z"/>
		<path id="&lt;Path&gt;" class="s1" d=""/>
		<path id="&lt;Compound Path&gt;" fill-rule="evenodd" class="s2" d="m396.7 539.17c0-78.83 63.76-142.56 142.64-142.56 78.87 0 142.63 63.73 142.63 142.56 0 78.84-63.76 142.57-142.63 142.57-78.88 0-142.64-63.73-142.64-142.57zm142.62 98.08c54.09 0 98.13-44 98.13-98.06v-0.05c0-26.17-10.23-50.81-28.78-69.31-18.57-18.54-43.18-28.8-69.35-28.8-26.16 0-50.77 10.26-69.34 28.8-18.54 18.5-28.75 43.14-28.75 69.31 0 54.08 44.02 98.11 98.09 98.11z"/>
		<path id="&lt;Path&gt;" class="s3" d="m333.8 487.15c-17.37 10.01-50.84 42.54-60.36 51.96 11.51 11.36 43.68 42.36 60.36 51.93 11.78 6.69 30.51 10.35 48.57 1.01-5.84-17.42-8.8-35.17-8.8-52.91 0.02-17.92 2.96-35.7 8.8-52.83-18.21-9.37-37.43-5.47-48.57 0.84z"/>
		<path id="&lt;Path&gt;" class="s4" d="m306.19 460.52c-25.57 14.58-74.78 62.13-91.42 78.59 16.59 16.37 65.66 63.96 91.37 78.62 20.64 11.72 54.97 17.35 84.84-4.9-1.2-2.33-2.48-4.94-3.74-7.66-22.7 10.84-46.57 5.8-60.37-2.08-23.01-13.14-67.82-58.66-68.29-59.1-2.62-2.61-2.58-7.16 0.02-9.78 0.45-0.43 45.4-46.06 68.33-59.09 14.43-8.24 37.73-13.01 60.31-2.07 1.16-2.55 2.39-5.02 3.74-7.57-28.15-20.81-62.72-17.59-84.79-4.96z"/>
		<path id="&lt;Path&gt;" class="s5" d="m411.43 644.5c-4.2-5.12-8.24-10.79-12.33-17.35-33.85 23.95-75.01 19.82-101.09 4.94-32-18.25-93.83-80.12-100.79-87.09-3.13-3.23-3.08-8.51-0.12-11.69 7.08-7.13 68.91-68.93 100.88-87.15 26.16-14.95 67.35-19.04 101.18 4.9 3.99-6.39 8.04-12.08 12.27-17.27-49.02-63.31-120.58-62.13-166.67-34.02-6.76 4.15-14.97 10.08-24.41 17.68q13.39 0.71 20.52 6.89c10.81 9.64 26.59 6.46 26.74 6.42 0.99-0.19 1.96 0.4 2.25 1.35 0.03 0.17 0.07 0.37 0.07 0.53 0 0.78-0.45 1.49-1.19 1.79-0.88 0.34-21.1 8.17-34.1 1.75-16.64-8.19-37.75 0.86-51.29 13.59-40.35 37.46-81.51 81.3-89.01 89.34 7.71 8.3 51 54.43 92.53 92.61 12.52 10.31 31.67 18.59 47.77 10.63 13-6.51 33.22 1.37 34.1 1.7 0.88 0.41 1.39 1.35 1.12 2.34-0.29 0.95-1.26 1.54-2.25 1.34-0.15-0.02-15.93-3.19-26.74 6.37-4.69 4.15-11.48 6.47-20.22 6.98 9.41 7.49 17.49 13.35 24.11 17.44 46.09 28.09 117.65 29.24 166.67-34.02z"/>
		<path id="&lt;Path&gt;" class="s6" d="m745.17 591.04c16.79-9.57 48.95-40.57 60.44-51.93-9.55-9.42-43.14-42.06-60.44-51.96-11.09-6.31-30.28-10.21-48.48-0.84 5.85 17.24 8.8 34.91 8.8 52.52 0 18.14-2.95 35.94-8.8 53.22 18.02 9.36 36.76 5.68 48.48-1.01z"/>
		<path id="&lt;Path&gt;" class="s7" d="m772.86 617.73c24.8-14.19 71.21-58.66 91.47-78.62-16.62-16.41-65.83-63.93-91.47-78.59-22.06-12.6-56.66-15.85-84.76 4.96 1.21 2.41 2.46 4.93 3.63 7.57 22.72-10.94 45.95-6.17 60.39 2.07 19.22 10.99 53.72 44.51 67.65 58.38l0.72 0.71c2.57 2.65 2.57 7.08 0.02 9.78l-0.53 0.5c-10.85 10.85-47.84 47.19-67.86 58.6-13.77 7.88-37.62 12.92-60.36 2.08-1.05 2.35-2.24 4.85-3.66 7.66 29.83 22.25 64.19 16.62 84.76 4.9z"/>
		<path id="&lt;Path&gt;" class="s8" d="m667.58 433.79c4.32 5.22 8.36 10.88 12.32 17.27 33.87-23.92 75.01-19.85 101.15-4.9 29.62 16.9 84.23 70.52 100.27 86.55l0.55 0.57c3.15 3.28 3.05 8.46 0.02 11.63l-0.82 0.81c-16.03 16.01-70.67 69.6-99.97 86.33-26.12 14.92-67.3 19.02-101.17-4.9-4.03 6.56-8.11 12.23-12.35 17.35 49.07 63.29 120.64 62.11 166.67 34.02 6.66-4.09 14.59-9.81 24.09-17.44-8.72-0.51-15.48-2.83-20.13-6.98-10.89-9.6-26.57-6.39-26.75-6.37-0.98 0.2-1.95-0.39-2.23-1.34-0.3-0.96 0.19-2 1.12-2.34 0.85-0.33 21.06-8.21 34.09-1.7 16.05 7.91 35.22-0.32 47.82-10.68 41.45-38.13 84.69-84.23 92.41-92.56-7.5-8.04-48.56-51.88-88.98-89.34-13.53-12.73-34.62-21.84-51.25-13.59-13.05 6.42-33.24-1.41-34.09-1.75-0.93-0.38-1.43-1.35-1.12-2.32 0.28-0.95 1.25-1.54 2.23-1.35 0.18 0.04 15.91 3.22 26.75-6.39 4.74-4.18 11.61-6.47 20.49-6.92-9.31-7.51-17.53-13.44-24.45-17.68-46.06-28.15-117.64-29.35-166.67 34.02z"/>
		<path id="&lt;Path&gt;" class="s9" d="m539.55 273.1c-9.45 9.5-41.97 42.93-51.98 60.37-4.29 7.49-6.61 16.48-6.61 25.34 0 8.21 1.88 16.02 5.59 23.2 17.36-5.87 35.17-8.82 52.96-8.82 17.79 0 35.55 2.95 52.85 8.82 7.71-15.03 7.15-34.52-0.9-48.54-9.57-16.8-40.6-48.88-51.91-60.37z"/>
		<path id="&lt;Path&gt;" class="s10" d="m628.3 344.77c0-13.71-3.6-27.57-10.11-38.98-15.08-26.41-65.46-78.09-78.64-91.41-16.39 16.57-63.9 65.5-78.66 91.41-6.62 11.64-10.29 25.49-10.29 39.12 0 16.6 5.25 32.32 15.22 45.67 2.6-1.31 5.07-2.51 7.62-3.67-4.16-8.69-6.26-18.11-6.26-27.98-0.05-11.47 2.95-22.97 8.31-32.36 12.56-21.93 54.37-63.65 59.15-68.34 1.35-1.31 3.09-2.04 4.91-2.04 1.79 0 3.6 0.73 4.89 2l0.7 0.71c13.88 13.95 47.4 48.43 58.42 67.67 5.4 9.42 8.37 20.94 8.37 32.36 0 9.87-2.11 19.29-6.29 28.01 2.29 1.01 4.7 2.21 7.59 3.67 9.87-13.35 15.07-29.16 15.07-45.84z"/>
		<path id="&lt;Path&gt;" class="s11" d="m451.44 398.72c-11.19-15.79-17.07-34.43-17.07-54.06 0-16.63 4.31-33.38 12.16-47.03 16.89-29.61 70.53-84.23 86.58-100.23l0.54-0.56c1.66-1.57 3.77-2.39 5.9-2.39 2.18 0 4.24 0.84 5.77 2.35 7.09 7.03 68.96 68.87 87.18 100.83 7.91 13.83 12.26 30.57 12.26 47.14 0 19.54-5.94 38.18-17.14 53.97 6.35 4.02 12.04 8.06 17.25 12.34 33.79-26.11 52.32-62.11 52.32-101.45 0-23.07-6.3-45.61-18.25-65.19-4.11-6.76-10.05-14.94-17.69-24.42-0.46 8.86-2.79 15.76-6.98 20.49-9.46 10.8-6.35 26.67-6.35 26.76 0.28 0.92-0.39 1.95-1.36 2.18-0.93 0.33-1.96-0.16-2.33-1.12-0.19-0.42-4.26-10.91-4.26-21.65 0-4.85 0.86-9.02 2.56-12.38 2.07-4.27 3.16-9.01 3.16-14.09 0-12.11-6.26-26.04-16.79-37.2-37.44-40.44-81.29-81.51-89.35-89.02-8.32 7.7-54.5 51.03-92.69 92.55-8.69 10.6-13.72 22.97-13.72 33.76 0 5.02 1.05 9.73 3.18 13.96 1.65 3.4 2.52 7.55 2.52 12.4 0 10.76-4.13 21.25-4.32 21.67-0.33 0.96-1.38 1.45-2.32 1.12-0.97-0.27-1.57-1.26-1.32-2.21 0-0.06 3.17-15.93-6.4-26.77-4.13-4.67-6.41-11.42-6.9-20.17-7.42 9.25-13.3 17.36-17.46 24.14-11.96 19.58-18.26 42.12-18.26 65.19 0 39.34 18.55 75.34 52.24 101.45 5.15-4.21 10.85-8.3 17.34-12.36z"/>
		<path id="&lt;Path&gt;" class="s12" d="m539.55 805.22c16.19-16.51 43.08-44.94 51.88-60.45 8.05-14.02 8.64-33.5 0.93-48.5-17.27 5.84-35.04 8.77-52.85 8.77-17.79 0-35.6-2.93-52.96-8.77-3.71 7.15-5.59 14.92-5.59 23.11 0 8.86 2.32 17.91 6.61 25.39 9.62 16.71 40.61 48.9 51.98 60.45z"/>
		<path id="&lt;Path&gt;" class="s13" d="m450.6 733.36c0 13.61 3.67 27.52 10.29 39.09 15.13 26.53 65.46 78.06 78.66 91.39 13.16-13.3 63.45-64.78 78.64-91.39 6.51-11.42 10.11-25.26 10.11-38.97 0-16.66-5.2-32.53-15.07-45.84-2.46 1.25-5.01 2.49-7.59 3.67 4.18 8.74 6.29 18.16 6.29 28.03 0 11.39-2.97 22.92-8.37 32.34-11.46 20.01-47.78 57.02-58.64 67.88l-0.48 0.45c-1.32 1.32-3.08 2.02-4.89 2.02-1.82 0-3.56-0.7-4.91-2-4.78-4.71-46.59-46.43-59.15-68.35-5.36-9.4-8.31-20.93-8.31-32.37 0-9.87 2.1-19.29 6.26-27.97-2.55-1.12-5.02-2.36-7.62-3.68-9.97 13.35-15.22 29.16-15.22 45.7z"/>
		<path id="&lt;Path&gt;" class="s14" d="m645.69 858.05c0-5.05-1.09-9.78-3.16-14.04-1.7-3.42-2.56-7.61-2.56-12.47 0-10.69 4.07-21.16 4.26-21.63 0.37-0.92 1.4-1.4 2.33-1.12 0.97 0.28 1.61 1.32 1.36 2.22 0 0.08-3.11 15.97 6.35 26.74 4.19 4.74 6.52 11.62 6.98 20.5 7.64-9.51 13.58-17.66 17.69-24.47 11.95-19.52 18.25-42.06 18.25-65.14 0-39.35-18.53-75.37-52.32-101.48-5.25 4.29-10.93 8.36-17.25 12.34 11.2 15.81 17.14 34.43 17.14 53.98 0 16.56-4.35 33.34-12.26 47.16-18.22 31.96-80.06 93.76-87.07 100.72-1.64 1.62-3.7 2.46-5.88 2.46-2.18 0-4.24-0.84-5.85-2.37-2.78-2.79-68.11-67.37-87.17-100.79-7.85-13.73-12.16-30.44-12.16-47.13 0-19.6 5.88-38.22 17.01-54q-9.45-5.94-17.23-12.34c-33.74 26.1-52.29 62.08-52.29 101.43 0 23.1 6.3 45.64 18.26 65.16 4.12 6.73 9.97 14.83 17.46 24.16 0.49-8.72 2.77-15.48 6.9-20.19 9.6-10.79 6.4-26.66 6.4-26.74-0.25-0.93 0.35-1.94 1.32-2.22 0.94-0.28 1.95 0.2 2.32 1.12 0.19 0.45 4.32 10.97 4.32 21.7 0 4.83-0.87 9.01-2.52 12.4-2.13 4.2-3.18 8.95-3.18 13.96 0 10.85 5.03 23.14 13.78 33.84 38.13 41.42 84.31 84.75 92.63 92.45 8.06-7.51 51.91-48.62 89.3-89 10.56-11.12 16.84-25.06 16.84-37.21z"/>
		<path id="&lt;Path&gt;" class="s15" d="m765.37 318.68c0-2.13-0.07-4-0.18-5.35-8.25-0.59-29.64-0.59-47.72 12.29-1.42 19.01-6.12 35.57-13.87 49.37 17.01-9.61 35.66-12.95 49.27-13.96 10.85-15.23 12.5-33 12.5-42.35z"/>
		<path id="&lt;Path&gt;" class="s16" d="m717.93 312.29c25.1-14.02 51.98-9.53 53.19-9.33l2.43 0.45c0.78 0.13 1.42 0.76 1.54 1.55l0.42 2.49c0 0 0.85 4.62 0.85 11.86 0 10.77-1.84 26.38-10.16 41.3 7.39 0.06 12.73 0.62 14.85 0.9 10.65-11 16.01-26.45 16.01-45.9 0-14.42-3.1-26.61-4.05-30.09-7.06-1.94-50.44-12.67-75.96 11.94 0.23 2.11 0.79 7.43 0.88 14.83z"/>
		<path id="&lt;Path&gt;" class="s17" d="m313.52 759.31c0 2.17 0.08 4.03 0.19 5.42 8.3 0.57 29.76 0.52 47.72-12.3 1.03-13.68 4.35-32.36 13.98-49.38-16.99 9.62-35.68 12.96-49.36 13.97-10.87 15.22-12.53 32.98-12.53 42.29z"/>
		<path id="&lt;Path&gt;" class="s18" d="m361.02 765.78c-25.59 14.28-52.93 9.34-53.23 9.25l-2.42-0.36c-0.8-0.14-1.43-0.78-1.57-1.6l-0.43-2.41c-0.19-1.26-0.83-5.67-0.83-11.95 0-10.71 1.85-26.39 10.13-41.24-7.35-0.09-12.71-0.65-14.82-0.9-10.59 11.02-15.98 26.44-15.98 45.92 0 14.45 3.08 26.58 4.05 30.04 7.03 1.93 50.45 12.69 75.95-11.91-0.23-2.11-0.79-7.47-0.85-14.84z"/>
		<path id="&lt;Path&gt;" class="s19" d="m765.37 759.35c0-9.33-1.65-27.11-12.5-42.33-13.64-1.01-32.29-4.35-49.27-13.97 7.75 13.79 12.45 30.37 13.87 49.38 18 12.82 39.43 12.87 47.72 12.34 0.11-1.43 0.18-3.29 0.18-5.42z"/>
		<path id="&lt;Path&gt;" class="s20" d="m776.36 758.77c0 7.29-0.85 11.86-0.85 11.91l-0.42 2.39c-0.12 0.82-0.76 1.46-1.58 1.6l-2.43 0.36c-0.22 0.09-27.58 5.03-53.15-9.25-0.09 7.37-0.65 12.73-0.88 14.84 25.52 24.6 68.9 13.84 75.96 11.91 0.95-3.46 4.05-15.65 4.05-30.12 0-19.4-5.36-34.84-16.01-45.84-2.12 0.25-7.46 0.81-14.85 0.9 8.32 14.92 10.16 30.53 10.16 41.3z"/>
		<path id="&lt;Path&gt;" class="s21" d="m313.71 313.33c-0.11 1.41-0.19 3.26-0.19 5.42 0 9.31 1.66 27.03 12.53 42.28 13.64 1.01 32.31 4.35 49.36 13.99-9.63-17.05-12.95-35.72-13.98-49.4-18.08-12.88-39.46-12.88-47.72-12.29z"/>
		<path id="&lt;Path&gt;" class="s22" d="m302.54 319.33c0-6.33 0.64-10.67 0.83-11.88l0.43-2.49c0.14-0.79 0.77-1.42 1.57-1.55l2.47-0.45c1.16-0.2 28.04-4.69 53.18 9.36 0.06-7.43 0.62-12.75 0.85-14.86-25.5-24.61-68.92-13.88-75.95-11.94-0.97 3.48-4.05 15.65-4.05 30.02 0 19.5 5.39 34.95 15.98 45.97 2.11-0.28 7.47-0.84 14.82-0.9-8.28-14.92-10.13-30.53-10.13-41.28z"/>
		<path id="&lt;Compound Path&gt;" fill-rule="evenodd" class="s23" d="m47.58 539.11c0-14.95 5.57-29.22 15.69-40.15 11.48-12.31 50.66-53.92 90.48-90.91l34.24-30.15c13.78-11.32 25.1-19.59 34.9-25.57 2.71-1.65 5.57-3.25 8.63-4.84-1.35-7.94-2.06-16.13-2.06-24.4 0-24.06 5.36-43.07 7-48.3 5.84-18.43 20.29-32.87 38.65-38.68 6.35-1.99 37.75-10.88 72.77-5.07 1.45-2.75 3.09-5.69 4.9-8.61 6.12-10.04 14.33-21.25 25.01-34.21l27.04-30.98c37.81-41.02 81.53-82.24 94.03-93.91 23.01-21.23 58.31-21.23 80.85-0.41 16.1 15.03 55.66 52.42 90.98 90.53l30.12 34.16c11.09 13.4 19.37 24.75 25.54 34.96q2.4 3.96 4.83 8.44c35.13-5.78 66.34 3.11 72.6 5.1 18.4 5.78 32.86 20.21 38.68 38.61 1.67 5.42 7.01 24.65 7.01 48.37 0 8.11-0.7 16.23-2.07 24.28 3.11 1.63 5.99 3.26 8.73 4.92 9.89 6.05 21.22 14.35 34.66 25.39l34.45 30.28c45.18 41.95 90.27 90.77 90.62 91.16 10.01 10.68 15.63 24.99 15.63 39.99 0 14.97-5.62 29.24-15.8 40.18-1.9 2.04-47.88 51.84-94.05 94.26l-30.96 27.03c-13.08 10.86-24.31 19.07-34.5 25.3-2.66 1.65-5.52 3.28-8.73 4.96 1.35 7.91 2.02 16.02 2.02 24.11 0 23.84-5.35 42.96-6.99 48.25-5.84 18.54-20.3 33.05-38.73 38.79-6.35 1.96-37.73 10.71-72.48 5.07q-2.4 4.52-4.91 8.63c-6.42 10.5-14.7 21.8-25.33 34.66l-30.37 34.47c-24.41 26.32-56.11 57.93-89.43 89.13l-1.6 1.43c-22.43 20.78-57.75 20.81-80.32-0.02l-1.19-1.12c-16.2-15.17-57.69-54.58-93.06-93.05l-27.06-30.88c-11.04-13.42-19.25-24.66-25.28-34.64-1.67-2.71-3.27-5.52-4.92-8.63-33.56 5.51-63.63-2.34-72.55-5.03-18.47-5.76-32.95-20.27-38.79-38.74-1.64-5.19-7-24.07-7-48.32 0-8.16 0.69-16.28 2.04-24.2-3.13-1.61-5.98-3.22-8.62-4.87-10.14-6.2-21.35-14.39-34.26-25.01l-30.96-27.09c-40.69-37.43-82.12-81.4-93.86-93.99-10.65-11.52-16.22-25.8-16.22-40.68zm207.53-180.18l-7.52 3.56c-5.25 2.47-9.84 4.9-14.01 7.43-8.95 5.47-19.52 13.21-32.27 23.66l-33.75 29.75c-39.12 36.31-77.86 77.48-88.79 89.23-13.92 15-13.61 38.38-0.37 52.74 12.06 12.92 53.04 56.39 93.01 93.14l30.54 26.73c11.93 9.8 22.36 17.46 31.67 23.18 4.07 2.5 8.67 4.9 13.95 7.41l7.47 3.58-1.87 8.05c-2.07 8.89-3.12 18.17-3.12 27.56 0 21.85 5.05 38.92 6.06 42.12 3.8 12.08 13.23 21.53 25.21 25.27 8.32 2.54 38.16 10.28 69.88 3.05l8.03-1.82 3.54 7.41c2.6 5.42 5.01 9.91 7.52 13.95 5.55 9.19 13.2 19.63 23.4 32.05l26.67 30.45c34.75 37.77 75.8 76.78 91.84 91.78l1.13 1.06c14.67 13.54 37.71 13.52 52.4-0.08l1.55-1.4c32.86-30.76 64.19-61.97 88.1-87.77l30-34.02c9.79-11.88 17.53-22.43 23.42-32.01 2.56-4.23 5.08-8.95 7.47-13.97l3.54-7.42 8.05 1.81c32.71 7.44 63.89-1.25 69.8-3.07 11.95-3.74 21.37-13.19 25.17-25.27 1-3.2 6.06-20.64 6.06-42.12 0-9.28-1.05-18.56-3.11-27.53l-1.85-8.04 7.45-3.55c5.54-2.65 10.03-5.01 14.04-7.48 9.36-5.72 19.8-13.4 31.91-23.44l30.58-26.69c45.34-41.69 90.76-90.88 92.68-92.92 13.35-14.27 13.26-38.23 0.08-52.33-0.53-0.56-44.99-48.67-89.22-89.72l-34-29.89c-12.43-10.21-22.99-17.97-32.02-23.5-4.22-2.54-8.83-4.99-14.05-7.46l-7.48-3.53 1.84-8.04c2.09-9.18 3.15-18.49 3.15-27.74 0-20.86-4.66-37.57-6.07-42.23-3.79-11.91-13.21-21.33-25.24-25.12-5.83-1.82-36.69-10.65-69.79-3.08l-8.02 1.85-3.57-7.43c-2.49-5.22-4.94-9.73-7.44-13.83-5.67-9.36-13.39-19.9-23.59-32.26l-29.77-33.74c-34.67-37.41-73.79-74.42-88.98-88.55-15.38-14.24-38.43-14.24-53.13-0.64-12.74 11.86-56 52.63-93.14 92.95l-26.67 30.54c-9.87 11.96-17.51 22.39-23.17 31.67-2.96 4.78-5.41 9.62-7.49 13.91l-3.58 7.4-8-1.84c-32.94-7.6-64.04 1.23-69.95 3.05-11.96 3.79-21.39 13.24-25.19 25.21-1 3.19-6.05 20.44-6.05 42.14 0 9.54 1.06 18.88 3.15 27.74z"/>
	</g>
</svg>