<svg version="1.2" xmlns="http://www.w3.org/2000/svg" viewBox="0 0 316 192" width="316" height="192">
	<title>New Project</title>
	<style>
		.s0 { fill: #e4cfa8 } 
	</style>
	<filter id="f0">
		<feFlood flood-color="#efbf04" flood-opacity="1" />
		<feBlend mode="normal" in2="SourceGraphic"/>
		<feComposite in2="SourceAlpha" operator="in" />
	</filter>
	<g id="&lt;Group&gt;" filter="url(#f0)">
		<g id="&lt;Group&gt;">
			<g id="&lt;Group&gt;">
				<path id="&lt;Compound Path&gt;" fill-rule="evenodd" class="s0" d="m148.46 17.88c4.16 1.59 3.72 5.44 2.27 5.5-1.39 0.06-0.97-1.45-0.75-2.11 0.32-0.97-0.61-2.65-2.73-2.89-2.27-0.26-2.66 1.48-2.66 1.48 1.53-0.11 1.97 1.39 1.97 1.39-1.08-0.54-2.81-0.28-2.66 1.56 0.15 1.85 1.14 2.87 1.14 2.87 1.04-1.76 2.99-0.76 2.99-0.76-0.72 0.05-1.58 1.07-0.63 2.48 0.95 1.41 3.4 1.21 3.4 1.21-0.5-1.45 0.56-1.97 0.56-1.97 0.04 0.69 0.76 1.24 1.97 1.11 1.21-0.13 1.19-0.98 1.69-1.63 0.5-0.66 1.2-0.63 2.01-1.71 0.63-0.84 0.78-2.55 0.58-3.66-0.63-3.61-2.84-4.34-3.4-4.47-0.56-0.13-1.16-0.1-1.63 0.14q-0.36 0.19-0.54 0.52-0.18 0.34-0.18 0.74c-0.02 0.51 0.21 1 0.59 1.28 0.37 0.29 0.86 0.38 1.26 0.29q0.14-0.04 0.27-0.11 0.04-0.02 0.06-0.03l0.06-0.05q0.05-0.04 0.09-0.09 0.18-0.21 0.2-0.48c0.03-0.34-0.12-0.65-0.3-0.82-0.19-0.19-0.39-0.27-0.52-0.32q-0.21-0.06-0.22-0.05 0.01-0.01 0.22 0.02c0.15 0.03 0.37 0.08 0.59 0.26 0.22 0.17 0.45 0.5 0.45 0.92 0 0.21-0.05 0.44-0.2 0.65q-0.05 0.07-0.12 0.14l-0.07 0.05-0.08 0.06q-0.16 0.11-0.34 0.17c-0.5 0.16-1.11 0.07-1.6-0.27-0.5-0.33-0.84-0.96-0.83-1.63-0.01-0.31 0.06-0.66 0.23-0.97 0.16-0.31 0.43-0.56 0.73-0.73 0.63-0.34 1.35-0.34 1.99-0.18 0.65 0.15 3.34 1.01 3.78 6.07 0.49 5.74-4.15 8.8-7.95 9.04-4.22 0.26-9.39-2.35-9.74-6.89-0.32-4.29 3.87-7.73 8.05-6.13zm3.03 10.29q0.02 0.06 0.07 0.12 0.05 0.08 0.12 0.16 0.07 0.07 0.16 0.16 0.09 0.08 0.21 0.14 0.1 0.08 0.23 0.13 0.13 0.05 0.26 0.1 0.13 0.05 0.26 0.07 0.14 0.02 0.27 0.03 0.12 0.02 0.24 0.02 0.12 0 0.22-0.01c0.27-0.02 0.45-0.06 0.45-0.06 0 0-0.18-0.05-0.44-0.09q-0.1-0.02-0.21-0.03-0.11-0.02-0.23-0.05-0.12-0.03-0.24-0.06-0.13-0.02-0.24-0.07-0.12-0.04-0.24-0.08-0.12-0.04-0.22-0.1-0.12-0.05-0.21-0.1-0.09-0.06-0.17-0.11-0.08-0.06-0.15-0.11-0.05-0.05-0.09-0.09-0.09-0.09-0.09-0.09-0.01 0 0.04 0.12zm-6.1-0.67c0.02 0.15 0.02 0.3 0.07 0.45q0.05 0.22 0.14 0.43 0.08 0.21 0.2 0.39 0.1 0.18 0.22 0.34 0.12 0.15 0.23 0.27c0.14 0.17 0.29 0.29 0.39 0.37q0.15 0.12 0.16 0.12 0 0-0.1-0.17-0.11-0.17-0.27-0.45-0.08-0.14-0.16-0.3-0.09-0.16-0.17-0.34-0.08-0.17-0.15-0.36-0.07-0.2-0.11-0.39c-0.05-0.13-0.05-0.27-0.07-0.39q-0.02-0.2-0.02-0.39 0.01-0.09 0.01-0.19 0.01-0.09 0.03-0.17 0.03-0.17 0.07-0.33c0.12-0.39 0.29-0.64 0.29-0.64q-0.01-0.01-0.16 0.12-0.08 0.07-0.16 0.18-0.09 0.11-0.17 0.26-0.09 0.15-0.15 0.33-0.03 0.1-0.07 0.2-0.01 0.1-0.03 0.21-0.02 0.1-0.02 0.22-0.01 0.11 0 0.23zm-3.75-3.63q0.01 0.15 0.01 0.26 0.02 0.22 0.02 0.23 0-0.01 0.06-0.22 0.02-0.11 0.06-0.25 0.03-0.15 0.08-0.32 0.06-0.18 0.11-0.38 0.08-0.19 0.15-0.4c0.05-0.14 0.13-0.27 0.19-0.41q0.11-0.2 0.23-0.39 0.13-0.2 0.27-0.37 0.15-0.18 0.31-0.33 0.16-0.15 0.32-0.27 0.16-0.12 0.31-0.22c0.41-0.25 0.72-0.36 0.72-0.36q0 0-0.23 0.02-0.11 0.01-0.26 0.04-0.15 0.03-0.33 0.1-0.18 0.07-0.37 0.17-0.19 0.11-0.38 0.26-0.19 0.15-0.37 0.34-0.16 0.19-0.31 0.4-0.14 0.22-0.25 0.45-0.1 0.23-0.17 0.46-0.06 0.23-0.11 0.44-0.03 0.22-0.05 0.41 0 0.09-0.01 0.18 0 0.08 0 0.16z"/>
				<path id="&lt;Path&gt;" class="s0" d="m133.18 20.01q0 0-0.13-0.32-0.12-0.31-0.33-0.9-0.1-0.3-0.22-0.65-0.11-0.37-0.23-0.78-0.25-0.83-0.43-1.87-0.2-1.05-0.16-2.24c0.04-0.78 0.19-1.6 0.57-2.32 0.37-0.74 0.98-1.34 1.74-1.7q0.59-0.28 1.23-0.4 0.63-0.11 1.27-0.01c0.82 0.13 1.59 0.57 2.08 1.23 0.24 0.32 0.41 0.71 0.49 1.08l0.04 0.17 0.02 0.14q0.02 0.15 0.02 0.29 0.01 0.29-0.05 0.56-0.12 0.55-0.52 0.9c-0.26 0.23-0.59 0.38-0.92 0.41q-0.12 0.02-0.23 0.01-0.06-0.01-0.12-0.02c0.01 0-0.02 0 0.01 0h-0.01-0.01l-0.04-0.01-0.03-0.01c-0.12-0.05-0.26-0.14-0.37-0.25-0.23-0.23-0.41-0.52-0.5-0.81q-0.13-0.45 0.01-0.84c0.09-0.26 0.27-0.49 0.46-0.64 0.19-0.16 0.43-0.21 0.64-0.19q0.33 0.05 0.56 0.24c0.31 0.25 0.44 0.56 0.48 0.78q0.04 0.16 0.03 0.24 0 0.09 0 0.09 0 0 0.02-0.09 0.01-0.08 0.01-0.25c-0.01-0.23-0.09-0.58-0.4-0.91-0.16-0.16-0.37-0.31-0.65-0.38-0.27-0.07-0.61-0.02-0.9 0.15q-0.43 0.26-0.68 0.77c-0.16 0.35-0.21 0.76-0.12 1.17q0.13 0.61 0.57 1.11 0.22 0.26 0.57 0.44 0.06 0.02 0.11 0.04l0.03 0.01h0.02l0.01 0.01h0.03q0.09 0.03 0.18 0.04 0.19 0.03 0.37 0.02c0.49-0.02 0.97-0.2 1.37-0.53 0.39-0.32 0.7-0.78 0.83-1.29q0.1-0.39 0.09-0.78 0-0.19-0.02-0.39l-0.03-0.2-0.03-0.16q-0.17-0.79-0.63-1.44-0.48-0.65-1.17-1.07-0.7-0.4-1.49-0.52-0.79-0.12-1.56 0.03-0.76 0.15-1.44 0.5c-0.91 0.46-1.65 1.24-2.05 2.12-0.41 0.88-0.52 1.81-0.52 2.65 0.01 0.85 0.14 1.64 0.31 2.35 0.17 0.7 0.4 1.33 0.61 1.87q0.32 0.82 0.6 1.39 0.28 0.57 0.45 0.86 0.16 0.3 0.16 0.3z"/>
				<path id="&lt;Path&gt;" class="s0" d="m80.28 16.43q0.01-0.01-0.05-0.23-0.04-0.11-0.1-0.26-0.06-0.14-0.17-0.31-0.11-0.16-0.26-0.33-0.15-0.16-0.35-0.31-0.21-0.16-0.45-0.27-0.24-0.12-0.5-0.18-0.27-0.06-0.54-0.07-0.27 0-0.51 0.03-0.24 0.06-0.46 0.12-0.21 0.09-0.38 0.18-0.17 0.08-0.29 0.18-0.13 0.09-0.21 0.17-0.17 0.14-0.17 0.15 0 0 0.23-0.01 0.11-0.01 0.25-0.03 0.15-0.03 0.32-0.03 0.18-0.02 0.37-0.03 0.19 0 0.39 0 0.21 0.01 0.41 0.02c0.14 0.04 0.28 0.04 0.4 0.08q0.21 0.05 0.4 0.12 0.19 0.06 0.37 0.15 0.18 0.09 0.35 0.19 0.17 0.09 0.31 0.19 0.29 0.2 0.46 0.33 0.18 0.14 0.18 0.15z"/>
				<path id="&lt;Path&gt;" class="s0" d="m80.28 16.42q0 0 0.11-0.21 0.06-0.1 0.13-0.23 0.07-0.13 0.16-0.27 0.09-0.15 0.19-0.31 0.1-0.15 0.22-0.31 0.12-0.15 0.25-0.3 0.13-0.14 0.28-0.28c0.08-0.09 0.2-0.16 0.29-0.25q0.17-0.11 0.32-0.23 0.17-0.09 0.33-0.2 0.16-0.09 0.32-0.17 0.15-0.1 0.28-0.16 0.13-0.07 0.23-0.13 0.2-0.12 0.21-0.13 0 0-0.23-0.07-0.11-0.04-0.27-0.07-0.16-0.04-0.35-0.04-0.2 0-0.43 0.02-0.23 0.05-0.48 0.11-0.24 0.1-0.48 0.22-0.23 0.15-0.45 0.34-0.21 0.19-0.37 0.43-0.15 0.23-0.25 0.47-0.1 0.24-0.14 0.47-0.05 0.23-0.05 0.43 0.01 0.41 0.09 0.64 0.08 0.23 0.09 0.23z"/>
				<path id="&lt;Path&gt;" class="s0" d="m78.64 10.59c3.16 2.51 1.59 5.65 1.59 5.65 0 0-2.96-1.85-1.59-5.65z"/>
				<path id="&lt;Path&gt;" class="s0" d="m127.13 22.07q-0.15-0.06-0.31-0.13-0.46-0.21-0.86-0.61c-0.26-0.27-0.48-0.62-0.56-1.02q-0.03-0.15-0.04-0.31c0-0.08 0.01-0.21 0.03-0.31q0.07-0.34 0.31-0.59c0.31-0.32 0.75-0.43 1.14-0.44h0.08q0.05 0 0.07 0 0.07 0 0.14 0.01l0.16 0.03 0.15 0.05q0.31 0.11 0.5 0.37c0.25 0.33 0.3 0.8 0.05 1.13-0.15 0.17-0.31 0.23-0.47 0.28q-0.26 0.07-0.49 0-0.25-0.08-0.39-0.26-0.12-0.16-0.15-0.37c-0.02-0.28 0.17-0.46 0.32-0.53 0.16-0.08 0.3-0.06 0.39-0.05q0.12 0.04 0.12 0.04 0 0-0.13-0.02-0.13-0.02-0.34 0.1c-0.13 0.08-0.26 0.25-0.21 0.44 0.03 0.18 0.21 0.39 0.44 0.43q0.18 0.03 0.36-0.04c0.12-0.03 0.26-0.11 0.31-0.19 0.14-0.2 0.1-0.54-0.08-0.75q-0.13-0.17-0.35-0.24l-0.11-0.03-0.11-0.02q-0.06-0.01-0.13 0-0.04-0.01-0.05-0.01l-0.07 0.01c-0.33 0.01-0.66 0.11-0.88 0.33q-0.16 0.17-0.21 0.39c-0.02 0.08-0.02 0.14-0.02 0.24q0 0.11 0.02 0.24c0.06 0.32 0.23 0.62 0.44 0.86 0.38 0.43 0.89 0.69 1.35 0.86 3.27-0.67 6.12 2.46 9.03 5.48 2.93 3.03 6.49 4.22 6.49 4.22-2.16 0.04-5.82-2.52-7.52-2.35-1.71 0.17-1.02 1.5-1.02 1.5 0 0-1.34-0.67-1.3-2.17 0.04-1.5 0.95-1.46 0.95-1.46-0.45-0.61-1.79-1.65-2.83-1.48-1.04 0.18-1.04 1.65-1.04 1.65-1.86-2.51 0.56-3.6 0.56-3.6 0 0-0.93-1.31-3.48-0.83-2.55 0.48-2.21 3.2-1.14 3.96 1.05 0.75 2.04-0.11 1.44-0.61-0.18-0.15-0.4-0.64-0.02-0.97 0.33-0.29 0.7-0.2 1.04 0.25 0.33 0.46 0.68 1.5-0.37 2.12-1.28 0.76-2.69-0.27-3.24-1.4-0.65-1.31-0.25-3.5 2.03-4.2z"/>
				<path id="&lt;Compound Path&gt;" fill-rule="evenodd" class="s0" d="m108.19 23.6c-0.23-3.85 2.36-9.42 9.05-9.43 5.36-0.01 9.04 3.6 9.04 3.6 0 0-5.32-3.52-9.77-2.47-4.46 1.04-5.92 3.7-6.15 5.6-0.2 1.65 1.17 3.83 3.72 1.96 0 0-0.12 2.54-2.59 2.61 0 0 1.24 1.82 3.39 2.36 2.33 0.6 3.75-2.06 2.19-3.47 0 0 2.64-0.28 2.6 2.8 0 0 1.81-3.48 0.21-6.26-1.6-2.78-4.67-1.09-4.67-1.09 0 0 2.8-4.22 7.14-1.17 0 0 0.6-0.81 1.6-0.53 0 0-0.67 0.71-0.3 2.6 0.37 1.89 1.19 6.86-4.4 9.54 0 0 1.72 1.85-0.39 4.49 0 0-0.71-2.87-2.91-3.08-1.58-0.16-5.75-1.23-6.63-4.48 0 0-1.36 1.41-2.85 0.17 0 0 1.88-1.08 1.72-3.75zm1.16 0.42c0.14 0.77 0.39 1.58 0.81 2.37 0.42 0.79 0.99 1.57 1.75 2.2q0.56 0.48 1.25 0.84 0.68 0.34 1.44 0.51 0.77 0.17 1.57 0.15 0.77-0.01 1.54-0.18c1.03-0.22 2.01-0.69 2.8-1.37 0.8-0.68 1.37-1.57 1.71-2.5 0.34-0.93 0.45-1.9 0.37-2.8q-0.06-0.68-0.26-1.28c-0.14-0.43-0.32-0.77-0.52-1.11-0.39-0.67-0.87-1.22-1.38-1.6-0.51-0.38-1.03-0.59-1.47-0.69-0.44-0.1-0.79-0.09-1.03-0.07q-0.36 0.04-0.36 0.06 0-0.02 0.36-0.03c0.24-0.01 0.58 0.02 1.01 0.14 0.42 0.12 0.9 0.35 1.36 0.75q0.71 0.59 1.24 1.59c0.18 0.32 0.36 0.69 0.45 1.06q0.17 0.57 0.21 1.21c0.04 0.85-0.08 1.75-0.41 2.61-0.32 0.85-0.87 1.66-1.6 2.27-0.73 0.62-1.63 1.05-2.59 1.25q-0.71 0.16-1.46 0.18-0.19 0.01-0.36 0-0.17 0-0.36-0.02l-0.35-0.04-0.36-0.07q-0.7-0.16-1.34-0.46-0.64-0.31-1.17-0.75c-0.72-0.58-1.28-1.29-1.7-2.03-0.42-0.75-0.7-1.52-0.86-2.25q-0.24-1.11-0.23-2.03c0.01-0.62 0.08-1.15 0.16-1.59q0.14-0.65 0.25-0.99 0.12-0.35 0.12-0.35 0 0-0.14 0.34-0.15 0.33-0.32 0.98-0.18 0.66-0.26 1.6c-0.04 0.62-0.01 1.34 0.13 2.1z"/>
				<path id="&lt;Compound Path&gt;" fill-rule="evenodd" class="s0" d="m70.22 16.46c0 0-1.75-0.33-1.66-1.17 0.1-0.85 1.24-1.21 1.92-0.82 0.68 0.39 1.4 1.7 2.5 1.66 1.06-0.03 5.51-0.36 8.39 2.29q-0.02-0.09-0.03-0.17-0.12-0.69-0.05-1.4 0.1-0.73 0.44-1.36c0.45-0.85 1.2-1.47 2.01-1.84 0.81-0.37 1.67-0.51 2.49-0.5q0.3 0.01 0.63 0.04 0.13 0.01 0.29 0.03 0.15 0.03 0.31 0.06 0.61 0.12 1.16 0.41c0.73 0.39 1.31 1.06 1.54 1.82 0.24 0.75 0.18 1.57-0.23 2.22-0.14 0.18-0.27 0.3-0.41 0.41q-0.22 0.16-0.44 0.27-0.46 0.23-0.93 0.3c-0.63 0.11-1.28 0.01-1.77-0.33q-0.36-0.27-0.57-0.62-0.2-0.34-0.28-0.7c-0.11-0.48 0.01-0.97 0.24-1.3 0.24-0.33 0.56-0.52 0.84-0.62 0.29-0.1 0.55-0.11 0.75-0.09q0.31 0.03 0.45 0.1 0.15 0.06 0.15 0.06 0 0-0.15-0.05-0.15-0.05-0.45-0.06c-0.2 0.01-0.45 0.04-0.7 0.16-0.26 0.12-0.53 0.31-0.71 0.62-0.18 0.3-0.25 0.7-0.12 1.11 0.12 0.39 0.37 0.81 0.77 1.05 0.4 0.25 0.93 0.3 1.45 0.18q0.4-0.09 0.77-0.3 0.19-0.1 0.34-0.23c0.11-0.09 0.21-0.2 0.26-0.28 0.27-0.46 0.3-1.11 0.08-1.68-0.2-0.57-0.65-1.06-1.24-1.34q-0.44-0.22-0.96-0.31-0.12-0.02-0.25-0.03-0.13-0.02-0.27-0.03-0.26-0.01-0.54-0.01c-0.73 0.02-1.46 0.15-2.11 0.47-0.66 0.31-1.22 0.82-1.54 1.46q-0.25 0.49-0.31 1.02-0.06 0.55 0.05 1.13c0.13 0.76 0.44 1.51 0.87 2.18q0.65 1.01 1.62 1.75c1.27 1.01 2.85 1.62 4.45 1.95q1.21 0.24 2.42 0.33 1.23 0.09 2.41 0.04 1.18-0.05 2.31-0.21 1.13-0.17 2.18-0.45 2.1-0.6 3.8-1.5 0.84-0.44 1.58-0.92 0.74-0.46 1.38-0.92c0.84-0.61 1.56-1.18 2.16-1.65q0.89-0.7 1.4-1.05 0.25-0.18 0.38-0.26 0.13-0.08 0.13-0.08 0 0-0.12 0.09-0.13 0.1-0.36 0.29-0.46 0.4-1.3 1.17c-0.56 0.51-1.23 1.14-2.05 1.8-0.76 0.62-1.63 1.28-2.65 1.89q-0.24 0.28-0.49 0.59-0.53 0.66-0.95 1.54c-0.26 0.57-0.48 1.21-0.54 1.89-0.06 0.67 0.02 1.38 0.3 2.01q0.21 0.47 0.56 0.84 0.36 0.36 0.81 0.52c0.61 0.22 1.34 0.12 1.87-0.22q0.41-0.25 0.67-0.66 0.13-0.2 0.22-0.43l0.03-0.06c0 0 0.01-0.03 0.02-0.05q0.02-0.07 0.04-0.12 0.03-0.11 0.05-0.22 0.1-0.46-0.03-0.84c-0.09-0.25-0.28-0.46-0.5-0.6q-0.17-0.1-0.35-0.14-0.1-0.02-0.17-0.03h-0.06l-0.03 0.01q-0.04 0-0.08 0.01c-0.22 0.05-0.42 0.21-0.56 0.4q-0.2 0.29-0.2 0.63 0.02 0.33 0.19 0.6 0.17 0.26 0.42 0.32 0.25 0.05 0.47-0.05c0.29-0.13 0.45-0.35 0.52-0.51q0.05-0.12 0.06-0.19 0.01-0.07 0.01-0.07 0 0 0 0.07 0.01 0.07-0.02 0.21c-0.04 0.18-0.17 0.45-0.48 0.65-0.15 0.1-0.36 0.18-0.6 0.15-0.24-0.02-0.49-0.16-0.65-0.37-0.17-0.2-0.31-0.46-0.35-0.77-0.04-0.31 0.03-0.65 0.2-0.95 0.17-0.29 0.45-0.55 0.83-0.68q0.08-0.03 0.15-0.04l0.09-0.01h0.06q0.16-0.01 0.3 0.01 0.3 0.04 0.56 0.18c0.36 0.19 0.66 0.51 0.83 0.9 0.17 0.4 0.19 0.84 0.12 1.25q-0.02 0.15-0.07 0.31-0.02 0.08-0.04 0.13l-0.03 0.08-0.03 0.07q-0.11 0.29-0.28 0.56-0.34 0.55-0.9 0.91c-0.74 0.47-1.69 0.57-2.53 0.27-0.85-0.31-1.45-1.03-1.76-1.8-0.32-0.77-0.37-1.59-0.27-2.35q0.11-0.73 0.38-1.36c-1.15 0.78-4.54 2.78-8.36 2.07 0 0 1.98-0.24 2.59-1.73 0 0-5.54 3.21-10.47-0.4 0 0 1.93 0.51 2.67-0.01 0 0-3.04-0.4-4.29-3.51q-0.78-0.96-1.22-2.11c-1.1-1.17-3.21-2.74-6.2-2.23-4.61 0.78-7.47 0.58-8.47-2.18 0 0 1.33 1.56 3.24 1.43zm24.47 10.4c0 0 0.26-0.06 0.66-0.17q0.14-0.03 0.31-0.1 0.16-0.06 0.34-0.13 0.18-0.07 0.36-0.17 0.17-0.09 0.35-0.19 0.18-0.1 0.34-0.22 0.17-0.11 0.32-0.22 0.16-0.12 0.29-0.24 0.13-0.11 0.24-0.22c0.3-0.28 0.46-0.5 0.46-0.5q0 0.01-0.14 0.13-0.13 0.12-0.37 0.32-0.11 0.1-0.25 0.2-0.14 0.11-0.29 0.22-0.16 0.1-0.32 0.21-0.17 0.12-0.35 0.21-0.17 0.1-0.34 0.2-0.18 0.09-0.35 0.16-0.17 0.08-0.33 0.15-0.15 0.08-0.3 0.12c-0.38 0.14-0.63 0.24-0.63 0.24zm-7.14-0.88q0.08 0.02 0.21 0.04 0.13 0.01 0.28 0.03 0.16 0.01 0.34 0.02 0.18 0 0.38-0.01 0.4-0.03 0.82-0.1 0.41-0.09 0.8-0.21 0.38-0.12 0.67-0.25 0.34-0.14 0.51-0.24-0.03 0-0.05 0-0.17 0.06-0.49 0.18-0.3 0.1-0.68 0.2-0.37 0.11-0.79 0.19-0.4 0.08-0.79 0.12-0.2 0.01-0.38 0.02-0.18 0.01-0.34 0.01-0.15 0-0.27-0.01-0.13 0-0.22-0.01-0.19-0.02-0.19-0.02 0 0 0.19 0.04z"/>
				<g id="&lt;Group&gt;">
					<path id="&lt;Path&gt;" class="s0" d="m89.36 17.93q-0.19 0.14-0.4 0.25-0.25 0.12-0.51 0.2-0.01 0-0.01 0 0.27-0.1 0.51-0.23 0.2-0.12 0.38-0.26c0.12-0.1 0.24-0.23 0.31-0.34q0.06-0.12 0.12-0.25 0.05 0 0.1-0.01-0.06 0.15-0.15 0.3c-0.1 0.14-0.21 0.23-0.35 0.34z"/>
					<path id="&lt;Path&gt;" class="s0" d="m86.78 17.44c-0.61-1.02 0.51-1.61 0.51-1.61-0.83 1.25 0.36 1.68 1.81 1.56q-0.05 0.05-0.1 0.1-0.14 0.12-0.31 0.2-0.31 0.18-0.7 0.28-0.34 0.07-0.65 0.04-0.36-0.22-0.56-0.57z"/>
					<path id="&lt;Compound Path&gt;" fill-rule="evenodd" class="s0" d="m90.14 17.88q0.21-0.34 0.32-0.74c0.59-0.17 1.13-0.41 1.5-0.71 1.59-1.27 1.43-2.81 0.17-4.05-1.27-1.23-3.25-0.09-3.25-0.09 0.94-1.37 3.38-1.99 4.79-1.32 1.78 0.84 2.09 2.27 2.09 2.27 3.28-4.71 12.43-3.5 12.43-3.5-7.11 1.08-9.54 4.27-12.83 6.5-1.86 1.26-4.05 2.05-5.77 2.17q0.04-0.03 0.08-0.06c0.15-0.12 0.31-0.25 0.47-0.47zm3.57-5.29l0.15 0.18 0.12 0.19c0.09 0.12 0.13 0.26 0.19 0.4q0.07 0.21 0.13 0.42 0.02 0.21 0.05 0.41 0.01 0.19 0.01 0.37 0.01 0.18-0.01 0.32-0.02 0.15-0.03 0.25-0.02 0.22-0.02 0.22 0 0 0.07-0.21 0.03-0.1 0.07-0.24 0.05-0.14 0.06-0.32 0.04-0.19 0.05-0.4-0.01-0.21-0.03-0.44-0.03-0.23-0.11-0.47c-0.07-0.15-0.11-0.31-0.21-0.45q-0.07-0.1-0.14-0.21l-0.16-0.18q-0.08-0.1-0.17-0.17-0.1-0.09-0.19-0.15-0.18-0.14-0.37-0.24-0.19-0.1-0.36-0.16-0.35-0.12-0.56-0.15-0.22-0.03-0.22-0.02 0 0 0.2 0.07 0.2 0.07 0.52 0.24 0.16 0.08 0.32 0.19 0.17 0.11 0.33 0.25 0.17 0.14 0.31 0.3z"/>
				</g>
				<path id="&lt;Compound Path&gt;" fill-rule="evenodd" class="s0" d="m93.67 20.97q0.05 0.03 0.1 0.06 0.18 0.1 0.38 0.19 0.41 0.19 0.85 0.31 0.23 0.06 0.45 0.1 0.22 0.04 0.43 0.06 0.21 0.02 0.4 0.02 0.2 0.01 0.36 0 0.17 0 0.31-0.02 0.13-0.01 0.23-0.02 0.2-0.03 0.2-0.03 0 0-0.2-0.01-0.1 0-0.23-0.01-0.14 0-0.3-0.03-0.16-0.02-0.35-0.06-0.18-0.03-0.38-0.08-0.19-0.06-0.4-0.13-0.19-0.07-0.39-0.16-0.39-0.18-0.72-0.4-0.05-0.04-0.09-0.07c1.56-0.74 2.98-1.76 3.91-2.58q0.23 0.1 0.58 0.21 0.41 0.13 0.92 0.22 0.26 0.05 0.53 0.07 0.26 0.03 0.54 0.04 0.27 0.01 0.53 0 0.27-0.02 0.52-0.04 0.25-0.03 0.47-0.06 0.23-0.04 0.42-0.09 0.2-0.04 0.35-0.08 0.16-0.05 0.27-0.08 0.22-0.07 0.23-0.07-0.01 0-0.24 0.02-0.11 0.02-0.27 0.03-0.16 0.02-0.35 0.02-0.2 0.01-0.42 0-0.23 0-0.47-0.02-0.24-0.02-0.49-0.06-0.24-0.03-0.49-0.09-0.25-0.05-0.49-0.12-0.23-0.07-0.45-0.16-0.45-0.16-0.77-0.34-0.08-0.04-0.14-0.08c1.69-1.45 3.46-2.84 5.37-3.99q0.12 0.06 0.25 0.12 0.38 0.17 0.86 0.32 0.24 0.07 0.49 0.13 0.25 0.05 0.51 0.09 0.26 0.03 0.51 0.06 0.25 0.01 0.5 0.02 0.23-0.01 0.46-0.01 0.21-0.01 0.4-0.03 0.39-0.04 0.61-0.09 0.22-0.04 0.22-0.04 0 0-0.22 0-0.23 0-0.61-0.04-0.18-0.01-0.39-0.04-0.21-0.04-0.44-0.08-0.22-0.06-0.46-0.11-0.23-0.07-0.46-0.15-0.23-0.08-0.45-0.17-0.21-0.1-0.41-0.2-0.26-0.14-0.48-0.28c2.06-1.12 4.28-1.95 6.75-2.28 7.53-1.02 14.21 3.62 14.21 3.62-8.05-6.46-15.67-4.99-15.67-4.99 6.94-2.58 11.29 0.52 11.29 0.52-0.26-2.77 2.7-2.9 2.7-2.9-3.38 2.57 4.7 9.58 4.7 9.58-2.63-2.31-3.15-5.48-2.82-7.43 0.32-1.96 2.14-2.35 4.51-4.53 2.37-2.18 0.61-4.53 0.61-4.53 4.16 1.76 3.77 4.46 3.77 4.46 11.36 0.14 13.99 9 10.74 10.89-3.25 1.89-4.97-0.91-4.97-0.91 0.78 1.01 4.32 0.59 3.39-3.1-0.93-3.68-3.93-4.46-6.76-5.21-2.82-0.75-9.15 1.46-8.89 5.96 0.26 4.5 3.86 6.94 3.86 6.94-0.03-2.6 3.21-3.74 5.36-2.54 2.14 1.21 1.29 4.37 1.29 4.37-0.55-3.33-4.31-2.41-4.15 0.29 0.16 2.71 1.56 4.56 5 7.28 3.44 2.72 7.82 3.22 7.82 3.22-7.27 0.36-13.08-6.78-15.48-9.25-2.41-2.46-5.68-6.92-12.85-8.74-7.17-1.83-15.06 6.84-20.61 9.05-5.55 2.22-10.78-1.53-10.78-1.53 1.58 0.85 3.54 0.54 5.38-0.21zm15.7-8.48q0.1 0.08 0.24 0.13 0.14 0.06 0.3 0.12 0.17 0.04 0.35 0.08 0.09 0.02 0.18 0.04 0.1 0.01 0.2 0.02 0.19 0.02 0.39 0.03 0.19 0.01 0.39 0 0.19-0.01 0.38-0.03 0.19-0.01 0.35-0.04 0.16-0.03 0.31-0.07 0.29-0.06 0.46-0.11 0.17-0.05 0.17-0.05 0 0-0.18 0-0.18 0-0.47 0.02-0.14 0-0.31 0.02-0.16 0-0.34 0-0.18 0-0.38 0-0.18 0.02-0.37 0-0.19-0.01-0.38-0.02-0.1 0-0.18-0.01-0.09-0.01-0.18-0.03-0.18-0.02-0.34-0.04-0.16-0.04-0.3-0.07-0.14-0.03-0.25-0.07-0.11-0.04-0.18-0.07-0.16-0.08-0.17-0.09 0 0.01 0.14 0.13 0.07 0.05 0.17 0.11zm-3.05 3.6q0.14-0.04 0.27-0.08c0.32-0.09 0.53-0.18 0.53-0.18 0 0-0.23 0-0.56 0.04q-0.13 0.01-0.27 0.03-0.14 0.01-0.3 0.02-0.15 0.01-0.31 0.02-0.16 0.02-0.33 0.02-0.33 0.02-0.64 0.01-0.15-0.01-0.29-0.01-0.14-0.02-0.26-0.03-0.13-0.01-0.23-0.03-0.09-0.01-0.17-0.03-0.14-0.04-0.14-0.04-0.01 0 0.12 0.09 0.07 0.04 0.17 0.08 0.09 0.04 0.21 0.08 0.13 0.03 0.27 0.07 0.15 0.03 0.3 0.05 0.17 0.02 0.33 0.02 0.17 0 0.34 0c0.23 0 0.45-0.05 0.66-0.07q0.16-0.03 0.3-0.06zm-2.08 1.09q0.2-0.02 0.39-0.04 0.19-0.04 0.36-0.07 0.17-0.04 0.32-0.09c0.2-0.06 0.35-0.14 0.45-0.18q0.17-0.08 0.17-0.08 0 0-0.18 0.03-0.09 0.02-0.21 0.04-0.12 0.02-0.27 0.04-0.14 0.02-0.31 0.04-0.17 0.02-0.36 0.04-0.18 0.01-0.37 0.01-0.19 0-0.39-0.01-0.2 0-0.39-0.03-0.19-0.01-0.37-0.05-0.37-0.06-0.66-0.15c-0.38-0.1-0.62-0.22-0.62-0.22q0 0 0.14 0.12 0.15 0.1 0.43 0.24 0.28 0.14 0.66 0.24 0.18 0.05 0.39 0.07 0.2 0.03 0.41 0.05 0.2 0 0.41 0zm-2.87 2.77q0.15-0.04 0.28-0.1 0.27-0.11 0.42-0.18 0.14-0.07 0.15-0.07-0.01 0-0.17 0.02-0.17 0.03-0.44 0.09-0.13 0.04-0.29 0.05-0.15 0.02-0.32 0.05-0.16 0.03-0.35 0.05-0.17 0.02-0.35 0.03-0.18 0.03-0.36 0.03-0.18 0-0.35 0.02-0.17 0-0.32 0-0.17 0-0.3 0-0.28-0.01-0.44-0.02-0.17 0-0.17-0.01 0 0.01 0.16 0.06 0.15 0.06 0.43 0.11 0.14 0.03 0.3 0.05 0.16 0.02 0.34 0.03 0.17 0.01 0.36 0.01 0.18 0 0.37-0.02 0.19-0.02 0.37-0.04 0.18-0.02 0.35-0.07 0.17-0.04 0.33-0.09zm-3.66 0.92q0.16 0.03 0.34 0.05 0.18 0.03 0.37 0.03 0.2 0 0.39 0 0.19 0 0.38-0.03 0.19-0.03 0.36-0.05 0.18-0.03 0.34-0.07 0.16-0.04 0.3-0.09 0.28-0.09 0.44-0.15 0.16-0.06 0.16-0.06 0 0-0.17 0.01-0.18 0.02-0.46 0.06-0.14 0.01-0.3 0.04-0.16 0.01-0.34 0.03-0.17 0.01-0.35 0.03-0.19 0.02-0.37 0.02-0.19 0-0.37 0.01-0.19 0-0.36-0.01-0.17 0-0.33-0.02-0.16-0.02-0.3-0.04-0.13-0.01-0.25-0.04-0.11-0.02-0.19-0.04-0.16-0.05-0.17-0.05 0 0.01 0.15 0.09 0.07 0.05 0.18 0.1 0.11 0.05 0.25 0.09 0.13 0.04 0.3 0.09zm-4.96 1.35q0.09 0.05 0.2 0.09 0.11 0.05 0.22 0.1 0.24 0.08 0.5 0.14 0.13 0.02 0.26 0.05 0.13 0.02 0.26 0.02 0.12 0.01 0.24 0.01 0.11 0.01 0.21-0.01c0.27-0.03 0.44-0.07 0.44-0.07 0 0-0.18-0.03-0.44-0.04q-0.19-0.02-0.43-0.06-0.24-0.03-0.5-0.09-0.12-0.02-0.24-0.06-0.13-0.03-0.25-0.06-0.23-0.07-0.42-0.12-0.19-0.06-0.3-0.1-0.11-0.04-0.11-0.04c0 0 0.13 0.12 0.36 0.24z"/>
				<path id="&lt;Path&gt;" class="s0" d="m156.96 12.81c0 0-1.26-2.57 1.04-4.63q0 0 0 0c2.3 2.06 1.04 4.63 1.04 4.63 3.14-2.25 4.44 0.75 4.44 0.75-3.51-1.3-5.38 3.33-5.48 3.57v0.01q0 0 0 0v-0.01c-0.09-0.24-1.97-4.87-5.48-3.57 0 0 1.3-3 4.44-0.75z"/>
				<path id="&lt;Path&gt;" class="s0" d="m157.57 29.38c0 0-0.53 1.07 0.43 1.93 0.96-0.86 0.43-1.93 0.43-1.93 1.31 0.94 1.86-0.31 1.86-0.31-1.47 0.54-2.25-1.39-2.29-1.49q0 0 0 0 0 0 0 0c-0.04 0.1-0.82 2.03-2.28 1.49 0 0 0.53 1.25 1.85 0.31z"/>
				<path id="&lt;Compound Path&gt;" fill-rule="evenodd" class="s0" d="m175.59 24.01c-0.35 4.54-5.52 7.15-9.74 6.89-3.8-0.24-8.44-3.3-7.94-9.04 0.43-5.06 3.12-5.92 3.77-6.07 0.64-0.16 1.36-0.16 1.98 0.18q0.48 0.26 0.75 0.73c0.16 0.31 0.23 0.66 0.22 0.97 0.01 0.67-0.33 1.3-0.83 1.63-0.49 0.34-1.09 0.43-1.6 0.27q-0.18-0.06-0.34-0.17l-0.08-0.06-0.06-0.05q-0.08-0.07-0.13-0.14-0.21-0.32-0.2-0.65c0-0.42 0.23-0.75 0.45-0.92 0.22-0.18 0.44-0.23 0.59-0.26q0.22-0.03 0.22-0.02 0-0.01-0.22 0.05c-0.13 0.05-0.33 0.13-0.51 0.32-0.19 0.17-0.34 0.48-0.31 0.82q0.03 0.27 0.2 0.48 0.04 0.05 0.09 0.09l0.06 0.05q0.02 0.01 0.06 0.03 0.13 0.07 0.27 0.11c0.4 0.09 0.89 0 1.26-0.29 0.38-0.28 0.61-0.77 0.6-1.28q-0.01-0.4-0.19-0.74-0.18-0.33-0.54-0.52c-0.47-0.24-1.07-0.27-1.63-0.14-0.56 0.13-2.77 0.86-3.4 4.47-0.2 1.11-0.05 2.82 0.58 3.66 0.81 1.08 1.52 1.05 2.01 1.71 0.5 0.65 0.48 1.5 1.69 1.63 1.21 0.13 1.93-0.42 1.97-1.11 0 0 1.06 0.52 0.56 1.97 0 0 2.45 0.2 3.4-1.21 0.95-1.41 0.09-2.43-0.63-2.48 0 0 1.95-1 2.99 0.76 0 0 0.99-1.02 1.14-2.87 0.16-1.84-1.57-2.1-2.66-1.56 0 0 0.44-1.5 1.97-1.39 0 0-0.39-1.74-2.66-1.48-2.12 0.24-3.04 1.92-2.73 2.89 0.22 0.66 0.64 2.17-0.75 2.11-1.45-0.06-1.88-3.91 2.27-5.5 4.18-1.6 8.37 1.84 8.05 6.13zm-11.04 4.04q0 0-0.08 0.09-0.04 0.04-0.11 0.09-0.06 0.05-0.13 0.11-0.09 0.05-0.18 0.11-0.09 0.05-0.21 0.1-0.1 0.06-0.22 0.1-0.12 0.04-0.23 0.08-0.12 0.05-0.25 0.07-0.13 0.03-0.24 0.06-0.12 0.03-0.23 0.05-0.11 0.01-0.21 0.03c-0.26 0.04-0.44 0.09-0.44 0.09 0 0 0.18 0.04 0.45 0.06q0.1 0.01 0.22 0.01 0.12 0 0.25-0.02 0.12-0.01 0.26-0.03 0.13-0.02 0.26-0.07 0.13-0.05 0.26-0.1 0.13-0.05 0.24-0.13 0.11-0.06 0.2-0.14 0.09-0.09 0.16-0.16 0.07-0.08 0.12-0.16 0.05-0.06 0.07-0.12 0.05-0.12 0.04-0.12zm6.06-0.78q0-0.12-0.02-0.22-0.02-0.11-0.03-0.21-0.04-0.1-0.07-0.2-0.06-0.18-0.15-0.33-0.08-0.15-0.17-0.26-0.09-0.11-0.15-0.18-0.16-0.13-0.16-0.12c0 0 0.16 0.25 0.28 0.64q0.04 0.16 0.07 0.33 0.02 0.08 0.03 0.17 0 0.1 0.01 0.19c0.02 0.13-0.01 0.26-0.01 0.39-0.03 0.12-0.03 0.26-0.07 0.39q-0.04 0.19-0.12 0.39-0.07 0.19-0.15 0.36-0.08 0.18-0.16 0.34-0.09 0.16-0.17 0.3-0.16 0.28-0.26 0.45-0.1 0.17-0.1 0.17 0 0 0.15-0.12c0.1-0.08 0.25-0.2 0.39-0.37q0.11-0.12 0.23-0.27 0.12-0.16 0.22-0.34 0.12-0.18 0.2-0.39 0.09-0.21 0.15-0.43c0.04-0.15 0.04-0.3 0.06-0.45q0.01-0.12 0-0.23zm3.76-3.56q-0.02-0.09-0.02-0.18-0.02-0.19-0.05-0.41-0.04-0.21-0.11-0.44-0.07-0.23-0.17-0.46-0.11-0.23-0.25-0.45-0.14-0.21-0.31-0.4-0.17-0.19-0.37-0.34-0.18-0.15-0.38-0.26-0.2-0.1-0.37-0.17-0.18-0.07-0.33-0.1-0.15-0.03-0.26-0.04-0.23-0.02-0.23-0.02c0 0 0.32 0.11 0.72 0.36q0.15 0.1 0.31 0.22 0.16 0.12 0.32 0.27 0.16 0.15 0.31 0.33 0.14 0.17 0.27 0.37 0.12 0.19 0.23 0.39c0.06 0.14 0.14 0.27 0.19 0.41q0.07 0.21 0.15 0.4 0.05 0.2 0.11 0.38 0.06 0.17 0.09 0.32 0.02 0.14 0.05 0.25 0.06 0.21 0.06 0.22 0.01-0.01 0.02-0.23 0.01-0.11 0.01-0.26 0-0.08 0.01-0.16z"/>
				<path id="&lt;Path&gt;" class="s0" d="m182.82 20.01q0 0 0.13-0.32 0.12-0.31 0.33-0.9 0.1-0.3 0.22-0.65 0.12-0.37 0.24-0.78 0.24-0.83 0.43-1.87 0.19-1.05 0.15-2.24c-0.04-0.78-0.19-1.6-0.57-2.32-0.36-0.74-0.98-1.34-1.75-1.7q-0.57-0.28-1.22-0.4-0.63-0.11-1.26-0.01c-0.83 0.13-1.6 0.57-2.08 1.23-0.25 0.32-0.42 0.71-0.5 1.08l-0.04 0.17-0.02 0.14q-0.02 0.15-0.02 0.29-0.01 0.29 0.05 0.56 0.12 0.55 0.53 0.9c0.25 0.23 0.58 0.38 0.91 0.41q0.12 0.02 0.23 0.01 0.06-0.01 0.11-0.02c0 0 0.03 0 0 0h0.01 0.01l0.04-0.01 0.03-0.01q0.19-0.08 0.38-0.25c0.22-0.23 0.4-0.52 0.49-0.81q0.13-0.45-0.01-0.84c-0.09-0.26-0.27-0.49-0.46-0.64q-0.31-0.23-0.64-0.19-0.33 0.05-0.56 0.24c-0.31 0.25-0.44 0.56-0.48 0.78q-0.03 0.16-0.03 0.24 0 0.09 0 0.09 0 0-0.02-0.09-0.01-0.08-0.01-0.25c0.01-0.23 0.09-0.58 0.4-0.91 0.15-0.16 0.37-0.31 0.65-0.38 0.27-0.07 0.61-0.02 0.9 0.15q0.43 0.26 0.68 0.77c0.17 0.35 0.21 0.76 0.12 1.17q-0.12 0.61-0.57 1.11-0.22 0.26-0.57 0.44-0.06 0.02-0.11 0.04l-0.03 0.01h-0.02l-0.01 0.01h-0.03q-0.09 0.03-0.18 0.04-0.19 0.03-0.37 0.02c-0.49-0.02-0.97-0.2-1.37-0.53-0.39-0.32-0.69-0.78-0.83-1.29q-0.1-0.39-0.09-0.78-0.01-0.19 0.02-0.39l0.03-0.2 0.03-0.16q0.17-0.79 0.63-1.44 0.48-0.65 1.17-1.07 0.7-0.4 1.49-0.52 0.79-0.12 1.56 0.03 0.76 0.15 1.44 0.5c0.91 0.46 1.65 1.24 2.06 2.12 0.4 0.88 0.51 1.81 0.51 2.65-0.01 0.85-0.14 1.64-0.31 2.35q-0.27 1.05-0.61 1.87-0.32 0.82-0.6 1.39-0.28 0.57-0.44 0.86-0.16 0.3-0.17 0.3z"/>
				<path id="&lt;Path&gt;" class="s0" d="m235.72 16.43q0-0.01 0.05-0.23 0.03-0.11 0.1-0.26 0.07-0.14 0.17-0.31 0.11-0.16 0.26-0.33 0.15-0.16 0.35-0.31 0.21-0.16 0.45-0.27 0.24-0.12 0.51-0.18 0.26-0.06 0.53-0.07 0.26 0 0.52 0.03 0.24 0.06 0.45 0.12 0.21 0.09 0.38 0.18 0.17 0.08 0.3 0.18 0.12 0.09 0.21 0.17 0.17 0.14 0.17 0.15-0.01 0-0.24-0.01-0.11-0.01-0.25-0.03-0.14-0.03-0.32-0.03-0.18-0.02-0.36-0.03-0.2 0-0.4 0-0.2 0.01-0.41 0.02c-0.13 0.04-0.27 0.04-0.4 0.08q-0.21 0.05-0.4 0.12-0.19 0.06-0.37 0.15-0.18 0.09-0.35 0.19-0.16 0.09-0.3 0.19-0.3 0.2-0.47 0.33-0.17 0.14-0.18 0.15z"/>
				<path id="&lt;Path&gt;" class="s0" d="m235.72 16.42q0 0-0.11-0.21-0.06-0.1-0.13-0.23-0.07-0.13-0.16-0.27-0.09-0.15-0.19-0.31-0.1-0.15-0.22-0.31-0.12-0.15-0.25-0.3-0.13-0.14-0.27-0.28c-0.09-0.09-0.21-0.16-0.3-0.25q-0.16-0.11-0.32-0.23-0.17-0.09-0.33-0.2-0.16-0.09-0.32-0.17-0.15-0.1-0.28-0.16-0.13-0.07-0.23-0.13-0.2-0.12-0.21-0.13 0.01 0 0.23-0.07 0.11-0.04 0.27-0.07 0.16-0.04 0.35-0.04 0.2 0 0.44 0.02 0.22 0.05 0.47 0.11 0.24 0.1 0.49 0.22 0.23 0.15 0.44 0.34 0.21 0.19 0.37 0.43 0.15 0.23 0.25 0.47 0.1 0.24 0.14 0.47 0.05 0.23 0.05 0.43-0.01 0.41-0.09 0.64-0.08 0.23-0.09 0.23z"/>
				<path id="&lt;Path&gt;" class="s0" d="m237.36 10.59c-3.16 2.51-1.6 5.65-1.6 5.65 0 0 2.97-1.85 1.6-5.65z"/>
				<path id="&lt;Path&gt;" class="s0" d="m188.87 22.07q0.15-0.06 0.31-0.13c0.3-0.15 0.61-0.34 0.87-0.61 0.26-0.27 0.47-0.62 0.55-1.02q0.03-0.15 0.04-0.31c0-0.08-0.01-0.21-0.03-0.31q-0.07-0.34-0.3-0.59c-0.32-0.32-0.76-0.43-1.15-0.44h-0.07q-0.06 0-0.08 0-0.07 0-0.14 0.01l-0.16 0.03-0.15 0.05q-0.31 0.11-0.5 0.37c-0.25 0.33-0.3 0.8-0.05 1.13 0.15 0.17 0.3 0.23 0.47 0.28q0.26 0.07 0.49 0 0.25-0.08 0.39-0.26 0.13-0.16 0.15-0.37c0.02-0.28-0.17-0.46-0.32-0.53-0.16-0.08-0.29-0.06-0.38-0.05q-0.13 0.04-0.13 0.04 0 0 0.13-0.02 0.14-0.02 0.35 0.1c0.12 0.08 0.25 0.25 0.21 0.44-0.04 0.18-0.23 0.39-0.45 0.43q-0.17 0.03-0.36-0.04c-0.12-0.03-0.26-0.11-0.31-0.19-0.14-0.2-0.1-0.54 0.08-0.75q0.13-0.17 0.35-0.24l0.11-0.03 0.11-0.02q0.06-0.01 0.13 0c0.02-0.01 0.06-0.01 0.06-0.01l0.06 0.01c0.33 0.01 0.66 0.11 0.88 0.33q0.16 0.17 0.21 0.39c0.02 0.08 0.02 0.14 0.02 0.24q0 0.11-0.02 0.24-0.1 0.49-0.44 0.86c-0.38 0.43-0.89 0.69-1.35 0.86-3.27-0.67-6.12 2.46-9.03 5.48-2.92 3.03-6.49 4.22-6.49 4.22 2.16 0.04 5.82-2.52 7.53-2.35 1.7 0.17 1.01 1.5 1.01 1.5 0 0 1.34-0.67 1.3-2.17-0.04-1.5-0.95-1.46-0.95-1.46 0.45-0.61 1.8-1.65 2.83-1.48 1.04 0.18 1.04 1.65 1.04 1.65 1.86-2.51-0.56-3.6-0.56-3.6 0 0 0.93-1.31 3.48-0.83 2.55 0.48 2.21 3.2 1.15 3.96-1.06 0.75-2.05-0.11-1.45-0.61 0.18-0.15 0.4-0.64 0.02-0.97-0.33-0.29-0.7-0.2-1.04 0.25-0.33 0.46-0.68 1.5 0.37 2.12 1.28 0.76 2.69-0.27 3.25-1.4 0.64-1.31 0.24-3.5-2.04-4.2z"/>
				<path id="&lt;Compound Path&gt;" fill-rule="evenodd" class="s0" d="m209.53 27.35c-1.49 1.24-2.85-0.17-2.85-0.17-0.88 3.25-5.05 4.32-6.63 4.48-2.2 0.21-2.91 3.08-2.91 3.08-2.11-2.64-0.39-4.49-0.39-4.49-5.59-2.68-4.76-7.65-4.4-9.54 0.37-1.89-0.3-2.6-0.3-2.6 1-0.28 1.6 0.53 1.6 0.53 4.33-3.05 7.14 1.17 7.14 1.17 0 0-3.07-1.69-4.67 1.09-1.6 2.78 0.21 6.26 0.21 6.26-0.04-3.08 2.6-2.8 2.6-2.8-1.56 1.41-0.14 4.07 2.2 3.47 2.14-0.54 3.38-2.36 3.38-2.36-2.46-0.07-2.59-2.61-2.59-2.61 2.55 1.87 3.92-0.31 3.72-1.96-0.23-1.9-1.69-4.56-6.15-5.6-4.46-1.05-9.77 2.47-9.77 2.47 0 0 3.68-3.61 9.04-3.6 6.69 0.01 9.28 5.58 9.05 9.43-0.16 2.67 1.72 3.75 1.72 3.75zm-2.75-5.43c-0.04-0.63-0.14-1.16-0.25-1.6q-0.18-0.65-0.33-0.98-0.14-0.34-0.14-0.34 0 0 0.12 0.35 0.11 0.34 0.25 0.99 0.14 0.66 0.16 1.59 0.01 0.92-0.23 2.03c-0.16 0.73-0.44 1.5-0.86 2.25-0.42 0.74-0.98 1.45-1.69 2.03q-0.54 0.44-1.18 0.75-0.64 0.3-1.34 0.46l-0.35 0.07-0.36 0.04q-0.18 0.02-0.36 0.02-0.17 0.01-0.36 0-0.74-0.02-1.46-0.18c-0.96-0.2-1.86-0.63-2.59-1.25-0.73-0.61-1.27-1.42-1.6-2.27-0.33-0.86-0.45-1.76-0.41-2.61q0.04-0.64 0.21-1.21c0.09-0.37 0.27-0.74 0.45-1.06 0.35-0.66 0.78-1.2 1.24-1.59 0.46-0.4 0.94-0.63 1.37-0.75 0.42-0.12 0.76-0.15 1-0.14q0.36 0.01 0.36 0.03 0-0.02-0.36-0.06c-0.24-0.02-0.59-0.03-1.03 0.07-0.44 0.1-0.96 0.31-1.47 0.69-0.51 0.38-0.99 0.93-1.38 1.6-0.2 0.34-0.38 0.68-0.52 1.11q-0.2 0.6-0.26 1.28c-0.08 0.9 0.03 1.87 0.37 2.8 0.34 0.93 0.91 1.82 1.71 2.5 0.79 0.68 1.77 1.15 2.8 1.37q0.77 0.17 1.55 0.18c0.52 0 1.06-0.03 1.56-0.15q0.76-0.17 1.45-0.51 0.68-0.36 1.24-0.84c0.76-0.63 1.34-1.41 1.75-2.2 0.42-0.79 0.67-1.6 0.81-2.37 0.15-0.76 0.17-1.48 0.13-2.1z"/>
				<path id="&lt;Compound Path&gt;" fill-rule="evenodd" class="s0" d="m249.03 15.03c-1.01 2.76-3.87 2.96-8.47 2.18-3-0.51-5.11 1.06-6.21 2.23q-0.44 1.15-1.22 2.11c-1.24 3.11-4.29 3.51-4.29 3.51 0.75 0.52 2.67 0.01 2.67 0.01-4.93 3.61-10.47 0.4-10.47 0.4 0.61 1.49 2.6 1.73 2.6 1.73-3.83 0.71-7.22-1.29-8.37-2.07q0.27 0.63 0.38 1.36c0.11 0.76 0.05 1.58-0.27 2.35-0.31 0.77-0.9 1.49-1.76 1.8-0.84 0.3-1.79 0.2-2.53-0.27q-0.56-0.36-0.9-0.91-0.16-0.27-0.28-0.56l-0.03-0.07-0.03-0.08q-0.02-0.05-0.04-0.13-0.05-0.16-0.07-0.31c-0.07-0.41-0.05-0.85 0.12-1.25 0.17-0.39 0.47-0.71 0.83-0.9q0.26-0.14 0.56-0.18 0.14-0.02 0.3-0.01h0.06l0.09 0.01q0.08 0.01 0.15 0.04c0.38 0.13 0.66 0.39 0.83 0.68 0.17 0.3 0.24 0.64 0.2 0.95-0.04 0.31-0.18 0.57-0.34 0.77-0.17 0.21-0.42 0.35-0.66 0.37-0.24 0.03-0.44-0.05-0.6-0.15-0.31-0.2-0.43-0.47-0.48-0.65q-0.02-0.14-0.02-0.21 0-0.07 0-0.07 0 0 0.01 0.07 0.02 0.07 0.06 0.19c0.07 0.16 0.23 0.38 0.52 0.51q0.22 0.1 0.47 0.05 0.25-0.06 0.42-0.32 0.17-0.27 0.19-0.6 0.01-0.34-0.2-0.63c-0.14-0.19-0.34-0.35-0.56-0.4q-0.04-0.01-0.08-0.01l-0.03-0.01h-0.06q-0.07 0.01-0.17 0.03-0.18 0.04-0.35 0.14c-0.22 0.14-0.4 0.35-0.49 0.6q-0.14 0.38-0.04 0.84 0.02 0.11 0.05 0.22 0.02 0.05 0.04 0.12c0.01 0.02 0.02 0.05 0.02 0.05l0.03 0.06q0.09 0.23 0.22 0.43 0.26 0.41 0.67 0.66c0.54 0.34 1.26 0.44 1.87 0.22q0.45-0.16 0.81-0.52 0.35-0.37 0.56-0.84c0.28-0.63 0.36-1.34 0.3-2.01-0.06-0.68-0.27-1.32-0.54-1.89q-0.42-0.88-0.95-1.54-0.24-0.31-0.49-0.59c-1.02-0.61-1.89-1.27-2.65-1.89-0.82-0.66-1.49-1.29-2.05-1.8q-0.83-0.77-1.3-1.17-0.23-0.19-0.35-0.29-0.13-0.09-0.13-0.09 0 0 0.13 0.08 0.14 0.08 0.38 0.26 0.51 0.35 1.4 1.05c0.6 0.47 1.32 1.04 2.17 1.65q0.63 0.46 1.37 0.92 0.74 0.48 1.58 0.92c1.13 0.59 2.41 1.11 3.8 1.5q1.05 0.28 2.18 0.45 1.13 0.16 2.31 0.21 1.19 0.05 2.41-0.04 1.21-0.09 2.42-0.33c1.6-0.33 3.18-0.94 4.45-1.95 0.63-0.49 1.2-1.08 1.62-1.75 0.44-0.67 0.74-1.42 0.87-2.18q0.11-0.58 0.05-1.13-0.06-0.53-0.31-1.02c-0.32-0.64-0.88-1.15-1.54-1.46-0.65-0.32-1.38-0.45-2.11-0.47q-0.28 0-0.53 0.01-0.15 0.01-0.28 0.03-0.13 0.01-0.25 0.03-0.52 0.09-0.96 0.31c-0.59 0.28-1.04 0.77-1.25 1.34-0.21 0.57-0.18 1.22 0.09 1.68 0.05 0.08 0.15 0.19 0.26 0.28q0.16 0.13 0.34 0.23 0.37 0.21 0.77 0.3c0.53 0.12 1.06 0.07 1.45-0.18 0.4-0.24 0.65-0.66 0.77-1.05 0.13-0.41 0.07-0.81-0.12-1.11-0.18-0.31-0.45-0.5-0.7-0.62q-0.4-0.16-0.71-0.16-0.3 0.01-0.45 0.06-0.15 0.05-0.15 0.05 0 0 0.15-0.06 0.15-0.07 0.45-0.1c0.2-0.02 0.46-0.01 0.75 0.09 0.29 0.1 0.61 0.29 0.84 0.62 0.23 0.33 0.35 0.82 0.24 1.3q-0.08 0.36-0.28 0.7-0.21 0.35-0.57 0.62c-0.49 0.34-1.14 0.44-1.76 0.33q-0.48-0.07-0.94-0.3-0.22-0.11-0.44-0.27c-0.14-0.11-0.27-0.23-0.4-0.41-0.42-0.65-0.47-1.47-0.24-2.22 0.23-0.76 0.81-1.43 1.54-1.82q0.55-0.29 1.16-0.41 0.16-0.03 0.31-0.06 0.16-0.02 0.3-0.03 0.31-0.03 0.62-0.04c0.82-0.01 1.69 0.13 2.49 0.5 0.81 0.37 1.56 0.99 2.01 1.84q0.34 0.63 0.44 1.36 0.08 0.71-0.05 1.4-0.01 0.08-0.03 0.17c2.88-2.65 7.34-2.32 8.39-2.29 1.1 0.04 1.82-1.27 2.5-1.66 0.68-0.39 1.82-0.03 1.92 0.82 0.09 0.84-1.66 1.17-1.66 1.17 1.92 0.13 3.25-1.43 3.25-1.43zm-28.35 11.59q-0.15-0.04-0.3-0.12-0.16-0.07-0.33-0.15-0.17-0.07-0.35-0.16-0.17-0.1-0.34-0.2-0.18-0.09-0.35-0.21-0.16-0.11-0.32-0.21-0.15-0.11-0.29-0.22-0.14-0.1-0.25-0.2-0.24-0.2-0.37-0.32-0.13-0.12-0.14-0.13c0 0 0.16 0.22 0.46 0.5q0.11 0.11 0.24 0.22 0.14 0.12 0.29 0.24 0.15 0.11 0.32 0.22 0.16 0.12 0.34 0.22 0.18 0.1 0.35 0.19 0.18 0.1 0.37 0.17 0.17 0.07 0.33 0.13 0.17 0.07 0.32 0.1c0.39 0.11 0.65 0.17 0.65 0.17 0 0-0.25-0.1-0.63-0.24zm7.97-0.68q-0.01 0-0.2 0.02-0.09 0.01-0.21 0.01-0.13 0.01-0.28 0.01-0.16 0-0.34-0.01-0.18-0.01-0.37-0.02-0.39-0.04-0.8-0.12-0.41-0.08-0.79-0.19-0.38-0.1-0.68-0.2-0.31-0.12-0.49-0.18-0.02 0-0.04 0 0.16 0.1 0.5 0.24 0.3 0.13 0.68 0.25 0.38 0.12 0.79 0.21 0.42 0.07 0.82 0.1 0.2 0.01 0.38 0.01 0.18-0.01 0.34-0.02 0.15-0.02 0.28-0.03 0.13-0.02 0.22-0.04 0.18-0.04 0.19-0.04z"/>
				<g id="&lt;Group&gt;">
					<path id="&lt;Path&gt;" class="s0" d="m226.64 17.93q0.19 0.14 0.4 0.25 0.25 0.12 0.52 0.2 0 0 0 0-0.27-0.1-0.51-0.23-0.2-0.12-0.38-0.26c-0.12-0.1-0.24-0.23-0.31-0.34q-0.07-0.12-0.12-0.25-0.05 0-0.1-0.01 0.06 0.15 0.16 0.3c0.09 0.14 0.19 0.23 0.34 0.34z"/>
					<path id="&lt;Path&gt;" class="s0" d="m229.23 17.44c0.6-1.02-0.52-1.61-0.52-1.61 0.83 1.25-0.36 1.68-1.81 1.56q0.05 0.05 0.1 0.1 0.14 0.12 0.3 0.2 0.33 0.18 0.71 0.28 0.34 0.07 0.65 0.04 0.36-0.22 0.57-0.57z"/>
					<path id="&lt;Compound Path&gt;" fill-rule="evenodd" class="s0" d="m226.33 18.35q0.04 0.03 0.09 0.06c-1.73-0.12-3.92-0.91-5.78-2.17-3.29-2.23-5.72-5.42-12.83-6.5 0 0 9.15-1.21 12.43 3.5 0 0 0.31-1.43 2.09-2.27 1.41-0.67 3.85-0.05 4.79 1.32 0 0-1.98-1.14-3.24 0.09-1.27 1.24-1.44 2.78 0.16 4.05 0.37 0.3 0.92 0.54 1.5 0.71q0.11 0.4 0.32 0.74c0.16 0.22 0.32 0.35 0.47 0.47zm-3.73-6.06q0.16-0.14 0.33-0.25 0.17-0.11 0.32-0.19 0.32-0.17 0.52-0.24 0.2-0.07 0.2-0.07 0-0.01-0.22 0.02-0.21 0.03-0.56 0.15-0.17 0.06-0.36 0.16-0.19 0.1-0.37 0.24-0.1 0.06-0.19 0.15-0.09 0.07-0.17 0.17l-0.16 0.18q-0.07 0.11-0.14 0.21c-0.1 0.14-0.14 0.3-0.21 0.45q-0.07 0.24-0.11 0.47-0.02 0.23-0.02 0.44 0 0.21 0.04 0.4 0.01 0.18 0.06 0.32 0.04 0.14 0.07 0.24 0.07 0.21 0.07 0.21 0 0-0.02-0.22-0.01-0.1-0.03-0.25-0.01-0.14-0.01-0.32 0-0.18 0.01-0.37 0.02-0.2 0.05-0.41 0.06-0.21 0.12-0.42c0.07-0.14 0.11-0.28 0.2-0.4l0.13-0.19 0.14-0.18q0.14-0.16 0.31-0.3z"/>
				</g>
				<path id="&lt;Compound Path&gt;" fill-rule="evenodd" class="s0" d="m227.7 21.18c0 0-5.22 3.75-10.77 1.53-5.55-2.21-13.44-10.88-20.61-9.05-7.17 1.82-10.44 6.28-12.85 8.74-2.4 2.47-8.21 9.61-15.48 9.25 0 0 4.38-0.5 7.82-3.22 3.44-2.72 4.84-4.57 5-7.28 0.16-2.7-3.6-3.62-4.15-0.29 0 0-0.85-3.16 1.3-4.37 2.14-1.2 5.38-0.06 5.35 2.54 0 0 3.6-2.44 3.86-6.94 0.26-4.5-6.07-6.71-8.89-5.96-2.82 0.75-5.83 1.53-6.76 5.21-0.93 3.69 2.6 4.11 3.39 3.1 0 0-1.73 2.8-4.97 0.91-3.24-1.89-0.62-10.75 10.74-10.89 0 0-0.39-2.7 3.77-4.46 0 0-1.76 2.35 0.61 4.53 2.37 2.18 4.19 2.57 4.51 4.53 0.33 1.95-0.19 5.12-2.82 7.43 0 0 8.08-7.01 4.7-9.58 0 0 2.96 0.13 2.7 2.9 0 0 4.35-3.1 11.29-0.52 0 0-7.62-1.47-15.67 4.99 0 0 6.68-4.64 14.21-3.62 2.47 0.33 4.7 1.16 6.75 2.28q-0.22 0.14-0.48 0.28-0.2 0.1-0.41 0.2-0.22 0.09-0.45 0.17-0.23 0.08-0.46 0.15-0.23 0.05-0.46 0.11-0.22 0.04-0.44 0.08-0.21 0.03-0.39 0.04-0.38 0.04-0.6 0.04-0.23 0-0.24 0 0.01 0 0.23 0.04 0.22 0.05 0.61 0.09 0.18 0.02 0.41 0.03 0.21 0 0.45 0.01 0.25-0.01 0.5-0.02 0.25-0.03 0.51-0.06 0.26-0.04 0.51-0.09 0.25-0.06 0.49-0.13 0.48-0.15 0.86-0.32 0.13-0.06 0.25-0.12c1.91 1.15 3.68 2.54 5.37 3.99q-0.06 0.04-0.14 0.08-0.32 0.18-0.76 0.34-0.22 0.09-0.46 0.16-0.24 0.07-0.49 0.12-0.24 0.06-0.49 0.09-0.25 0.04-0.49 0.06-0.24 0.02-0.47 0.02-0.22 0.01-0.41 0-0.2 0-0.36-0.02-0.15-0.01-0.27-0.03-0.23-0.02-0.24-0.02 0.01 0 0.23 0.07 0.11 0.03 0.27 0.08 0.16 0.04 0.35 0.08 0.19 0.05 0.42 0.09 0.23 0.03 0.48 0.06 0.24 0.02 0.51 0.04 0.26 0.01 0.54 0 0.27-0.01 0.54-0.04 0.27-0.02 0.52-0.07 0.51-0.09 0.92-0.22 0.35-0.11 0.58-0.21c0.93 0.82 2.35 1.84 3.91 2.58q-0.04 0.03-0.09 0.07-0.33 0.22-0.72 0.4-0.2 0.09-0.39 0.16-0.2 0.07-0.4 0.13-0.2 0.05-0.38 0.08-0.18 0.04-0.35 0.06-0.16 0.03-0.3 0.03-0.13 0.01-0.23 0.01-0.2 0.01-0.2 0.01 0 0 0.2 0.03 0.1 0.01 0.23 0.02 0.14 0.02 0.31 0.02 0.16 0.01 0.36 0 0.19 0 0.4-0.02 0.21-0.02 0.43-0.06 0.22-0.04 0.45-0.1 0.45-0.12 0.85-0.31 0.2-0.09 0.38-0.19 0.05-0.03 0.1-0.06c1.84 0.75 3.81 1.06 5.37 0.21zm-20.9-8.8q0.14-0.12 0.13-0.13 0 0.01-0.16 0.09-0.07 0.03-0.18 0.07-0.11 0.04-0.25 0.07-0.14 0.03-0.3 0.07-0.16 0.02-0.34 0.04-0.08 0.02-0.17 0.03-0.1 0.01-0.19 0.01-0.19 0.01-0.38 0.02-0.19 0.02-0.37 0-0.19 0-0.37 0-0.18 0-0.35 0-0.16-0.02-0.31-0.02-0.29-0.02-0.47-0.02-0.17 0-0.18 0 0.01 0 0.17 0.05 0.17 0.05 0.46 0.11 0.15 0.04 0.31 0.07 0.17 0.03 0.35 0.04 0.19 0.02 0.38 0.03 0.19 0.01 0.39 0 0.2-0.01 0.4-0.03 0.09-0.01 0.19-0.02 0.09-0.02 0.18-0.04 0.19-0.04 0.35-0.08 0.16-0.06 0.3-0.12 0.14-0.05 0.24-0.13 0.1-0.06 0.17-0.11zm3.18 3.77c0.21 0.02 0.43 0.07 0.66 0.07q0.17 0 0.34 0 0.17 0 0.33-0.02 0.15-0.02 0.3-0.05 0.14-0.04 0.27-0.07 0.12-0.04 0.22-0.08 0.09-0.04 0.16-0.08 0.13-0.09 0.13-0.09-0.01 0-0.15 0.04-0.07 0.02-0.17 0.03-0.1 0.02-0.23 0.03-0.12 0.01-0.26 0.03-0.14 0-0.29 0.01-0.31 0.01-0.64-0.01-0.17 0-0.33-0.02-0.16-0.01-0.31-0.02-0.16-0.01-0.3-0.02-0.14-0.02-0.27-0.03c-0.33-0.04-0.56-0.04-0.56-0.04 0 0 0.21 0.09 0.54 0.18q0.12 0.04 0.26 0.08 0.14 0.03 0.3 0.06zm2.19 1.03q0.21-0.02 0.41-0.05 0.2-0.02 0.39-0.07 0.38-0.1 0.66-0.24 0.28-0.14 0.43-0.24 0.14-0.12 0.14-0.12c0 0-0.24 0.12-0.62 0.22q-0.29 0.09-0.66 0.15-0.18 0.04-0.37 0.05-0.19 0.03-0.39 0.03-0.19 0.01-0.39 0.01-0.19 0-0.37-0.01-0.19-0.02-0.36-0.04-0.16-0.02-0.32-0.04-0.14-0.02-0.26-0.04-0.13-0.02-0.21-0.04-0.18-0.03-0.18-0.03 0 0 0.16 0.08c0.12 0.04 0.27 0.12 0.46 0.18q0.15 0.05 0.32 0.09 0.17 0.03 0.36 0.07 0.19 0.02 0.4 0.04 0.2 0 0.4 0zm2.79 2.86q0.17 0.05 0.35 0.07 0.19 0.02 0.37 0.04 0.19 0.02 0.37 0.02 0.19 0 0.37-0.01 0.17-0.01 0.33-0.03 0.16-0.02 0.3-0.05 0.28-0.05 0.44-0.11 0.15-0.05 0.15-0.06 0 0.01-0.16 0.01-0.17 0.01-0.45 0.02-0.14 0-0.29 0-0.16 0-0.33 0-0.17-0.02-0.35-0.02-0.18 0-0.36-0.03-0.18-0.01-0.36-0.03-0.17-0.02-0.34-0.05-0.17-0.03-0.32-0.05-0.16-0.01-0.29-0.05-0.27-0.06-0.44-0.09-0.16-0.02-0.17-0.02 0.01 0 0.16 0.07 0.15 0.07 0.41 0.18 0.13 0.06 0.28 0.1 0.16 0.05 0.33 0.09zm3.63 0.74q0.14-0.04 0.25-0.09 0.11-0.05 0.18-0.1 0.15-0.08 0.15-0.09-0.01 0-0.17 0.05-0.08 0.02-0.19 0.04-0.11 0.03-0.25 0.04-0.14 0.02-0.3 0.04-0.15 0.02-0.33 0.02-0.18 0.01-0.36 0.01-0.18-0.01-0.36-0.01-0.19 0-0.37-0.02-0.19-0.02-0.36-0.03-0.18-0.02-0.34-0.03-0.16-0.03-0.3-0.04-0.28-0.04-0.45-0.06-0.17-0.01-0.18-0.01 0 0 0.16 0.06 0.16 0.06 0.44 0.15 0.14 0.05 0.3 0.09 0.16 0.04 0.34 0.07 0.18 0.02 0.36 0.05 0.19 0.03 0.38 0.03 0.2 0 0.39 0 0.19 0 0.37-0.03 0.18-0.02 0.34-0.05 0.17-0.05 0.3-0.09zm5.03 1.2q-0.01 0-0.12 0.04-0.11 0.04-0.3 0.1-0.19 0.05-0.42 0.12-0.12 0.03-0.24 0.06-0.12 0.04-0.25 0.06-0.26 0.06-0.5 0.09-0.24 0.04-0.43 0.06c-0.26 0.01-0.44 0.04-0.44 0.04 0 0 0.17 0.04 0.44 0.07q0.1 0.02 0.22 0.01 0.11 0 0.23-0.01 0.13 0 0.26-0.02 0.13-0.03 0.26-0.05 0.26-0.06 0.5-0.14 0.12-0.05 0.22-0.1 0.11-0.04 0.19-0.09c0.24-0.12 0.38-0.24 0.38-0.24z"/>
			</g>
			<g id="&lt;Group&gt;">
				<path id="&lt;Compound Path&gt;" fill-rule="evenodd" class="s0" d="m140.41 167.99c0.35-4.54 5.52-7.15 9.74-6.89 3.8 0.24 8.44 3.3 7.95 9.04-0.44 5.06-3.13 5.92-3.78 6.07-0.64 0.16-1.36 0.16-1.99-0.18-0.3-0.17-0.57-0.42-0.73-0.73-0.17-0.31-0.24-0.66-0.23-0.97-0.01-0.66 0.33-1.3 0.83-1.63 0.49-0.34 1.1-0.43 1.6-0.27q0.18 0.06 0.34 0.17l0.08 0.05 0.07 0.06q0.07 0.07 0.12 0.14c0.15 0.21 0.2 0.44 0.2 0.65 0 0.42-0.23 0.74-0.45 0.92-0.22 0.18-0.44 0.23-0.59 0.26q-0.21 0.03-0.22 0.02 0.01 0.01 0.22-0.05c0.13-0.05 0.33-0.13 0.52-0.32 0.18-0.17 0.33-0.48 0.3-0.82q-0.02-0.27-0.2-0.48-0.04-0.05-0.09-0.09l-0.06-0.05q-0.02-0.01-0.06-0.03-0.13-0.07-0.27-0.11c-0.4-0.09-0.89 0-1.26 0.29-0.38 0.28-0.61 0.77-0.59 1.28q0 0.4 0.18 0.74 0.18 0.33 0.54 0.52c0.47 0.24 1.07 0.27 1.63 0.14 0.56-0.13 2.77-0.86 3.4-4.47 0.2-1.11 0.05-2.82-0.58-3.66-0.81-1.08-1.51-1.06-2.01-1.71-0.5-0.65-0.48-1.5-1.69-1.63-1.21-0.13-1.93 0.42-1.97 1.11 0 0-1.06-0.52-0.56-1.97 0 0-2.45-0.2-3.4 1.21-0.95 1.41-0.09 2.43 0.63 2.48 0 0-1.95 1-2.99-0.76 0 0-0.99 1.02-1.14 2.87-0.15 1.85 1.58 2.1 2.66 1.56 0 0-0.44 1.5-1.97 1.39 0 0 0.39 1.74 2.66 1.48 2.12-0.24 3.05-1.93 2.73-2.89-0.22-0.66-0.64-2.17 0.75-2.11 1.45 0.06 1.89 3.91-2.27 5.5-4.18 1.6-8.37-1.84-8.05-6.13zm11.04-4.04q0-0.01 0.09-0.09 0.04-0.04 0.09-0.09 0.07-0.05 0.15-0.11 0.08-0.05 0.17-0.11c0.06-0.05 0.13-0.06 0.21-0.1q0.1-0.06 0.22-0.1 0.12-0.04 0.24-0.08 0.11-0.05 0.24-0.07 0.12-0.03 0.24-0.06 0.12-0.03 0.23-0.05 0.11-0.01 0.21-0.03c0.26-0.04 0.44-0.09 0.44-0.09 0 0-0.18-0.04-0.45-0.06q-0.1-0.01-0.22-0.01-0.12 0-0.24 0.02-0.13 0.01-0.27 0.03-0.13 0.02-0.26 0.07-0.13 0.05-0.26 0.1-0.13 0.05-0.23 0.13-0.12 0.06-0.21 0.14-0.09 0.09-0.16 0.16-0.07 0.08-0.12 0.16-0.05 0.06-0.07 0.12-0.05 0.12-0.04 0.12zm-6.06 0.78q0 0.11 0.02 0.22 0.02 0.11 0.03 0.21 0.04 0.1 0.07 0.19 0.06 0.2 0.15 0.34 0.08 0.15 0.17 0.26 0.08 0.11 0.16 0.18 0.15 0.13 0.16 0.12c0 0-0.17-0.25-0.29-0.64q-0.04-0.16-0.07-0.33-0.02-0.08-0.03-0.18 0-0.09-0.01-0.18 0-0.19 0.02-0.39c0.02-0.13 0.02-0.26 0.07-0.39q0.04-0.2 0.11-0.39 0.07-0.19 0.15-0.36 0.08-0.18 0.17-0.34 0.08-0.16 0.16-0.3 0.16-0.28 0.27-0.45 0.1-0.17 0.1-0.18-0.01 0.01-0.16 0.13c-0.1 0.08-0.25 0.2-0.39 0.36q-0.11 0.13-0.23 0.28-0.12 0.15-0.22 0.34-0.12 0.18-0.2 0.39-0.09 0.2-0.14 0.43c-0.05 0.15-0.05 0.31-0.07 0.46q-0.01 0.11 0 0.22zm-3.75 3.57q0.01 0.08 0.01 0.17 0.02 0.19 0.05 0.41 0.05 0.21 0.11 0.44 0.07 0.23 0.17 0.46 0.11 0.23 0.25 0.45 0.15 0.21 0.31 0.4 0.18 0.19 0.37 0.34 0.19 0.15 0.38 0.26 0.19 0.1 0.37 0.17 0.18 0.07 0.33 0.1 0.15 0.03 0.26 0.04 0.23 0.02 0.23 0.02c0 0-0.31-0.11-0.72-0.36q-0.15-0.1-0.31-0.22-0.16-0.12-0.32-0.27-0.16-0.15-0.31-0.33-0.14-0.17-0.27-0.37-0.12-0.19-0.23-0.39c-0.06-0.14-0.14-0.27-0.19-0.41q-0.07-0.21-0.15-0.4-0.05-0.2-0.11-0.38-0.05-0.17-0.08-0.32-0.04-0.14-0.06-0.25-0.06-0.21-0.06-0.22 0 0.01-0.02 0.23 0 0.11-0.01 0.26 0 0.08 0 0.17z"/>
				<path id="&lt;Path&gt;" class="s0" d="m133.18 171.99q0 0-0.13 0.32-0.12 0.32-0.33 0.9-0.1 0.3-0.22 0.66-0.11 0.35-0.23 0.77-0.25 0.83-0.43 1.87-0.2 1.05-0.16 2.24c0.04 0.78 0.19 1.6 0.57 2.32 0.37 0.74 0.98 1.34 1.74 1.71q0.59 0.27 1.23 0.39 0.63 0.11 1.27 0.01c0.82-0.13 1.59-0.57 2.08-1.23 0.24-0.32 0.41-0.71 0.49-1.08l0.04-0.17 0.02-0.14q0.02-0.15 0.02-0.29 0.01-0.3-0.05-0.56-0.12-0.55-0.52-0.9c-0.26-0.23-0.59-0.38-0.92-0.41q-0.12-0.02-0.23-0.01-0.06 0.01-0.12 0.02c0.01 0-0.02 0 0.01 0h-0.01-0.01l-0.04 0.01-0.03 0.01c-0.12 0.05-0.26 0.14-0.37 0.25-0.23 0.23-0.41 0.52-0.5 0.81q-0.13 0.45 0.01 0.84c0.09 0.26 0.27 0.5 0.46 0.64 0.19 0.15 0.43 0.22 0.64 0.19q0.33-0.05 0.56-0.24c0.31-0.25 0.44-0.56 0.48-0.77q0.04-0.17 0.03-0.25 0-0.09 0-0.09 0 0 0.02 0.09 0.01 0.08 0.01 0.25c-0.01 0.23-0.09 0.58-0.4 0.91-0.16 0.16-0.37 0.32-0.65 0.38-0.27 0.07-0.61 0.02-0.9-0.15q-0.43-0.26-0.68-0.77c-0.16-0.34-0.21-0.77-0.12-1.16q0.13-0.62 0.57-1.12 0.22-0.25 0.57-0.44 0.06-0.02 0.11-0.04l0.03-0.01 0.02-0.01h0.01l0.03-0.01q0.09-0.02 0.18-0.03 0.19-0.03 0.37-0.02c0.49 0.02 0.97 0.2 1.37 0.53 0.39 0.32 0.7 0.78 0.83 1.29q0.1 0.39 0.09 0.78 0 0.19-0.02 0.39l-0.03 0.2-0.03 0.16q-0.17 0.79-0.63 1.44-0.48 0.65-1.17 1.07-0.7 0.4-1.49 0.52-0.79 0.12-1.56-0.03-0.76-0.14-1.44-0.5c-0.91-0.46-1.65-1.24-2.05-2.12-0.41-0.88-0.52-1.81-0.52-2.66 0.01-0.84 0.14-1.63 0.31-2.34 0.17-0.71 0.4-1.33 0.61-1.87q0.32-0.82 0.6-1.39 0.28-0.57 0.45-0.86 0.16-0.3 0.16-0.3z"/>
				<path id="&lt;Path&gt;" class="s0" d="m80.28 175.57q0.01 0.01-0.05 0.23-0.04 0.11-0.1 0.26-0.06 0.14-0.17 0.31-0.11 0.16-0.26 0.33-0.15 0.16-0.35 0.32-0.21 0.15-0.45 0.26-0.24 0.12-0.5 0.18-0.27 0.06-0.54 0.07-0.27 0-0.51-0.03-0.24-0.06-0.46-0.12-0.21-0.09-0.38-0.18-0.17-0.08-0.29-0.18-0.13-0.09-0.21-0.17-0.17-0.14-0.17-0.15 0 0 0.23 0.01 0.11 0.01 0.25 0.03 0.15 0.03 0.32 0.03 0.18 0.01 0.37 0.03 0.19 0 0.39 0 0.21-0.02 0.41-0.03c0.14-0.03 0.28-0.03 0.4-0.07q0.21-0.04 0.4-0.12 0.19-0.06 0.37-0.15 0.18-0.09 0.35-0.19 0.17-0.09 0.31-0.19 0.29-0.2 0.46-0.33 0.18-0.14 0.18-0.15z"/>
				<path id="&lt;Path&gt;" class="s0" d="m80.28 175.58q0 0 0.11 0.21 0.06 0.1 0.13 0.23 0.07 0.13 0.16 0.28 0.09 0.14 0.19 0.3 0.1 0.15 0.22 0.31 0.12 0.15 0.25 0.3 0.13 0.14 0.28 0.28c0.08 0.09 0.2 0.16 0.29 0.25q0.17 0.11 0.32 0.23 0.17 0.09 0.33 0.2 0.16 0.09 0.32 0.17 0.15 0.1 0.28 0.16 0.13 0.07 0.23 0.13 0.2 0.12 0.21 0.12 0 0.01-0.23 0.08-0.11 0.04-0.27 0.07-0.16 0.04-0.35 0.04-0.2 0-0.43-0.02-0.23-0.05-0.48-0.11-0.24-0.09-0.48-0.22-0.23-0.15-0.45-0.34-0.21-0.2-0.37-0.42-0.15-0.24-0.25-0.48-0.1-0.24-0.14-0.47-0.05-0.23-0.05-0.44 0.01-0.4 0.09-0.63 0.08-0.23 0.09-0.23z"/>
				<path id="&lt;Path&gt;" class="s0" d="m78.64 181.41c3.16-2.51 1.59-5.65 1.59-5.65 0 0-2.96 1.85-1.59 5.65z"/>
				<path id="&lt;Path&gt;" class="s0" d="m127.13 169.93q-0.15 0.05-0.31 0.13-0.46 0.21-0.86 0.61c-0.26 0.27-0.48 0.62-0.56 1.02q-0.03 0.14-0.04 0.31-0.01 0.14 0.03 0.32 0.07 0.33 0.31 0.58c0.31 0.32 0.75 0.43 1.14 0.44l0.08 0.01q0.05 0 0.07-0.01 0.07 0 0.14-0.01l0.16-0.03 0.15-0.05q0.31-0.11 0.5-0.37c0.25-0.33 0.3-0.8 0.05-1.13-0.15-0.17-0.31-0.23-0.47-0.28q-0.26-0.07-0.49 0-0.25 0.08-0.39 0.26-0.12 0.16-0.15 0.37c-0.02 0.28 0.17 0.46 0.32 0.53 0.16 0.08 0.3 0.07 0.39 0.05q0.12-0.04 0.12-0.04 0 0.01-0.13 0.02-0.13 0.01-0.34-0.1c-0.13-0.08-0.26-0.25-0.21-0.44 0.03-0.18 0.21-0.39 0.44-0.43q0.18-0.03 0.36 0.03c0.12 0.04 0.26 0.12 0.31 0.2 0.14 0.19 0.1 0.54-0.08 0.75q-0.13 0.17-0.35 0.24l-0.11 0.03-0.11 0.02q-0.06 0.01-0.13 0-0.04 0.01-0.05 0.01l-0.07-0.01c-0.33-0.01-0.66-0.11-0.88-0.33q-0.16-0.17-0.21-0.4-0.02-0.09-0.02-0.23 0-0.11 0.02-0.24c0.06-0.32 0.23-0.62 0.44-0.86 0.38-0.43 0.89-0.69 1.35-0.86 3.27 0.66 6.12-2.46 9.03-5.48 2.93-3.03 6.49-4.22 6.49-4.22-2.16-0.04-5.82 2.52-7.52 2.35-1.71-0.18-1.02-1.5-1.02-1.5 0 0-1.34 0.68-1.3 2.17 0.04 1.5 0.95 1.46 0.95 1.46-0.45 0.6-1.79 1.65-2.83 1.47-1.04-0.17-1.04-1.64-1.04-1.64-1.86 2.51 0.56 3.6 0.56 3.6 0 0-0.93 1.3-3.48 0.83-2.55-0.48-2.21-3.2-1.14-3.96 1.05-0.76 2.04 0.11 1.44 0.61-0.18 0.15-0.4 0.64-0.02 0.97 0.33 0.29 0.7 0.21 1.04-0.26 0.33-0.45 0.68-1.49-0.37-2.11-1.28-0.77-2.69 0.28-3.24 1.4-0.65 1.32-0.25 3.5 2.03 4.2z"/>
				<path id="&lt;Compound Path&gt;" fill-rule="evenodd" class="s0" d="m106.47 164.65c1.49-1.25 2.85 0.17 2.85 0.17 0.88-3.25 5.05-4.33 6.63-4.48 2.2-0.21 2.91-3.08 2.91-3.08 2.11 2.64 0.39 4.49 0.39 4.49 5.59 2.68 4.77 7.65 4.4 9.54-0.37 1.89 0.3 2.6 0.3 2.6-1 0.28-1.6-0.54-1.6-0.54-4.34 3.07-7.14-1.17-7.14-1.17 0 0 3.07 1.7 4.67-1.08 1.6-2.78-0.21-6.26-0.21-6.26 0.04 3.09-2.6 2.8-2.6 2.8 1.56-1.41 0.14-4.08-2.19-3.47-2.15 0.55-3.39 2.36-3.39 2.36 2.47 0.07 2.59 2.61 2.59 2.61-2.55-1.87-3.92 0.31-3.72 1.96 0.23 1.9 1.69 4.56 6.15 5.6 4.45 1.04 9.77-2.48 9.77-2.48 0 0-3.68 3.62-9.04 3.61-6.69-0.01-9.28-5.58-9.05-9.43 0.16-2.67-1.72-3.75-1.72-3.75zm2.75 5.43q0.08 0.94 0.26 1.6 0.17 0.65 0.32 0.98 0.14 0.34 0.14 0.34 0-0.01-0.12-0.35-0.11-0.34-0.25-0.99c-0.08-0.44-0.15-0.97-0.16-1.59q-0.01-0.93 0.23-2.03c0.16-0.73 0.44-1.51 0.86-2.25 0.42-0.74 0.98-1.45 1.7-2.03q0.53-0.44 1.17-0.75 0.64-0.31 1.34-0.46l0.36-0.07 0.35-0.04q0.19-0.02 0.36-0.02 0.17-0.01 0.36 0 0.75 0.01 1.46 0.18c0.96 0.2 1.86 0.63 2.59 1.25 0.73 0.61 1.28 1.42 1.6 2.28 0.33 0.85 0.45 1.75 0.41 2.6q-0.04 0.64-0.21 1.21c-0.09 0.37-0.27 0.74-0.45 1.06q-0.53 1-1.24 1.6c-0.46 0.39-0.94 0.62-1.36 0.74q-0.65 0.16-1.01 0.14-0.36-0.01-0.36-0.02 0 0.01 0.36 0.05c0.24 0.03 0.59 0.03 1.03-0.07 0.44-0.1 0.96-0.31 1.47-0.69 0.51-0.38 0.99-0.93 1.38-1.6 0.2-0.34 0.38-0.68 0.52-1.1q0.2-0.61 0.26-1.29c0.08-0.9-0.03-1.87-0.37-2.8-0.34-0.92-0.91-1.82-1.71-2.5-0.79-0.68-1.77-1.15-2.8-1.37q-0.77-0.17-1.54-0.18-0.8-0.02-1.57 0.15-0.76 0.17-1.44 0.51-0.69 0.35-1.25 0.84c-0.76 0.63-1.33 1.4-1.75 2.2-0.42 0.79-0.67 1.6-0.81 2.37-0.14 0.76-0.17 1.47-0.13 2.1z"/>
				<path id="&lt;Compound Path&gt;" fill-rule="evenodd" class="s0" d="m66.98 176.97c1-2.76 3.86-2.96 8.47-2.18 2.99 0.51 5.1-1.06 6.2-2.23q0.44-1.15 1.22-2.11c1.25-3.11 4.29-3.51 4.29-3.51-0.74-0.52-2.67-0.01-2.67-0.01 4.93-3.61 10.47-0.4 10.47-0.4-0.61-1.49-2.59-1.73-2.59-1.73 3.82-0.71 7.21 1.29 8.36 2.07q-0.27-0.63-0.38-1.36c-0.1-0.75-0.05-1.58 0.27-2.36 0.31-0.75 0.91-1.48 1.76-1.8 0.84-0.29 1.79-0.19 2.53 0.28q0.56 0.36 0.9 0.91 0.17 0.27 0.28 0.56l0.03 0.07 0.03 0.07q0.02 0.07 0.04 0.14 0.05 0.16 0.07 0.31c0.07 0.41 0.05 0.85-0.12 1.25-0.17 0.39-0.47 0.71-0.83 0.9q-0.26 0.14-0.56 0.18-0.14 0.02-0.3 0.01h-0.06l-0.09-0.01q-0.07-0.02-0.15-0.04c-0.38-0.13-0.66-0.38-0.83-0.68-0.17-0.3-0.24-0.64-0.2-0.95 0.04-0.31 0.18-0.57 0.35-0.77 0.16-0.21 0.41-0.35 0.65-0.37 0.24-0.03 0.45 0.05 0.6 0.15 0.31 0.2 0.44 0.47 0.48 0.65q0.03 0.14 0.02 0.21 0 0.07 0 0.07 0 0-0.01-0.07-0.01-0.07-0.06-0.19c-0.07-0.16-0.23-0.38-0.52-0.51q-0.22-0.1-0.47-0.05-0.25 0.06-0.42 0.32-0.17 0.27-0.19 0.6 0 0.34 0.2 0.63c0.14 0.19 0.34 0.35 0.56 0.4q0.04 0 0.08 0.01h0.03l0.06 0.01q0.07-0.01 0.17-0.03 0.18-0.04 0.35-0.14 0.34-0.21 0.5-0.6 0.13-0.38 0.03-0.84-0.02-0.11-0.05-0.22-0.02-0.05-0.04-0.12-0.02-0.04-0.02-0.06l-0.03-0.05q-0.09-0.23-0.22-0.43-0.26-0.41-0.67-0.66c-0.53-0.34-1.26-0.44-1.87-0.23q-0.45 0.17-0.81 0.53-0.35 0.37-0.56 0.84c-0.28 0.63-0.36 1.34-0.3 2.01 0.06 0.68 0.28 1.32 0.54 1.9q0.42 0.87 0.95 1.53 0.25 0.31 0.49 0.58c1.02 0.62 1.89 1.28 2.65 1.9 0.82 0.66 1.49 1.29 2.05 1.8q0.84 0.77 1.3 1.17 0.23 0.19 0.36 0.28 0.12 0.1 0.12 0.1 0 0-0.13-0.08-0.13-0.08-0.38-0.26-0.51-0.35-1.4-1.05c-0.6-0.47-1.32-1.04-2.16-1.65q-0.64-0.46-1.38-0.92-0.74-0.47-1.58-0.92c-1.13-0.59-2.41-1.11-3.8-1.5q-1.05-0.28-2.18-0.45-1.13-0.16-2.31-0.22-1.18-0.04-2.41 0.05-1.21 0.09-2.42 0.33c-1.6 0.33-3.18 0.94-4.45 1.95q-0.97 0.74-1.62 1.75c-0.43 0.68-0.74 1.42-0.87 2.19q-0.11 0.56-0.05 1.12 0.06 0.53 0.31 1.02c0.32 0.64 0.88 1.15 1.54 1.46 0.65 0.32 1.38 0.45 2.11 0.47q0.28 0 0.54-0.01 0.14-0.01 0.27-0.02 0.13-0.02 0.25-0.04 0.52-0.09 0.96-0.31c0.59-0.28 1.04-0.77 1.24-1.34 0.22-0.57 0.19-1.22-0.08-1.68-0.05-0.08-0.15-0.19-0.26-0.28q-0.15-0.13-0.34-0.23-0.37-0.21-0.77-0.3c-0.52-0.12-1.05-0.07-1.45 0.18-0.4 0.24-0.65 0.66-0.77 1.06-0.13 0.4-0.06 0.8 0.12 1.1 0.18 0.31 0.45 0.5 0.71 0.62 0.25 0.12 0.5 0.16 0.7 0.16q0.3-0.01 0.45-0.06 0.15-0.05 0.15-0.05 0 0-0.15 0.06-0.14 0.07-0.45 0.1c-0.2 0.02-0.46 0.01-0.75-0.09-0.28-0.1-0.6-0.29-0.84-0.62-0.23-0.33-0.35-0.81-0.24-1.3q0.08-0.36 0.28-0.7 0.21-0.35 0.57-0.62c0.49-0.34 1.14-0.44 1.77-0.33q0.47 0.08 0.93 0.3 0.22 0.11 0.44 0.27c0.14 0.12 0.27 0.23 0.41 0.41 0.41 0.65 0.47 1.47 0.23 2.22-0.23 0.76-0.81 1.43-1.54 1.82q-0.55 0.29-1.16 0.41-0.16 0.03-0.31 0.06-0.16 0.02-0.29 0.03-0.33 0.03-0.63 0.04c-0.82 0.01-1.68-0.13-2.49-0.5-0.81-0.36-1.56-0.99-2.01-1.84q-0.34-0.62-0.44-1.36-0.07-0.71 0.05-1.4 0.01-0.08 0.03-0.17c-2.88 2.65-7.33 2.32-8.39 2.29-1.1-0.04-1.82 1.27-2.5 1.66-0.68 0.39-1.82 0.03-1.92-0.82-0.09-0.84 1.66-1.17 1.66-1.17-1.91-0.13-3.24 1.43-3.24 1.43zm28.34-11.59q0.15 0.04 0.3 0.11 0.16 0.08 0.33 0.15 0.17 0.08 0.35 0.17 0.17 0.1 0.34 0.2 0.18 0.09 0.35 0.21 0.16 0.11 0.32 0.21 0.15 0.11 0.29 0.22 0.14 0.1 0.25 0.2 0.24 0.2 0.37 0.32 0.14 0.12 0.14 0.13c0 0-0.16-0.22-0.46-0.51q-0.11-0.1-0.24-0.22-0.13-0.11-0.29-0.23-0.15-0.11-0.32-0.22-0.16-0.13-0.34-0.22-0.18-0.1-0.35-0.2-0.18-0.09-0.36-0.16-0.18-0.07-0.34-0.13-0.17-0.07-0.31-0.11c-0.4-0.1-0.66-0.16-0.66-0.16 0 0 0.25 0.1 0.63 0.24zm-7.96 0.68q0 0 0.19-0.02 0.09-0.01 0.22-0.01 0.12-0.01 0.27-0.01 0.16 0 0.34 0.01 0.18 0 0.38 0.02 0.39 0.04 0.79 0.12 0.42 0.08 0.79 0.18 0.38 0.11 0.68 0.21 0.32 0.11 0.49 0.18 0.02 0 0.05 0-0.17-0.09-0.51-0.24-0.29-0.13-0.67-0.25-0.39-0.12-0.8-0.21-0.42-0.07-0.82-0.1-0.2-0.01-0.38-0.01-0.18 0-0.34 0.02-0.15 0.01-0.28 0.03-0.13 0.02-0.21 0.04-0.19 0.03-0.19 0.04z"/>
				<g id="&lt;Group&gt;">
					<path id="&lt;Path&gt;" class="s0" d="m89.36 174.07q-0.19-0.14-0.4-0.25-0.25-0.12-0.51-0.2-0.01 0-0.01 0 0.27 0.1 0.51 0.23 0.2 0.11 0.38 0.26c0.12 0.1 0.24 0.23 0.31 0.34q0.06 0.11 0.12 0.25 0.05 0 0.1 0.01-0.06-0.15-0.15-0.3c-0.1-0.14-0.21-0.23-0.35-0.34z"/>
					<path id="&lt;Path&gt;" class="s0" d="m86.78 174.56c-0.61 1.02 0.51 1.61 0.51 1.61-0.83-1.25 0.36-1.68 1.81-1.56q-0.05-0.05-0.1-0.09-0.14-0.12-0.31-0.21-0.31-0.19-0.7-0.28-0.34-0.07-0.65-0.04-0.36 0.22-0.56 0.57z"/>
					<path id="&lt;Compound Path&gt;" fill-rule="evenodd" class="s0" d="m89.67 173.65q-0.04-0.03-0.08-0.06c1.72 0.13 3.91 0.91 5.77 2.17 3.29 2.23 5.72 5.42 12.83 6.49 0 0-9.15 1.22-12.43-3.5 0 0-0.31 1.44-2.09 2.28-1.41 0.67-3.85 0.05-4.79-1.32 0 0 1.98 1.14 3.25-0.1 1.26-1.23 1.42-2.77-0.17-4.04-0.37-0.3-0.91-0.54-1.5-0.71q-0.11-0.4-0.32-0.74c-0.16-0.22-0.32-0.35-0.47-0.47zm3.73 6.06q-0.16 0.14-0.33 0.25-0.16 0.11-0.32 0.19-0.32 0.17-0.52 0.24-0.2 0.07-0.2 0.08 0 0 0.22-0.03 0.21-0.04 0.56-0.15 0.17-0.07 0.36-0.16 0.19-0.1 0.37-0.23 0.09-0.08 0.19-0.16 0.09-0.07 0.17-0.17l0.16-0.18q0.07-0.11 0.14-0.21c0.1-0.14 0.14-0.3 0.21-0.45q0.08-0.24 0.11-0.47 0.02-0.23 0.03-0.44-0.01-0.22-0.05-0.4-0.01-0.18-0.06-0.32-0.04-0.14-0.07-0.24-0.07-0.21-0.07-0.21 0 0.01 0.02 0.22 0.01 0.1 0.03 0.25 0.02 0.14 0.01 0.32 0 0.17-0.01 0.37-0.03 0.2-0.05 0.41-0.06 0.21-0.13 0.42c-0.06 0.14-0.1 0.28-0.19 0.4l-0.12 0.2-0.15 0.16q-0.14 0.17-0.31 0.31z"/>
				</g>
				<path id="&lt;Compound Path&gt;" fill-rule="evenodd" class="s0" d="m88.29 170.82c0 0 5.23-3.75 10.78-1.53 5.55 2.21 13.44 10.88 20.61 9.05 7.17-1.82 10.44-6.27 12.85-8.74 2.4-2.47 8.21-9.6 15.48-9.24 0 0-4.38 0.49-7.82 3.2-3.44 2.72-4.84 4.58-5 7.29-0.16 2.7 3.6 3.62 4.15 0.29 0 0 0.85 3.16-1.29 4.37-2.15 1.2-5.39 0.06-5.36-2.54 0 0-3.6 2.44-3.86 6.94-0.26 4.5 6.07 6.71 8.89 5.96 2.83-0.74 5.83-1.53 6.76-5.21 0.93-3.69-2.61-4.11-3.39-3.1 0 0 1.72-2.8 4.97-0.91 3.25 1.89 0.62 10.75-10.74 10.88 0 0 0.39 2.71-3.77 4.47 0 0 1.76-2.34-0.61-4.53-2.37-2.19-4.19-2.57-4.51-4.53-0.33-1.95 0.19-5.12 2.82-7.43 0 0-8.08 7.01-4.7 9.58 0 0-2.96-0.13-2.7-2.9 0 0-4.35 3.09-11.29 0.52 0 0 7.62 1.47 15.67-4.99 0 0-6.68 4.64-14.21 3.63-2.47-0.34-4.69-1.17-6.75-2.29q0.22-0.14 0.48-0.27 0.2-0.11 0.41-0.2 0.22-0.1 0.45-0.18 0.23-0.08 0.46-0.15 0.24-0.06 0.46-0.11 0.23-0.04 0.44-0.07 0.21-0.03 0.39-0.05 0.38-0.04 0.61-0.04 0.22 0 0.22 0 0-0.01-0.22-0.04-0.22-0.05-0.61-0.08-0.19-0.03-0.4-0.04-0.23 0-0.46-0.01-0.25 0.01-0.5 0.02-0.25 0.03-0.51 0.06-0.26 0.04-0.51 0.09-0.25 0.06-0.49 0.13-0.48 0.15-0.86 0.32-0.13 0.06-0.25 0.12c-1.91-1.15-3.68-2.53-5.37-3.99q0.06-0.04 0.14-0.08 0.32-0.18 0.77-0.34 0.22-0.09 0.45-0.16 0.24-0.07 0.49-0.12 0.25-0.06 0.49-0.09 0.25-0.04 0.49-0.06 0.24-0.01 0.47-0.02 0.22-0.01 0.42 0 0.19 0.01 0.35 0.02 0.16 0.02 0.27 0.03 0.23 0.02 0.24 0.02-0.01 0-0.23-0.07-0.11-0.03-0.27-0.08-0.15-0.04-0.35-0.08-0.19-0.05-0.42-0.08-0.22-0.04-0.47-0.07-0.25-0.02-0.52-0.04-0.26 0-0.53 0-0.28 0.01-0.54 0.04-0.27 0.02-0.53 0.07-0.51 0.09-0.92 0.22-0.35 0.11-0.58 0.21c-0.93-0.83-2.35-1.84-3.91-2.58q0.04-0.03 0.09-0.07 0.33-0.22 0.72-0.4 0.2-0.09 0.39-0.16 0.21-0.07 0.4-0.13 0.2-0.05 0.38-0.08 0.19-0.04 0.35-0.06 0.16-0.02 0.3-0.03 0.13-0.01 0.23-0.01 0.2-0.01 0.2-0.01 0 0-0.2-0.02-0.1-0.02-0.23-0.03-0.14-0.02-0.31-0.02-0.16-0.01-0.36-0.01-0.19 0.01-0.4 0.03-0.21 0.02-0.43 0.06-0.22 0.04-0.45 0.1-0.44 0.12-0.85 0.31-0.2 0.09-0.38 0.19-0.05 0.03-0.1 0.06c-1.84-0.75-3.8-1.06-5.38-0.21zm20.91 8.8q-0.14 0.12-0.14 0.13 0.01-0.01 0.17-0.09 0.07-0.03 0.18-0.07 0.11-0.04 0.25-0.07 0.14-0.04 0.3-0.07 0.16-0.02 0.34-0.05 0.09-0.01 0.18-0.02 0.08-0.01 0.18-0.01 0.19-0.01 0.38-0.02 0.19-0.02 0.37 0 0.2 0 0.38 0 0.18-0.01 0.34 0.01 0.17 0.01 0.31 0.02 0.29 0.01 0.47 0.01 0.18 0 0.18 0 0-0.01-0.17-0.05-0.17-0.05-0.46-0.11-0.15-0.04-0.31-0.07-0.16-0.03-0.35-0.04-0.19-0.02-0.38-0.03-0.2-0.01-0.39 0-0.2 0.01-0.39 0.03-0.1 0.01-0.2 0.02-0.09 0.02-0.18 0.04-0.18 0.04-0.35 0.09-0.16 0.05-0.3 0.11-0.14 0.06-0.24 0.13-0.1 0.06-0.17 0.11zm-3.18-3.77c-0.21-0.02-0.43-0.07-0.66-0.07q-0.17 0-0.34 0-0.16 0-0.33 0.02-0.15 0.02-0.3 0.05-0.14 0.04-0.27 0.07-0.12 0.04-0.21 0.09-0.1 0.03-0.17 0.07-0.13 0.09-0.12 0.09 0 0 0.14-0.04 0.08-0.02 0.17-0.03 0.1-0.02 0.23-0.03 0.12-0.01 0.26-0.03 0.14 0 0.29 0 0.31-0.02 0.64 0 0.17-0.01 0.33 0.02 0.16 0.01 0.31 0.02 0.16 0.01 0.3 0.03 0.14 0.01 0.27 0.03c0.33 0.03 0.56 0.03 0.56 0.03 0 0-0.21-0.09-0.53-0.18q-0.13-0.04-0.27-0.08-0.14-0.03-0.3-0.06zm-2.19-1.03q-0.21 0.02-0.41 0.05-0.21 0.02-0.39 0.08-0.38 0.09-0.66 0.23-0.28 0.14-0.43 0.25-0.14 0.1-0.14 0.11c0 0 0.24-0.11 0.62-0.22q0.29-0.09 0.66-0.15 0.18-0.03 0.37-0.06 0.19-0.01 0.39-0.03 0.2 0 0.39 0 0.19 0 0.37 0.01 0.19 0.02 0.36 0.03 0.17 0.03 0.31 0.05 0.15 0.02 0.27 0.04 0.12 0.02 0.21 0.04 0.18 0.03 0.18 0.03 0 0-0.17-0.08-0.15-0.08-0.45-0.18-0.15-0.05-0.32-0.09-0.17-0.03-0.36-0.07-0.19-0.02-0.39-0.04-0.21 0-0.41 0zm-2.79-2.86q-0.17-0.05-0.35-0.07-0.18-0.02-0.37-0.04-0.19-0.02-0.37-0.02-0.19 0-0.36 0.01-0.18 0-0.34 0.03-0.16 0.02-0.3 0.05-0.28 0.05-0.43 0.11-0.16 0.05-0.16 0.06 0 0 0.17-0.01 0.16-0.01 0.44-0.02 0.13 0 0.3 0 0.15 0 0.32 0.01 0.17 0 0.35 0.01 0.18 0 0.36 0.03 0.18 0.02 0.35 0.03 0.19 0.01 0.35 0.05 0.17 0.03 0.32 0.04 0.16 0.02 0.29 0.06 0.27 0.06 0.44 0.09 0.16 0.02 0.17 0.02-0.01 0-0.15-0.07-0.15-0.07-0.42-0.19-0.13-0.06-0.28-0.09-0.16-0.05-0.33-0.09zm-3.63-0.74q-0.14 0.04-0.25 0.09-0.11 0.05-0.18 0.09-0.15 0.09-0.15 0.1 0.01-0.01 0.17-0.05 0.08-0.03 0.19-0.05 0.12-0.02 0.25-0.04 0.14-0.01 0.3-0.03 0.16-0.02 0.33-0.02 0.17-0.01 0.36-0.01 0.18 0.01 0.37 0.01 0.18-0.01 0.37 0.02 0.18 0.02 0.35 0.03 0.18 0.01 0.34 0.03 0.16 0.02 0.3 0.05 0.28 0.03 0.46 0.05 0.17 0.01 0.17 0.01 0 0-0.16-0.06-0.16-0.06-0.44-0.15-0.14-0.04-0.3-0.09-0.16-0.04-0.34-0.07-0.17-0.03-0.36-0.05-0.19-0.03-0.38-0.03-0.19 0-0.39-0.01-0.19 0.01-0.37 0.04-0.18 0.02-0.34 0.06-0.17 0.04-0.3 0.08zm-5.02-1.2q0 0 0.11-0.04 0.11-0.04 0.3-0.1 0.19-0.06 0.42-0.12 0.12-0.03 0.25-0.06 0.12-0.04 0.24-0.06 0.26-0.05 0.5-0.09c0.15-0.01 0.31-0.06 0.43-0.06 0.26-0.01 0.44-0.04 0.44-0.04 0 0-0.17-0.04-0.44-0.07q-0.1-0.02-0.21-0.01-0.12 0-0.24 0.01-0.13 0-0.26 0.02-0.13 0.03-0.26 0.05-0.26 0.06-0.5 0.14-0.11 0.04-0.22 0.1-0.11 0.04-0.2 0.09c-0.23 0.12-0.36 0.24-0.36 0.24z"/>
				<path id="&lt;Path&gt;" class="s0" d="m156.96 179.19c0 0-1.26 2.57 1.04 4.63q0 0 0 0 0 0 0 0c2.3-2.06 1.04-4.63 1.04-4.63 3.14 2.25 4.44-0.75 4.44-0.75-3.51 1.3-5.38-3.33-5.48-3.57v-0.01q0 0 0 0 0 0 0 0v0.01c-0.09 0.24-1.97 4.87-5.48 3.57 0 0 1.3 3 4.44 0.75z"/>
				<path id="&lt;Path&gt;" class="s0" d="m157.57 162.62c0 0-0.53-1.08 0.43-1.93q0 0 0 0 0 0 0 0c0.96 0.85 0.43 1.93 0.43 1.93 1.31-0.94 1.86 0.31 1.86 0.31-1.47-0.55-2.25 1.39-2.29 1.49-0.04-0.1-0.82-2.04-2.28-1.49 0 0 0.53-1.25 1.85-0.31z"/>
				<path id="&lt;Compound Path&gt;" fill-rule="evenodd" class="s0" d="m167.54 174.12c-4.15-1.59-3.72-5.44-2.27-5.5 1.39-0.06 0.97 1.45 0.75 2.11-0.31 0.96 0.61 2.65 2.73 2.89 2.27 0.26 2.66-1.48 2.66-1.48-1.53 0.11-1.97-1.39-1.97-1.39 1.09 0.54 2.82 0.29 2.66-1.56-0.15-1.85-1.14-2.87-1.14-2.87-1.04 1.76-2.99 0.76-2.99 0.76 0.72-0.05 1.58-1.07 0.63-2.48-0.95-1.41-3.4-1.21-3.4-1.21 0.5 1.45-0.56 1.97-0.56 1.97-0.04-0.69-0.76-1.24-1.97-1.11-1.21 0.13-1.19 0.98-1.69 1.63-0.49 0.65-1.2 0.63-2.01 1.71-0.63 0.84-0.78 2.55-0.58 3.66 0.63 3.61 2.84 4.34 3.4 4.47 0.56 0.13 1.16 0.1 1.63-0.14q0.36-0.19 0.54-0.52 0.18-0.34 0.19-0.74c0.01-0.51-0.22-1-0.6-1.28-0.37-0.29-0.86-0.38-1.26-0.29q-0.14 0.04-0.27 0.11-0.04 0.02-0.06 0.03l-0.06 0.05q-0.05 0.04-0.09 0.09-0.17 0.21-0.2 0.48c-0.03 0.34 0.12 0.65 0.31 0.82 0.18 0.19 0.38 0.27 0.51 0.32q0.22 0.06 0.22 0.05 0 0.01-0.22-0.02c-0.15-0.03-0.37-0.08-0.59-0.26-0.22-0.18-0.45-0.5-0.45-0.92q-0.01-0.33 0.2-0.65 0.05-0.07 0.13-0.14l0.06-0.06 0.08-0.05q0.16-0.11 0.34-0.17c0.51-0.16 1.11-0.07 1.6 0.27 0.5 0.33 0.84 0.97 0.83 1.63 0.01 0.31-0.06 0.66-0.22 0.97q-0.27 0.47-0.75 0.73c-0.62 0.34-1.34 0.34-1.98 0.18-0.65-0.15-3.34-1.01-3.77-6.07-0.5-5.74 4.14-8.8 7.94-9.04 4.22-0.26 9.39 2.35 9.74 6.89 0.32 4.29-3.87 7.73-8.05 6.13zm-3.03-10.29q-0.02-0.06-0.07-0.12-0.05-0.08-0.12-0.16-0.07-0.07-0.16-0.16-0.09-0.08-0.2-0.14-0.11-0.08-0.24-0.13-0.13-0.05-0.26-0.1-0.13-0.05-0.26-0.07-0.14-0.02-0.26-0.03-0.13-0.02-0.25-0.02-0.12 0-0.22 0.01c-0.27 0.02-0.45 0.06-0.45 0.06 0 0 0.18 0.05 0.44 0.09q0.1 0.02 0.21 0.03 0.11 0.02 0.23 0.05 0.11 0.03 0.24 0.06 0.13 0.02 0.25 0.07 0.11 0.04 0.23 0.08 0.12 0.04 0.22 0.1c0.08 0.04 0.15 0.05 0.21 0.1q0.09 0.06 0.18 0.11 0.07 0.06 0.13 0.11 0.07 0.05 0.11 0.09 0.08 0.08 0.08 0.09 0.01 0-0.04-0.12zm6.1 0.68c-0.02-0.15-0.02-0.31-0.06-0.46q-0.06-0.23-0.15-0.43-0.08-0.21-0.2-0.39-0.1-0.19-0.22-0.34-0.12-0.15-0.23-0.28c-0.14-0.16-0.29-0.28-0.39-0.36q-0.15-0.12-0.15-0.13 0 0.01 0.1 0.18 0.1 0.17 0.26 0.45 0.08 0.14 0.17 0.3 0.08 0.16 0.16 0.34 0.08 0.17 0.15 0.36 0.08 0.19 0.12 0.39c0.04 0.13 0.04 0.26 0.07 0.39 0 0.13 0.03 0.27 0.01 0.39q-0.01 0.09-0.01 0.18-0.01 0.1-0.03 0.18-0.03 0.17-0.07 0.33c-0.12 0.39-0.28 0.64-0.28 0.64q0 0.01 0.16-0.12 0.06-0.07 0.15-0.18 0.09-0.11 0.17-0.26 0.09-0.14 0.15-0.34 0.03-0.09 0.07-0.19 0.01-0.1 0.03-0.21 0.02-0.11 0.02-0.22 0.01-0.11 0-0.22zm3.75 3.62q0-0.15-0.01-0.26-0.01-0.22-0.02-0.23 0 0.01-0.06 0.22-0.03 0.11-0.05 0.25-0.03 0.15-0.09 0.32-0.06 0.18-0.11 0.38-0.08 0.19-0.15 0.4c-0.05 0.14-0.13 0.27-0.19 0.41q-0.11 0.2-0.23 0.39-0.13 0.2-0.27 0.37-0.15 0.18-0.31 0.33-0.16 0.15-0.32 0.27-0.16 0.12-0.31 0.22c-0.4 0.25-0.72 0.36-0.72 0.36q0 0 0.23-0.02 0.11-0.01 0.26-0.04 0.15-0.03 0.33-0.1 0.17-0.07 0.37-0.17 0.2-0.11 0.38-0.26 0.2-0.15 0.37-0.34 0.17-0.19 0.31-0.4 0.14-0.22 0.25-0.45 0.1-0.23 0.17-0.46 0.07-0.23 0.11-0.44 0.03-0.22 0.05-0.41 0-0.09 0.02-0.17-0.01-0.09-0.01-0.17z"/>
				<path id="&lt;Path&gt;" class="s0" d="m182.82 171.99q0 0 0.13 0.32 0.12 0.32 0.33 0.9 0.1 0.3 0.22 0.66 0.12 0.35 0.24 0.77 0.24 0.83 0.43 1.87 0.19 1.05 0.15 2.24c-0.04 0.78-0.19 1.6-0.57 2.32-0.36 0.74-0.98 1.34-1.75 1.71q-0.57 0.27-1.22 0.39-0.63 0.11-1.26 0.01c-0.83-0.13-1.6-0.57-2.08-1.23-0.25-0.32-0.42-0.71-0.5-1.08l-0.04-0.17-0.02-0.14q-0.02-0.15-0.02-0.29-0.01-0.3 0.05-0.56 0.12-0.55 0.53-0.9c0.25-0.23 0.58-0.38 0.91-0.41q0.12-0.02 0.23-0.01 0.06 0.01 0.11 0.02c0 0 0.03 0 0 0h0.01 0.01l0.04 0.01 0.03 0.01c0.12 0.05 0.26 0.14 0.38 0.25 0.22 0.23 0.4 0.52 0.49 0.81q0.13 0.45-0.01 0.84c-0.09 0.26-0.27 0.5-0.46 0.64q-0.31 0.23-0.64 0.19-0.33-0.05-0.56-0.24c-0.31-0.25-0.44-0.56-0.48-0.77q-0.03-0.17-0.03-0.25 0-0.09 0-0.09 0 0-0.02 0.09-0.01 0.08-0.01 0.25c0.01 0.23 0.09 0.58 0.4 0.91 0.15 0.16 0.37 0.32 0.65 0.38 0.27 0.07 0.61 0.02 0.9-0.15q0.43-0.26 0.68-0.77c0.17-0.34 0.21-0.77 0.12-1.16q-0.12-0.62-0.57-1.12-0.22-0.25-0.57-0.44-0.06-0.02-0.11-0.04l-0.03-0.01-0.02-0.01h-0.01l-0.03-0.01q-0.09-0.02-0.18-0.03-0.19-0.03-0.37-0.02c-0.49 0.02-0.97 0.2-1.37 0.53-0.39 0.32-0.69 0.78-0.83 1.29q-0.1 0.39-0.09 0.78-0.01 0.19 0.02 0.39l0.03 0.2 0.03 0.16q0.17 0.79 0.63 1.44 0.48 0.65 1.17 1.07 0.7 0.4 1.49 0.52 0.79 0.12 1.56-0.03 0.76-0.14 1.44-0.5c0.91-0.46 1.65-1.24 2.06-2.12 0.4-0.88 0.51-1.81 0.51-2.66-0.01-0.84-0.14-1.63-0.31-2.34q-0.27-1.06-0.61-1.87-0.32-0.82-0.6-1.39-0.28-0.57-0.44-0.86-0.16-0.3-0.17-0.3z"/>
				<path id="&lt;Path&gt;" class="s0" d="m235.72 175.57q0 0.01 0.05 0.23 0.03 0.11 0.1 0.26 0.07 0.14 0.17 0.31 0.11 0.16 0.26 0.33 0.15 0.16 0.35 0.32 0.21 0.15 0.45 0.26 0.24 0.12 0.51 0.18 0.26 0.06 0.53 0.07 0.26 0 0.52-0.03 0.24-0.06 0.45-0.12 0.21-0.09 0.38-0.18 0.17-0.08 0.3-0.18 0.12-0.09 0.21-0.17 0.17-0.14 0.17-0.15-0.01 0-0.24 0.01-0.11 0.01-0.25 0.03-0.14 0.03-0.32 0.03-0.18 0.01-0.36 0.03-0.2 0-0.4 0-0.2-0.02-0.41-0.03c-0.13-0.03-0.27-0.03-0.4-0.07q-0.21-0.04-0.4-0.12-0.19-0.06-0.37-0.15-0.18-0.09-0.35-0.19-0.16-0.09-0.3-0.19-0.3-0.2-0.47-0.33-0.17-0.14-0.18-0.15z"/>
				<path id="&lt;Path&gt;" class="s0" d="m235.72 175.58q0 0-0.11 0.21-0.06 0.1-0.13 0.23-0.07 0.13-0.16 0.28-0.09 0.14-0.19 0.3-0.1 0.15-0.22 0.31-0.12 0.15-0.25 0.3-0.13 0.14-0.27 0.28c-0.09 0.09-0.21 0.16-0.3 0.25q-0.16 0.11-0.32 0.23-0.17 0.09-0.33 0.2-0.16 0.09-0.32 0.17-0.15 0.1-0.28 0.16-0.13 0.07-0.23 0.13-0.2 0.12-0.21 0.12 0.01 0.01 0.23 0.08 0.11 0.04 0.27 0.07 0.16 0.04 0.35 0.04 0.2 0 0.44-0.02 0.22-0.05 0.47-0.11 0.24-0.09 0.49-0.22 0.23-0.15 0.44-0.34 0.21-0.2 0.37-0.42 0.15-0.24 0.25-0.48 0.1-0.24 0.14-0.47 0.05-0.23 0.05-0.44-0.01-0.4-0.09-0.63-0.08-0.23-0.09-0.23z"/>
				<path id="&lt;Path&gt;" class="s0" d="m237.36 181.41c-3.16-2.51-1.6-5.65-1.6-5.65 0 0 2.97 1.85 1.6 5.65z"/>
				<path id="&lt;Path&gt;" class="s0" d="m188.87 169.93q0.15 0.05 0.31 0.13c0.3 0.15 0.61 0.34 0.87 0.61 0.26 0.27 0.47 0.62 0.55 1.02q0.03 0.14 0.04 0.31 0.01 0.14-0.03 0.32-0.07 0.33-0.3 0.58c-0.32 0.32-0.76 0.43-1.15 0.44l-0.07 0.01q-0.06 0-0.08-0.01-0.07 0-0.14-0.01l-0.16-0.03-0.15-0.05q-0.31-0.11-0.5-0.37c-0.25-0.33-0.3-0.8-0.05-1.13 0.15-0.17 0.3-0.23 0.47-0.28q0.26-0.07 0.49 0 0.25 0.08 0.39 0.26 0.13 0.16 0.15 0.37c0.02 0.28-0.17 0.46-0.32 0.53-0.16 0.08-0.29 0.07-0.38 0.05q-0.13-0.04-0.13-0.04 0 0.01 0.13 0.02 0.14 0.01 0.35-0.1c0.12-0.08 0.25-0.25 0.21-0.44-0.04-0.18-0.23-0.39-0.45-0.43q-0.17-0.03-0.36 0.03c-0.12 0.04-0.26 0.12-0.31 0.2-0.14 0.19-0.1 0.54 0.08 0.75q0.13 0.17 0.35 0.24l0.11 0.03 0.11 0.02q0.06 0.01 0.13 0c0.02 0.01 0.06 0.01 0.06 0.01l0.06-0.01c0.33-0.01 0.66-0.11 0.88-0.33q0.16-0.17 0.21-0.4 0.02-0.09 0.02-0.23 0-0.11-0.02-0.24-0.1-0.49-0.44-0.86c-0.38-0.43-0.89-0.69-1.35-0.86-3.27 0.66-6.12-2.46-9.03-5.48-2.92-3.03-6.49-4.22-6.49-4.22 2.16-0.04 5.82 2.52 7.53 2.35 1.7-0.18 1.01-1.5 1.01-1.5 0 0 1.34 0.68 1.3 2.17-0.04 1.5-0.95 1.46-0.95 1.46 0.45 0.6 1.8 1.65 2.83 1.47 1.04-0.17 1.04-1.64 1.04-1.64 1.86 2.51-0.56 3.6-0.56 3.6 0 0 0.93 1.3 3.48 0.83 2.55-0.48 2.21-3.2 1.15-3.96-1.06-0.76-2.05 0.11-1.45 0.61 0.18 0.15 0.4 0.64 0.02 0.97-0.33 0.29-0.7 0.21-1.04-0.26-0.33-0.45-0.68-1.49 0.37-2.11 1.28-0.77 2.69 0.28 3.25 1.4 0.64 1.32 0.24 3.5-2.04 4.2z"/>
				<path id="&lt;Compound Path&gt;" fill-rule="evenodd" class="s0" d="m207.81 168.4c0.23 3.85-2.36 9.42-9.05 9.43-5.36 0.01-9.04-3.61-9.04-3.61 0 0 5.31 3.52 9.77 2.48 4.46-1.04 5.92-3.7 6.15-5.6 0.2-1.65-1.17-3.83-3.72-1.96 0 0 0.13-2.54 2.59-2.61 0 0-1.24-1.81-3.38-2.36-2.34-0.61-3.76 2.06-2.2 3.47 0 0-2.64 0.29-2.6-2.8 0 0-1.81 3.48-0.21 6.26 1.6 2.78 4.67 1.08 4.67 1.08 0 0-2.81 4.24-7.14 1.17 0 0-0.6 0.82-1.6 0.54 0 0 0.67-0.71 0.3-2.6-0.36-1.89-1.19-6.86 4.4-9.54 0 0-1.72-1.85 0.39-4.49 0 0 0.71 2.87 2.91 3.08 1.58 0.15 5.75 1.23 6.63 4.48 0 0 1.36-1.42 2.85-0.17 0 0-1.88 1.08-1.72 3.75zm-1.16-0.42c-0.14-0.77-0.39-1.58-0.81-2.37-0.41-0.8-0.99-1.57-1.75-2.2q-0.56-0.49-1.24-0.84-0.69-0.34-1.45-0.51c-0.5-0.12-1.04-0.16-1.56-0.15q-0.78 0.01-1.55 0.18c-1.03 0.22-2.01 0.69-2.8 1.37-0.8 0.68-1.37 1.58-1.71 2.5-0.34 0.93-0.45 1.9-0.37 2.8q0.06 0.68 0.26 1.29c0.14 0.42 0.32 0.76 0.52 1.1 0.39 0.67 0.87 1.22 1.38 1.6 0.51 0.38 1.03 0.59 1.47 0.69 0.44 0.1 0.79 0.1 1.03 0.07q0.36-0.04 0.36-0.05 0 0.01-0.36 0.02-0.36 0.02-1-0.14c-0.43-0.12-0.91-0.35-1.37-0.74q-0.7-0.6-1.24-1.6c-0.18-0.32-0.36-0.69-0.45-1.06q-0.17-0.57-0.21-1.21c-0.04-0.85 0.08-1.75 0.41-2.6 0.33-0.86 0.87-1.67 1.6-2.28 0.73-0.62 1.63-1.05 2.59-1.25q0.72-0.17 1.46-0.18 0.19-0.01 0.36 0 0.18 0 0.36 0.02l0.36 0.04 0.35 0.07q0.7 0.15 1.34 0.46 0.64 0.31 1.18 0.75c0.71 0.58 1.27 1.29 1.69 2.03 0.42 0.74 0.7 1.52 0.86 2.25q0.24 1.1 0.23 2.03-0.02 0.93-0.16 1.59-0.14 0.65-0.25 0.99-0.12 0.34-0.12 0.35 0 0 0.14-0.34 0.15-0.33 0.33-0.98c0.11-0.44 0.21-0.97 0.25-1.6 0.04-0.63 0.02-1.34-0.13-2.1z"/>
				<path id="&lt;Compound Path&gt;" fill-rule="evenodd" class="s0" d="m245.78 175.54c0 0 1.75 0.33 1.66 1.17-0.1 0.85-1.24 1.21-1.92 0.82-0.68-0.39-1.4-1.7-2.5-1.66-1.05 0.03-5.51 0.36-8.39-2.29q0.02 0.09 0.03 0.17 0.13 0.69 0.05 1.4-0.1 0.74-0.44 1.36c-0.45 0.85-1.2 1.48-2.01 1.84-0.8 0.37-1.67 0.51-2.49 0.5q-0.31-0.01-0.62-0.04-0.14-0.01-0.3-0.03-0.15-0.03-0.31-0.06-0.61-0.12-1.16-0.41c-0.73-0.39-1.31-1.06-1.54-1.82-0.23-0.75-0.18-1.57 0.24-2.22 0.13-0.18 0.26-0.29 0.4-0.41q0.22-0.16 0.44-0.27 0.46-0.22 0.94-0.3c0.62-0.11 1.27-0.01 1.76 0.33q0.36 0.27 0.57 0.62 0.2 0.34 0.28 0.7c0.11 0.49-0.01 0.97-0.24 1.3-0.23 0.33-0.55 0.52-0.84 0.62-0.29 0.1-0.55 0.11-0.75 0.09q-0.3-0.03-0.45-0.1-0.15-0.06-0.15-0.06 0 0 0.15 0.05 0.15 0.05 0.45 0.06 0.31 0.01 0.71-0.16c0.25-0.12 0.52-0.31 0.7-0.62 0.19-0.3 0.25-0.7 0.12-1.1-0.12-0.4-0.37-0.82-0.77-1.06-0.39-0.25-0.92-0.3-1.45-0.18q-0.4 0.09-0.77 0.3-0.18 0.1-0.34 0.23c-0.11 0.09-0.21 0.2-0.26 0.28-0.27 0.46-0.3 1.11-0.09 1.68 0.21 0.57 0.66 1.06 1.25 1.34q0.44 0.22 0.96 0.31 0.12 0.02 0.25 0.04 0.13 0.01 0.28 0.02 0.25 0.01 0.53 0.01c0.73-0.02 1.46-0.15 2.11-0.47 0.66-0.31 1.22-0.82 1.54-1.46q0.25-0.49 0.31-1.02 0.06-0.56-0.05-1.12c-0.13-0.77-0.43-1.51-0.87-2.19-0.42-0.67-0.99-1.26-1.62-1.75-1.27-1.01-2.85-1.62-4.45-1.95q-1.21-0.24-2.42-0.33-1.22-0.09-2.41-0.05-1.18 0.06-2.31 0.22-1.13 0.17-2.18 0.45c-1.39 0.39-2.67 0.91-3.8 1.5q-0.84 0.45-1.58 0.92-0.74 0.46-1.37 0.92c-0.85 0.61-1.57 1.18-2.17 1.65q-0.89 0.7-1.4 1.05-0.24 0.18-0.38 0.26-0.13 0.08-0.13 0.08 0 0 0.13-0.1 0.12-0.09 0.35-0.28 0.47-0.4 1.3-1.17c0.56-0.51 1.23-1.14 2.05-1.8 0.76-0.62 1.63-1.28 2.65-1.9q0.25-0.27 0.49-0.58 0.53-0.66 0.95-1.53c0.27-0.58 0.48-1.22 0.54-1.9 0.06-0.67-0.02-1.38-0.3-2.01q-0.21-0.47-0.56-0.84-0.36-0.36-0.81-0.53c-0.61-0.21-1.33-0.11-1.87 0.23q-0.41 0.25-0.67 0.66-0.13 0.2-0.22 0.43l-0.03 0.05q0 0.02-0.02 0.06-0.02 0.07-0.04 0.12-0.03 0.11-0.05 0.22-0.1 0.46 0.04 0.84 0.15 0.39 0.49 0.6 0.17 0.1 0.35 0.14 0.1 0.02 0.17 0.03l0.06-0.01h0.03q0.04-0.01 0.08-0.01c0.22-0.05 0.42-0.21 0.56-0.4q0.21-0.29 0.2-0.63-0.02-0.33-0.19-0.6-0.17-0.26-0.42-0.32-0.25-0.05-0.47 0.05c-0.29 0.13-0.45 0.35-0.52 0.51q-0.04 0.12-0.06 0.19-0.01 0.07-0.01 0.07 0 0 0-0.07 0-0.07 0.02-0.21c0.05-0.18 0.17-0.45 0.48-0.65 0.16-0.1 0.36-0.18 0.6-0.15 0.24 0.02 0.49 0.16 0.66 0.37 0.16 0.2 0.3 0.46 0.34 0.77 0.04 0.31-0.03 0.65-0.2 0.95-0.17 0.3-0.45 0.55-0.83 0.68q-0.07 0.02-0.15 0.04l-0.09 0.01h-0.06q-0.16 0.01-0.3-0.01-0.3-0.04-0.56-0.18c-0.36-0.19-0.66-0.51-0.83-0.9-0.17-0.4-0.19-0.84-0.12-1.25q0.02-0.15 0.07-0.31 0.02-0.07 0.04-0.14l0.03-0.07 0.03-0.07q0.12-0.29 0.28-0.56 0.34-0.55 0.9-0.91c0.74-0.47 1.69-0.57 2.53-0.28 0.86 0.32 1.45 1.05 1.76 1.8 0.32 0.78 0.38 1.61 0.27 2.36q-0.11 0.73-0.38 1.36c1.15-0.78 4.54-2.78 8.37-2.07 0 0-1.99 0.24-2.6 1.73 0 0 5.54-3.21 10.47 0.4 0 0-1.92-0.51-2.67 0.01 0 0 3.05 0.4 4.29 3.51q0.78 0.96 1.22 2.11c1.1 1.17 3.21 2.74 6.21 2.23 4.6-0.78 7.46-0.58 8.47 2.18 0 0-1.33-1.56-3.25-1.43zm-24.47-10.4c0 0-0.26 0.06-0.65 0.16q-0.15 0.04-0.32 0.11-0.16 0.06-0.33 0.13-0.19 0.07-0.37 0.16-0.17 0.1-0.35 0.2-0.18 0.09-0.34 0.22-0.17 0.11-0.32 0.22-0.15 0.12-0.29 0.23-0.13 0.12-0.24 0.22c-0.3 0.29-0.46 0.51-0.46 0.51q0.01-0.01 0.14-0.13 0.13-0.12 0.37-0.32 0.11-0.1 0.25-0.2 0.14-0.11 0.29-0.22 0.16-0.1 0.32-0.21 0.17-0.12 0.35-0.21 0.17-0.1 0.34-0.2 0.18-0.09 0.35-0.17 0.17-0.07 0.33-0.15 0.15-0.07 0.3-0.11c0.38-0.14 0.63-0.24 0.63-0.24zm7.15 0.88q-0.09-0.02-0.22-0.04-0.13-0.02-0.28-0.03-0.16-0.02-0.34-0.02-0.18 0-0.38 0.01-0.4 0.03-0.82 0.1-0.41 0.09-0.79 0.21-0.38 0.12-0.68 0.25-0.34 0.15-0.5 0.24 0.02 0 0.04 0 0.18-0.07 0.49-0.18 0.3-0.1 0.68-0.21 0.38-0.1 0.79-0.18 0.41-0.08 0.8-0.12 0.19-0.02 0.37-0.02 0.18-0.01 0.34-0.01 0.15 0 0.28 0.01 0.12 0 0.21 0.01 0.19 0.02 0.2 0.02-0.01-0.01-0.19-0.04z"/>
				<g id="&lt;Group&gt;">
					<path id="&lt;Path&gt;" class="s0" d="m226.64 174.07q0.19-0.14 0.4-0.25 0.25-0.12 0.52-0.2 0 0 0 0-0.27 0.1-0.51 0.23-0.2 0.11-0.38 0.26c-0.12 0.1-0.24 0.23-0.31 0.34q-0.07 0.11-0.12 0.25-0.05 0-0.1 0.01 0.06-0.15 0.16-0.3c0.09-0.14 0.19-0.23 0.34-0.34z"/>
					<path id="&lt;Path&gt;" class="s0" d="m229.23 174.56c0.6 1.02-0.52 1.61-0.52 1.61 0.83-1.25-0.36-1.68-1.81-1.56q0.05-0.05 0.1-0.09 0.14-0.12 0.3-0.21 0.33-0.19 0.71-0.28 0.34-0.07 0.65-0.04 0.36 0.22 0.57 0.57z"/>
					<path id="&lt;Compound Path&gt;" fill-rule="evenodd" class="s0" d="m225.86 174.12q-0.21 0.34-0.32 0.74c-0.58 0.17-1.13 0.41-1.5 0.71-1.6 1.27-1.43 2.81-0.16 4.04 1.26 1.24 3.24 0.1 3.24 0.1-0.94 1.37-3.38 1.99-4.79 1.32-1.78-0.84-2.09-2.28-2.09-2.28-3.28 4.72-12.43 3.5-12.43 3.5 7.11-1.07 9.54-4.26 12.83-6.49 1.86-1.26 4.05-2.04 5.78-2.17q-0.05 0.03-0.09 0.06c-0.15 0.12-0.31 0.25-0.47 0.47zm-3.57 5.28l-0.14-0.16-0.13-0.2c-0.09-0.12-0.13-0.26-0.2-0.4q-0.06-0.21-0.12-0.42-0.03-0.21-0.05-0.41-0.01-0.2-0.01-0.37 0-0.18 0.01-0.32 0.02-0.15 0.03-0.25 0.02-0.21 0.02-0.22 0 0-0.07 0.21-0.03 0.1-0.07 0.24-0.05 0.14-0.06 0.32-0.04 0.18-0.04 0.4 0 0.21 0.02 0.44 0.04 0.23 0.11 0.47c0.07 0.15 0.11 0.31 0.21 0.45q0.07 0.1 0.14 0.21l0.16 0.18q0.08 0.1 0.17 0.17 0.09 0.08 0.19 0.16 0.18 0.13 0.37 0.23 0.19 0.09 0.36 0.16 0.35 0.11 0.56 0.15 0.22 0.03 0.22 0.03 0-0.01-0.2-0.08-0.2-0.07-0.52-0.24-0.15-0.08-0.32-0.19-0.17-0.11-0.33-0.25-0.17-0.14-0.31-0.31z"/>
				</g>
				<path id="&lt;Compound Path&gt;" fill-rule="evenodd" class="s0" d="m222.33 171.03q-0.05-0.03-0.1-0.06-0.18-0.1-0.38-0.19-0.4-0.19-0.85-0.31-0.23-0.06-0.45-0.1-0.22-0.04-0.43-0.06-0.21-0.02-0.4-0.03-0.2 0-0.36 0.01-0.17 0-0.31 0.02-0.13 0.01-0.23 0.03-0.2 0.02-0.2 0.02 0 0 0.2 0.01 0.1 0 0.23 0.01 0.14 0.01 0.3 0.03 0.17 0.02 0.35 0.06 0.18 0.03 0.38 0.08 0.2 0.06 0.4 0.13 0.19 0.07 0.39 0.16 0.39 0.18 0.72 0.4 0.05 0.04 0.09 0.07c-1.56 0.74-2.98 1.75-3.91 2.58q-0.23-0.1-0.58-0.21-0.41-0.13-0.92-0.22-0.25-0.05-0.52-0.07-0.27-0.03-0.54-0.04-0.28 0-0.54 0-0.27 0.02-0.51 0.04-0.25 0.03-0.48 0.07-0.23 0.03-0.42 0.08-0.19 0.04-0.35 0.08-0.16 0.05-0.27 0.08-0.22 0.07-0.23 0.07 0.01 0 0.24-0.02 0.12-0.01 0.27-0.03 0.16-0.01 0.36-0.02 0.19-0.01 0.41 0 0.23 0.01 0.47 0.02 0.24 0.02 0.49 0.06 0.25 0.03 0.49 0.09 0.25 0.05 0.49 0.12 0.24 0.07 0.46 0.16 0.44 0.16 0.76 0.34 0.08 0.04 0.14 0.08c-1.69 1.46-3.46 2.84-5.37 3.99q-0.12-0.06-0.25-0.12-0.38-0.17-0.86-0.32-0.24-0.07-0.49-0.13-0.25-0.05-0.51-0.09-0.26-0.03-0.51-0.06-0.25-0.01-0.5-0.02-0.24 0.01-0.45 0.01-0.23 0.01-0.41 0.04-0.39 0.03-0.61 0.08-0.22 0.03-0.23 0.04 0.01 0 0.24 0 0.22 0 0.6 0.04 0.18 0.02 0.39 0.05 0.22 0.03 0.44 0.07 0.23 0.05 0.46 0.11 0.23 0.07 0.46 0.15 0.23 0.08 0.45 0.18 0.21 0.09 0.41 0.2 0.26 0.13 0.48 0.27c-2.05 1.12-4.28 1.95-6.75 2.29-7.53 1.01-14.21-3.63-14.21-3.63 8.05 6.46 15.67 4.99 15.67 4.99-6.94 2.57-11.29-0.52-11.29-0.52 0.26 2.77-2.7 2.9-2.7 2.9 3.38-2.57-4.7-9.58-4.7-9.58 2.63 2.31 3.15 5.48 2.82 7.43-0.32 1.96-2.14 2.34-4.51 4.53-2.37 2.19-0.61 4.53-0.61 4.53-4.16-1.76-3.77-4.47-3.77-4.47-11.36-0.13-13.98-8.99-10.74-10.88 3.24-1.89 4.97 0.91 4.97 0.91-0.79-1.01-4.32-0.59-3.39 3.1 0.93 3.68 3.94 4.47 6.76 5.21 2.82 0.75 9.15-1.46 8.89-5.96-0.26-4.5-3.86-6.94-3.86-6.94 0.03 2.6-3.21 3.74-5.35 2.54-2.15-1.21-1.3-4.37-1.3-4.37 0.55 3.33 4.31 2.41 4.15-0.29-0.16-2.71-1.56-4.57-5-7.29-3.44-2.71-7.82-3.2-7.82-3.2 7.27-0.36 13.08 6.77 15.48 9.24 2.41 2.47 5.68 6.92 12.85 8.74 7.17 1.83 15.06-6.84 20.61-9.05 5.55-2.22 10.77 1.53 10.77 1.53-1.56-0.85-3.53-0.54-5.37 0.21zm-15.7 8.48q-0.1-0.07-0.24-0.13-0.14-0.06-0.3-0.11-0.16-0.05-0.35-0.09-0.09-0.02-0.18-0.04-0.1-0.01-0.19-0.02-0.2-0.02-0.4-0.03-0.2-0.01-0.39 0-0.19 0.01-0.38 0.03-0.18 0.01-0.35 0.04-0.16 0.03-0.31 0.07-0.29 0.06-0.46 0.11-0.16 0.04-0.17 0.05 0.01 0 0.18 0 0.18 0 0.47-0.01 0.15-0.01 0.31-0.02 0.17-0.02 0.35-0.01 0.18 0 0.37 0 0.18-0.02 0.37 0 0.19 0.01 0.38 0.02 0.09 0 0.19 0.01 0.09 0.01 0.17 0.02 0.18 0.03 0.34 0.05 0.16 0.03 0.3 0.07 0.14 0.03 0.25 0.07 0.11 0.04 0.18 0.07 0.16 0.08 0.16 0.09 0.01-0.01-0.13-0.13-0.07-0.05-0.17-0.11zm3.05-3.6q-0.14 0.04-0.26 0.08c-0.33 0.09-0.54 0.18-0.54 0.18 0 0 0.23 0 0.56-0.03q0.13-0.02 0.27-0.03 0.14-0.02 0.3-0.03 0.15-0.01 0.31-0.02 0.16-0.03 0.33-0.02 0.33-0.02 0.64 0 0.15 0 0.29 0 0.14 0.02 0.26 0.03 0.13 0.01 0.23 0.03 0.1 0.01 0.17 0.03 0.14 0.04 0.15 0.04 0 0-0.13-0.09-0.07-0.04-0.16-0.07-0.1-0.05-0.22-0.09-0.13-0.03-0.27-0.07-0.15-0.03-0.3-0.05-0.16-0.02-0.33-0.02-0.17 0-0.34 0c-0.23 0-0.45 0.05-0.66 0.07q-0.16 0.03-0.3 0.06zm2.09-1.09q-0.21 0.02-0.4 0.04-0.19 0.04-0.36 0.07-0.17 0.04-0.32 0.09c-0.19 0.06-0.34 0.14-0.46 0.18q-0.16 0.08-0.16 0.08 0 0 0.18-0.03 0.08-0.02 0.21-0.04 0.12-0.02 0.26-0.04 0.16-0.02 0.32-0.05 0.17-0.01 0.36-0.03 0.18-0.01 0.37-0.01 0.2 0 0.39 0 0.2 0.02 0.39 0.03 0.19 0.03 0.37 0.06 0.37 0.06 0.66 0.15c0.38 0.11 0.62 0.22 0.62 0.22q0-0.01-0.14-0.11-0.15-0.11-0.43-0.25-0.28-0.14-0.66-0.23-0.19-0.06-0.39-0.08-0.2-0.03-0.41-0.05-0.2 0-0.4 0zm2.86-2.77q-0.15 0.03-0.28 0.09-0.26 0.12-0.41 0.19-0.15 0.07-0.16 0.07 0.01 0 0.17-0.02 0.17-0.03 0.44-0.09 0.13-0.04 0.29-0.06 0.15-0.01 0.32-0.04 0.17-0.04 0.34-0.05 0.18-0.01 0.36-0.03 0.18-0.03 0.36-0.03 0.18-0.01 0.35-0.01 0.17-0.01 0.33-0.01 0.15 0 0.29 0 0.28 0.01 0.45 0.02 0.16 0.01 0.16 0.01 0-0.01-0.15-0.06-0.16-0.06-0.44-0.11-0.14-0.03-0.3-0.05-0.16-0.03-0.33-0.03-0.18-0.01-0.37-0.01-0.18 0-0.37 0.02-0.18 0.02-0.37 0.04-0.18 0.02-0.35 0.07-0.17 0.04-0.33 0.09zm3.66-0.91q-0.16-0.04-0.34-0.06-0.18-0.03-0.37-0.04-0.19 0.01-0.39 0.01-0.19 0-0.38 0.03-0.18 0.02-0.36 0.05-0.18 0.03-0.34 0.07-0.16 0.05-0.3 0.09-0.28 0.09-0.44 0.15-0.16 0.06-0.16 0.06 0.01 0 0.18-0.01 0.17-0.02 0.45-0.05 0.14-0.03 0.3-0.05 0.16-0.02 0.34-0.03 0.17-0.01 0.36-0.03 0.18-0.03 0.37-0.02 0.18 0 0.36-0.01 0.18 0 0.36 0.01 0.18 0 0.33 0.02 0.16 0.02 0.3 0.03 0.14 0.02 0.25 0.04 0.11 0.02 0.19 0.05 0.16 0.04 0.17 0.05 0-0.01-0.15-0.1-0.07-0.04-0.18-0.09-0.11-0.05-0.25-0.09-0.13-0.04-0.3-0.08zm4.95-1.36q-0.08-0.05-0.19-0.09-0.1-0.06-0.22-0.1-0.24-0.08-0.5-0.14-0.13-0.02-0.26-0.05-0.13-0.02-0.26-0.02-0.12-0.01-0.23-0.01-0.12-0.01-0.22 0.01c-0.27 0.03-0.44 0.07-0.44 0.07 0 0 0.18 0.03 0.44 0.04 0.13 0 0.28 0.05 0.43 0.06q0.24 0.04 0.5 0.09 0.13 0.02 0.25 0.06 0.12 0.03 0.24 0.06 0.23 0.06 0.42 0.12 0.19 0.06 0.3 0.1 0.11 0.04 0.12 0.04c0 0-0.14-0.12-0.38-0.24z"/>
			</g>
		</g>
		<g id="&lt;Group&gt;">
			<path id="&lt;Compound Path&gt;" fill-rule="evenodd" class="s0" d="m64.56 153.99c0-9.48-7.68-17.19-17.11-17.19h-1.49v-81.6h1.49c9.43 0 17.11-7.71 17.11-17.19v-1.49h186.88v1.49c0 9.48 7.68 17.19 17.11 17.19h1.49v81.6h-1.49c-9.43 0-17.11 7.71-17.11 17.19v1.49h-186.88zm202.5-20.13v-75.71c-9.9-0.74-17.82-8.7-18.55-18.63h-181.02c-0.73 9.93-8.65 17.89-18.55 18.63v75.71c9.9 0.74 17.82 8.7 18.55 18.63h181.02c0.73-9.93 8.65-17.89 18.55-18.63z"/>
		</g>
		<g id="&lt;Group&gt;">
			<path id="&lt;Compound Path&gt;" fill-rule="evenodd" class="s0" d="m69.65 149.67c0-9.25-7.73-16.77-17.24-16.77h-0.53v-73.8h0.53c9.51 0 17.24-7.52 17.24-16.77v-0.52h176.7v0.52c0 9.25 7.73 16.77 17.24 16.77h0.52v73.8h-0.52c-9.51 0-17.24 7.52-17.24 16.77v0.52h-176.7zm193.42-17.8v-71.73c-9.66-0.26-17.48-7.87-17.76-17.28h-174.62c-0.28 9.41-8.09 17.02-17.76 17.28v71.73c9.67 0.26 17.48 7.87 17.76 17.28h174.62c0.28-9.41 8.1-17.02 17.76-17.28z"/>
		</g>
		<g id="&lt;Group&gt;">
			<g id="&lt;Group&gt;">
				<path id="&lt;Compound Path&gt;" fill-rule="evenodd" class="s0" d="m17.76 113.62c2.92-7.68 9.96-6.87 10.07-4.2 0.11 2.57-2.66 1.8-3.86 1.4-1.77-0.59-4.84 1.11-5.29 5.03-0.48 4.2 2.71 4.92 2.71 4.92-0.2-2.84 2.54-3.64 2.54-3.64-0.99 2-0.52 5.2 2.86 4.92 3.39-0.28 5.25-2.12 5.25-2.12-3.22-1.92-1.39-5.51-1.39-5.51 0.08 1.31 1.95 2.91 4.54 1.15 2.58-1.75 2.23-6.27 2.23-6.27-2.67 0.92-3.62-1.04-3.62-1.04 1.27-0.08 2.27-1.4 2.02-3.63-0.23-2.24-1.78-2.2-2.98-3.12-1.19-0.92-1.15-2.22-3.12-3.72-1.53-1.16-4.68-1.44-6.71-1.08-6.61 1.18-7.93 5.26-8.17 6.3-0.25 1.03-0.19 2.13 0.26 3q0.34 0.66 0.95 1c0.41 0.23 0.85 0.32 1.35 0.34 0.93 0.03 1.82-0.4 2.33-1.1 0.54-0.68 0.71-1.58 0.54-2.32q-0.07-0.27-0.2-0.51c-0.02-0.03-0.05-0.09-0.06-0.1l-0.08-0.12q-0.07-0.09-0.17-0.17c-0.25-0.21-0.57-0.33-0.88-0.36-0.63-0.06-1.19 0.22-1.51 0.56-0.33 0.34-0.49 0.71-0.57 0.96q-0.12 0.39-0.11 0.4-0.01-0.01 0.05-0.42c0.05-0.26 0.14-0.67 0.47-1.08 0.32-0.41 0.91-0.82 1.69-0.83 0.38-0.01 0.81 0.09 1.17 0.36q0.14 0.1 0.27 0.24l0.1 0.11 0.11 0.16q0.19 0.29 0.31 0.63c0.3 0.93 0.13 2.04-0.49 2.95-0.61 0.93-1.77 1.54-2.99 1.54-0.57 0.01-1.23-0.11-1.78-0.42-0.57-0.31-1.03-0.81-1.34-1.37-0.62-1.15-0.61-2.48-0.33-3.66 0.28-1.2 1.85-6.16 11.11-6.98 10.52-0.92 16.13 7.66 16.55 14.68 0.48 7.79-4.29 17.34-12.61 17.98-7.86 0.6-14.15-7.13-11.22-14.86zm18.84-5.6q0.11-0.04 0.23-0.13 0.13-0.09 0.28-0.21 0.14-0.14 0.29-0.3 0.15-0.17 0.26-0.38c0.08-0.14 0.19-0.27 0.25-0.44q0.08-0.23 0.17-0.47 0.1-0.24 0.13-0.49 0.04-0.25 0.06-0.49 0.04-0.24 0.04-0.45-0.01-0.22-0.03-0.41c-0.04-0.5-0.11-0.82-0.11-0.82 0 0-0.09 0.33-0.16 0.81q-0.03 0.18-0.05 0.38c-0.02 0.14-0.08 0.28-0.1 0.42q-0.06 0.22-0.1 0.45-0.04 0.23-0.13 0.45-0.08 0.22-0.15 0.45c-0.04 0.14-0.13 0.27-0.18 0.4-0.07 0.13-0.11 0.28-0.19 0.38q-0.11 0.17-0.2 0.32-0.1 0.15-0.2 0.26-0.09 0.12-0.16 0.19-0.16 0.16-0.17 0.16 0.01 0.01 0.22-0.08zm-1.23 11.27c0.27-0.04 0.56-0.04 0.83-0.13q0.41-0.09 0.79-0.26 0.39-0.15 0.71-0.36 0.34-0.2 0.62-0.41 0.27-0.23 0.51-0.43c0.31-0.26 0.51-0.54 0.66-0.72q0.23-0.28 0.23-0.29 0 0-0.32 0.19c-0.21 0.11-0.47 0.3-0.82 0.49q-0.26 0.14-0.54 0.31c-0.19 0.11-0.42 0.19-0.63 0.3-0.21 0.12-0.44 0.18-0.67 0.27-0.22 0.1-0.47 0.16-0.71 0.22-0.23 0.08-0.48 0.08-0.72 0.13-0.24 0.01-0.48 0.05-0.71 0.03q-0.16-0.02-0.33-0.02-0.17-0.03-0.33-0.05-0.32-0.06-0.59-0.14c-0.72-0.23-1.18-0.52-1.18-0.52q-0.01 0.01 0.23 0.29c0.08 0.07 0.18 0.19 0.32 0.29q0.19 0.16 0.47 0.32 0.27 0.16 0.62 0.27 0.17 0.06 0.35 0.12 0.19 0.04 0.39 0.06 0.19 0.04 0.4 0.04 0.2 0.01 0.42 0zm-6.65 6.93q0.28-0.01 0.49-0.02 0.4-0.03 0.41-0.03-0.01-0.01-0.41-0.12-0.19-0.04-0.45-0.11-0.27-0.05-0.59-0.16-0.31-0.09-0.68-0.19-0.35-0.15-0.73-0.28c-0.26-0.09-0.49-0.24-0.75-0.35-0.26-0.12-0.49-0.28-0.73-0.43q-0.36-0.23-0.68-0.5c-0.2-0.19-0.42-0.36-0.59-0.56q-0.28-0.3-0.51-0.59-0.21-0.3-0.39-0.58c-0.46-0.75-0.65-1.33-0.65-1.33q-0.01 0.01 0.01 0.42 0.03 0.2 0.09 0.48 0.06 0.28 0.18 0.61 0.12 0.33 0.32 0.69c0.14 0.23 0.27 0.48 0.47 0.71q0.27 0.35 0.61 0.67 0.36 0.31 0.74 0.59c0.28 0.15 0.54 0.32 0.83 0.45q0.42 0.19 0.84 0.32 0.42 0.11 0.81 0.2 0.4 0.05 0.74 0.08 0.17 0.02 0.33 0.03 0.15 0 0.29 0z"/>
				<path id="&lt;Path&gt;" class="s0" d="m8.47 97.91c0 0-4.7 2.34-8.46-1.91h-0.01q0 0 0.01 0-0.01 0-0.01-0.01h0.01c3.76-4.24 8.46-1.91 8.46-1.91-4.12-5.81 1.38-8.2 1.38-8.2-2.39 6.48 6.1 9.94 6.54 10.11h0.02q0 0.01-0.01 0.01 0.01 0 0.01 0h-0.02c-0.44 0.18-8.93 3.64-6.54 10.12 0 0-5.5-2.39-1.38-8.21z"/>
				<path id="&lt;Compound Path&gt;" fill-rule="evenodd" class="s0" d="m28.98 63.52c8.32 0.64 13.09 10.19 12.61 17.98-0.42 7.02-6.03 15.6-16.55 14.68-9.26-0.82-10.83-5.78-11.11-6.98-0.28-1.18-0.29-2.51 0.33-3.66 0.31-0.57 0.77-1.06 1.34-1.37 0.55-0.31 1.21-0.43 1.78-0.42 1.22-0.01 2.38 0.61 2.99 1.54 0.62 0.91 0.79 2.02 0.49 2.94q-0.12 0.35-0.31 0.64l-0.11 0.15-0.1 0.12q-0.13 0.14-0.27 0.24c-0.36 0.26-0.79 0.36-1.17 0.36-0.78-0.01-1.37-0.42-1.69-0.83-0.33-0.42-0.42-0.82-0.47-1.09q-0.06-0.4-0.05-0.41-0.01 0.01 0.11 0.4c0.08 0.25 0.24 0.62 0.57 0.96 0.32 0.34 0.88 0.62 1.51 0.56 0.31-0.03 0.63-0.15 0.88-0.36q0.1-0.08 0.17-0.17l0.08-0.12c0.01-0.02 0.04-0.07 0.06-0.11q0.13-0.23 0.2-0.51c0.17-0.73 0-1.63-0.54-2.31-0.51-0.7-1.4-1.13-2.33-1.1-0.5 0.01-0.94 0.11-1.35 0.34-0.4 0.22-0.73 0.57-0.95 1-0.45 0.86-0.51 1.97-0.26 3 0.24 1.04 1.56 5.12 8.17 6.29 2.03 0.36 5.18 0.09 6.71-1.07 1.97-1.51 1.93-2.8 3.12-3.72 1.2-0.92 2.75-0.88 2.98-3.12 0.25-2.23-0.75-3.55-2.02-3.63 0 0 0.95-1.96 3.62-1.04 0 0 0.35-4.52-2.23-6.28-2.59-1.75-4.46-0.16-4.54 1.16 0 0-1.83-3.59 1.39-5.51 0 0-1.86-1.84-5.25-2.12-3.38-0.28-3.85 2.92-2.86 4.92 0 0-2.74-0.8-2.54-3.64 0 0-3.19 0.72-2.71 4.92 0.45 3.92 3.52 5.62 5.29 5.03 1.2-0.4 3.97-1.17 3.86 1.4-0.11 2.66-7.15 3.47-10.07-4.2-2.93-7.73 3.36-15.47 11.22-14.86zm7.4 20.38q0.01 0 0.17 0.16 0.07 0.07 0.16 0.19 0.1 0.11 0.2 0.26 0.09 0.15 0.2 0.32c0.08 0.1 0.12 0.25 0.19 0.37 0.05 0.14 0.14 0.27 0.18 0.41q0.07 0.22 0.15 0.45 0.09 0.21 0.13 0.45 0.04 0.23 0.1 0.44c0.02 0.15 0.08 0.28 0.1 0.42q0.02 0.21 0.05 0.39c0.07 0.48 0.16 0.81 0.16 0.81 0 0 0.07-0.32 0.11-0.83q0.02-0.19 0.03-0.4 0-0.22-0.04-0.45-0.02-0.24-0.06-0.49-0.03-0.25-0.13-0.49-0.09-0.24-0.17-0.48c-0.06-0.16-0.17-0.29-0.25-0.43q-0.11-0.21-0.26-0.38-0.15-0.17-0.29-0.3-0.15-0.13-0.28-0.21-0.12-0.09-0.23-0.14-0.21-0.08-0.22-0.07zm-1.43-11.19q-0.21 0-0.4 0.03-0.2 0.03-0.39 0.07-0.18 0.06-0.35 0.11-0.35 0.12-0.62 0.28-0.28 0.16-0.47 0.32-0.2 0.16-0.32 0.3c-0.17 0.17-0.23 0.29-0.23 0.29 0 0 0.46-0.31 1.18-0.53q0.27-0.08 0.59-0.14 0.16-0.03 0.33-0.05 0.17-0.01 0.33-0.02c0.23-0.02 0.47 0.03 0.71 0.03 0.24 0.04 0.49 0.05 0.72 0.13 0.24 0.07 0.49 0.11 0.71 0.22 0.23 0.09 0.46 0.15 0.67 0.27 0.21 0.12 0.44 0.19 0.63 0.3q0.28 0.17 0.54 0.31c0.35 0.19 0.61 0.38 0.82 0.49q0.32 0.18 0.32 0.18 0 0-0.23-0.29c-0.15-0.17-0.35-0.45-0.66-0.71q-0.24-0.21-0.51-0.43-0.28-0.22-0.62-0.41-0.32-0.21-0.71-0.36c-0.25-0.12-0.52-0.19-0.79-0.27-0.27-0.08-0.56-0.08-0.83-0.13q-0.22 0-0.42 0.01zm-6.52-6.94q-0.16 0.02-0.33 0.03-0.34 0.04-0.74 0.09-0.39 0.09-0.81 0.2-0.42 0.13-0.84 0.32c-0.29 0.13-0.55 0.3-0.83 0.45q-0.38 0.28-0.74 0.59-0.34 0.32-0.61 0.67c-0.2 0.23-0.33 0.48-0.47 0.71q-0.2 0.36-0.32 0.69-0.12 0.33-0.18 0.61-0.06 0.27-0.09 0.48-0.02 0.41-0.01 0.42c0 0 0.19-0.59 0.65-1.33q0.18-0.28 0.39-0.58 0.23-0.29 0.51-0.59c0.17-0.2 0.39-0.37 0.59-0.56q0.32-0.27 0.68-0.51c0.24-0.13 0.47-0.3 0.73-0.42 0.26-0.11 0.49-0.26 0.75-0.35q0.38-0.14 0.73-0.28 0.37-0.1 0.68-0.2 0.32-0.1 0.59-0.15 0.26-0.07 0.45-0.11 0.4-0.11 0.41-0.11-0.01-0.01-0.41-0.04-0.21-0.01-0.49-0.02-0.14 0-0.29-0.01z"/>
			</g>
			<g id="&lt;Group&gt;">
				<path id="&lt;Compound Path&gt;" fill-rule="evenodd" class="s0" d="m287.02 128.48c-8.32-0.64-13.09-10.19-12.62-17.98 0.44-7.02 6.04-15.6 16.56-14.68 9.27 0.82 10.83 5.78 11.11 6.98 0.28 1.18 0.29 2.51-0.33 3.66-0.3 0.56-0.77 1.06-1.34 1.37-0.55 0.31-1.22 0.43-1.78 0.42-1.22 0-2.38-0.61-2.99-1.54-0.62-0.91-0.79-2.02-0.49-2.95q0.12-0.34 0.31-0.63l0.11-0.16 0.1-0.11q0.13-0.14 0.27-0.24c0.36-0.27 0.79-0.37 1.18-0.36 0.77 0.01 1.36 0.42 1.68 0.83 0.33 0.41 0.42 0.82 0.48 1.08q0.05 0.41 0.04 0.42 0.01-0.01-0.1-0.4c-0.09-0.25-0.25-0.62-0.58-0.96-0.33-0.34-0.88-0.62-1.51-0.56-0.31 0.03-0.63 0.15-0.88 0.36q-0.1 0.08-0.17 0.17l-0.08 0.12q-0.02 0.04-0.06 0.1-0.13 0.24-0.2 0.51c-0.17 0.74 0 1.64 0.54 2.32 0.51 0.7 1.4 1.13 2.33 1.1 0.5-0.02 0.95-0.11 1.35-0.34q0.61-0.34 0.96-1c0.44-0.87 0.5-1.97 0.25-3-0.23-1.04-1.56-5.12-8.17-6.3-2.03-0.36-5.18-0.08-6.71 1.08-1.97 1.5-1.93 2.8-3.12 3.72-1.2 0.92-2.74 0.88-2.98 3.12-0.24 2.23 0.75 3.55 2.02 3.63 0 0-0.95 1.96-3.62 1.04 0 0-0.35 4.52 2.23 6.27 2.59 1.76 4.46 0.16 4.54-1.15 0 0 1.83 3.59-1.39 5.51 0 0 1.87 1.84 5.25 2.12 3.38 0.28 3.85-2.92 2.86-4.92 0 0 2.75 0.8 2.54 3.64 0 0 3.19-0.72 2.71-4.92-0.45-3.92-3.52-5.62-5.29-5.03-1.2 0.4-3.97 1.17-3.86-1.4 0.11-2.67 7.16-3.48 10.07 4.2 2.93 7.73-3.36 15.46-11.22 14.86zm-7.4-20.38q-0.01 0-0.17-0.16-0.07-0.07-0.16-0.19-0.1-0.11-0.2-0.26-0.09-0.15-0.2-0.32c-0.08-0.1-0.12-0.25-0.19-0.38q-0.1-0.19-0.18-0.4-0.07-0.23-0.15-0.45-0.09-0.22-0.13-0.45-0.04-0.23-0.1-0.45-0.05-0.21-0.1-0.42-0.02-0.2-0.05-0.38c-0.07-0.48-0.16-0.81-0.16-0.81 0 0-0.07 0.32-0.11 0.82q-0.02 0.19-0.03 0.41 0 0.21 0.04 0.45 0.03 0.24 0.06 0.49 0.03 0.25 0.13 0.49 0.09 0.24 0.17 0.47c0.06 0.17 0.17 0.3 0.25 0.44 0.09 0.13 0.15 0.27 0.26 0.38q0.15 0.16 0.29 0.3 0.15 0.12 0.28 0.21 0.13 0.09 0.23 0.13 0.21 0.09 0.22 0.08zm1.43 11.19q0.2 0 0.4-0.04 0.2-0.02 0.39-0.06 0.18-0.06 0.36-0.12 0.34-0.11 0.61-0.27 0.28-0.16 0.47-0.32c0.14-0.1 0.24-0.22 0.32-0.29q0.24-0.28 0.23-0.29c0 0-0.45 0.29-1.18 0.52q-0.27 0.08-0.59 0.14-0.16 0.02-0.33 0.05-0.17 0-0.33 0.02c-0.23 0.02-0.47-0.02-0.71-0.03-0.24-0.05-0.49-0.05-0.72-0.13q-0.36-0.08-0.71-0.22c-0.23-0.09-0.46-0.15-0.67-0.27-0.21-0.11-0.43-0.19-0.63-0.3q-0.28-0.17-0.54-0.31c-0.35-0.19-0.61-0.38-0.82-0.49q-0.31-0.19-0.32-0.19 0 0.01 0.23 0.29c0.15 0.18 0.35 0.46 0.66 0.72q0.24 0.2 0.51 0.43 0.28 0.21 0.62 0.41 0.32 0.21 0.71 0.36c0.25 0.12 0.52 0.19 0.79 0.26 0.27 0.09 0.56 0.09 0.84 0.13q0.2 0.01 0.41 0zm6.52 6.93q0.16-0.01 0.33-0.03 0.34-0.03 0.74-0.08 0.39-0.09 0.81-0.2 0.42-0.13 0.84-0.32c0.29-0.13 0.55-0.3 0.83-0.45q0.39-0.28 0.74-0.59 0.34-0.32 0.61-0.67c0.2-0.23 0.33-0.48 0.47-0.71q0.19-0.36 0.32-0.69 0.12-0.33 0.18-0.61 0.06-0.28 0.09-0.48 0.02-0.41 0.01-0.42c0 0-0.19 0.58-0.65 1.33q-0.18 0.28-0.4 0.58-0.22 0.29-0.49 0.59c-0.18 0.2-0.4 0.37-0.6 0.56q-0.32 0.27-0.68 0.5c-0.24 0.15-0.47 0.31-0.73 0.43-0.26 0.11-0.49 0.26-0.75 0.35q-0.38 0.13-0.73 0.28-0.37 0.1-0.68 0.19-0.32 0.11-0.59 0.16-0.26 0.07-0.45 0.11-0.4 0.11-0.41 0.12 0.01 0 0.41 0.03 0.21 0.01 0.49 0.02 0.13 0 0.29 0z"/>
				<path id="&lt;Path&gt;" class="s0" d="m307.53 97.91c0 0 4.71 2.34 8.46-1.91h0.01q0 0 0 0 0 0 0-0.01h-0.01c-3.75-4.24-8.46-1.91-8.46-1.91 4.12-5.81-1.38-8.2-1.38-8.2 2.39 6.48-6.1 9.94-6.54 10.11h-0.02q0 0.01 0.01 0.01-0.01 0-0.01 0h0.02c0.44 0.18 8.93 3.64 6.54 10.12 0 0 5.5-2.39 1.38-8.21z"/>
				<path id="&lt;Compound Path&gt;" fill-rule="evenodd" class="s0" d="m298.24 78.38c-2.91 7.67-9.96 6.86-10.07 4.2-0.11-2.57 2.66-1.8 3.86-1.4 1.77 0.59 4.84-1.11 5.29-5.03 0.48-4.2-2.71-4.92-2.71-4.92 0.21 2.84-2.54 3.64-2.54 3.64 0.99-2 0.52-5.2-2.86-4.92-3.38 0.28-5.25 2.12-5.25 2.12 3.22 1.92 1.39 5.51 1.39 5.51-0.08-1.32-1.95-2.91-4.54-1.16-2.58 1.76-2.23 6.28-2.23 6.28 2.67-0.92 3.62 1.04 3.62 1.04-1.27 0.08-2.26 1.4-2.02 3.63 0.24 2.24 1.78 2.2 2.98 3.12 1.19 0.92 1.15 2.21 3.12 3.72 1.53 1.16 4.68 1.43 6.71 1.07 6.61-1.17 7.94-5.25 8.17-6.29 0.25-1.03 0.19-2.14-0.25-3q-0.35-0.66-0.96-1c-0.4-0.23-0.85-0.33-1.35-0.34-0.93-0.03-1.82 0.4-2.33 1.1-0.54 0.68-0.71 1.58-0.54 2.31q0.07 0.28 0.2 0.51c0.02 0.04 0.05 0.09 0.06 0.11l0.08 0.12q0.07 0.09 0.17 0.17c0.25 0.21 0.57 0.33 0.88 0.36 0.63 0.06 1.18-0.22 1.51-0.56 0.33-0.34 0.49-0.71 0.58-0.96q0.11-0.39 0.1-0.4 0.01 0.01-0.04 0.41c-0.06 0.27-0.15 0.67-0.48 1.09-0.32 0.41-0.91 0.82-1.68 0.83-0.39 0-0.82-0.1-1.18-0.36q-0.14-0.1-0.27-0.24l-0.1-0.12-0.11-0.15q-0.19-0.29-0.31-0.64c-0.3-0.92-0.13-2.03 0.49-2.94 0.61-0.93 1.77-1.55 2.99-1.54 0.56-0.01 1.23 0.11 1.78 0.42 0.57 0.31 1.04 0.8 1.34 1.37 0.62 1.15 0.61 2.48 0.33 3.66-0.28 1.2-1.84 6.16-11.11 6.98-10.52 0.92-16.12-7.66-16.56-14.68-0.47-7.79 4.3-17.34 12.62-17.98 7.86-0.61 14.15 7.13 11.22 14.86zm-18.84 5.59q-0.1 0.05-0.23 0.14-0.13 0.08-0.28 0.21-0.14 0.13-0.29 0.3c-0.11 0.11-0.17 0.24-0.26 0.38-0.08 0.14-0.19 0.27-0.25 0.43q-0.08 0.24-0.17 0.48-0.1 0.24-0.13 0.49-0.03 0.25-0.06 0.49-0.04 0.23-0.04 0.45 0.01 0.21 0.03 0.4c0.04 0.51 0.11 0.83 0.11 0.83 0 0 0.09-0.33 0.16-0.81q0.03-0.18 0.05-0.39 0.05-0.2 0.1-0.42 0.06-0.21 0.1-0.44 0.04-0.24 0.13-0.45 0.08-0.23 0.15-0.45 0.08-0.21 0.18-0.41c0.07-0.12 0.11-0.27 0.19-0.37q0.11-0.17 0.2-0.32 0.1-0.15 0.2-0.26 0.09-0.12 0.16-0.19 0.16-0.16 0.17-0.16-0.01-0.01-0.22 0.07zm1.24-11.27c-0.28 0.05-0.57 0.05-0.84 0.13-0.27 0.08-0.54 0.15-0.79 0.27q-0.39 0.15-0.71 0.36-0.34 0.19-0.62 0.41-0.27 0.22-0.51 0.43c-0.31 0.26-0.51 0.54-0.66 0.71q-0.23 0.29-0.23 0.29 0.01 0 0.32-0.18c0.21-0.11 0.47-0.3 0.82-0.49q0.26-0.14 0.54-0.31c0.2-0.11 0.42-0.18 0.63-0.3 0.21-0.12 0.44-0.18 0.67-0.27 0.23-0.11 0.47-0.15 0.71-0.22 0.23-0.08 0.48-0.09 0.72-0.13 0.24 0 0.48-0.05 0.71-0.03q0.16 0.01 0.33 0.02 0.17 0.02 0.33 0.05 0.32 0.06 0.59 0.14c0.73 0.22 1.18 0.53 1.18 0.53 0 0-0.07-0.12-0.23-0.29q-0.12-0.14-0.32-0.3-0.19-0.16-0.47-0.32-0.27-0.16-0.61-0.28-0.18-0.05-0.36-0.11-0.19-0.04-0.39-0.07-0.2-0.03-0.4-0.03-0.21-0.01-0.41-0.01zm6.64-6.92q-0.28 0.01-0.49 0.02-0.4 0.03-0.41 0.04 0.01 0 0.41 0.11 0.19 0.04 0.45 0.11 0.27 0.05 0.59 0.15 0.31 0.1 0.68 0.2 0.35 0.14 0.73 0.28c0.26 0.09 0.49 0.24 0.75 0.35 0.26 0.12 0.49 0.29 0.73 0.42q0.36 0.24 0.68 0.51c0.2 0.19 0.42 0.36 0.6 0.56q0.27 0.3 0.49 0.59 0.22 0.3 0.4 0.58c0.46 0.74 0.65 1.33 0.65 1.33q0.01-0.01-0.01-0.42-0.03-0.21-0.09-0.48-0.06-0.28-0.18-0.61-0.13-0.33-0.32-0.69c-0.14-0.23-0.27-0.48-0.47-0.71q-0.27-0.35-0.61-0.67-0.35-0.31-0.74-0.59c-0.28-0.15-0.54-0.32-0.83-0.45q-0.42-0.19-0.84-0.32-0.42-0.11-0.81-0.2-0.4-0.05-0.74-0.09-0.17-0.01-0.33-0.03-0.16 0.01-0.29 0.01z"/>
			</g>
		</g>
	</g>
</svg>